<svg xmlns="http://www.w3.org/2000/svg" fill="none" viewBox="0 0 1920 1390">
    <defs/>
    <path fill="url(#paint0_linear)" fill-rule="evenodd"
          d="M-132.317 714.539l331.745-80.178-202.242 245.7c-3.764 4.566-8.855 7.805-14.712 9.006l-88.842 20.228c-7.021 1.639-13.058 5.896-16.858 12.136L-384.188 1343.7s.628-2.16 1.79-6.18c13.704-47.35 101.733-352.377 111.343-407.089 3.779-17.352 3.557-32.54 3.244-47.527-.645-30.465-1.18-60.64 32.146-109.829 29-39.93 78.686-52.601 103.348-58.536zm-137.044 216.225c3.819-17.558 3.588-32.919 3.275-47.896-.322-15.239-.607-30.206 3.292-47.477 3.895-17.249 11.988-36.886 28.542-61.325 28.586-39.339 77.639-51.905 102.338-57.849h.002l326.726-78.965-198.96 241.711m-265.215 51.801c-5.248 29.831-33.555 133.216-60.509 229.026-13.491 47.95-26.656 94.05-36.448 128.16a27020.786 27020.786 0 01-12.704 44.11l254.323-411.527.003-.005c4.047-6.643 10.479-11.173 17.935-12.913l88.87-20.234.019-.004c5.441-1.117 10.194-4.129 13.726-8.413"
          clip-rule="evenodd"/>
    <path fill="url(#paint1_linear)" fill-rule="evenodd"
          d="M2047.04 727.539l-331.75-80.178 202.24 245.7c3.77 4.566 8.86 7.805 14.71 9.006l88.85 20.228c7.02 1.639 13.05 5.896 16.85 12.136l260.97 422.269s-.63-2.16-1.79-6.18c-13.71-47.35-101.74-352.377-111.35-407.089-3.78-17.352-3.55-32.54-3.24-47.527.64-30.465 1.18-60.64-32.15-109.829-29-39.93-78.68-52.601-103.34-58.536zm137.04 216.225c-3.82-17.558-3.59-32.919-3.28-47.896.33-15.239.61-30.206-3.29-47.477-3.89-17.249-11.99-36.886-28.54-61.325-28.59-39.339-77.64-51.905-102.34-57.849l-326.73-78.965 198.96 241.711m265.22 51.801c5.25 29.831 33.55 133.216 60.51 229.026 13.49 47.95 26.65 94.05 36.45 128.16 4.89 17.05 8.95 31.11 11.78 40.9.32 1.13.63 2.2.92 3.21l-254.32-411.527v-.005c-4.05-6.643-10.48-11.173-17.94-12.913l-88.87-20.234-.02-.004c-5.44-1.117-10.19-4.129-13.73-8.413"
          clip-rule="evenodd"/>
    <path fill="url(#paint2_linear)" fill-rule="evenodd"
          d="M644 105.565V-59h2v164.565c0 4.391-1.157 8.705-3.353 12.507L430.108 485.927a25.002 25.002 0 01-16.104 11.871L-83.778 610.975l-.444-1.95 497.783-113.177a23 23 0 0014.815-10.921l212.539-367.856A22.996 22.996 0 00644 105.565z"
          clip-rule="evenodd"/>
    <path fill="url(#paint3_linear)" fill-rule="evenodd"
          d="M1261 105.565V-59h-2v164.565c0 4.391 1.16 8.705 3.35 12.507l212.54 367.855a24.999 24.999 0 0016.11 11.871l497.78 113.177.44-1.95-497.78-113.177a23.034 23.034 0 01-14.82-10.921l-212.53-367.856a22.909 22.909 0 01-3.09-11.506z"
          clip-rule="evenodd"/>
    <path fill="url(#paint4_linear)" fill-rule="evenodd"
          d="M1163-64.435V-229h-2v164.565c0 4.391 1.16 8.705 3.35 12.507l212.54 367.855a24.999 24.999 0 0016.11 11.871l497.78 113.177.44-1.95-497.78-113.177a23.034 23.034 0 01-14.82-10.921L1166.09-52.929a22.914 22.914 0 01-3.09-11.506z"
          clip-rule="evenodd"/>
    <path fill="url(#paint5_linear)" fill-rule="evenodd"
          d="M1778.41 1222h164.57v-2h-164.57c-4.39 0-8.7 1.16-12.51 3.35l-367.85 212.54a24.974 24.974 0 00-11.87 16.11L1273 1949.78l1.95.44 113.18-497.78a23.013 23.013 0 0110.92-14.82l367.85-212.53c3.5-2.03 7.47-3.09 11.51-3.09z"
          clip-rule="evenodd"/>
    <path fill="url(#paint6_linear)" fill-rule="evenodd"
          d="M141.565 1222H-23v-2h164.565c4.391 0 8.705 1.16 12.507 3.35l367.855 212.54a24.999 24.999 0 0111.871 16.11l113.177 497.78-1.95.44-113.177-497.78a23.034 23.034 0 00-10.921-14.82l-367.855-212.53a22.915 22.915 0 00-11.507-3.09z"
          clip-rule="evenodd"/>
    <path fill="url(#paint7_linear)" fill-rule="evenodd"
          d="M742.222-64.435V-229h2v164.565c0 4.391-1.157 8.705-3.354 12.507L528.33 315.927a25.002 25.002 0 01-16.104 11.871L14.443 440.975l-.443-1.95 497.782-113.177a23 23 0 0014.816-10.921L739.137-52.929a23 23 0 003.085-11.506z"
          clip-rule="evenodd"/>
    <path fill="url(#paint8_linear)" fill-rule="evenodd"
          d="M453.222 2.565V-162h2V2.565c0 4.391-1.157 8.705-3.354 12.507L239.33 382.927a25.002 25.002 0 01-16.104 11.871l-497.783 113.177-.443-1.95 497.782-113.177a23 23 0 0014.816-10.921L450.137 14.071a23 23 0 003.085-11.506z"
          clip-rule="evenodd"/>
    <path fill="url(#paint9_linear)" fill-rule="evenodd"
          d="M1466 2.565V-162h-2V2.565c0 4.391 1.16 8.705 3.35 12.507l212.54 367.855a24.999 24.999 0 0016.11 11.871l497.78 113.177.44-1.95-497.78-113.177a23.034 23.034 0 01-14.82-10.921L1469.09 14.071A22.914 22.914 0 011466 2.566z"
          clip-rule="evenodd"/>
    <path fill="url(#paint10_radial)" fill-rule="evenodd"
          d="M1006.83 559.374L948.242 81 723.749 470.282c-4.169 7.241-5.925 15.58-4.608 23.919l17.336 127.493c1.316 10.094-1.317 20.188-7.681 28.307L300 1204.52l7.28-5.43c55.808-41.62 415.396-309.332 482.961-349.181 21.067-13.606 41.256-20.847 61.225-27.869 40.598-14.263 80.756-28.527 129.253-96.991 38.401-58.151 30.501-130.127 26.111-165.675zM788.96 847.835c21.319-13.76 41.742-21.076 61.698-28.094 20.308-7.135 40.236-14.184 61.135-27.908 20.872-13.707 42.819-34.15 66.915-68.16 37.832-57.311 30.102-128.397 25.712-164.001l-.01-.002-57.7-471.135-220.849 382.963m63.099 376.337c-36.835 21.738-159.48 110.458-272.767 193.625-56.704 41.63-111.116 81.9-151.353 111.77a42061.424 42061.424 0 00-52.012 38.68l417.886-540.406.005-.006c6.775-8.647 9.573-19.398 8.174-30.12l-17.341-127.532-.004-.025c-1.224-7.749.4-15.527 4.312-22.322"
          clip-rule="evenodd"/>
    <g>
        <path fill="url(#paint11_radial)" fill-rule="evenodd"
              d="M1006.83 559.374L948.242 81 723.749 470.282c-4.169 7.241-5.925 15.58-4.608 23.919l17.336 127.493c1.316 10.094-1.317 20.188-7.681 28.307L300 1204.52l7.28-5.43c55.808-41.62 415.396-309.332 482.961-349.181 21.067-13.606 41.256-20.847 61.225-27.869 40.598-14.263 80.756-28.527 129.253-96.991 38.401-58.151 30.501-130.127 26.111-165.675zM788.96 847.835c21.319-13.76 41.742-21.076 61.698-28.094 20.308-7.135 40.236-14.184 61.135-27.908 20.872-13.707 42.819-34.15 66.915-68.16 37.832-57.311 30.102-128.397 25.712-164.001l-.01-.002-57.7-471.135-220.849 382.963m63.099 376.337c-36.835 21.738-159.48 110.458-272.767 193.625-56.704 41.63-111.116 81.9-151.353 111.77a42061.424 42061.424 0 00-52.012 38.68l417.886-540.406.005-.006c6.775-8.647 9.573-19.398 8.174-30.12l-17.341-127.532-.004-.025c-1.224-7.749.4-15.527 4.312-22.322"
              clip-rule="evenodd"/>
    </g>
    <path fill="url(#paint12_radial)" fill-rule="evenodd"
          d="M1169.3 1006.71l443.58 188.44L1388 806.096c-4.19-7.232-10.53-12.921-18.41-15.95l-119.08-48.733c-9.4-3.907-16.83-11.235-20.68-20.806L964.004 72s.374 3.158 1.064 9.021c8.134 69.138 60.192 514.407 60.922 592.845 1.24 25.047-2.58 46.152-6.48 66.957-7.95 42.29-15.68 84.2 19.37 160.433 31.16 62.333 97.44 91.479 130.42 105.454zm-128.22-106.507c30.72 61.414 96.14 90.267 129.17 104.257v.01l436.87 185.59-221.23-382.743m-344.81 92.886c-17.41-37.874-24.14-67.102-25.58-92.032-1.43-24.961 2.43-45.743 6.4-66.898 3.9-20.791 7.78-42.136 6.52-67.478-.41-42.769-15.92-193.343-31.3-333.037-7.699-69.921-15.373-137.182-21.122-186.962-2.875-24.89-5.268-45.41-6.943-59.708l-.548-4.675 259.063 632.104v.008c4.11 10.19 12.02 17.988 22 22.138l119.12 48.748.02.009c7.32 2.815 13.25 8.111 17.18 14.895"
          clip-rule="evenodd"/>
    <g>
        <path fill="url(#paint13_radial)" fill-rule="evenodd"
              d="M1169.3 1006.95l443.58 188.44L1388 806.336c-4.19-7.231-10.53-12.921-18.41-15.95l-119.08-48.733c-9.4-3.907-16.83-11.234-20.68-20.805L964.004 72.24s.374 3.159 1.064 9.022c8.134 69.137 60.192 514.407 60.922 592.845 1.24 25.046-2.58 46.151-6.48 66.956-7.95 42.291-15.68 84.201 19.37 160.433 31.16 62.333 97.44 91.479 130.42 105.454zm-128.22-106.507c30.72 61.414 96.14 90.267 129.17 104.267l436.87 185.59-221.23-382.743m-344.81 92.886c-17.41-37.874-24.14-67.102-25.58-92.032-1.43-24.961 2.43-45.743 6.4-66.898 3.9-20.791 7.78-42.136 6.52-67.478-.41-42.768-15.92-193.343-31.3-333.037-7.699-69.921-15.373-137.181-21.122-186.961-2.875-24.89-5.268-45.411-6.943-59.709l-.548-4.675 259.063 632.104v.008c4.11 10.19 12.02 17.988 22 22.138l119.12 48.748.02.009c7.32 2.815 13.25 8.111 17.18 14.896"
              clip-rule="evenodd"/>
    </g>
    <path fill="url(#paint14_radial)" fill-rule="evenodd"
          d="M699.18 930.944L314.192 1220.87l449.374-.22c8.356-.01 16.455-2.66 23.019-7.97l101.744-78.76c8.083-6.19 18.142-8.95 28.355-7.5l694.626 94.09s-2.92-1.26-8.35-3.59c-63.94-27.53-475.58-205.08-543.87-243.668-22.32-11.442-38.68-25.306-54.75-39.089-32.652-28.026-65.084-55.673-148.624-63.441-69.562-4.182-127.945 38.647-156.536 60.222zm156.349-57.792c-68.546-4.104-126.246 38.129-154.882 59.738l-.002.001-379.162 285.539 442.08-.22m91.966-345.058c41.502 3.863 70.18 12.648 92.487 23.87 22.335 11.237 38.403 24.971 54.734 38.99 16.06 13.774 32.6 27.803 55.18 39.385 37.24 21.032 175.4 82.883 304.07 139.413 64.4 28.29 126.49 55.28 172.47 75.19 23 9.95 41.96 18.14 55.18 23.84 1.52.65 2.96 1.27 4.33 1.86l-676.953-91.69c-.003 0-.006-.01-.009-.01-10.875-1.54-21.584 1.41-30.17 7.99l-101.755 78.76-.021.02-.02.02c-6.099 4.93-13.647 7.41-21.487 7.42"
          clip-rule="evenodd"/>
    <defs>
        <linearGradient id="paint0_linear" x1="-575.026" x2="192.474" y1="1343.34" y2="642.342"
                        gradientUnits="userSpaceOnUse">
            <stop stop-color="#1C1159"/>
            <stop offset=".492" stop-color="#5D09E1"/>
            <stop offset=".694" stop-color="#37FFDB"/>
            <stop offset="1" stop-color="#E478FF"/>
        </linearGradient>
        <linearGradient id="paint1_linear" x1="2489.74" x2="1722.24" y1="1356.34" y2="655.342"
                        gradientUnits="userSpaceOnUse">
            <stop stop-color="#1C1159"/>
            <stop offset=".492" stop-color="#5D09E1"/>
            <stop offset=".694" stop-color="#37FFDB"/>
            <stop offset="1" stop-color="#E478FF"/>
        </linearGradient>
        <linearGradient id="paint2_linear" x1="13.557" x2="221.587" y1="761.322" y2="-133.249"
                        gradientUnits="userSpaceOnUse">
            <stop offset=".122" stop-color="#26252C"/>
            <stop offset=".35" stop-color="#5D09E1"/>
            <stop offset=".694" stop-color="#37FFDB"/>
            <stop offset="1" stop-color="#E478FF"/>
        </linearGradient>
        <linearGradient id="paint3_linear" x1="1891.44" x2="1683.41" y1="761.322" y2="-133.249"
                        gradientUnits="userSpaceOnUse">
            <stop offset=".122" stop-color="#26252C"/>
            <stop offset=".35" stop-color="#5D09E1"/>
            <stop offset=".694" stop-color="#37FFDB"/>
            <stop offset="1" stop-color="#E478FF"/>
        </linearGradient>
        <linearGradient id="paint4_linear" x1="1793.44" x2="1585.41" y1="591.322" y2="-303.249"
                        gradientUnits="userSpaceOnUse">
            <stop offset=".122" stop-color="#26252C"/>
            <stop offset=".235" stop-color="#5D09E1"/>
            <stop offset=".487" stop-color="#37FFDB"/>
            <stop offset=".649" stop-color="#E478FF"/>
        </linearGradient>
        <linearGradient id="paint5_linear" x1="1122.65" x2="2017.22" y1="1852.44" y2="1644.41"
                        gradientUnits="userSpaceOnUse">
            <stop offset=".122" stop-color="#26252C"/>
            <stop offset=".235" stop-color="#5D09E1"/>
            <stop offset=".487" stop-color="#37FFDB"/>
            <stop offset=".649" stop-color="#E478FF"/>
        </linearGradient>
        <linearGradient id="paint6_linear" x1="797.322" x2="-97.249" y1="1852.44" y2="1644.41"
                        gradientUnits="userSpaceOnUse">
            <stop offset=".122" stop-color="#26252C"/>
            <stop offset=".235" stop-color="#5D09E1"/>
            <stop offset=".487" stop-color="#37FFDB"/>
            <stop offset=".649" stop-color="#E478FF"/>
        </linearGradient>
        <linearGradient id="paint7_linear" x1="111.779" x2="319.809" y1="591.322" y2="-303.249"
                        gradientUnits="userSpaceOnUse">
            <stop offset=".122" stop-color="#26252C"/>
            <stop offset=".235" stop-color="#5D09E1"/>
            <stop offset=".487" stop-color="#37FFDB"/>
            <stop offset=".649" stop-color="#E478FF"/>
        </linearGradient>
        <linearGradient id="paint8_linear" x1="-177.221" x2="30.809" y1="658.322" y2="-236.249"
                        gradientUnits="userSpaceOnUse">
            <stop offset=".122" stop-color="#26252C"/>
            <stop offset=".235" stop-color="#5D09E1"/>
            <stop offset=".39" stop-color="#37FFDB"/>
            <stop offset=".537" stop-color="#E478FF"/>
            <stop offset=".827" stop-color="#26252C"/>
        </linearGradient>
        <linearGradient id="paint9_linear" x1="2096.44" x2="1888.41" y1="658.322" y2="-236.249"
                        gradientUnits="userSpaceOnUse">
            <stop offset=".122" stop-color="#26252C"/>
            <stop offset=".235" stop-color="#5D09E1"/>
            <stop offset=".39" stop-color="#37FFDB"/>
            <stop offset=".537" stop-color="#E478FF"/>
            <stop offset=".827" stop-color="#26252C"/>
        </linearGradient>
        <radialGradient id="paint10_radial" cx="0" cy="0" r="1"
                        gradientTransform="rotate(46.03 -432.982 557.328) scale(849.074 8094.31)"
                        gradientUnits="userSpaceOnUse">
            <stop stop-color="#1C1159"/>
            <stop offset=".186" stop-color="#5D09E1"/>
            <stop offset=".449" stop-color="#E478FF"/>
            <stop offset=".623" stop-color="#8479FF"/>
            <stop offset=".816" stop-color="#8CF1FF"/>
            <stop offset="1" stop-color="#37FFDB"/>
        </radialGradient>
        <radialGradient id="paint11_radial" cx="0" cy="0" r="1"
                        gradientTransform="rotate(46.03 -432.982 557.328) scale(849.074 8094.31)"
                        gradientUnits="userSpaceOnUse">
            <stop stop-color="#1C1159"/>
            <stop offset=".186" stop-color="#5D09E1"/>
            <stop offset=".449" stop-color="#E478FF"/>
            <stop offset=".623" stop-color="#8479FF"/>
            <stop offset=".816" stop-color="#8CF1FF"/>
            <stop offset="1" stop-color="#37FFDB"/>
        </radialGradient>
        <radialGradient id="paint12_radial" cx="0" cy="0" r="1"
                        gradientTransform="rotate(168.742 805.38 300.255) scale(889.605 8480.69)"
                        gradientUnits="userSpaceOnUse">
            <stop stop-color="#1C1159"/>
            <stop offset=".186" stop-color="#5D09E1"/>
            <stop offset=".374" stop-color="#E478FF"/>
            <stop offset=".503" stop-color="#8479FF"/>
            <stop offset=".688" stop-color="#8CF1FF"/>
            <stop offset="1" stop-color="#37FFDB"/>
        </radialGradient>
        <radialGradient id="paint13_radial" cx="0" cy="0" r="1"
                        gradientTransform="rotate(168.742 805.368 300.375) scale(889.605 8480.69)"
                        gradientUnits="userSpaceOnUse">
            <stop stop-color="#1C1159"/>
            <stop offset=".186" stop-color="#5D09E1"/>
            <stop offset=".374" stop-color="#E478FF"/>
            <stop offset=".503" stop-color="#8479FF"/>
            <stop offset=".688" stop-color="#8CF1FF"/>
            <stop offset="1" stop-color="#37FFDB"/>
        </radialGradient>
        <radialGradient id="paint14_radial" cx="0" cy="0" r="1"
                        gradientTransform="rotate(-54.258 1638.458 -327.463) scale(493.929 4708.68)"
                        gradientUnits="userSpaceOnUse">
            <stop stop-color="#1C1159"/>
            <stop offset=".186" stop-color="#5D09E1"/>
            <stop offset=".449" stop-color="#E478FF"/>
            <stop offset=".623" stop-color="#8479FF"/>
            <stop offset=".816" stop-color="#8CF1FF"/>
            <stop offset="1" stop-color="#37FFDB"/>
        </radialGradient>
    </defs>
</svg>
