<svg width="24" height="24" viewBox="0 0 24 24" fill="none" xmlns="http://www.w3.org/2000/svg">
    <path d="M16.187 22.5044H7.80582C5.56603 22.5044 3.6875 20.6921 3.6875 18.3723V11.3405C3.6875 10.5431 4.33776 9.89062 5.13253 9.89062H18.8603C19.655 9.89062 20.3053 10.5431 20.3053 11.3405V18.3723C20.3053 20.6921 18.499 22.5044 16.187 22.5044Z" fill="#E478FF" stroke="#282D33" stroke-width="1.2" stroke-miterlimit="10"/>
    <path d="M17.2752 6.48339V9.60058H14.9632V6.48339C14.9632 5.68597 14.6019 4.96104 14.0962 4.38109C13.5904 3.87364 12.8679 3.51118 12.0009 3.51118C10.4114 3.51118 9.0386 4.81605 9.0386 6.48339V9.60058H6.72656V6.48339C6.72656 3.58367 9.11085 1.19141 12.0009 1.19141C14.891 1.19141 17.2752 3.58367 17.2752 6.48339Z" fill="white" stroke="#282D33" stroke-width="1.2" stroke-miterlimit="10"/>
    <path d="M11.9923 16.8252C13.015 16.8252 13.8441 15.9934 13.8441 14.9673C13.8441 13.9412 13.015 13.1094 11.9923 13.1094C10.9697 13.1094 10.1406 13.9412 10.1406 14.9673C10.1406 15.9934 10.9697 16.8252 11.9923 16.8252Z" fill="#282D33"/>
    <path d="M12.0872 15.1523H11.8094C11.5317 15.1523 11.2539 15.431 11.2539 15.7097V18.2179C11.2539 18.4966 11.5317 18.7753 11.8094 18.7753H12.0872C12.3649 18.7753 12.6427 18.4966 12.6427 18.2179V15.7097C12.6427 15.431 12.4575 15.1523 12.0872 15.1523Z" fill="#282D33"/>
</svg>
