<svg width="24" height="24" viewBox="0 0 24 24" fill="none" xmlns="http://www.w3.org/2000/svg">
<path d="M4.75063 21.9037L3.11494 20.2957C2.5945 19.7841 2.5945 18.907 3.11494 18.3954L15.7543 5.97015C16.2748 5.45852 17.167 5.45852 17.6874 5.97015L19.3231 7.57812C19.8436 8.08975 19.8436 8.96682 19.3231 9.47845L6.68372 21.9037C6.16327 22.4153 5.27108 22.4153 4.75063 21.9037Z" stroke="white" stroke-width="2" stroke-miterlimit="10"/>
<path d="M16.0512 12.6943L12.4824 9.18604" stroke="white" stroke-width="2" stroke-miterlimit="10"/>
<path d="M20 18.5C19.1774 18.5 18.5 19.1774 18.5 20C18.5 19.1774 17.8226 18.5 17 18.5C17.8226 18.5 18.5 17.8226 18.5 17C18.5 17.8226 19.1774 18.5 20 18.5Z" stroke="white" stroke-width="2" stroke-miterlimit="10" stroke-linecap="round" stroke-linejoin="round"/>
<path d="M13 4C12.45 4 12 4.45 12 5C12 4.45 11.55 4 11 4C11.55 4 12 3.55 12 3C12 3.55 12.45 4 13 4Z" stroke="white" stroke-miterlimit="10" stroke-linecap="round" stroke-linejoin="round"/>
<path d="M8 7C6.89655 7 6 7.89655 6 9C6 7.89655 5.10345 7 4 7C5.10345 7 6 6.10345 6 5C5.93103 6.10345 6.82759 7 8 7Z" stroke="white" stroke-width="2" stroke-miterlimit="10" stroke-linecap="round" stroke-linejoin="round"/>
</svg>
