<?xml version="1.0" encoding="utf-8"?>
<!-- Generator: Adobe Illustrator 22.1.0, SVG Export Plug-In . SVG Version: 6.00 Build 0)  -->
<svg version="1.1" id="Слой_1" xmlns="http://www.w3.org/2000/svg" xmlns:xlink="http://www.w3.org/1999/xlink" x="0px" y="0px"
	 viewBox="0 0 759 841" style="enable-background:new 0 0 759 841;" xml:space="preserve">
<style type="text/css">
	.st0{opacity:0.1;fill:#FFD541;enable-background:new    ;}
	.st1{opacity:0.4;fill:none;stroke:#FFD541;enable-background:new    ;}
</style>
<path class="st0" d="M350,8.7c18.3-10.4,40.7-10.4,59.1,0L727.9,189c18.8,10.6,30.5,30.6,30.5,52.2v358.5
	c0,21.6-11.6,41.6-30.5,52.2L409,832.3c-18.3,10.4-40.7,10.4-59.1,0L31.1,652c-18.8-10.6-30.5-30.6-30.5-52.2V241.3
	c0-21.6,11.6-41.6,30.5-52.2L350,8.7z"/>
<path class="st1" d="M142.8,94.1c9.1-5.3,20.4-5.3,29.5,0l59.6,34.4c9.1,5.3,14.8,15,14.8,25.5v68.9c0,10.5-5.6,20.3-14.8,25.5
	l-59.6,34.4c-9.1,5.3-20.4,5.3-29.5,0l-59.6-34.4c-9.1-5.3-14.8-15-14.8-25.5v-68.9c0-10.5,5.6-20.3,14.8-25.5L142.8,94.1z"/>
</svg>
