<svg width="24" height="24" viewBox="0 0 24 24" fill="none" xmlns="http://www.w3.org/2000/svg">
    <path d="M21.9243 11.8881C21.9243 14.0699 21.2697 16.1426 20.0697 17.779C18.2152 20.2881 15.2697 22.0335 11.8879 22.0335C6.32429 22.0335 1.85156 17.5608 1.85156 11.9971C1.85156 6.5426 6.2152 2.06987 11.5607 1.96078C11.6697 1.96078 11.7788 1.96078 11.8879 1.96078C17.4516 1.7426 21.9243 6.21533 21.9243 11.8881Z" fill="#E478FF"/>
    <path d="M21.9259 11.8915C21.9259 14.0734 21.2713 16.1461 20.0713 17.7825L11.4531 12.6552V1.74609C11.5622 1.74609 11.6713 1.74609 11.7804 1.74609C17.4531 1.74609 21.9259 6.21882 21.9259 11.8915Z" fill="white"/>
    <path d="M21.9243 11.8881C21.9243 14.0699 21.2697 16.1426 20.0697 17.779C18.2152 20.2881 15.2697 22.0335 11.8879 22.0335C6.32429 22.0335 1.85156 17.5608 1.85156 11.9971C1.85156 6.5426 6.2152 2.06987 11.5607 1.96078C11.6697 1.96078 11.7788 1.96078 11.8879 1.96078C17.4516 1.7426 21.9243 6.21533 21.9243 11.8881Z" stroke="#282D33" stroke-width="1.2" stroke-miterlimit="10" stroke-linecap="round"/>
    <path d="M15.5986 15.058L11.4531 12.658V7.3125" stroke="#282D33" stroke-width="1.2" stroke-miterlimit="10" stroke-linecap="round"/>
</svg>
