<svg width="24" height="24" viewBox="0 0 24 24" fill="none" xmlns="http://www.w3.org/2000/svg">
<path d="M16.1889 22.5044H7.80777C5.56799 22.5044 3.68945 20.6921 3.68945 18.3723V11.3405C3.68945 10.5431 4.33971 9.89062 5.13448 9.89062H18.8622C19.657 9.89062 20.3072 10.5431 20.3072 11.3405V18.3723C20.3072 20.6921 18.501 22.5044 16.1889 22.5044Z" fill="white" stroke="#282D33" stroke-width="1.2" stroke-miterlimit="10"/>
<path d="M17.2733 6.48339V6.5C17.2733 7.05228 16.8256 7.5 16.2733 7.5H15.9613C15.409 7.5 14.9613 7.05228 14.9613 6.5V6.48339C14.9613 5.68597 14.6 4.96104 14.0942 4.38109C13.5885 3.87364 12.866 3.51118 11.999 3.51118C10.4094 3.51118 9.03665 4.81605 9.03665 6.48339V9.87939H6.72461V6.48339C6.72461 3.58367 9.1089 1.19141 11.999 1.19141C14.889 1.19141 17.2733 3.58367 17.2733 6.48339Z" fill="#FFD541" stroke="#282D33" stroke-width="1.2" stroke-miterlimit="10"/>
<path d="M11.9943 16.8252C13.017 16.8252 13.846 15.9934 13.846 14.9673C13.846 13.9412 13.017 13.1094 11.9943 13.1094C10.9716 13.1094 10.1426 13.9412 10.1426 14.9673C10.1426 15.9934 10.9716 16.8252 11.9943 16.8252Z" fill="#282D33"/>
<path d="M12.0891 15.1523H11.8114C11.5336 15.1523 11.2559 15.431 11.2559 15.7097V18.2179C11.2559 18.4966 11.5336 18.7753 11.8114 18.7753H12.0891C12.3669 18.7753 12.6446 18.4966 12.6446 18.2179V15.7097C12.6446 15.431 12.4595 15.1523 12.0891 15.1523Z" fill="#282D33"/>
</svg>
