<svg viewBox="0 0 14 14" fill="none" xmlns="http://www.w3.org/2000/svg">
    <g clip-path="url(#clip0)">
        <path d="M12.09 3.83C12.34 3.83 12.56 3.66 12.62 3.42C12.7 3.11 12.75 2.79 12.78 2.47H13.46C13.76 2.47 14.01 2.23 14.01 1.92C14.01 1.62 13.77 1.37 13.46 1.37H12.78C12.75 1.06 12.7 0.74 12.63 0.43C12.56 0.18 12.34 0 12.09 0H1.91C1.66 0 1.44 0.17 1.38 0.42C1.31 0.74 1.26 1.05 1.23 1.37H0.55C0.24 1.37 0 1.61 0 1.91C0 2.21 0.24 2.46 0.55 2.46H1.23C1.25 2.78 1.31 3.1 1.38 3.41C1.44 3.66 1.66 3.83 1.91 3.83H2.46V10.17H1.91C1.66 10.17 1.44 10.34 1.38 10.59C1.31 10.91 1.25 11.22 1.23 11.54H0.55C0.25 11.54 0 11.78 0 12.09C0 12.39 0.24 12.64 0.55 12.64H1.23C1.26 12.96 1.31 13.28 1.39 13.59C1.44 13.83 1.66 14 1.91 14H12.08C12.33 14 12.55 13.83 12.61 13.59C12.69 13.28 12.74 12.96 12.77 12.64H13.45C13.75 12.64 14 12.4 14 12.09C14 11.79 13.76 11.54 13.45 11.54H12.77C12.74 11.23 12.69 10.91 12.62 10.6C12.56 10.35 12.34 10.18 12.09 10.18H11.54V3.83H12.09ZM2.36 1.09H11.63C11.72 1.65 11.72 2.2 11.63 2.73H2.36C2.27 2.19 2.27 1.65 2.36 1.09ZM11.64 12.91H2.36C2.27 12.37 2.27 11.82 2.36 11.27H11.63C11.72 11.83 11.72 12.38 11.64 12.91ZM10.45 10.17H3.55V3.83H10.44V10.17H10.45ZM9.35 6.95C9.35 7.25 9.11 7.5 8.8 7.5H5.2C4.9 7.5 4.65 7.26 4.65 6.95C4.65 6.65 4.89 6.4 5.2 6.4H8.8C9.11 6.41 9.35 6.65 9.35 6.95Z" fill="white"/>
    </g>
    <defs>
        <clipPath id="clip0">
            <rect width="14" height="14" fill="white"/>
        </clipPath>
    </defs>
</svg>
