<svg width="20" height="20" viewBox="0 0 20 20" fill="none" xmlns="http://www.w3.org/2000/svg">
<g clip-path="url(#clip0_675_20954)">
<path fill-rule="evenodd" clip-rule="evenodd" d="M15.8948 5.88557V6.18557H16.1948H17.2258C17.9665 6.18557 18.6768 6.4798 19.2006 7.00355C19.7243 7.5273 20.0186 8.23766 20.0186 8.97835V19.2868C20.0177 19.4309 19.9743 19.5715 19.8938 19.691C19.8131 19.8106 19.6989 19.9037 19.5654 19.9586L19.5583 19.9615L19.5514 19.9648C19.4714 20.0025 19.3837 20.0209 19.2954 20.0187L19.2954 20.0185L19.2859 20.0186C19.1897 20.0191 19.0943 20.0007 19.0053 19.9643C18.9165 19.928 18.8357 19.8746 18.7675 19.8071L18.7669 19.8066L16.3249 17.3543L16.237 17.266H16.1124H8.97835C8.23766 17.266 7.5273 16.9717 7.00355 16.448C6.4798 15.9242 6.18557 15.2139 6.18557 14.4732V12.9887V12.6887H5.88557H4.35979H4.23522L4.14728 12.7769L1.25162 15.6829L1.25103 15.6835C1.18286 15.7509 1.10207 15.8043 1.01327 15.8406C0.924217 15.877 0.828858 15.8954 0.732662 15.8948L0.732663 15.8947L0.7232 15.8949C0.634815 15.8972 0.547126 15.8788 0.467162 15.841L0.460245 15.8378L0.453171 15.8349C0.31969 15.78 0.205427 15.6869 0.124781 15.5673C0.0442625 15.4478 0.000853568 15.3072 0 15.1631V2.79278C0 2.05209 0.294239 1.34174 0.817987 0.817987C1.34174 0.294239 2.05209 0 2.79278 0H13.1021C13.8428 0 14.5531 0.294239 15.0769 0.817987C15.6006 1.34174 15.8948 2.05209 15.8948 2.79278V5.88557ZM5.88557 11.2268H6.18557V10.9268V8.97835C6.18557 8.23766 6.4798 7.5273 7.00355 7.00355C7.5273 6.4798 8.23766 6.18557 8.97835 6.18557H14.133H14.433V5.88557V2.79278C14.433 2.4398 14.2928 2.10127 14.0432 1.85168C13.7936 1.60208 13.455 1.46186 13.1021 1.46186H2.79278C2.4398 1.46186 2.10127 1.60208 1.85168 1.85168C1.60208 2.10127 1.46186 2.4398 1.46186 2.79278V12.6794V13.4073L1.97474 12.8908L3.41642 11.4388L3.41716 11.438C3.4853 11.3706 3.56604 11.3173 3.65477 11.2811C3.74382 11.2447 3.83918 11.2262 3.93538 11.2268H3.93711H5.88557Z" fill="#E478FF"/>
</g>
<defs>
<clipPath id="clip0_675_20954">
<rect width="20" height="20" fill="white"/>
</clipPath>
</defs>
</svg>
