<svg width="21" height="20" viewBox="0 0 21 20" fill="none" xmlns="http://www.w3.org/2000/svg">
<path fill-rule="evenodd" clip-rule="evenodd" d="M16.3966 5.99987V6.29987H16.6966H17.6966C18.4127 6.29987 19.0994 6.58433 19.6058 7.09068C20.1121 7.59702 20.3966 8.28378 20.3966 8.99987V18.9991C20.3958 19.137 20.3542 19.2717 20.2771 19.3861C20.1998 19.5007 20.0904 19.5899 19.9626 19.6424L19.9555 19.6453L19.9486 19.6485C19.8723 19.6845 19.7886 19.7021 19.7043 19.7L19.7043 19.6998L19.6948 19.6999C19.6027 19.7004 19.5114 19.6827 19.4261 19.6479C19.3411 19.6132 19.2637 19.562 19.1984 19.4974L19.1978 19.4969L16.8292 17.1182L16.7412 17.0299H16.6166H9.69658C8.9805 17.0299 8.29374 16.7454 7.78739 16.2391C7.28104 15.7327 6.99658 15.0459 6.99658 14.3299V12.8899V12.5899H6.69658H5.21658H5.09201L5.00407 12.6781L2.19532 15.4969L2.19473 15.4974C2.12944 15.5621 2.05208 15.6132 1.96705 15.6479C1.88177 15.6827 1.79044 15.7004 1.69832 15.6999L1.69832 15.6997L1.68885 15.7C1.60453 15.7021 1.52086 15.6845 1.44457 15.6485L1.43765 15.6453L1.43058 15.6424C1.30275 15.5899 1.19332 15.5007 1.11608 15.3861C1.03898 15.2717 0.997405 15.137 0.996582 14.999V2.99987C0.996582 2.28378 1.28105 1.59703 1.78739 1.09068C2.29374 0.584329 2.9805 0.299866 3.69658 0.299866H13.6966C14.4127 0.299866 15.0994 0.584329 15.6058 1.09068C16.1121 1.59703 16.3966 2.28378 16.3966 2.99987V5.99987ZM6.69658 11.1899H6.99658V10.8899V8.99987C6.99658 8.28378 7.28104 7.59702 7.78739 7.09068C8.29374 6.58433 8.9805 6.29987 9.69658 6.29987H14.6966H14.9966V5.99987V2.99987C14.9966 2.65508 14.8596 2.32442 14.6158 2.08063C14.372 1.83683 14.0414 1.69987 13.6966 1.69987H3.69658C3.3518 1.69987 3.02114 1.83683 2.77734 2.08063C2.53355 2.32442 2.39658 2.65508 2.39658 2.99987V12.5899V13.3178L2.90947 12.8012L4.30785 11.3929L4.30863 11.3921C4.37388 11.3276 4.45117 11.2765 4.53611 11.2418C4.6214 11.207 4.71272 11.1893 4.80485 11.1899H4.80658H6.69658Z" fill="white"/>
</svg>
