<svg width="21" height="20" viewBox="0 0 21 20" fill="none" xmlns="http://www.w3.org/2000/svg">
<g clip-path="url(#clip0_143:20929)">
<path d="M17.8716 5H4.12158C3.08605 5 2.24658 5.83947 2.24658 6.875V15.625C2.24658 16.6605 3.08605 17.5 4.12158 17.5H17.8716C18.9071 17.5 19.7466 16.6605 19.7466 15.625V6.875C19.7466 5.83947 18.9071 5 17.8716 5Z" stroke="white" stroke-width="1.5" stroke-linejoin="round"/>
<path d="M17.8716 5H4.12158C3.08605 5 2.24658 5.83947 2.24658 6.875V15.625C2.24658 16.6605 3.08605 17.5 4.12158 17.5H17.8716C18.9071 17.5 19.7466 16.6605 19.7466 15.625V6.875C19.7466 5.83947 18.9071 5 17.8716 5Z" stroke="white" stroke-width="1.5" stroke-linejoin="round"/>
<path d="M13.4966 9.375V10.3125C13.4966 10.3954 13.4637 10.4749 13.4051 10.5335C13.3464 10.5921 13.267 10.625 13.1841 10.625H8.80908C8.7262 10.625 8.64672 10.5921 8.58811 10.5335C8.52951 10.4749 8.49658 10.3954 8.49658 10.3125V9.375M6.62158 5V3.75C6.62158 3.41848 6.75328 3.10054 6.9877 2.86612C7.22212 2.6317 7.54006 2.5 7.87158 2.5H14.1216C14.4531 2.5 14.771 2.6317 15.0055 2.86612C15.2399 3.10054 15.3716 3.41848 15.3716 3.75V5H6.62158ZM19.7466 9.375H2.24658H19.7466Z" stroke="white" stroke-width="1.5" stroke-linecap="round" stroke-linejoin="round"/>
</g>
<defs>
<clipPath id="clip0_143:20929">
<rect width="20" height="20" fill="white" transform="translate(0.996582)"/>
</clipPath>
</defs>
</svg>
