<svg width="20" height="20" viewBox="0 0 20 20" fill="none" xmlns="http://www.w3.org/2000/svg">
<g clip-path="url(#clip0_675_20964)">
<path fill-rule="evenodd" clip-rule="evenodd" d="M10.1368 9.70257L9.84151 9.95821L10.1973 10.1193C11.4606 10.6914 12.5324 11.6151 13.2845 12.7802C14.0366 13.9451 14.4373 15.302 14.4387 16.6887C14.4387 16.87 14.3667 17.0439 14.2385 17.1721C14.1103 17.3003 13.9364 17.3724 13.755 17.3724H13.7425H13.73H13.7176H13.7051H13.6926H13.6802H13.6677H13.6553H13.6428H13.6304H13.618H13.6056H13.5932H13.5808H13.5684H13.556H13.5437H13.5313H13.5189H13.5066H13.4943H13.4819H13.4696H13.4573H13.445H13.4327H13.4204H13.4081H13.3959H13.3836H13.3713H13.3591H13.3468H13.3346H13.3224H13.3101H13.2979H13.2857H13.2735H13.2613H13.2491H13.2369H13.2247H13.2126H13.2004H13.1882H13.1761H13.1639H13.1518H13.1397H13.1275H13.1154H13.1033H13.0912H13.0791H13.067H13.0549H13.0428H13.0307H13.0186H13.0066H12.9945H12.9824H12.9704H12.9583H12.9463H12.9342H12.9222H12.9102H12.8982H12.8861H12.8741H12.8621H12.8501H12.8381H12.8261H12.8141H12.8021H12.7901H12.7782H12.7662H12.7542H12.7423H12.7303H12.7183H12.7064H12.6944H12.6825H12.6705H12.6586H12.6467H12.6347H12.6228H12.6109H12.599H12.5871H12.5751H12.5632H12.5513H12.5394H12.5275H12.5156H12.5037H12.4918H12.4799H12.4681H12.4562H12.4443H12.4324H12.4205H12.4087H12.3968H12.3849H12.3731H12.3612H12.3493H12.3375H12.3256H12.3138H12.3019H12.2901H12.2782H12.2664H12.2545H12.2427H12.2308H12.219H12.2072H12.1953H12.1835H12.1716H12.1598H12.148H12.1362H12.1243H12.1125H12.1007H12.0888H12.077H12.0652H12.0534H12.0415H12.0297H12.0179H12.0061H11.9943H11.9824H11.9706H11.9588H11.947H11.9352H11.9233H11.9115H11.8997H11.8879H11.8761H11.8642H11.8524H11.8406H11.8288H11.817H11.8051H11.7933H11.7815H11.7697H11.7579H11.746H11.7342H11.7224H11.7106H11.6869H11.6751H11.6632H11.6514H11.6396H11.6277H11.6159H11.6041H11.5922H11.5804H11.5685H11.5567H11.5449H11.533H11.5212H11.5093H11.4975H11.4856H11.4737H11.4619H11.45H11.4382H11.4263H11.4144H11.4026H11.3907H11.3788H11.3669H11.355H11.3432H11.3313H11.3194H11.3075H11.2956H11.2837H11.2718H11.2599H11.248H11.2361H11.2242H11.2122H11.2003H11.1884H11.1765H11.1645H11.1526H11.1407H11.1287H11.1168H11.1048H11.0929H11.0809H11.069H11.057H11.045H11.033H11.0211H11.0091H10.9971H10.9851H10.9731H10.9611H10.9491H10.9371H10.9251H10.913H10.901H10.889H10.877H10.8649H10.8529H10.8408H10.8288H10.8167H10.8046H10.7926H10.7805H10.7684H10.7563H10.7442H10.7321H10.72H10.7079H10.6958H10.6837H10.6715H10.6594H10.6473H10.6351H10.6229H10.6108H10.5986H10.5864H10.5743H10.5621H10.5499H10.5377H10.5255H10.5133H10.5011H10.4888H10.4766H10.4644H10.4521H10.4399H10.4276H10.4153H10.403H10.3908H10.3785H10.3662H10.3539H10.3416H10.3292H10.3169H10.3046H10.2922H10.2799H10.2675H10.2551H10.2428H10.2304H10.218H10.2056H10.1932H10.1808H10.1683H10.1559H10.1435H10.131H10.1186H10.1061H10.0936H10.0811H10.0686H10.0561H10.0436H10.0311H10.0186H10.006H9.99347H9.98091H9.96834H9.95576H9.94318H9.93058H9.91798H9.90536H9.89274H9.8801H9.86746H9.8548H9.84214H9.82946H9.81678H9.80408H9.79138H9.77866H9.76594H9.7532H9.74046H9.7277H9.71494H9.70216H9.68937H9.67657H9.66376H9.65094H9.63811H9.62527H9.61242H9.59955H9.58668H9.57379H9.5609H9.54799H9.53507H9.52214H9.50919H9.49624H9.48327H9.4703H9.45731H9.44431H9.4313H9.41827H9.40524H9.39219H9.37913H9.36605H9.35297H9.33987H9.32677H9.31364H9.30051H9.28736H9.27421H9.26104H9.24785H9.23466H9.22145H9.20823H9.19499H9.18174H9.16848H9.15521H9.14192H9.12862H9.11531H9.10198H9.08865H9.07529H9.06193H9.04855H9.03515H9.02175H9.00833H8.99489H8.98145H8.96798H8.95451H8.94102H8.92752H8.914H8.90047H8.88692H8.87336H8.85979H8.8462H8.83259H8.81898H8.80534H8.7917H8.77804H8.76436H8.75067H8.73696H8.72324H8.70951H8.69576H8.68199H8.66821H8.65441H8.6406H8.62678H8.61294H8.59908H8.58521H8.57132H8.55741H8.54349H8.52956H8.51561H8.50164H8.48766H8.47366H8.45965H8.44562H8.43157H8.41751H8.40343H8.38933H8.37522H8.36109H8.34695H8.33279H8.31861H8.30441H8.2902H8.27598H8.26173H8.24747H8.23319H8.2189H8.20458H8.19026H8.17591H8.16154H8.14716H8.13276H8.11835H8.10392H8.08947H8.075H8.06051H8.04601H8.03149H8.01695H8.00239H7.98781H7.97322H7.95861H7.94398H7.92933H7.91467H7.89998H7.88528H7.85582H7.84106H7.82629H7.81149H7.79668H7.78185H7.767H7.75213H7.73724H7.72233H7.70741H7.69246H7.67749H7.66251H7.64751H7.63248H7.61744H7.60238H7.5873H7.5722H7.55708H7.54194H7.52678H7.5116H7.4964H7.48118H7.46594H7.45068H7.4354H7.4201H7.40478H7.38944H7.37408H7.3587H7.3433H7.32788H7.31244H7.29698H7.28149H7.26599H7.25046H7.23492H7.21935H7.20562H7.1919H7.17819H7.16448H7.15078H7.13709H7.12341H7.10974H7.09607H7.08241H7.06876H7.05512H7.04149H7.02786H7.01424H7.00063H6.98703H6.97344H6.95985H6.94627H6.9327H6.91913H6.90558H6.89203H6.87849H6.86495H6.85143H6.83791H6.8244H6.81089H6.7974H6.78391H6.77042H6.75695H6.74348H6.73002H6.71657H6.70313H6.68969H6.67626H6.66283H6.64942H6.6226H6.60921H6.59582H6.58244H6.56907H6.5557H6.54234H6.52898H6.51564H6.5023H6.48896H6.47564H6.46232H6.44901H6.4357H6.4224H6.40911H6.39582H6.38254H6.36927H6.356H6.34274H6.32949H6.31624H6.303H6.28977H6.27654H6.26332H6.25011H6.2369H6.22369H6.2105H6.19731H6.18413H6.17095H6.15778H6.14461H6.13145H6.1183H6.10516H6.09202H6.07888H6.06575H6.05263H6.03951H6.0264H6.0133H6.0002H5.98711H5.97402H5.96094H5.94786H5.93479H5.92173H5.90867H5.89562H5.88257H5.86953H5.85649H5.84346H5.83044H5.81742H5.8044H5.7914H5.77839H5.7654H5.7524H5.73942H5.72643H5.71346H5.70049H5.68752H5.67456H5.66161H5.64866H5.63571H5.62277H5.60984H5.59691H5.58398H5.57106H5.55815H5.54524H5.53233H5.51943H5.50654H5.49365H5.48076H5.46788H5.45501H5.44214H5.42927H5.41641H5.40355H5.3907H5.37785H5.36501H5.35217H5.33934H5.32651H5.31368H5.30086H5.28805H5.27524H5.26243H5.24963H5.23683H5.22403H5.21124H5.19846H5.18568H5.1729H5.16013H5.14736H5.13459H5.12183H5.10908H5.09633H5.08358H5.07083H5.05809H5.04536H5.03262H5.0199H5.00717H4.99445H4.98173H4.96902H4.95631H4.94361H4.9309H4.91821H4.90551H4.89282H4.88013H4.86745H4.85477H4.84209H4.82942H4.81675H4.80409H4.79142H4.77876H4.76611H4.75346H4.74081H4.72816H4.71552H4.70288H4.69024H4.67761H4.66498H4.65236H4.63973H4.62711H4.6145H4.60188H4.58927H4.57666H4.56406H4.55146H4.53886H4.52626H4.51367H4.50108H4.48849H4.47591H4.46332H4.45074H4.43817H4.42559H4.41302H4.40045H4.38789H4.37532H4.36276H4.35021H4.33765H4.3251H4.31255H4.3H4.28745H4.27491H4.26237H4.24983H4.23729H4.22476H4.21222H4.1997H4.18717H4.17464H4.16212H4.1496H4.13708H4.12456H4.11205H4.09953H4.08702H4.07451H4.06201H4.0495H4.037H4.0245H4.012H3.9995H3.987H3.97451H3.96202H3.94953H3.93704H3.92455H3.91207H3.89958H3.8871H3.87462H3.86214H3.84966H3.83719H3.82471H3.81224H3.79976H3.78729H3.77482H3.76236H3.74989H3.73742H3.72496H3.7125H3.70004H3.68758H3.67512H3.66266H3.6502H3.63774H3.62529H3.61283H3.60038H3.58793H3.57548H3.56303H3.55058H3.53813H3.52568H3.51324H3.50079H3.48834H3.4759H3.46346H3.45101H3.43857H3.42613H3.41369H3.40125H3.38881H3.37637H3.36393H3.35149H3.33905H3.32661H3.31417H3.30174H3.2893H3.27686H3.26443H3.25199H3.23956H3.22712H3.21469H3.20225H3.18982H3.17738H3.16495H3.15251H3.14008H3.12764H3.11521H3.10277H3.09034H3.07791H3.06547H3.05304H3.0406H3.02816H3.01573H3.00329H2.99086H2.97842H2.96598H2.95355H2.94111H2.92867H2.91623H2.90379H2.89136H2.87892H2.86648H2.85403H2.82915H2.81671H2.80427H2.79182H2.77938H2.76693H2.75448H2.74204H2.72959H2.71714H2.70469H2.69224H2.67979H2.66734H2.65488H2.64243H2.62997H2.61752H2.60506H2.5926H2.58014H2.56768H2.55522H2.54276H2.53029H2.51783H2.50536H2.49289H2.48042H2.46795H2.45548H2.44301H2.43053H2.41805H2.40558H2.3931H2.38062H2.36813H2.35565H2.34316H2.33068H2.31819H2.3057H2.2932H2.28071H2.26821H2.25571H2.24321H2.23071H2.21821H2.2057H2.1932H2.18069H2.16818H2.15566H2.14315H2.13063H2.11811H2.10559H2.09307H2.08054H2.06801H2.05548H2.04295H2.03042H2.01788H2.00534H1.9928H1.98025H1.96771H1.95516H1.94261H1.93005H1.9175H1.90494H1.89238H1.87982H1.86725H1.85468H1.84211H1.82953H1.81696H1.80438H1.7918H1.77921H1.76662H1.75403H1.74144H1.72884H1.71624H1.70364H1.69103H1.67843H1.66581H1.6532H1.64058H1.62796H1.61534H1.60271H1.59008H1.57745H1.56481H1.55217H1.53953H1.52688H1.51423H1.50158H1.48892H1.47627H1.4636H1.45094H1.43827H1.42559H1.41292H1.40024H1.38755H1.37486H1.36217H1.34948H1.33678H1.32408H1.31137H1.29866H1.28595H1.27323H1.26051H1.24778H1.23505H1.22232H1.20958H1.19684H1.1841H1.17135H1.1586H1.14584H1.13308H1.12031H1.10755H1.09477H1.08199H1.06921H1.05643H1.04364H1.03084H1.01804H1.00524H0.992432H0.97962H0.966804H0.953983H0.941157H0.928327H0.915493H0.902654H0.88981H0.876962H0.864109H0.851252H0.83839H0.825523H0.812651H0.799775H0.786894H0.774008H0.761117H0.748221H0.735321H0.722415H0.709505H0.696589H0.683669C0.502348 17.3724 0.328454 17.3003 0.200242 17.1721C0.0720546 17.0439 2.84314e-05 16.8701 0 16.6888C0.00135353 15.3021 0.402047 13.9452 1.15418 12.7802C1.90633 11.6151 2.97811 10.6914 4.24137 10.1193L4.59719 9.95821L4.30186 9.70257C3.83079 9.29481 3.45295 8.79048 3.19399 8.22381C2.93503 7.65714 2.801 7.04139 2.80101 6.41835C2.80101 5.24653 3.26651 4.1227 4.09511 3.2941C4.92371 2.4655 6.04753 2 7.21935 2C8.39117 2 9.51499 2.4655 10.3436 3.2941C11.1722 4.1227 11.6377 5.24653 11.6377 6.41834C11.6377 7.04139 11.5037 7.65714 11.2447 8.22381C10.9858 8.79048 10.6079 9.29481 10.1368 9.70257ZM16.1264 9.35212L15.9299 9.57333L16.1808 9.73013C17.3597 10.4669 18.3306 11.4929 19.0013 12.7106C19.6719 13.9283 20.0201 15.2972 20.0127 16.6874V16.6887C20.0127 16.87 19.9407 17.0439 19.8125 17.1721C19.6843 17.3003 19.5104 17.3724 19.329 17.3724C19.1477 17.3724 18.9738 17.3003 18.8456 17.1721C18.7176 17.0441 18.6456 16.8706 18.6454 16.6896C18.6554 15.3968 18.2959 14.1279 17.6091 13.0325C16.9232 11.9386 15.9396 11.0631 14.7737 10.5088L14.6682 10.452L14.3139 10.2158L14.3126 10.2149C14.2156 10.1511 14.1365 10.0637 14.0827 9.96079C14.0288 9.85793 14.0021 9.74305 14.005 9.62699C14.0081 9.51015 14.0411 9.39606 14.1009 9.29563C14.1608 9.19508 14.2454 9.11157 14.3468 9.0531L14.3469 9.05305C14.8095 8.78597 15.1939 8.40211 15.4616 7.93986C15.7293 7.47762 15.8709 6.95319 15.8724 6.41902V6.41834C15.8724 5.60917 15.5509 4.83313 14.9788 4.26096C14.4066 3.68878 13.6305 3.36734 12.8214 3.36734C12.64 3.36734 12.4662 3.29531 12.3379 3.1671C12.2097 3.03888 12.1377 2.86499 12.1377 2.68367C12.1377 2.50235 12.2097 2.32845 12.3379 2.20024C12.4662 2.07203 12.64 2 12.8214 2H12.8214C13.6731 1.99977 14.5067 2.2457 15.2219 2.70819C15.9371 3.17068 16.5033 3.83001 16.8525 4.60682C17.2017 5.38363 17.3189 6.24481 17.1901 7.0867C17.0613 7.92858 16.6919 8.71529 16.1264 9.35212ZM5.5243 8.95516C6.02604 9.29041 6.61592 9.46935 7.21935 9.46935C8.02853 9.46935 8.80456 9.14791 9.37674 8.57573C9.94891 8.00356 10.2704 7.22752 10.2704 6.41834C10.2704 5.81491 10.0914 5.22503 9.75617 4.7233C9.42092 4.22156 8.94442 3.83051 8.38692 3.59958C7.82942 3.36866 7.21597 3.30824 6.62413 3.42596C6.03229 3.54369 5.48865 3.83427 5.06196 4.26096C4.63527 4.68765 4.34469 5.23128 4.22697 5.82312C4.10925 6.41496 4.16967 7.02842 4.40059 7.58591C4.63151 8.14341 5.02257 8.61991 5.5243 8.95516Z" fill="#E478FF"/>
</g>
<defs>
<clipPath id="clip0_675_20964">
<rect width="20" height="20" fill="white"/>
</clipPath>
</defs>
</svg>
