<svg width="26" height="20" viewBox="0 0 26 20" fill="none" xmlns="http://www.w3.org/2000/svg">
<path fill-rule="evenodd" clip-rule="evenodd" d="M13.1662 10.0677L12.8709 10.3233L13.2267 10.4844C14.8161 11.2041 16.1646 12.3664 17.111 13.8322C18.0573 15.2981 18.5615 17.0055 18.5632 18.7502C18.5631 18.9933 18.4665 19.2263 18.2947 19.3982C18.1228 19.5701 17.8896 19.6667 17.6465 19.6667H17.6309H17.6153H17.5997H17.5841H17.5685H17.5529H17.5374H17.5218H17.5063H17.4907H17.4752H17.4597H17.4442H17.4288H17.4133H17.3978H17.3824H17.3669H17.3515H17.3361H17.3206H17.3052H17.2898H17.2745H17.2591H17.2437H17.2284H17.213H17.1977H17.1823H17.167H17.1517H17.1364H17.1211H17.1058H17.0906H17.0753H17.06H17.0448H17.0295H17.0143H16.9991H16.9839H16.9686H16.9534H16.9382H16.9231H16.9079H16.8927H16.8776H16.8624H16.8472H16.8321H16.817H16.8018H16.7867H16.7716H16.7565H16.7414H16.7263H16.7112H16.6962H16.6811H16.666H16.651H16.6359H16.6209H16.6058H16.5908H16.5758H16.5608H16.5457H16.5307H16.5157H16.5007H16.4857H16.4708H16.4558H16.4408H16.4258H16.4109H16.3959H16.381H16.366H16.3511H16.3361H16.3212H16.3063H16.2914H16.2764H16.2615H16.2466H16.2317H16.2168H16.2019H16.187H16.1721H16.1573H16.1424H16.1275H16.1126H16.0978H16.0829H16.068H16.0532H16.0383H16.0235H16.0086H15.9938H15.979H15.9641H15.9493H15.9345H15.9196H15.9048H15.89H15.8752H15.8604H15.8455H15.8307H15.8159H15.8011H15.7863H15.7715H15.7567H15.7419H15.7271H15.7123H15.6975H15.6828H15.668H15.6532H15.6384H15.6236H15.6088H15.5941H15.5793H15.5645H15.5497H15.5349H15.5202H15.5054H15.4906H15.4758H15.4611H15.4463H15.4315H15.4168H15.402H15.3872H15.3725H15.3577H15.3429H15.3282H15.3134H15.2986H15.2838H15.2691H15.2543H15.2395H15.2248H15.21H15.1952H15.1805H15.1657H15.1509H15.1361H15.1214H15.1066H15.0918H15.077H15.0622H15.0475H15.0327H15.0179H15.0031H14.9883H14.9735H14.9587H14.9439H14.9292H14.9144H14.8996H14.8848H14.87H14.8551H14.8403H14.8255H14.8107H14.7959H14.7811H14.7663H14.7514H14.7366H14.7218H14.7069H14.6921H14.6773H14.6624H14.6476H14.6327H14.6179H14.603H14.5882H14.5733H14.5584H14.5436H14.5287H14.5138H14.4989H14.484H14.4691H14.4542H14.4393H14.4244H14.4095H14.3946H14.3797H14.3648H14.3499H14.3349H14.32H14.305H14.2901H14.2751H14.2602H14.2452H14.2302H14.2153H14.2003H14.1853H14.1703H14.1553H14.1403H14.1253H14.1103H14.0953H14.0802H14.0652H14.0502H14.0351H14.0201H14.005H13.99H13.9749H13.9598H13.9447H13.9296H13.9145H13.8994H13.8843H13.8692H13.8541H13.8389H13.8238H13.8086H13.7935H13.7783H13.7632H13.748H13.7328H13.7176H13.7024H13.6872H13.672H13.6567H13.6415H13.6263H13.611H13.5957H13.5805H13.5652H13.5499H13.5346H13.5193H13.504H13.4887H13.4733H13.458H13.4427H13.4273H13.4119H13.3966H13.3812H13.3658H13.3504H13.335H13.3195H13.3041H13.2886H13.2732H13.2577H13.2423H13.2268H13.2113H13.1958H13.1803H13.1647H13.1492H13.1336H13.1181H13.1025H13.0869H13.0713H13.0557H13.0401H13.0245H13.0089H12.9932H12.9776H12.9619H12.9462H12.9305H12.9148H12.8991H12.8834H12.8676H12.8519H12.8361H12.8203H12.8046H12.7888H12.7729H12.7571H12.7413H12.7254H12.7096H12.6937H12.6778H12.6619H12.646H12.6301H12.6141H12.5982H12.5822H12.5662H12.5502H12.5342H12.5182H12.5022H12.4861H12.4701H12.454H12.4379H12.4218H12.4057H12.3896H12.3734H12.3573H12.3411H12.3249H12.3087H12.2925H12.2763H12.26H12.2438H12.2275H12.2112H12.1949H12.1786H12.1622H12.1459H12.1295H12.1131H12.0967H12.0803H12.0639H12.0475H12.031H12.0145H11.998H11.9815H11.965H11.9485H11.9319H11.9154H11.8988H11.8822H11.8656H11.8489H11.8323H11.8156H11.7989H11.7822H11.7655H11.7488H11.732H11.7152H11.6984H11.6816H11.6648H11.648H11.6311H11.6143H11.5974H11.5805H11.5635H11.5466H11.5296H11.5126H11.4956H11.4786H11.4616H11.4445H11.4275H11.4104H11.3933H11.3762H11.359H11.3418H11.3247H11.3075H11.2902H11.273H11.2557H11.2385H11.2212H11.2039H11.1865H11.1692H11.1518H11.1344H11.117H11.0996H11.0821H11.0646H11.0471H11.0296H11.0121H10.9945H10.977H10.9594H10.9418H10.9241H10.9065H10.8888H10.8711H10.8534H10.8357H10.8179H10.8001H10.7823H10.7645H10.7467H10.7288H10.7109H10.693H10.6751H10.6571H10.6392H10.6212H10.6032H10.5851H10.5671H10.549H10.5309H10.5128H10.4946H10.4765H10.4583H10.4401H10.4218H10.4036H10.3853H10.367H10.3487H10.3303H10.3119H10.2935H10.2751H10.2567H10.2382H10.2197H10.2012H10.1827H10.1641H10.1455H10.1269H10.1083H10.0897H10.071H10.0523H10.0336H10.0148H9.99605H9.97725H9.95843H9.93959H9.92072H9.90182H9.88291H9.86396H9.845H9.826H9.80699H9.78795H9.76888H9.74979H9.73067H9.71153H9.69236H9.67316H9.65395H9.6347H9.61543H9.59614H9.57681H9.55747H9.53809H9.51869H9.49927H9.47982H9.46266H9.44552H9.42838H9.41125H9.39414H9.37703H9.35994H9.34285H9.32577H9.30871H9.29165H9.27461H9.25757H9.24054H9.22353H9.20652H9.18952H9.17253H9.15556H9.13859H9.12163H9.10468H9.08774H9.07081H9.05389H9.03698H9.02008H9.00319H8.9863H8.96943H8.95256H8.93571H8.91886H8.90203H8.8852H8.86838H8.85157H8.83477H8.81798H8.80119H8.78442H8.76766H8.7509H8.73415H8.71741H8.70068H8.68396H8.66725H8.65055H8.63385H8.61717H8.60049H8.58382H8.56716H8.55051H8.53387H8.51723H8.5006H8.48399H8.46738H8.45078H8.43418H8.4176H8.40102H8.38445H8.36789H8.35134H8.33479H8.31826H8.30173H8.28521H8.2687H8.25219H8.23569H8.21921H8.20273H8.18625H8.16979H8.15333H8.13688H8.12044H8.104H8.08757H8.07116H8.05474H8.03834H8.02194H8.00555H7.98917H7.97279H7.95643H7.94007H7.92371H7.90737H7.89103H7.8747H7.85837H7.84206H7.82575H7.80944H7.79315H7.77686H7.76058H7.7443H7.72803H7.71177H7.69552H7.67927H7.66303H7.64679H7.63056H7.61434H7.59813H7.58192H7.56572H7.54952H7.53334H7.51715H7.50098H7.48481H7.46865H7.45249H7.43634H7.4202H7.40406H7.38793H7.3718H7.35568H7.33957H7.32346H7.30736H7.29127H7.27518H7.2591H7.24302H7.22695H7.21088H7.19482H7.17877H7.16272H7.14668H7.13064H7.11461H7.09859H7.08257H7.06655H7.05055H7.03454H7.01855H7.00255H6.98657H6.97059H6.95461H6.93864H6.92267H6.90671H6.89076H6.87481H6.85886H6.84292H6.82699H6.81106H6.79514H6.77922H6.7633H6.74739H6.73149H6.71559H6.69969H6.6838H6.66792H6.65204H6.63616H6.62029H6.60442H6.58856H6.5727H6.55685H6.541H6.52515H6.50931H6.49348H6.47765H6.46182H6.446H6.43018H6.41437H6.39856H6.38275H6.36695H6.35115H6.33536H6.31957H6.30379H6.288H6.27223H6.25645H6.24068H6.22492H6.20916H6.1934H6.17765H6.16189H6.14615H6.1304H6.11467H6.09893H6.0832H6.06747H6.05174H6.03602H6.0203H6.00459H5.98888H5.97317H5.95746H5.94176H5.92606H5.91037H5.89467H5.87899H5.8633H5.84762H5.83194H5.81626H5.80059H5.78492H5.76925H5.75358H5.73792H5.72226H5.7066H5.69095H5.6753H5.65965H5.64401H5.62836H5.61272H5.59708H5.58145H5.56581H5.55018H5.53456H5.51893H5.50331H5.48769H5.47207H5.45645H5.44084H5.42523H5.40962H5.39401H5.3784H5.3628H5.3472H5.3316H5.316H5.30041H5.28481H5.26922H5.25363H5.23804H5.22246H5.20687H5.19129H5.17571H5.16013H5.14455H5.12897H5.1134H5.09783H5.08225H5.06668H5.05112H5.03555H5.01998H5.00442H4.98885H4.97329H4.95773H4.94217H4.92661H4.91106H4.8955H4.87995H4.86439H4.84884H4.83329H4.81774H4.80219H4.78664H4.77109H4.75554H4.73999H4.72445H4.7089H4.69336H4.67781H4.66227H4.64673H4.63118H4.61564H4.6001H4.58456H4.56902H4.55348H4.53794H4.5224H4.50686H4.49132H4.47579H4.46025H4.44471H4.42917H4.41363H4.3981H4.38256H4.36702H4.35148H4.33595H4.32041H4.30487H4.28933H4.27379H4.25826H4.24272H4.22718H4.21164H4.1961H4.18056H4.16502H4.14948H4.13394H4.1184H4.10285H4.08731H4.07177H4.05622H4.04068H4.02513H4.00959H3.99404H3.97849H3.96294H3.94739H3.93184H3.91629H3.90074H3.88519H3.86963H3.85408H3.83852H3.82296H3.80741H3.79185H3.77628H3.76072H3.74516H3.72959H3.71403H3.69846H3.68289H3.66732H3.65175H3.63618H3.6206H3.60503H3.58945H3.57387H3.55829H3.5427H3.52712H3.51153H3.49594H3.48035H3.46476H3.44917H3.43357H3.41797H3.40237H3.38677H3.37117H3.35556H3.33996H3.32435H3.30873H3.29312H3.2775H3.26188H3.24626H3.23064H3.21501H3.19938H3.18375H3.16812H3.15248H3.13684H3.1212H3.10556H3.08991H3.07427H3.05861H3.04296H3.0273H3.01164H2.99598H2.98031H2.96465H2.94897H2.9333H2.91762H2.90194H2.88626H2.87057H2.85488H2.83919H2.8235H2.8078H2.79209H2.77639H2.76068H2.74497H2.72925H2.71353H2.69781H2.68209H2.66636H2.65062H2.63489H2.61915H2.6034H2.58766H2.5719H2.55615H2.54039H2.52463H2.50886H2.49309H2.47732H2.46154H2.44576H2.42997H2.41418H2.39839H2.38259H2.36679H2.35098H2.33517H2.31936H2.30354H2.28772H2.27189H2.25606H2.24022H2.22438H2.20854H2.19269H2.17683H2.16098H2.14511H2.12925H2.11337H2.0975H2.08161H2.06573H2.04984H2.03394H2.01804H2.00214H1.98623H1.97031H1.95439H1.93846H1.92253H1.9066H1.89066H1.87471H1.85876H1.84281H1.82685H1.81088H1.79491H1.77893H1.76295H1.74696H1.73097H1.71497H1.69897H1.68296H1.66694H1.65092H1.6349H1.61886H1.60283H1.58678H1.57074H1.55468H1.53862H1.52255H1.50648H1.4904H1.47432H1.45823H1.44214H1.42603H1.40993H1.39381H1.37769H1.36157H1.34543H1.3293H1.31315C1.07004 19.6667 0.836878 19.5701 0.66497 19.3982C0.493088 19.2263 0.396513 18.9932 0.396484 18.7501C0.398179 17.0054 0.902329 15.298 1.84866 13.8322C2.79501 12.3664 4.14352 11.2041 5.73294 10.4844L6.08876 10.3233L5.79344 10.0677C5.19804 9.55228 4.72049 8.91485 4.39318 8.19863C4.06587 7.4824 3.89648 6.70415 3.89648 5.91668C3.89648 4.43588 4.48473 3.01574 5.53181 1.96866C6.57888 0.921586 7.99903 0.333344 9.47982 0.333344C10.9606 0.333344 12.3808 0.921587 13.4278 1.96866C14.4749 3.01574 15.0632 4.43588 15.0632 5.91668C15.0632 6.70415 14.8938 7.4824 14.5665 8.19863C14.2392 8.91485 13.7616 9.55228 13.1662 10.0677ZM20.6562 9.62401L20.4598 9.84522L20.7107 10.002C22.1927 10.9283 23.4134 12.2181 24.2566 13.749C25.0997 15.2799 25.5375 17.001 25.5282 18.7487V18.75C25.5282 18.9931 25.4316 19.2263 25.2597 19.3982C25.0878 19.5701 24.8546 19.6667 24.6115 19.6667C24.3684 19.6667 24.1352 19.5701 23.9633 19.3982C23.7916 19.2265 23.6951 18.9937 23.6948 18.751C23.7073 17.1473 23.2613 15.5734 22.4094 14.2146C21.5585 12.8573 20.3379 11.7711 18.8911 11.0835L18.7554 11.0105L18.3102 10.7137L18.3089 10.7128C18.1789 10.6273 18.0728 10.51 18.0006 10.3721C17.9285 10.2343 17.8926 10.0804 17.8964 9.9249C17.9005 9.76806 17.9448 9.6149 18.0251 9.48008C18.1053 9.34526 18.2188 9.23329 18.3547 9.1549L18.3548 9.15485C18.9234 8.82658 19.3959 8.35477 19.7249 7.78663C20.0539 7.21848 20.228 6.5739 20.2298 5.91735V5.91668C20.2298 4.92211 19.8347 3.96829 19.1315 3.26503C18.4282 2.56177 17.4744 2.16668 16.4798 2.16668C16.2367 2.16668 16.0035 2.0701 15.8316 1.89819C15.6597 1.72628 15.5632 1.49313 15.5632 1.25001C15.5632 1.0069 15.6597 0.773738 15.8316 0.601829C16.0035 0.429921 16.2367 0.333344 16.4798 0.333344H16.4799C17.5561 0.333056 18.6095 0.643833 19.5133 1.22827C20.417 1.8127 21.1326 2.64588 21.5739 3.62751C22.0151 4.60914 22.1633 5.69739 22.0005 6.76126C21.8377 7.82512 21.3708 8.81926 20.6562 9.62401ZM7.39643 9.03469C8.01311 9.44674 8.73814 9.66668 9.47982 9.66668C10.4744 9.66668 11.4282 9.27159 12.1315 8.56833C12.8347 7.86507 13.2298 6.91124 13.2298 5.91668C13.2298 5.175 13.0099 4.44997 12.5978 3.83329C12.1858 3.2166 11.6001 2.73596 10.9149 2.45213C10.2297 2.1683 9.47566 2.09404 8.74823 2.23873C8.0208 2.38343 7.35261 2.74058 6.82817 3.26503C6.30372 3.78947 5.94657 4.45766 5.80187 5.18509C5.65718 5.91252 5.73144 6.66652 6.01527 7.35174C6.2991 8.03696 6.77975 8.62263 7.39643 9.03469Z" fill="white"/>
</svg>
