<svg width="36" height="32" viewBox="0 0 36 32" fill="none" xmlns="http://www.w3.org/2000/svg">
    <path d="M27.1659 9.77595C26.8225 9.5764 26.4331 9.47137 26.0368 9.47137C25.6404 9.47137 25.2511 9.5764 24.9076 9.77595L19.7269 12.8879L16.2067 14.9175L11.0259 18.0296C10.6825 18.2291 10.2931 18.3341 9.89678 18.3341C9.50045 18.3341 9.11107 18.2291 8.76767 18.0296L4.64967 15.5941C4.31174 15.3906 4.03077 15.1038 3.83322 14.7605C3.63567 14.4172 3.52806 14.0289 3.52053 13.6321V8.8288C3.51396 8.42915 3.61563 8.03526 3.8146 7.68955C4.01356 7.34384 4.30228 7.05941 4.64967 6.86688L8.70126 4.49902C9.04467 4.29948 9.43406 4.19445 9.8304 4.19445C10.2268 4.19445 10.6161 4.29948 10.9595 4.49902L15.0111 6.86688C15.349 7.07035 15.63 7.35723 15.8275 7.70047C16.0251 8.04372 16.1327 8.43202 16.1402 8.8288V11.9408L19.6604 9.84359V6.73153C19.667 6.33188 19.5654 5.938 19.3664 5.59229C19.1674 5.24658 18.8787 4.96214 18.5314 4.7696L11.0259 0.304576C10.6825 0.105034 10.2931 0 9.89678 0C9.50045 0 9.11107 0.105034 8.76767 0.304576L1.12942 4.76966C0.782045 4.96219 0.493335 5.24662 0.294375 5.59232C0.0954141 5.93801 -0.00626029 6.33189 0.000298976 6.73153V15.7294C-0.00626635 16.129 0.095407 16.5229 0.294372 16.8686C0.493336 17.2143 0.782054 17.4987 1.12944 17.6912L8.76769 22.1563C9.11108 22.3559 9.50046 22.4609 9.8968 22.4609C10.2931 22.4609 10.6825 22.3559 11.0259 22.1563L16.2067 19.1119L19.7269 17.0147L24.9077 13.9704C25.2511 13.7708 25.6405 13.6658 26.0368 13.6658C26.4331 13.6658 26.8225 13.7708 27.1659 13.9704L31.2175 16.3383C31.5554 16.5417 31.8364 16.8286 32.0339 17.1718C32.2314 17.5151 32.339 17.9034 32.3466 18.3001V23.1035C32.3532 23.5031 32.2515 23.897 32.0526 24.2427C31.8536 24.5884 31.5649 24.8729 31.2175 25.0654L27.1659 27.501C26.8225 27.7005 26.4331 27.8055 26.0368 27.8055C25.6405 27.8055 25.2511 27.7005 24.9077 27.501L20.8561 25.1331C20.5181 24.9296 20.2372 24.6428 20.0396 24.2995C19.842 23.9562 19.7344 23.5679 19.7269 23.1711V20.0591L16.2067 22.1563V25.2684C16.2001 25.668 16.3018 26.0619 16.5007 26.4076C16.6997 26.7533 16.9884 27.0377 17.3358 27.2303L24.974 31.6954C25.3174 31.895 25.7068 32 26.1031 32C26.4995 32 26.8889 31.895 27.2323 31.6954L34.8705 27.2303C35.2085 27.0268 35.4894 26.74 35.687 26.3967C35.8845 26.0535 35.9922 25.6652 35.9997 25.2684V16.2706C36.0063 15.8709 35.9046 15.477 35.7056 15.1313C35.5066 14.7856 35.2179 14.5012 34.8705 14.3087L27.1659 9.77595Z" fill="white"/>
</svg>
