<svg width="29" height="37" viewBox="0 0 29 37" fill="none" xmlns="http://www.w3.org/2000/svg">
    <path d="M19.2119 15.8042C19.5254 15.6458 19.6821 15.8833 19.8389 16.0417C21.5631 17.4666 23.0522 19.129 23.7575 21.3456C24.5412 23.958 23.6791 26.1745 22.1901 28.2328C20.4659 30.6868 18.0363 32.3492 15.3716 33.695C12.2367 35.2783 8.94508 36.3074 5.57505 36.9407C5.26156 37.0199 4.94807 36.9407 4.71295 36.7824C4.32108 36.4657 3.92922 36.2282 3.45898 35.8324C5.57505 35.5949 7.61274 35.1199 9.49368 34.4075C13.1772 33.1409 16.5472 31.3201 19.5254 28.7077C20.7794 27.5995 21.7982 26.2537 22.3468 24.5913C23.1305 22.1372 22.4252 19.9998 21.1712 17.9416C20.5442 17.1499 19.9956 16.4375 19.2119 15.8042Z" fill="white"/>
    <path d="M8.24081 21.8201C6.35987 20.2368 4.87078 18.4161 4.32217 15.962C3.93031 14.0621 4.47892 12.3205 5.34102 10.7373C6.75173 8.28323 8.78942 6.54164 11.219 5.11671C14.7457 3.05847 18.5076 1.79186 22.4263 1.00023C22.8965 0.921069 23.2884 1.00023 23.6019 1.31688C23.9154 1.55437 24.2288 1.79186 24.6991 2.10851C23.1316 2.346 21.6425 2.58349 20.2318 2.97931C15.9213 4.24592 12.0811 6.22499 8.63267 9.15402C7.45708 10.1831 6.43824 11.4498 5.88963 12.9538C5.1059 15.0121 5.41939 17.0703 6.43824 18.9702C6.90847 19.841 7.53546 20.6327 8.08407 21.4243C8.24081 21.5826 8.24081 21.7409 8.24081 21.8201Z" fill="white"/>
    <path d="M21.486 19.8408C22.113 21.5824 22.113 23.324 21.0942 24.9864C19.1349 28.0738 16.3918 30.2112 13.2569 31.7944C10.0436 33.4569 6.67359 34.486 3.14682 35.1193C2.75495 35.1984 2.44146 35.1193 2.20635 34.8818C1.89285 34.6443 1.57936 34.4068 1.26587 34.0902C1.1875 34.0902 1.1875 34.011 1.1875 33.8527C1.89285 33.6943 2.59821 33.536 3.22519 33.3777C7.45732 32.3486 11.5327 31.0028 15.2162 28.7071C17.4107 27.2821 19.37 25.6197 20.6239 23.324C21.2509 22.1365 21.486 21.1866 21.486 19.8408Z" fill="white"/>
    <path d="M6.67363 18.0995C6.04665 16.3579 6.04665 14.6163 7.14387 13.0331C9.10319 9.94571 11.9246 7.8083 15.1379 6.14588C18.3512 4.48346 21.7212 3.45434 25.248 2.9002C25.4831 2.82103 25.7182 2.9002 25.9533 3.05852C26.3452 3.37517 26.8154 3.61266 27.2073 4.08764C26.4236 4.24597 25.7966 4.40429 25.0912 4.56262C20.8591 5.59174 16.7837 6.93751 13.1002 9.23324C10.9841 10.4998 9.18156 12.0831 7.84922 14.1413C7.0655 15.5663 6.75201 16.5162 6.67363 18.0995Z" fill="white"/>
    <path d="M0.0117188 32.9823C0.32521 32.349 0.638701 31.7949 0.873819 31.1616C1.03056 30.9241 1.26568 31.0032 1.5008 30.9241C4.00873 30.4491 6.51665 29.895 8.94621 29.0242C12.2379 27.7576 15.2944 26.016 17.8807 23.4036C19.0563 22.137 19.9968 20.7121 20.0751 18.8913C20.0751 18.5746 20.0751 18.3372 20.0751 18.0205C20.8589 18.9705 21.0156 20.3954 20.3103 21.8995C19.4482 23.7202 18.1158 25.1452 16.5484 26.3326C12.3162 29.7366 7.5355 31.6365 2.3629 32.7448C1.65755 32.9032 0.952191 32.9823 0.32521 33.0615C0.168464 33.0615 0.168464 33.0615 0.0117188 32.9823Z" fill="white"/>
    <path d="M8.08399 19.762C7.30026 18.4954 7.30026 17.2288 7.84887 15.883C8.55422 14.2997 9.65144 13.1123 10.9054 12.004C14.824 8.75832 19.3697 6.77925 24.2288 5.51264C25.326 5.27515 26.4232 5.03766 27.5204 4.87934C27.6772 4.87934 27.9123 4.72101 27.9907 4.9585C28.069 5.11682 27.9123 5.27515 27.8339 5.35431C27.5204 6.4626 26.7367 6.93757 25.5611 7.0959C20.702 7.88753 16.1564 9.54995 12.1594 12.6373C11.3756 13.1915 10.6703 13.8248 10.0433 14.5372C8.86771 16.0413 7.92724 17.7037 8.08399 19.762Z" fill="white"/>
    <path d="M18.7419 15.9624C19.604 17.3873 19.7607 18.8123 19.1338 20.3164C18.5068 21.8996 17.2528 22.9287 15.9989 23.9579C11.9235 27.2036 7.29948 29.1826 2.20526 29.9743C1.97014 29.9743 1.73502 30.1326 1.57827 29.8951C1.4999 29.7368 1.73502 29.5784 1.81339 29.341C2.12688 28.391 2.91061 28.1535 3.92946 27.916C7.37786 27.1244 10.5911 25.6995 13.5693 23.7995C14.7449 23.0871 15.9205 22.2954 16.861 21.2663C18.2717 19.8414 19.1338 18.179 18.7419 15.9624Z" fill="white"/>
    <path d="M9.49493 21.8995C8.47608 20.3163 8.47608 18.6538 9.41655 16.9914C10.357 15.329 11.8461 14.2207 13.3352 13.1916C17.0971 10.5001 21.2508 8.75847 25.7965 8.046C26.1099 7.96684 26.5018 7.88767 26.6586 8.046C26.8153 8.28349 26.4234 8.52098 26.3451 8.83763C26.1099 9.5501 25.5613 9.78759 24.7776 9.94591C20.0752 10.975 15.9215 13.0333 12.1596 16.0415C10.5921 17.3081 9.41655 18.8913 9.41655 21.0287C9.41655 21.2662 9.49493 21.5829 9.49493 21.8995Z" fill="white"/>
    <path d="M8.24023 21.8198C8.24023 21.7406 8.24023 21.5822 8.24023 21.5029C8.6321 21.8991 9.02396 22.2952 9.41583 22.6121L9.33745 22.6913C8.94559 22.4536 8.55373 22.216 8.24023 21.8198Z" fill="white"/>
</svg>
