<svg width="20" height="20" viewBox="0 0 20 20" fill="none" xmlns="http://www.w3.org/2000/svg">
    <path d="M10 19.9995C15.5228 19.9995 20 15.5224 20 9.99951C20 4.47666 15.5228 -0.000488281 10 -0.000488281C4.47715 -0.000488281 0 4.47666 0 9.99951C0 15.5224 4.47715 19.9995 10 19.9995Z" fill="#118E40"/>
    <rect x="4.97998" y="4.13184" width="10.1142" height="11.7472" fill="white"/>
    <path fill-rule="evenodd" clip-rule="evenodd" d="M5.5844 1.74472C5.03666 2.04596 4.74353 2.23934 4.16155 2.68338C4.11408 2.7196 4.04892 2.77294 4.01674 2.80191C3.98458 2.83088 3.89502 2.90792 3.81772 2.97311C3.4362 3.29487 2.82479 3.95545 2.5013 4.39542C2.25103 4.73577 2.10927 4.94384 2.10927 4.97082C2.10927 4.98512 2.09968 5.00076 2.08799 5.00561C2.0588 5.01765 1.82491 5.4116 1.67747 5.69703L1.55615 5.93192V10.0362V14.1405L1.6706 14.358C1.84746 14.694 1.99725 14.9486 2.17043 15.2076C2.31595 15.4251 2.62514 15.848 2.66157 15.8792C2.67 15.8864 2.71796 15.9457 2.76814 16.0109C3.19125 16.5606 4.07774 17.3715 4.73042 17.8058C5.02423 18.0013 5.45721 18.2634 5.63303 18.3522L5.79522 18.4341H10.0178H14.2404L14.4238 18.3391C15.0258 18.0273 15.7866 17.4936 16.296 17.0258C16.4942 16.8438 16.9481 16.3862 17.0767 16.2388C17.167 16.1352 17.2479 16.0445 17.2563 16.0372C17.2647 16.03 17.3784 15.8818 17.5091 15.708C17.814 15.3021 18.0863 14.8816 18.3042 14.48L18.4131 14.2792V10.0385V5.79778L18.3035 5.59047C18.1295 5.26136 17.5297 4.34079 17.439 4.26372C17.4304 4.25648 17.3501 4.16 17.2605 4.04932C16.5154 3.12946 15.3649 2.20349 14.302 1.66825L14.1211 1.57715L10.005 1.5772L5.88891 1.57723L5.5844 1.74472ZM7.74351 5.09179C7.95312 5.23708 7.95654 5.25475 7.95641 6.19199L7.95633 7.01614L7.83433 7.06632C7.32269 7.27676 6.65326 7.74333 6.25765 8.16523C5.98908 8.45161 5.63071 8.94286 5.49622 9.20886C5.47244 9.25595 5.44734 9.29446 5.44046 9.29446C5.43359 9.29446 5.42798 8.32811 5.42798 7.14699V4.99955L6.52992 5.00695L7.63186 5.01438L7.74351 5.09179ZM14.3876 5.07496C14.4939 5.14162 14.5615 5.23052 14.5952 5.34802C14.6073 5.39021 14.6191 6.20358 14.6214 7.15547C14.625 8.64691 14.6195 8.92627 14.5819 9.17593C14.4955 9.75023 14.3051 10.2779 14.0034 10.78C13.7784 11.1543 13.6246 11.3494 13.3189 11.6482C12.7136 12.2399 11.9614 12.6444 11.1304 12.8251C10.9132 12.8723 10.7536 12.8845 10.2217 12.8945C9.60934 12.9061 8.65847 12.8762 8.62666 12.8443C8.61852 12.8362 8.61288 12.5052 8.61412 12.1087C8.61652 11.3533 8.63055 11.2332 8.74384 10.9992C8.83789 10.8049 9.04315 10.6001 9.24823 10.4959C9.47846 10.379 9.65917 10.3485 10.1234 10.3482C10.4025 10.3481 10.5329 10.3357 10.6897 10.2947C11.2394 10.1507 11.6502 9.81394 11.8952 9.30649C12.0642 8.95656 12.0654 8.93988 12.0654 6.88711C12.0654 5.86918 12.0738 5.02794 12.084 5.0177C12.0943 5.00745 12.595 5.0025 13.1968 5.00672C14.2868 5.01435 14.2914 5.01462 14.3876 5.07496ZM11.2752 7.20918L11.4201 7.22685L11.4273 7.92483C11.4351 8.68471 11.4233 8.78925 11.3001 9.04735C11.1611 9.3386 10.8944 9.56325 10.5679 9.66415C10.4331 9.70579 10.3237 9.71588 10.0068 9.71588C9.58584 9.71588 9.37252 9.74967 9.08693 9.86159C8.69859 10.0138 8.34644 10.3444 8.14795 10.7433C7.96692 11.107 7.97303 11.0276 7.96286 13.1465L7.95367 15.0627H6.87414C5.86491 15.0627 5.78827 15.0594 5.6969 15.0126C5.58946 14.9575 5.49053 14.8551 5.45534 14.7624C5.42682 14.6874 5.41207 11.1818 5.43936 10.967C5.46943 10.7304 5.62175 10.1264 5.69181 9.9661C5.7549 9.82171 5.98518 9.35064 6.02658 9.28129C6.06662 9.21423 6.2099 9.00131 6.27472 8.91254C6.3987 8.74276 6.83018 8.30116 7.03033 8.13918C7.27531 7.94095 7.75191 7.6351 7.81587 7.6351C7.83285 7.6351 7.85071 7.62544 7.85556 7.61364C7.86464 7.59141 8.10652 7.49032 8.40428 7.38431C8.57825 7.32236 9.12112 7.19877 9.31297 7.17747C9.45981 7.16114 11.0984 7.18763 11.2752 7.20918ZM14.6203 12.9292V15.0627H13.5259C12.3387 15.0627 12.3624 15.0654 12.2182 14.9136C12.0721 14.7598 12.0654 14.7129 12.0654 13.8513V13.0596L12.1306 13.0348C12.3229 12.9617 12.7312 12.7441 12.9478 12.5993C13.584 12.1739 14.0138 11.7159 14.4979 10.9472C14.5504 10.8639 14.5994 10.7958 14.6068 10.7958C14.6142 10.7958 14.6203 11.7558 14.6203 12.9292Z" fill="black"/>
</svg>
