<svg width="20" height="20" viewBox="0 0 20 20" fill="none" xmlns="http://www.w3.org/2000/svg">
    <path d="M10 19.9995C15.5228 19.9995 20 15.5224 20 9.99951C20 4.47666 15.5228 -0.000488281 10 -0.000488281C4.47715 -0.000488281 0 4.47666 0 9.99951C0 15.5224 4.47715 19.9995 10 19.9995Z" fill="white"/>
    <path d="M10.6417 9.32202C10.2198 9.42534 9.77927 9.42534 9.35738 9.32202C9.23958 8.84248 8.99273 8.40435 8.64361 8.05518C8.29449 7.70601 7.85643 7.45912 7.37696 7.3413C7.27979 6.94381 7.27421 6.52943 7.36064 6.12947C7.44707 5.72951 7.62324 5.35443 7.87586 5.03255C8.12848 4.71068 8.45094 4.45043 8.81886 4.27147C9.18679 4.0925 9.59058 3.99951 9.99971 3.99951C10.4088 3.99951 10.8126 4.0925 11.1805 4.27147C11.5485 4.45043 11.8709 4.71068 12.1236 5.03255C12.3762 5.35443 12.5523 5.72951 12.6388 6.12947C12.7252 6.52943 12.7196 6.94381 12.6224 7.3413C12.1429 7.45907 11.7048 7.70594 11.3556 8.05511C11.0065 8.40429 10.7596 8.84244 10.6417 9.32202Z" fill="#7ABDF7"/>
    <path d="M9.35817 10.6771C9.78005 10.5738 10.2206 10.5738 10.6425 10.6771C10.7604 11.1566 11.0073 11.5947 11.3564 11.9438C11.7055 12.293 12.1435 12.5399 12.6229 12.6578C12.7201 13.0553 12.7257 13.4697 12.6393 13.8696C12.5528 14.2696 12.3767 14.6447 12.124 14.9666C11.8714 15.2884 11.549 15.5487 11.181 15.7277C10.8131 15.9066 10.4093 15.9996 10.0002 15.9996C9.59106 15.9996 9.18728 15.9066 8.81935 15.7277C8.45142 15.5487 8.12897 15.2884 7.87635 14.9666C7.62373 14.6447 7.44755 14.2696 7.36113 13.8696C7.2747 13.4697 7.28028 13.0553 7.37745 12.6578C7.85698 12.5401 8.29509 12.2932 8.64427 11.944C8.99344 11.5948 9.24034 11.1567 9.35817 10.6771Z" fill="#0D74F5"/>
    <path d="M6.69955 7.3004C6.91591 7.30037 7.13149 7.32636 7.34164 7.37781C7.45944 7.85721 7.70633 8.29521 8.05551 8.64428C8.40469 8.99335 8.84284 9.24016 9.3224 9.35793C9.42574 9.77981 9.42574 10.2204 9.3224 10.6423C8.84283 10.7601 8.40469 11.007 8.05552 11.3561C7.70634 11.7052 7.45946 12.1433 7.34164 12.6227C6.97067 12.7133 6.5847 12.7242 6.20921 12.6547C5.83371 12.5852 5.47722 12.4369 5.16326 12.2196C4.8493 12.0023 4.58501 11.7209 4.38783 11.394C4.19064 11.0671 4.06505 10.7021 4.01933 10.3231C3.97361 9.94405 4.00881 9.55966 4.1226 9.19525C4.23639 8.83084 4.42619 8.4947 4.67947 8.209C4.93275 7.9233 5.24376 7.69455 5.59197 7.53782C5.94018 7.3811 6.31768 7.29998 6.69955 7.2998V7.3004Z" fill="#4494F7"/>
    <path d="M10.6775 10.6415C10.5742 10.2196 10.5742 9.77907 10.6775 9.35718C11.157 9.2394 11.5951 8.9926 11.9443 8.64353C12.2934 8.29447 12.5403 7.85648 12.6582 7.37706C13.0557 7.27989 13.4701 7.27431 13.87 7.36074C14.27 7.44716 14.6451 7.62334 14.967 7.87596C15.2888 8.12858 15.5491 8.45103 15.728 8.81896C15.907 9.18689 16 9.59067 16 9.9998C16 10.4089 15.907 10.8127 15.728 11.1806C15.5491 11.5486 15.2888 11.871 14.967 12.1236C14.6451 12.3763 14.27 12.5524 13.87 12.6389C13.4701 12.7253 13.0557 12.7197 12.6582 12.6225C12.5405 12.143 12.2936 11.7048 11.9444 11.3556C11.5953 11.0064 11.1571 10.7594 10.6775 10.6415Z" fill="#005CF4"/>
    <path d="M9.3999 9.3998C8.89153 9.27479 8.42707 9.013 8.05689 8.64282C7.6867 8.27263 7.42492 7.80818 7.2999 7.2998C7.80832 7.42472 8.27283 7.68648 8.64303 8.05668C9.01323 8.42688 9.27499 8.89138 9.3999 9.3998Z" fill="#186EF9"/>
    <path d="M9.3999 10.5996C9.27499 11.108 9.01323 11.5725 8.64303 11.9427C8.27283 12.3129 7.80832 12.5747 7.2999 12.6996C7.42492 12.1912 7.6867 11.7268 8.05689 11.3566C8.42707 10.9864 8.89153 10.7246 9.3999 10.5996Z" fill="#0246F2"/>
    <path d="M10.6002 9.3998C10.7252 8.89143 10.987 8.42698 11.3572 8.05679C11.7274 7.68661 12.1918 7.42482 12.7002 7.2998C12.5752 7.80818 12.3134 8.27263 11.9432 8.64282C11.573 9.013 11.1086 9.27479 10.6002 9.3998Z" fill="#0046F8"/>
    <path d="M10.6002 10.5996C11.1086 10.7246 11.573 10.9864 11.9432 11.3566C12.3134 11.7268 12.5752 12.1912 12.7002 12.6996C12.1918 12.5746 11.7274 12.3128 11.3572 11.9426C10.987 11.5724 10.7252 11.108 10.6002 10.5996Z" fill="#0729F1"/>
    <path d="M10.6417 9.32202C10.2198 9.42534 9.77927 9.42534 9.35738 9.32202C9.23958 8.84248 8.99273 8.40435 8.64361 8.05518C8.29449 7.70601 7.85643 7.45912 7.37696 7.3413C7.27979 6.94381 7.27421 6.52943 7.36064 6.12947C7.44707 5.72951 7.62324 5.35443 7.87586 5.03255C8.12848 4.71068 8.45094 4.45043 8.81886 4.27147C9.18679 4.0925 9.59058 3.99951 9.99971 3.99951C10.4088 3.99951 10.8126 4.0925 11.1805 4.27147C11.5485 4.45043 11.8709 4.71068 12.1236 5.03255C12.3762 5.35443 12.5523 5.72951 12.6388 6.12947C12.7252 6.52943 12.7196 6.94381 12.6224 7.3413C12.1429 7.45907 11.7048 7.70594 11.3556 8.05511C11.0065 8.40429 10.7596 8.84244 10.6417 9.32202Z" fill="#7ABDF7"/>
    <path d="M9.35817 10.6771C9.78005 10.5738 10.2206 10.5738 10.6425 10.6771C10.7604 11.1566 11.0073 11.5947 11.3564 11.9438C11.7055 12.293 12.1435 12.5399 12.6229 12.6578C12.7201 13.0553 12.7257 13.4697 12.6393 13.8696C12.5528 14.2696 12.3767 14.6447 12.124 14.9666C11.8714 15.2884 11.549 15.5487 11.181 15.7277C10.8131 15.9066 10.4093 15.9996 10.0002 15.9996C9.59106 15.9996 9.18728 15.9066 8.81935 15.7277C8.45142 15.5487 8.12897 15.2884 7.87635 14.9666C7.62373 14.6447 7.44755 14.2696 7.36113 13.8696C7.2747 13.4697 7.28028 13.0553 7.37745 12.6578C7.85698 12.5401 8.29509 12.2932 8.64427 11.944C8.99344 11.5948 9.24034 11.1567 9.35817 10.6771Z" fill="#0D74F5"/>
    <path d="M6.69955 7.3004C6.91591 7.30037 7.13149 7.32636 7.34164 7.37781C7.45944 7.85721 7.70633 8.29521 8.05551 8.64428C8.40469 8.99335 8.84284 9.24016 9.3224 9.35793C9.42574 9.77981 9.42574 10.2204 9.3224 10.6423C8.84283 10.7601 8.40469 11.007 8.05552 11.3561C7.70634 11.7052 7.45946 12.1433 7.34164 12.6227C6.97067 12.7133 6.5847 12.7242 6.20921 12.6547C5.83371 12.5852 5.47722 12.4369 5.16326 12.2196C4.8493 12.0023 4.58501 11.7209 4.38783 11.394C4.19064 11.0671 4.06505 10.7021 4.01933 10.3231C3.97361 9.94405 4.00881 9.55966 4.1226 9.19525C4.23639 8.83084 4.42619 8.4947 4.67947 8.209C4.93275 7.9233 5.24376 7.69455 5.59197 7.53782C5.94018 7.3811 6.31768 7.29998 6.69955 7.2998V7.3004Z" fill="#4494F7"/>
    <path d="M10.6775 10.6415C10.5742 10.2196 10.5742 9.77907 10.6775 9.35718C11.157 9.2394 11.5951 8.9926 11.9443 8.64353C12.2934 8.29447 12.5403 7.85648 12.6582 7.37706C13.0557 7.27989 13.4701 7.27431 13.87 7.36074C14.27 7.44716 14.6451 7.62334 14.967 7.87596C15.2888 8.12858 15.5491 8.45103 15.728 8.81896C15.907 9.18689 16 9.59067 16 9.9998C16 10.4089 15.907 10.8127 15.728 11.1806C15.5491 11.5486 15.2888 11.871 14.967 12.1236C14.6451 12.3763 14.27 12.5524 13.87 12.6389C13.4701 12.7253 13.0557 12.7197 12.6582 12.6225C12.5405 12.143 12.2936 11.7048 11.9444 11.3556C11.5953 11.0064 11.1571 10.7594 10.6775 10.6415Z" fill="#005CF4"/>
    <path d="M9.3999 9.3998C8.89153 9.27479 8.42707 9.013 8.05689 8.64282C7.6867 8.27263 7.42492 7.80818 7.2999 7.2998C7.80832 7.42472 8.27283 7.68648 8.64303 8.05668C9.01323 8.42688 9.27499 8.89138 9.3999 9.3998Z" fill="#186EF9"/>
    <path d="M9.3999 10.5996C9.27499 11.108 9.01323 11.5725 8.64303 11.9427C8.27283 12.3129 7.80832 12.5747 7.2999 12.6996C7.42492 12.1912 7.6867 11.7268 8.05689 11.3566C8.42707 10.9864 8.89153 10.7246 9.3999 10.5996Z" fill="#0246F2"/>
    <path d="M10.6002 9.3998C10.7252 8.89143 10.987 8.42698 11.3572 8.05679C11.7274 7.68661 12.1918 7.42482 12.7002 7.2998C12.5752 7.80818 12.3134 8.27263 11.9432 8.64282C11.573 9.013 11.1086 9.27479 10.6002 9.3998Z" fill="#0046F8"/>
    <path d="M10.6002 10.5996C11.1086 10.7246 11.573 10.9864 11.9432 11.3566C12.3134 11.7268 12.5752 12.1912 12.7002 12.6996C12.1918 12.5746 11.7274 12.3128 11.3572 11.9426C10.987 11.5724 10.7252 11.108 10.6002 10.5996Z" fill="#0729F1"/>
</svg>
