<svg width="20" height="20" viewBox="0 0 20 20" fill="none" xmlns="http://www.w3.org/2000/svg">
    <path d="M10 19.9995C15.5228 19.9995 20 15.5224 20 9.99951C20 4.47666 15.5228 -0.000488281 10 -0.000488281C4.47715 -0.000488281 0 4.47666 0 9.99951C0 15.5224 4.47715 19.9995 10 19.9995Z" fill="white"/>
    <path fill-rule="evenodd" clip-rule="evenodd" d="M5 4.99951L9.17842 15.9995L15 8.5782L12.9389 6.52814L5 4.99951ZM6.48131 5.8745L12.2037 6.97653L9.98249 8.91294L6.48131 5.8745ZM6.08448 6.28377L9.73332 9.45047L9.1628 14.3884L6.08448 6.28377ZM12.8112 7.20159L14.0256 8.40959L10.7042 9.03897L12.8112 7.20159ZM10.2615 9.71242L13.9394 9.0157L9.72078 14.3936L10.2615 9.71242Z" fill="#C63127"/>
</svg>
