<svg width="24" height="24" viewBox="0 0 24 24" fill="none" xmlns="http://www.w3.org/2000/svg">
<circle cx="12" cy="12" r="12" fill="#2BE2B3"/>
<path d="M6.68571 6L6.68566 11.3379H7.37133L7.37143 6H8.07429V11.3208H17.3142V10.6492H8.91429V6H9.6V9.926L17.3142 9.92589V9.09948H10.1143V6H10.8171V8.4107H13.0285L13.0286 6H13.7143L13.7142 8.4107H14.5714V6H15.2571L15.2571 8.4107H15.9428L15.9429 6H16.6286L16.6285 8.4107H17.3142L17.3143 6H18V17.3647H17.3143L17.3142 12.0268H16.6285L16.6286 17.3647H15.9257V12.044L6.68566 12.0439V12.7154L15.2571 12.7155V17.3647H14.5714V13.4387L6.68566 13.4386V14.2652L13.8857 14.2653V17.3647H13.1829V14.954L10.9713 14.9539L10.9714 17.3647H10.2857L10.2857 14.9539H9.42855L9.42857 17.3647H8.74286L8.74277 14.9539H8.05711L8.05714 17.3647H7.37143L7.37133 14.9539H6.68566L6.68571 17.3647H6V6H6.68571Z" fill="white"/>
</svg>
