<svg width="24" height="24" viewBox="0 0 24 24" fill="none" xmlns="http://www.w3.org/2000/svg">
<path fill-rule="evenodd" clip-rule="evenodd" d="M0 12C0 5.37285 5.37285 0 12 0C18.6282 0 24 5.37285 24 12C24 18.6271 18.6271 24 12 24C5.37285 24 0 18.6271 0 12ZM10.4532 7.13107C9.29103 7.13107 8.34931 8.0728 8.34931 9.23493C8.34931 10.3971 9.29204 11.3388 10.4532 11.3388C11.6153 11.3388 12.557 10.3971 12.557 9.23493C12.557 8.0728 11.6153 7.13107 10.4532 7.13107ZM15.3061 17.8066C14.161 19.5378 13.7302 21.0756 13.8744 22.923C19.102 22.0324 23.0813 17.481 23.0813 12C23.0813 5.87978 18.1202 0.918684 12 0.918684C5.87978 0.918684 0.918684 5.87978 0.916681 12.003C0.916681 14.3874 1.67006 16.5964 2.95241 18.4047C3.58958 17.1765 4.08048 15.793 4.26883 12.7935C4.48422 9.37018 5.01519 6.69628 9.62965 6.00601C10.8509 5.81666 12.7564 6.25547 15.294 7.3114C16.2578 7.71214 17.0763 7.98865 17.7345 8.21005L17.7373 8.21097C18.5924 8.49903 19.2107 8.70728 19.628 9.00551C20.1029 9.34413 20.742 9.88612 20.8162 10.6796C20.8663 11.2176 20.6479 11.8006 20.167 12.4188C18.4488 13.7442 15.9362 14.2561 14.6919 14.2561C13.4276 14.2561 12.8365 14.0377 12.1813 13.619C12.1813 13.619 12.2094 14.6288 14.6108 14.6288C16.932 14.6288 19.099 13.3455 20.1459 12.4468C20.0367 12.5851 19.9145 12.7253 19.7793 12.8666C19.2042 13.4677 18.6873 13.9886 18.2314 14.4475L18.2269 14.4521C17.006 15.682 16.1225 16.5719 15.3061 17.8066ZM18.0912 10.9361C17.8407 10.9361 17.6373 11.1394 17.6373 11.3899C17.6373 11.6403 17.8407 11.8437 18.0912 11.8437C18.3416 11.8437 18.545 11.6403 18.545 11.3899C18.545 11.1394 18.3416 10.9361 18.0912 10.9361ZM12.8293 5.96495L12.8647 5.96114C13.8295 5.85595 14.8754 6.36688 15.0667 6.88584C14.4747 6.50213 12.8918 6.07835 12.3979 6.01023C12.4879 6.0017 12.6255 5.98689 12.8293 5.96495ZM11.93 9.23452C11.93 10.0501 11.2688 10.7112 10.4533 10.7112C9.63771 10.7112 8.97656 10.0501 8.97656 9.23452C8.97656 8.41896 9.63771 7.75781 10.4533 7.75781C11.2688 7.75781 11.93 8.41896 11.93 9.23452ZM12.3979 6.00994L12.3923 6.00916L12.3922 6.00916C12.3723 6.00643 12.3534 6.00384 12.3378 6.00293C12.3368 6.00293 12.0804 6.04 12.3979 6.00994Z" fill="white"/>
</svg>
