<svg width="24" height="24" viewBox="0 0 24 24" fill="none" xmlns="http://www.w3.org/2000/svg">
<path d="M19.8016 16.7147C22.5547 16.7147 23.6 14.1621 23.6 11.8176C23.6 10.7349 23.2576 8.05013 21.7195 5.56267C19.9253 2.6624 16.5973 0 11.696 0C8.94933 0 6.59947 0.958933 4.73067 2.41173C1.73653 4.74133 0 8.192 0 11.9147C0 13.9285 0.487467 16.0395 1.52213 17.9189C3.1808 20.9621 6.9728 24 11.8101 24C16.5397 24 19.1936 21.3493 19.9104 20.5739C20.6272 19.7984 19.5232 18.3456 18.6411 18.9856C17.9925 19.5403 15.6235 21.8283 11.8091 21.8283C7.99467 21.8283 5.57227 19.5872 4.63253 18.5205C5.39307 17.3525 9.6928 10.3669 9.6928 10.3669C9.6928 10.3669 9.6928 12.6155 9.6928 14.0832C9.6928 15.5509 10.08 16.7136 11.3003 16.7136C12.5205 16.7136 13.1744 15.4347 14.2208 13.7419C15.2672 12.0491 16.4149 10.2624 16.4149 10.2624C16.4149 10.2624 16.4149 11.5552 16.4149 12.8779C16.4149 14.2005 17.0475 16.7147 19.8016 16.7147ZM14.9888 8.6208C14.1653 9.86027 11.8987 13.5808 11.8987 13.5808H11.744C11.744 13.5808 11.744 9.37707 11.744 7.8944C11.744 6.4128 9.80693 6.37333 9.2256 7.1776C8.64427 7.98187 4.6848 14.5227 3.30987 16.6048C3.30987 16.6048 2.15467 14.4619 2.15467 12C2.15467 7.79307 5.2928 2.14187 11.8005 2.14187C18.1088 2.21333 21.4656 7.6192 21.4656 11.8955C21.4656 13.8379 20.6475 14.5781 19.8528 14.5781C19.0581 14.5781 18.4768 13.8901 18.4768 12.9995C18.4768 12.1088 18.4768 10.9067 18.4768 10.1899C18.4768 9.47307 18.4192 9.13387 18.2347 8.6496C17.5851 7.06133 15.8123 7.38133 14.9888 8.6208Z" fill="white"/>
</svg>
