<svg width="24" height="16" viewBox="0 0 24 16" fill="none" xmlns="http://www.w3.org/2000/svg">
<path fill-rule="evenodd" clip-rule="evenodd" d="M16.2916 14.3855C16.8405 15.134 17.6035 15.9828 17.6035 15.9828C21.3125 15.9012 23.1649 14.0303 23.7725 13.4167L23.7725 13.4167L23.7725 13.4167C23.9079 13.28 23.9815 13.2057 24 13.2275C24 7.04802 21.0001 2.01658 21.0001 2.01658C18.3153 0.0898433 15.8136 0.00999594 15.3357 0L15.0306 0.28952C18.4577 1.24786 20.1153 2.74532 20.1153 2.74532C17.1737 1.32462 14.4016 0.825244 12 0.794954C9.59851 0.824881 6.82617 1.32462 3.88474 2.74532C3.88474 2.74532 5.54238 1.24786 8.96955 0.28952L8.6644 0C8.18647 0.00999594 5.68475 0.090086 3.00001 2.01658C3.00001 2.01658 0 7.04814 0 13.2275C0.0185485 13.2056 0.0921464 13.28 0.227568 13.4167C0.835223 14.0304 2.68766 15.9012 6.39695 15.9828C6.39695 15.9828 7.15967 15.1342 7.70878 14.3855C5.06439 13.6368 4.06782 12.1394 4.06782 12.1394C6.81666 13.8391 9.38417 14.4929 12 14.4081C14.6159 14.4931 17.1834 13.8391 19.9325 12.1394C19.9325 12.1394 18.9357 13.6368 16.2916 14.3855ZM8.30537 7.01952V7.02951C9.45454 7.02951 10.4003 7.98779 10.4003 9.16587C10.4003 10.3339 9.46472 11.2923 8.30537 11.2923C7.14602 11.2923 6.21045 10.3338 6.21045 9.15587C6.21045 7.97792 7.14602 7.01952 8.30537 7.01952ZM15.6924 7.0173V7.02729C14.5432 7.02729 13.5974 7.9857 13.5974 9.16365C13.5974 10.3317 14.5331 11.2901 15.6924 11.2901C16.8517 11.2901 17.7873 10.3317 17.7873 9.15365C17.7873 7.97564 16.8517 7.0173 15.6924 7.0173Z" fill="white"/>
</svg>
