<svg width="22" height="24" viewBox="0 0 22 24" fill="none" xmlns="http://www.w3.org/2000/svg">
<path d="M6.66976 24C7.52327 24 7.75607 23.6634 7.75607 23.2488C7.75607 22.8777 7.74287 21.8949 7.73627 20.5926C3.31391 21.5346 2.3812 18.4967 2.3812 18.4967C1.65789 16.6937 0.612375 16.2113 0.612375 16.2113C-0.827645 15.2429 0.723676 15.2627 0.723676 15.2627C2.3203 15.3713 3.15881 16.8725 3.15881 16.8725C4.57633 19.2611 6.88036 18.5711 7.78937 18.1721C7.93248 17.1611 8.34198 16.4735 8.79619 16.0829C5.26544 15.692 1.55439 14.3486 1.55439 8.36288C1.55439 6.65766 2.1706 5.26414 3.19061 4.17093C3.01181 3.77612 2.4751 2.1876 3.32981 0.0359693C3.32981 0.0359693 4.66123 -0.382837 7.70177 1.63769C8.97379 1.29059 10.325 1.11838 11.6765 1.11028C13.028 1.11808 14.3793 1.29059 15.6513 1.63769C18.672 -0.382837 20.0034 0.0359693 20.0034 0.0359693C20.8579 2.1876 20.3214 3.77612 20.1624 4.17093C21.1759 5.26384 21.7921 6.65766 21.7921 8.36288C21.7921 14.3645 18.0759 15.6854 14.5383 16.0697C15.0948 16.5386 15.6114 17.4965 15.6114 18.9605C15.6114 21.0513 15.5916 22.7313 15.5916 23.2386C15.5916 23.6481 15.7686 23.9805 16.6845 23.9805L6.66976 24Z" fill="white"/>
</svg>
