<svg width="24" height="18" viewBox="0 0 24 18" fill="none" xmlns="http://www.w3.org/2000/svg">
<path d="M17.5346 17.9673H16.9762L11.8511 4.09345L7.37125 17.9673H6.77559L2.71768 4.86284C2.35367 3.67152 2.08893 2.88145 1.92347 2.49262C1.76629 2.09552 1.55533 1.80596 1.29059 1.62395C1.03413 1.43367 0.60393 1.32613 0 1.30131V0.730469H6.31644V1.30131C5.55533 1.35094 5.06722 1.46263 4.85212 1.63636C4.63702 1.80182 4.52947 2.0376 4.52947 2.34371C4.52947 2.61671 4.70321 3.31578 5.05067 4.44091L8.05377 14.2444L12.4467 0.730469H13.1417L18.0807 14.2444L20.6494 5.30958C20.9886 4.10172 21.1582 3.31165 21.1582 2.93936C21.1582 1.84732 20.575 1.30131 19.4085 1.30131V0.730469H24V1.30131C23.3216 1.35094 22.817 1.60327 22.486 2.05829C22.1551 2.50503 21.7373 3.58466 21.2327 5.29717L17.5346 17.9673Z" fill="white"/>
</svg>
