<svg width="16" height="18" viewBox="0 0 25 28" fill="none" xmlns="http://www.w3.org/2000/svg">
    <path d="M3.28772 21.5092L3.2877 21.5092L3.2947 21.5133L10.8421 25.8712L10.8421 25.8712L10.8478 25.8744C11.9596 26.5066 13.3299 26.5066 14.4417 25.8744L14.4417 25.8745L14.4474 25.8712L21.989 21.5165C21.9901 21.5159 21.9912 21.5153 21.9923 21.5147C23.1192 20.8723 23.7895 19.6665 23.7895 18.3894V9.67357C23.7895 8.38571 23.1108 7.20612 22.0018 6.55374L22.0018 6.55371L21.9948 6.54967L14.4474 2.19177L14.4474 2.19175L14.4417 2.18849C13.3299 1.55631 11.9596 1.55631 10.8478 2.18849L10.8478 2.18847L10.8421 2.19177L3.2947 6.54967L3.29468 6.54964L3.28772 6.55374C2.17867 7.20612 1.5 8.38571 1.5 9.67357V18.3894C1.5 19.6772 2.17867 20.8568 3.28772 21.5092Z" fill="#11B382" stroke="#F3F3F3" stroke-width="2" stroke-miterlimit="10" stroke-linecap="round" stroke-linejoin="round"/>
    <path fill-rule="evenodd" clip-rule="evenodd" d="M17.2412 11.3088C17.6066 11.6985 17.5821 12.3061 17.1865 12.666L11.5987 17.75L8.06347 14.5336C7.66791 14.1737 7.64341 13.566 8.00876 13.1763C8.37411 12.7867 8.99096 12.7625 9.38653 13.1224L11.5987 15.1351L15.8635 11.2549C16.259 10.895 16.8759 10.9191 17.2412 11.3088Z" fill="white"/>
</svg>
