<svg width="129" height="36" viewBox="0 0 129 36" fill="none" xmlns="http://www.w3.org/2000/svg">
<g clip-path="url(#clip0_2_6527)">
<path d="M18.6042 30.9786V3.68192L16.6736 1.50488L12.6369 1.67235L6.84506 4.35177L7.19608 7.19866L4.21241 7.70105L1.22873 15.9068L2.80832 17.414L1.05322 19.0886L2.98383 22.9403L10.0042 22.4379" stroke="white" stroke-width="2" stroke-linecap="round" stroke-linejoin="round"/>
<path d="M18.6044 30.9785L16.4983 34.3278L14.9187 33.9928L12.9881 34.3278L10.0044 32.988L18.6044 20.5957" stroke="white" stroke-width="2" stroke-linecap="round" stroke-linejoin="round"/>
<path d="M10.3554 22.4375L4.91455 26.1217L8.77578 30.3083L16.4982 34.3275" stroke="white" stroke-width="2" stroke-linecap="round" stroke-linejoin="round"/>
<path d="M3.15918 23.1074L6.49387 24.7821" stroke="white" stroke-width="2" stroke-linecap="round" stroke-linejoin="round"/>
<path d="M2.63281 17.4141L15.4451 24.7825L18.6042 28.6342" stroke="white" stroke-width="2" stroke-linecap="round" stroke-linejoin="round"/>
<path d="M18.4286 30.9785L11.4082 31.3134" stroke="white" stroke-width="2" stroke-linecap="round" stroke-linejoin="round"/>
<path d="M7.19629 7.03125L10.18 12.2226L10.882 17.414L10.7065 30.9786" stroke="white" stroke-width="2" stroke-linecap="round" stroke-linejoin="round"/>
<path d="M2.63281 17.4142L10.0042 12.0553L18.2532 8.37109" stroke="white" stroke-width="2" stroke-linecap="round" stroke-linejoin="round"/>
<path d="M2.80811 17.0791L7.19586 7.36616L14.3918 1.83984" stroke="white" stroke-width="2" stroke-linecap="round" stroke-linejoin="round"/>
<path d="M7.19629 7.19922L15.2698 9.71118L18.6045 11.7207" stroke="white" stroke-width="2" stroke-linecap="round" stroke-linejoin="round"/>
<path d="M2.98389 17.2466H10.7063L15.4451 9.87819L17.0247 2.50977" stroke="white" stroke-width="2" stroke-linecap="round" stroke-linejoin="round"/>
<path d="M18.4288 15.5723L10.8818 17.4144L15.6206 24.6153L16.1471 30.979" stroke="white" stroke-width="2" stroke-linecap="round" stroke-linejoin="round"/>
<path d="M18.8867 31.1465H20.6036" stroke="white" stroke-width="8" stroke-linejoin="round"/>
<path d="M18.8867 28.4668H20.6036" stroke="white" stroke-width="8" stroke-linejoin="round"/>
<path d="M18.8867 20.9307H20.6036" stroke="white" stroke-width="8" stroke-linejoin="round"/>
<path d="M18.8867 15.5723H20.6036" stroke="white" stroke-width="8" stroke-linejoin="round"/>
<path d="M18.8867 11.7197H20.6036" stroke="white" stroke-width="8" stroke-linejoin="round"/>
<path d="M18.8867 8.37109H20.6036" stroke="white" stroke-width="8" stroke-linejoin="round"/>
<path d="M20.7114 31.0494V3.7027L22.6447 1.52148L26.6874 1.68895L32.4871 4.37373L32.1361 7.22581L35.124 7.72904L38.112 15.9499L36.5302 17.4597L38.2877 19.1375L36.3543 22.9962L29.3239 22.4928" stroke="white" stroke-width="2" stroke-linecap="round" stroke-linejoin="round"/>
<path d="M20.7114 31.0493L22.8205 34.4046L24.4024 34.0697L26.3358 34.4046L29.3237 33.0626L20.7114 20.6475" stroke="white" stroke-width="2" stroke-linecap="round" stroke-linejoin="round"/>
<path d="M28.9719 22.4932L34.4207 26.1842L30.5538 30.3784L22.8203 34.4049" stroke="white" stroke-width="2" stroke-linecap="round" stroke-linejoin="round"/>
<path d="M36.1783 23.1641L32.8389 24.8417" stroke="white" stroke-width="2" stroke-linecap="round" stroke-linejoin="round"/>
<path d="M36.7057 17.46L23.8759 24.8419L20.7114 28.701" stroke="white" stroke-width="2" stroke-linecap="round" stroke-linejoin="round"/>
<path d="M20.8872 31.0488L27.9178 31.3838" stroke="white" stroke-width="2" stroke-linecap="round" stroke-linejoin="round"/>
<path d="M32.136 7.05859L29.1479 12.2595L28.4448 17.4605L28.6203 31.05" stroke="white" stroke-width="2" stroke-linecap="round" stroke-linejoin="round"/>
<path d="M36.7057 17.4599L29.3237 12.0913L21.063 8.40039" stroke="white" stroke-width="2" stroke-linecap="round" stroke-linejoin="round"/>
<path d="M36.53 17.1245L32.1361 7.39365L24.9297 1.85645" stroke="white" stroke-width="2" stroke-linecap="round" stroke-linejoin="round"/>
<path d="M32.1361 7.22559L24.0509 9.74207L20.7114 11.7553" stroke="white" stroke-width="2" stroke-linecap="round" stroke-linejoin="round"/>
<path d="M36.3543 17.2923H28.6208L23.8753 9.91031L22.2935 2.52832" stroke="white" stroke-width="2" stroke-linecap="round" stroke-linejoin="round"/>
<path d="M20.8872 15.6143L28.445 17.4597L23.6994 24.6739L23.1729 31.0493" stroke="white" stroke-width="2" stroke-linecap="round" stroke-linejoin="round"/>
<path fill-rule="evenodd" clip-rule="evenodd" d="M53.2912 29.9156V18.9417H50.4076V23.2308H45.861V18.9417H42.9775V29.9156H45.861V25.513H50.4067V29.9156H53.2903H53.2912ZM66.9127 24.4286C66.9127 21.6122 64.9119 18.6826 60.7551 18.6826C56.5984 18.6826 54.5974 21.6122 54.5974 24.4286C54.5974 27.2451 56.5991 30.1748 60.7551 30.1748C64.9112 30.1748 66.9127 27.2442 66.9127 24.4286ZM63.9612 24.4286C63.9612 26.2738 62.9094 27.9085 60.7551 27.9085C58.6009 27.9085 57.5489 26.2738 57.5489 24.4286C57.5489 22.5835 58.6008 20.9325 60.7551 20.9325C62.9095 20.9325 63.9612 22.5834 63.9612 24.4286ZM76.6155 29.9156V27.6172H71.1027V18.9425H68.2189V29.9164H76.6157L76.6155 29.9156ZM88.3373 24.3806C88.3373 22.6972 87.7097 21.2244 86.5051 20.2208C85.0463 19.0068 83.0955 18.9422 81.1617 18.9422H77.4128V29.9161H81.1617C82.6037 29.9161 84.792 29.9161 86.5051 28.4917C87.6926 27.504 88.3373 26.0472 88.3373 24.3806ZM85.3855 24.3806C85.3855 25.3686 85.0972 26.2905 84.4527 26.8894C83.6554 27.65 82.6544 27.6825 81.6028 27.6825H80.2961V21.1591H81.6023C82.6709 21.1591 83.7228 21.1591 84.4522 21.8551C85.1481 22.5187 85.3859 23.4575 85.3859 24.3806H85.3855ZM92.5271 29.9161V18.9422H89.6433V29.9161H92.5271ZM104.656 29.9161V18.9422H101.958V25.6592L97.2088 18.9422H94.342V29.9161H97.0398V23.1985L101.79 29.9156H104.656L104.656 29.9161ZM117.446 29.9161V23.603H112.102V25.7072H115.088C115.088 27.1809 113.68 27.9085 112.221 27.9085C110.152 27.9085 108.896 26.3709 108.896 24.4124C108.896 22.5834 110.033 20.9487 112.289 20.9487C112.829 20.9471 113.363 21.0511 113.859 21.2543C114.355 21.4575 114.802 21.7556 115.173 22.1302L116.852 20.5279C116.632 20.2688 115.207 18.6826 112.187 18.6826C108.133 18.6826 105.962 21.3371 105.962 24.4447C105.962 27.5686 108.031 30.1745 111.712 30.1745C113.901 30.1745 115.173 29.0091 115.258 28.8959L115.291 29.9156H117.446L117.446 29.9161ZM128.506 26.6628C128.506 21.8879 121.398 23.8626 121.398 21.9204C121.398 21.3053 122.077 20.8844 123.298 20.8844C125.486 20.8844 126.691 21.9689 126.792 22.0498L128.387 20.3017C128.183 20.1076 126.775 18.6831 123.315 18.6831C120.448 18.6831 118.548 20.059 118.548 22.0491C118.548 26.5811 125.621 24.8007 125.621 26.8078C125.621 27.5847 124.722 27.9246 123.382 27.9246C122.067 27.9446 120.787 27.5203 119.769 26.7268L118.242 28.5881C118.445 28.7824 120.057 30.1743 123.382 30.1743C126.284 30.1748 128.506 28.9282 128.506 26.6623V26.6628Z" fill="white"/>
<path fill-rule="evenodd" clip-rule="evenodd" d="M52.4949 13.2447C52.4949 12.0692 51.852 10.996 50.2451 10.6041C50.6022 10.4507 52.0305 9.80345 52.0305 7.87828C52.0431 7.16613 51.7682 6.47663 51.2628 5.95245C50.3344 5.03256 48.8703 5.03256 47.317 5.03256H42.9956V16.5829H47.1914C48.9947 16.5829 50.7267 16.5318 51.7265 15.3562C52.228 14.7568 52.4992 14.0116 52.4949 13.2447V13.2447ZM50.5303 8.16699C50.5303 9.97292 48.9233 10.1096 47.4764 10.1096H44.4774V6.24199H47.37C48.7804 6.24199 50.5303 6.24199 50.5303 8.16699ZM50.941 13.2609C50.941 15.4756 48.7269 15.3564 47.0308 15.3564H44.4774V11.3021H47.4415C49.209 11.3021 50.941 11.4039 50.941 13.2614V13.2609ZM56.2436 16.5831V5.0324H54.7439V16.5829H56.2436V16.5831ZM69.6351 16.5831V10.5009H64.3675V11.7616H68.2777V12.1024C68.2777 13.2609 67.5456 15.5607 64.4031 15.5607C61.279 15.5607 60.0645 13.3289 60.0645 10.8076C60.0645 8.3373 61.4751 6.05443 64.5103 6.05443C66.9743 6.05443 68.0992 7.48541 68.2598 7.65589L69.2777 6.83816C69.117 6.59969 67.778 4.75977 64.5105 4.75977C60.6718 4.75977 58.4935 7.41742 58.4935 10.7907C58.4935 14.3002 60.4754 16.8555 64.1713 16.8555C67.1888 16.8555 68.1708 15.2712 68.3309 15.0327L68.366 16.5831H69.6337H69.6351Z" fill="white"/>
<path fill-rule="evenodd" clip-rule="evenodd" d="M88.2664 13.2435C88.2664 12.0681 87.6235 10.9948 86.0165 10.6029C86.3737 10.4496 87.8021 9.8023 87.8021 7.87714C87.8146 7.16496 87.5397 6.47546 87.0343 5.9513C86.1058 5.03142 84.6417 5.03142 83.0885 5.03142H78.7676V16.5818H82.9635C84.7669 16.5818 86.4988 16.5307 87.4987 15.3551C87.9999 14.7556 88.2709 14.0104 88.2664 13.2435V13.2435ZM86.3022 8.16584C86.3022 9.97178 84.6953 10.1084 83.2484 10.1084H80.2494V6.24084H83.142C84.5524 6.24084 86.3022 6.24084 86.3022 8.16584ZM86.7129 13.2598C86.7129 15.4745 84.4989 15.3552 82.8027 15.3552H80.2494V11.3009H83.2134C84.9819 11.3009 86.7129 11.4028 86.7129 13.2603V13.2598ZM100.407 16.5818L96.6401 11.6248C96.8543 11.5737 99.7291 11.1137 99.7291 8.31974C99.7358 7.89301 99.6523 7.46937 99.4834 7.07417C99.3145 6.67898 99.0638 6.32036 98.7463 6.01979C97.782 5.09991 96.3893 5.03175 94.854 5.03175H90.5159V16.5818H92.0156V11.7605H94.9974L98.622 16.5818H100.407V16.5818ZM98.2292 8.38706C98.2292 10.4485 96.2294 10.5678 94.4261 10.5678H92.0156V6.22376H94.551C95.6938 6.22376 96.9436 6.24051 97.6927 6.95625C98.0505 7.29704 98.2292 7.73998 98.2292 8.38706ZM112.691 16.5816L107.657 5.03125H105.871L100.836 16.5818H102.425L103.728 13.5151H109.745L111.049 16.5818H112.692L112.691 16.5816ZM109.228 12.289H104.264L106.745 6.46223L109.228 12.289ZM115.798 16.5821V5.03125H114.298V16.5818H115.798V16.5821ZM128.511 16.5821V5.03125H127.118V14.2818L120.119 5.03125H118.583V16.5818H119.976V7.24596L127.047 16.5819H128.511V16.5821Z" fill="white"/>
</g>
<defs>
<clipPath id="clip0_2_6527">
<rect width="129" height="35" fill="white" transform="translate(0 0.5)"/>
</clipPath>
</defs>
</svg>
