<svg width="60" height="60" viewBox="0 0 60 60" fill="none" xmlns="http://www.w3.org/2000/svg">
    <path d="M30 60C46.5685 60 60 46.5685 60 30C60 13.4315 46.5685 0 30 0C13.4315 0 0 13.4315 0 30C0 46.5685 13.4315 60 30 60Z" fill="#F3BA2F"/>
    <path d="M24.174 27.606L30 21.78L35.829 27.609L39.219 24.219L30 15L20.784 24.216L24.174 27.606ZM15 30L18.39 26.61L21.78 30L18.39 33.39L15 30ZM24.174 32.394L30 38.22L35.829 32.391L39.219 35.7795L30 45L20.784 35.784L20.7795 35.7795L24.174 32.394ZM38.22 30L41.61 26.61L45 30L41.61 33.39L38.22 30ZM33.438 29.997H33.441V30L30 33.441L26.5635 30.006L26.5575 30L26.5635 29.9955L27.165 29.3925L27.4575 29.1L30 26.559L33.4395 29.9985L33.438 29.997Z" fill="white"/>
</svg>
