<svg width="16" height="16" viewBox="0 0 16 16" fill="none" xmlns="http://www.w3.org/2000/svg">
<path fill-rule="evenodd" clip-rule="evenodd" d="M14 1.5H7C6.72386 1.5 6.5 1.72386 6.5 2V4H5V2C5 0.895431 5.89543 0 7 0H14C15.1046 0 16 0.895431 16 2V9C16 10.1046 15.1046 11 14 11H12V9.5H14C14.2761 9.5 14.5 9.27614 14.5 9V2C14.5 1.72386 14.2761 1.5 14 1.5ZM2 6.5H9C9.27614 6.5 9.5 6.72386 9.5 7V14C9.5 14.2761 9.27614 14.5 9 14.5H2C1.72386 14.5 1.5 14.2761 1.5 14V7C1.5 6.72386 1.72386 6.5 2 6.5ZM0 7C0 5.89543 0.895431 5 2 5H9C10.1046 5 11 5.89543 11 7V14C11 15.1046 10.1046 16 9 16H2C0.895431 16 0 15.1046 0 14V7Z" fill="white"/>
</svg>
