<svg width="126" height="36" viewBox="0 0 126 36" fill="none" xmlns="http://www.w3.org/2000/svg">
<path fill-rule="evenodd" clip-rule="evenodd" d="M66.7758 8.93467C66.874 8.8379 67.0705 8.83789 67.3653 8.83789C67.7583 8.83789 68.0532 8.93466 68.1514 9.12819C68.4461 9.22495 68.5444 9.51525 68.5444 9.80555V19.0949H66.4809V12.5149L61.4696 18.9014C61.2731 19.1917 60.88 19.2885 60.487 19.2885C60.0939 19.2885 59.701 19.1917 59.5045 18.9014L54.4932 12.5149V19.0949H52.4297V9.70877C52.4297 9.41849 52.6262 9.22495 52.8227 9.03143C53.0191 8.93466 53.314 8.83789 53.707 8.83789C54.0018 8.83789 54.1983 8.8379 54.3948 8.93467C54.4246 8.96393 54.4633 8.99319 54.5055 9.02513L54.5056 9.02514C54.603 9.09881 54.7194 9.18672 54.7879 9.32172L60.5853 16.8694L66.3827 9.32172C66.4511 9.18682 66.5674 9.09894 66.6649 9.0253L66.6649 9.0253L66.6649 9.02529L66.6649 9.02529L66.6649 9.02528L66.6649 9.02528L66.6649 9.02527L66.6649 9.02527C66.7072 8.99327 66.746 8.96397 66.7758 8.93467ZM73.0645 9.12793H75.3244V19.1915H73.0645V9.12793ZM87.8029 15.708C88.4907 15.708 89.0803 15.708 89.5716 15.6112C90.0627 15.5144 90.4556 15.321 90.8485 15.1276L90.849 15.1273C91.242 14.9338 91.4385 14.6436 91.6351 14.2565C91.8316 13.8694 91.8316 13.3856 91.8316 12.805V12.1276C91.8316 11.547 91.7333 11.0632 91.6351 10.6762C91.4385 10.2891 91.242 9.9988 90.9473 9.70851C90.6524 9.51498 90.1612 9.32145 89.6699 9.22469C89.1785 9.12793 88.5889 9.12793 87.8029 9.12793H79.8438V10.9665H87.7046H88.5889C88.8838 10.9665 89.0803 11.0632 89.1785 11.16L89.1789 11.1604C89.277 11.257 89.3753 11.3538 89.4734 11.547C89.5716 11.7406 89.5716 11.9341 89.5716 12.2244V12.805C89.5716 13.0953 89.5716 13.2888 89.4734 13.4824C89.3753 13.6756 89.277 13.7723 89.1789 13.869L89.1785 13.8694C89.0803 13.9661 88.8838 14.0629 88.5889 14.0629H87.7046H79.8438V19.1915H82.1037V15.5144L88.0977 19.1915H92.0281L86.0342 15.8047H87.8029V15.708ZM98.4142 16.8695C98.5125 17.063 98.7089 17.1597 98.9056 17.1597C99.102 17.2564 99.3968 17.2564 99.6916 17.2564H106.766V19.1918H99.6916C98.9055 19.1918 98.316 19.095 97.8246 18.9983C97.3333 18.9015 96.9403 18.7079 96.6454 18.4176C96.3507 18.1274 96.1542 17.8371 96.056 17.3532L96.0558 17.3522C95.9576 16.8688 95.8594 16.3851 95.8594 15.7083V13.1924H106.668V14.9341H98.0211V15.6115C98.0211 15.7713 98.0509 15.9311 98.0776 16.0747C98.0995 16.192 98.1194 16.2986 98.1194 16.3856L98.1201 16.3871C98.2182 16.5801 98.3162 16.7729 98.4142 16.8695ZM106.865 9.12793H99.7899C99.0039 9.12793 98.4144 9.22469 97.9231 9.32145C97.4317 9.41822 97.0387 9.61175 96.7439 9.90204C96.4492 10.1923 96.2527 10.4826 96.1543 10.9665H106.963V9.12793H106.865ZM39.9492 16.8695C40.0475 17.063 40.2441 17.1597 40.4406 17.1597C40.6371 17.2564 40.9319 17.2564 41.2266 17.2564H41.2267H48.3014V19.1918H41.2267C40.4406 19.1918 39.851 19.095 39.3597 18.9983C38.8684 18.9015 38.4753 18.7079 38.1806 18.4176C37.8858 18.1274 37.6893 17.8371 37.591 17.3532C37.4928 16.8695 37.3945 16.3856 37.3945 15.7083V13.1924H48.2032V14.9341H39.5563V15.6115C39.5563 15.7713 39.586 15.9311 39.6128 16.0747C39.6347 16.192 39.6545 16.2986 39.6545 16.3856L39.6545 16.3856C39.7528 16.5792 39.851 16.7727 39.9492 16.8695ZM48.4005 9.12891H41.2274C40.4414 9.12891 39.8518 9.22567 39.3604 9.32244C38.8692 9.4192 38.4761 9.61273 38.1814 9.90303C37.8865 10.1933 37.69 10.4836 37.5918 10.9674H48.4005V9.12891ZM119.445 13.9661L125.144 19.1915H121.803L117.774 15.4176L113.451 19.1915H110.307L116.104 13.9661L110.601 9.12793H113.844L117.873 12.6114L121.901 9.12793H124.947L119.445 13.9661Z" fill="white"/>
<path fill-rule="evenodd" clip-rule="evenodd" d="M22.6228 23.6199L17.4424 20.6361V18.9035L22.0363 16.3046C22.2317 16.2084 22.4272 16.2084 22.6228 16.3046L23.6979 16.8822C23.991 16.9785 24.0889 16.8822 24.0889 16.6897V16.3046C24.0889 16.0158 24.0889 15.9197 23.8933 15.8234C23.8933 15.8234 22.8182 15.2459 22.8182 15.1496C22.6228 15.0533 22.3295 14.9571 22.0363 15.1496L17.5401 17.7485V13.802L22.134 11.2032C22.3295 11.107 22.5249 11.107 22.7205 11.2032L23.7956 11.7807C24.0889 11.877 24.1866 11.7807 24.1866 11.5882V11.107C24.1866 10.8182 24.1866 10.722 23.991 10.6257C23.991 10.6257 22.9159 10.0482 22.9159 9.95192C22.7205 9.85567 22.4272 9.75942 22.134 9.95192L17.4424 12.4545V9.37441C17.4424 9.08564 17.1492 8.79688 16.8559 8.79688C16.5627 8.79688 16.2695 9.08564 16.2695 9.37441V12.4545L11.7733 9.85567C11.4801 9.66316 11.1869 9.75942 10.9914 9.85567L9.91625 10.5294C9.69271 10.6762 9.69639 10.7111 9.71077 10.8473C9.71525 10.8898 9.72077 10.9421 9.72077 11.0107V11.492C9.72077 11.6845 9.81852 11.7807 10.1117 11.6845L11.1869 11.107C11.3824 11.0107 11.5779 11.0107 11.7733 11.107L16.3673 13.7058V17.6522L11.8711 15.0533C11.5779 14.8608 11.2846 14.9571 11.0892 15.0533L10.014 15.7272C9.79046 15.874 9.79414 15.9088 9.80851 16.045C9.813 16.0875 9.81852 16.1398 9.81852 16.2084V16.6897C9.81852 16.8822 9.91625 16.9785 10.2095 16.8822L11.2846 16.3046C11.4801 16.2084 11.6756 16.2084 11.8711 16.3046L16.465 18.9035V20.6361L11.2846 23.6199C11.1869 23.6199 11.1869 23.7162 11.1869 23.7162C11.1869 23.8124 11.1869 23.8124 11.2846 23.9087C11.4801 24.1012 11.9688 24.2937 11.9688 24.2937C12.0666 24.2937 12.1643 24.39 12.1643 24.39C12.2621 24.39 12.4575 24.2937 12.653 24.1975L16.465 22.0798V29.0102C16.465 29.2989 16.7582 29.5876 17.0515 29.5876C17.3446 29.5876 17.6378 29.2989 17.6378 29.0102V22.0798L21.4498 24.1975C21.6453 24.2937 21.8407 24.39 21.9386 24.39C22.0363 24.39 22.134 24.39 22.134 24.2937C22.134 24.2937 22.6228 24.1012 22.8182 23.9087C22.8745 23.8532 22.8984 23.8297 22.9085 23.8013C22.9159 23.7804 22.9159 23.7569 22.9159 23.7162C22.7205 23.7162 22.7205 23.7162 22.6228 23.6199ZM24.8673 12.3578L25.3561 12.6466C25.6494 12.7429 25.7471 12.6466 25.7471 12.4541V11.9728C25.7471 11.6841 25.7471 11.5878 25.5515 11.4916L25.0629 11.2028C24.7696 11.1065 24.6719 11.2028 24.6719 11.3953V11.8766C24.6719 12.1653 24.6719 12.2616 24.8673 12.3578ZM8.15516 12.648L8.64387 12.4555C8.86741 12.3087 8.86373 12.2739 8.84936 12.1376V12.1376V12.1376C8.84487 12.0952 8.83935 12.0429 8.83935 11.9742V11.493C8.83935 11.3005 8.74162 11.2042 8.44838 11.3005L8.05742 11.493C7.83388 11.6397 7.83756 11.6746 7.85193 11.8108C7.85641 11.8533 7.86193 11.9056 7.86193 11.9742V12.4555C7.7642 12.7443 7.95968 12.8405 8.15516 12.648ZM7.27532 12.8395V12.3582C7.27532 12.1657 7.17758 12.0694 6.88436 12.1657L5.51597 12.9357C5.22274 13.1282 5.125 13.3208 5.125 13.7057V15.9195C5.125 16.1121 5.32049 16.2083 5.51597 16.1121C5.61371 16.1121 5.90693 15.9195 5.90693 15.9195C6.10242 15.8233 6.10242 15.6309 6.10242 15.2458V14.3796C6.10242 14.0908 6.29791 13.802 6.49338 13.7057L7.07984 13.4169C7.18604 13.2601 7.23454 13.1884 7.2567 13.1094C7.27532 13.043 7.27532 12.9713 7.27532 12.8395ZM7.08008 18.2287V15.2449C7.08008 14.8599 7.17782 14.6674 7.3733 14.5711L10.7943 12.6461C10.9897 12.5498 11.0875 12.5498 11.1852 12.5498C11.283 12.5498 11.4785 12.5498 11.5762 12.6461L14.704 14.4748C14.9972 14.5711 15.0949 14.6673 15.0949 14.8599V15.3412V15.5337C15.0949 15.6299 14.9972 15.7261 14.8994 15.6299L11.7717 13.8011C11.6739 13.7048 11.4785 13.7048 11.3807 13.7048C11.1852 13.7048 11.0875 13.7048 10.9897 13.8011L8.5462 15.1487C8.25297 15.2449 8.15524 15.4375 8.15524 15.7261V17.4587C8.15524 17.9401 8.15524 18.0363 7.95975 18.1325C7.95975 18.1325 7.66653 18.325 7.47104 18.4212H7.27555C7.17782 18.4212 7.08008 18.325 7.08008 18.2287ZM14.8999 19.9612C14.8999 19.865 14.8021 19.7687 14.7043 19.6726C14.7043 19.6726 14.3134 19.3838 14.118 19.3838H13.8247C13.7269 19.3838 13.6292 19.3838 13.4338 19.4801L8.93758 22.0789C8.83984 22.0789 8.83984 22.1752 8.83984 22.1752C8.83984 22.2713 8.83984 22.2713 8.93758 22.3676C9.13307 22.5601 9.62178 22.7526 9.62178 22.7526C9.71952 22.7526 9.81727 22.8489 9.81727 22.8489C9.915 22.8489 10.1105 22.7526 10.306 22.6564L14.6066 20.1538C14.8021 20.1538 14.8999 20.0575 14.8999 19.9612ZM12.2585 18.2302C12.3563 18.3263 12.454 18.4226 12.454 18.5189C12.454 18.5784 12.4167 18.6011 12.3651 18.6325C12.3332 18.6519 12.2959 18.6746 12.2585 18.7114L8.4466 20.9252L8.44659 20.9252C8.25111 21.0215 8.05563 21.1177 7.95789 21.1177C7.95789 21.1177 7.86014 21.0215 7.7624 21.0215C7.7624 21.0215 7.27369 20.8289 7.07821 20.6365C6.98047 20.5403 6.98047 20.5403 6.98047 20.444C6.98047 20.444 6.98047 20.3477 7.07821 20.3477L11.0856 18.0377C11.1834 17.9414 11.2811 17.9414 11.3789 17.9414H11.6721C11.8676 17.9414 12.2585 18.2302 12.2585 18.2302ZM26.725 12.1657L28.0934 12.9357C28.4843 13.1282 28.5821 13.3208 28.4843 13.6095V15.8233C28.4843 16.0158 28.2889 16.1121 28.0934 16.0158C27.9957 16.0158 27.7024 15.8233 27.7024 15.8233C27.5069 15.7271 27.5069 15.5346 27.5069 15.1495V14.2833C27.5069 13.9945 27.4092 13.802 27.1159 13.6095L26.5296 13.3208C26.4339 13.2266 26.3851 13.1785 26.3601 13.1202C26.334 13.0592 26.334 12.987 26.334 12.8395V12.3582C26.334 12.1657 26.4318 12.0694 26.725 12.1657ZM22.4254 12.4541C22.3276 12.4541 22.1322 12.4541 22.0343 12.5504L18.9066 14.3792C18.8385 14.424 18.7809 14.4583 18.7326 14.4871C18.5733 14.582 18.5156 14.6164 18.5156 14.7642V15.2455V15.438C18.6135 15.5343 18.7112 15.5343 18.7112 15.5343L21.8389 13.7054C21.9366 13.6091 22.0343 13.6091 22.2299 13.6091C22.3276 13.6091 22.5231 13.6091 22.6208 13.7054L25.0644 15.053C25.2599 15.1492 25.4553 15.438 25.4553 15.6305V17.363C25.4553 17.7481 25.4553 17.8443 25.6509 18.0369C25.6509 18.0369 25.9441 18.2293 26.1395 18.3255H26.335C26.4328 18.3255 26.5305 18.2293 26.5305 18.133V15.053C26.5305 14.6679 26.4328 14.5716 26.1395 14.3792L22.7185 12.4541C22.6534 12.5183 22.5882 12.4969 22.5231 12.4755C22.4905 12.4648 22.4579 12.4541 22.4254 12.4541ZM20.1771 19.4801L24.6731 22.0789C24.6731 22.111 24.684 22.1324 24.6912 22.1467C24.6957 22.1554 24.6988 22.1615 24.6971 22.1657C24.6934 22.1752 24.6656 22.1752 24.5754 22.1752C24.5754 22.2713 24.5754 22.2713 24.4777 22.3676C24.2822 22.5601 23.7935 22.7526 23.7935 22.7526C23.7935 22.8489 23.6958 22.8489 23.598 22.8489C23.5003 22.8489 23.3047 22.7526 23.1093 22.6564L18.8087 20.1538C18.7523 20.0983 18.7285 20.0748 18.7184 20.0464C18.7109 20.0255 18.7109 20.002 18.7109 19.9612C18.7109 19.865 18.8087 19.7687 18.9064 19.6726L19.4929 19.3838H19.786C19.9816 19.3838 20.0793 19.3838 20.1771 19.4801ZM22.5227 17.941L26.5302 20.2511C26.5835 20.3036 26.6077 20.3274 26.6028 20.3383C26.5988 20.3473 26.5746 20.3473 26.5302 20.3473C26.5302 20.3881 26.5302 20.4116 26.5227 20.4325C26.5126 20.4609 26.4888 20.4844 26.4324 20.5399C26.2369 20.7324 25.7482 20.9248 25.7482 20.9248C25.7482 21.021 25.6505 21.021 25.5527 21.021C25.4549 21.021 25.2595 20.9248 25.064 20.8285L21.252 18.6147C21.1543 18.5184 21.1543 18.5184 21.1543 18.4222C21.1543 18.3259 21.252 18.2298 21.3499 18.1335L21.9362 17.8447H22.2295C22.3272 17.8447 22.425 17.8447 22.5227 17.941Z" fill="white"/>
<path fill-rule="evenodd" clip-rule="evenodd" d="M23.094 7.07359C22.9969 7.07359 22.8999 7.07359 22.8999 6.97566L17.6574 3.93959C16.8808 3.4499 15.91 3.54785 15.1334 3.93959L11.9297 5.8004C11.7355 5.89835 11.4443 5.89835 11.3472 5.60453C11.2501 5.40866 11.2501 5.11485 11.5413 5.01691L14.745 3.1561C15.813 2.56846 17.075 2.56846 18.1429 3.1561L23.094 5.99629L23.6765 5.21278L18.6283 2.27466C17.3662 1.49116 15.6187 1.49116 14.2597 2.27466L12.2209 3.4499C12.0268 3.54785 11.7355 3.54785 11.6384 3.25403C11.5413 3.05816 11.5413 2.76435 11.8326 2.66641L13.8713 1.49116C15.4246 0.609719 17.5604 0.609719 19.1136 1.49116L24.5502 4.62516C24.6473 4.72309 24.7443 4.82103 24.7443 4.91898C24.7443 5.01691 24.7443 5.21278 24.6473 5.31072L23.5794 6.77979L23.5793 6.77998C23.3851 6.97572 23.2881 7.07359 23.094 7.07359ZM8.23046 5.81869C8.34992 5.926 8.4694 6.03332 8.70834 6.03332C8.82781 6.03332 8.94727 6.03332 8.94727 5.926L10.9783 4.85281C11.3367 4.74549 11.3367 4.42353 11.2172 4.2089C11.0977 3.99425 10.7393 3.88693 10.5004 3.99425L8.4694 5.06746C8.23046 5.28209 8.111 5.49672 8.23046 5.81869ZM0.944791 17.1121C0.944791 17.2957 1.15746 17.4791 1.37014 17.4791C1.58281 17.4791 1.79549 17.2957 1.79549 17.0203V12.2483C1.79549 10.78 2.64618 9.40347 4.13492 8.66932L5.83631 7.8434C6.15532 7.75163 6.15532 7.47632 6.04898 7.29278C5.94264 7.10924 5.62363 7.01748 5.41096 7.10924L3.70956 8.02693C1.90183 8.85285 0.838453 10.5047 0.944791 12.3401V17.1121ZM16.6614 35.1698C15.6908 35.1698 14.8173 34.9755 14.0408 34.49L3.55815 28.4685C2.00517 27.4971 1.03456 25.8462 0.9375 23.9037V20.9901C0.9375 20.7958 1.13162 20.6016 1.32575 20.6016C1.51987 20.6016 1.71399 20.7958 1.71399 20.9901V23.9037C1.71399 25.4576 2.58754 26.9145 3.9464 27.6914L14.526 33.7129C15.2055 34.1014 15.8849 34.2957 16.6614 34.2957C17.4379 34.2957 18.2143 34.1014 18.8938 33.7129L23.0674 31.2849C23.2616 31.1878 23.5528 31.1878 23.6498 31.4791C23.7469 31.6734 23.7469 31.9648 23.4557 32.0619L19.2821 34.49C18.5056 34.8784 17.6321 35.1698 16.6614 35.1698ZM29.9696 18.1431C29.9696 18.3317 30.1881 18.5201 30.4064 18.5201C30.6248 18.5201 30.8431 18.3317 30.9524 18.0489V12.2045C30.9524 11.0734 30.1881 9.94223 28.9868 9.37666L26.4754 8.15124C26.257 8.05698 25.9293 8.15124 25.8202 8.33977C25.711 8.52829 25.8202 8.81108 26.0385 8.90534L28.5501 10.1308C29.4237 10.6021 29.9696 11.4504 29.9696 12.2988V18.1431ZM26.3087 29.9661C26.2108 29.9661 26.0149 29.8697 25.917 29.7732L24.8401 28.3267C24.7422 28.2303 24.7422 28.1338 24.7422 27.9409C24.7422 27.8446 24.8401 27.7482 24.938 27.6517L24.938 27.6517L28.1688 25.8194C28.9522 25.3373 29.4417 24.5657 29.4417 23.6014V22.2513C29.4417 22.0584 29.6376 21.8655 29.8333 21.8655C30.0291 21.8655 30.2249 22.0584 30.2249 22.2513V23.6014C30.2249 24.7586 29.5396 25.9158 28.5605 26.4945L25.7212 28.1338L26.3087 28.9054L29.0501 27.3624C30.4208 26.5909 31.2041 25.1444 31.2041 23.6014V11.6435C31.2041 10.1006 30.3228 8.65404 28.9522 7.88255C28.7563 7.78612 28.6584 7.49681 28.7563 7.30395C28.8542 7.11107 29.148 7.01464 29.3438 7.11107C31.0082 8.07542 31.9873 9.71481 31.9873 11.5471V23.505C31.9873 25.3373 31.0082 27.073 29.3438 28.0374L26.2108 29.7732C26.5045 29.9661 26.4066 29.9661 26.3087 29.9661ZM15.1862 33.0285C15.6775 33.3188 16.267 33.5122 16.8566 33.5122C17.4462 33.5122 18.0358 33.3188 18.5271 32.9317L24.4227 29.545C24.7175 29.4482 24.7175 29.1579 24.6192 28.9643C24.521 28.674 24.2262 28.674 24.0296 28.7708L18.134 32.1575C17.741 32.4478 17.3479 32.5446 16.8566 32.5446C16.3654 32.5446 15.9723 32.4478 15.5793 32.2543L12.7297 30.7061C12.5331 30.6094 12.2384 30.7061 12.1401 30.8996C12.0419 31.0931 12.1401 31.3834 12.3366 31.4802L15.1862 33.0285ZM8.78763 28.9261C8.68967 28.9261 8.5917 28.9261 8.5917 28.8321L4.77115 26.7653C3.69355 26.2017 3.00781 25.0744 3.00781 23.9471V15.7742C3.00781 15.5863 3.20374 15.3984 3.39966 15.3984C3.59559 15.3984 3.79152 15.5863 3.79152 15.7742V23.9471C3.79152 24.7926 4.28133 25.638 5.06504 26.1078L8.98356 28.1744C9.17948 28.2684 9.27745 28.5502 9.17948 28.7382C9.08152 28.8321 8.88559 28.9261 8.78763 28.9261ZM3.00783 11.8889C3.00783 12.0829 3.20526 12.2768 3.40269 12.2768C3.69884 12.2768 3.89628 12.0829 3.89628 11.792C3.89628 10.8224 4.38987 10.0467 5.17961 9.56193L10.0168 6.84711C10.2142 6.65318 10.3129 6.45927 10.2142 6.26535C10.0168 5.97448 9.81934 5.97448 9.52319 6.16839L4.68602 8.98018C3.69884 9.56193 3.00783 10.7254 3.00783 11.8889ZM37.5918 26.8359H66.9718V27.3197H37.5918V26.8359ZM124.945 26.8359H97.1367V27.3197H124.945V26.8359ZM93.3819 30.3755C93.3574 30.4171 93.3311 30.4621 93.3048 30.5139L92.9117 30.2236C92.9117 30.1268 92.8134 30.1268 92.7152 30.1268C92.5187 30.1268 92.3221 30.2236 92.3221 30.3204C92.3221 30.4171 92.617 30.6107 93.2065 30.6107H93.8944V30.7075C93.7961 30.8041 93.698 30.9972 93.5999 31.1904L93.5995 31.1912C92.9117 31.288 92.4205 31.4815 92.0274 31.6751L91.9291 31.5783C91.9782 31.4815 92.0274 31.409 92.0765 31.3364C92.1256 31.2638 92.1747 31.1912 92.2239 31.0944C91.9291 30.9978 91.8309 30.901 91.8309 30.6107C91.8309 30.4171 91.9291 30.2236 92.2239 29.9333C92.4205 29.7399 92.7152 29.6431 93.0099 29.6431C93.3048 29.6431 93.5013 29.8366 93.5013 30.0301C93.5013 30.1717 93.4486 30.2616 93.3819 30.3755ZM92.7903 29.2102C92.7343 29.2848 92.6756 29.3628 92.6169 29.4495L92.3221 29.3528C92.4205 28.8689 92.4205 28.3851 92.4205 27.8045V27.8043C92.4205 26.4497 92.4205 24.9982 92.2239 23.6437C92.3262 23.543 92.4166 23.4422 92.5034 23.3455C92.6669 23.1636 92.8175 22.9959 93.0099 22.8695L93.1083 22.9663C93.3048 24.321 93.3048 25.5789 93.3048 26.8369C93.3048 27.8045 93.2065 28.4819 93.1083 28.6753C93.0393 28.879 92.922 29.035 92.7903 29.2102ZM89.4725 26.7401C89.0796 26.7401 88.8831 26.9336 88.6865 27.3207C89.1778 27.7077 89.6691 27.998 90.2587 27.998C90.357 27.998 90.4552 27.9013 90.4552 27.9013C90.2587 27.224 89.8656 26.7401 89.4725 26.7401ZM89.9639 29.1592C89.4725 29.1592 88.8831 28.9657 88.2935 28.4819C88.097 28.9657 87.7039 29.256 87.2125 29.3528H87.1143C87.0229 29.3528 86.9409 29.3155 86.8713 29.2555C86.6533 29.2531 86.4907 29.2392 86.3282 29.1592C86.3282 29.8366 86.1317 30.2236 85.9351 30.6107C85.6404 31.1912 85.1491 31.5783 84.6578 31.5783C84.1665 31.5783 83.5769 31.3848 82.8891 30.901L82.9873 30.6107C83.2822 30.7075 83.4787 30.7075 83.5769 30.7075C84.0683 30.7075 84.5596 30.5139 84.9526 30.1268C85.4439 29.7399 85.6404 29.256 85.7386 28.8689C85.7076 28.823 85.6741 28.7748 85.6389 28.7241C85.4515 28.454 85.2164 28.1151 85.0508 27.7077C85.1206 27.5704 85.178 27.4452 85.2318 27.3279C85.3295 27.1147 85.4154 26.9274 85.5422 26.7401H85.6404C85.9351 27.5142 86.3282 27.998 87.1143 27.998H87.2125C87.4092 27.998 87.6057 27.9013 87.7039 27.7077C87.9496 27.5625 88.0479 27.2722 88.1584 26.9456C88.2689 26.6191 88.3917 26.2563 88.6865 25.966C88.9813 25.6757 89.276 25.5789 89.5709 25.5789C90.6517 25.5789 91.0448 27.224 91.0448 27.9013C91.0448 27.998 90.8482 29.1592 89.9639 29.1592ZM89.4726 31.7719C89.8656 31.6509 90.2587 31.5299 90.6517 31.3848L90.357 31.9654C89.9638 32.1106 89.5952 32.2316 89.2266 32.3526C88.8582 32.4735 88.4898 32.5944 88.0969 32.7395L88.2935 32.159C88.6865 32.0138 89.0796 31.8928 89.4726 31.7719ZM81.7591 24.6113C81.9802 24.6355 82.2013 24.6597 82.3979 24.7081L82.2012 25.2886C83.1839 26.1596 83.4787 26.5465 83.4787 27.3207C83.4787 27.7077 83.3804 28.0948 83.1839 28.4819C82.8891 29.0624 82.0048 29.3528 80.6291 29.3528H80.5309C80.3469 29.3528 80.2275 29.268 80.1525 29.148C79.5886 29.1017 79.1279 28.9119 78.9587 28.5787C78.6638 28.9657 78.2709 29.1592 77.8778 29.1592C77.583 29.1592 77.2882 29.0624 77.0917 28.6753C76.797 29.0624 76.4039 29.256 75.9127 29.256C75.8143 29.8365 75.716 30.2236 75.3231 30.4171C74.8317 30.901 74.1439 31.288 73.3578 31.288C72.0804 31.288 71.3926 30.3204 71.3926 29.1592C71.3926 28.5787 71.4908 27.9013 71.8839 27.3207L72.2769 27.5142C72.0804 27.998 71.9822 28.3851 71.9822 28.5787C71.9822 29.0624 72.0804 29.4495 72.4735 29.7399C72.7682 30.0301 73.1613 30.1268 73.5543 30.1268C74.0457 30.1268 74.4386 30.0301 74.8317 29.7399L74.8321 29.7396C75.1267 29.5462 75.4213 29.3527 75.4213 29.1592C75.4213 28.6753 75.2248 28.1916 74.7335 27.5142C74.8318 27.3206 74.9301 27.1512 75.0284 26.9818C75.1266 26.8125 75.2248 26.6432 75.3231 26.4498H75.4213C75.5194 26.643 75.593 26.8121 75.6666 26.9812C75.7404 27.1508 75.8142 27.3204 75.9127 27.5142C76.0109 27.7077 76.1091 27.9013 76.4039 27.9013C76.6004 27.9013 76.6987 27.9013 76.8952 27.7077C77.0917 27.6109 77.1899 27.3207 77.2882 26.9336L77.8778 26.6433C77.6813 27.1272 77.583 27.5142 77.583 27.6109C77.583 27.6593 77.6076 27.7077 77.6322 27.7561C77.6567 27.8045 77.6813 27.8529 77.6813 27.9013C77.7795 27.998 77.8778 27.998 77.976 27.998C78.2709 27.998 78.4674 27.9013 78.6639 27.7077C78.8605 27.4174 78.9587 27.1272 79.057 26.7401L79.5483 26.4498H79.6465L79.646 26.4514C79.5479 26.7412 79.4499 27.0308 79.4499 27.224C79.4499 27.5142 79.4499 27.7077 79.6465 27.8045C79.843 27.9013 80.1378 27.998 80.4326 27.998H80.5309H80.6291C81.9065 27.998 82.7908 27.8045 82.7908 27.5142C82.7908 27.0304 81.9065 26.2562 80.6291 25.3854C80.5309 25.0951 80.5309 24.9016 80.5309 24.6113C80.5309 24.1274 80.7273 23.8371 81.2187 23.6437C81.9065 23.2566 83.0856 22.8695 84.5596 22.3857C84.4615 22.5789 84.3634 22.7479 84.2653 22.917C84.1668 23.0866 84.0684 23.2562 83.97 23.4501C83.6698 23.5576 83.3773 23.6576 83.0943 23.7543C82.3585 24.0058 81.6882 24.2349 81.1204 24.5145C81.3169 24.5629 81.538 24.5871 81.7591 24.6113Z" fill="url(#paint0_radial_2_6491)"/>
<path fill-rule="evenodd" clip-rule="evenodd" d="M23.094 7.07359C22.9969 7.07359 22.8999 7.07359 22.8999 6.97566L17.6574 3.93959C16.8808 3.4499 15.91 3.54785 15.1334 3.93959L11.9297 5.8004C11.7355 5.89835 11.4443 5.89835 11.3472 5.60453C11.2501 5.40866 11.2501 5.11485 11.5413 5.01691L14.745 3.1561C15.813 2.56846 17.075 2.56846 18.1429 3.1561L23.094 5.99629L23.6765 5.21278L18.6283 2.27466C17.3662 1.49116 15.6187 1.49116 14.2597 2.27466L12.2209 3.4499C12.0268 3.54785 11.7355 3.54785 11.6384 3.25403C11.5413 3.05816 11.5413 2.76435 11.8326 2.66641L13.8713 1.49116C15.4246 0.609719 17.5604 0.609719 19.1136 1.49116L24.5502 4.62516C24.6473 4.72309 24.7443 4.82103 24.7443 4.91898C24.7443 5.01691 24.7443 5.21278 24.6473 5.31072L23.5794 6.77979L23.5793 6.77998C23.3851 6.97572 23.2881 7.07359 23.094 7.07359ZM8.23046 5.81869C8.34992 5.926 8.4694 6.03332 8.70834 6.03332C8.82781 6.03332 8.94727 6.03332 8.94727 5.926L10.9783 4.85281C11.3367 4.74549 11.3367 4.42353 11.2172 4.2089C11.0977 3.99425 10.7393 3.88693 10.5004 3.99425L8.4694 5.06746C8.23046 5.28209 8.111 5.49672 8.23046 5.81869ZM0.944791 17.1121C0.944791 17.2957 1.15746 17.4791 1.37014 17.4791C1.58281 17.4791 1.79549 17.2957 1.79549 17.0203V12.2483C1.79549 10.78 2.64618 9.40347 4.13492 8.66932L5.83631 7.8434C6.15532 7.75163 6.15532 7.47632 6.04898 7.29278C5.94264 7.10924 5.62363 7.01748 5.41096 7.10924L3.70956 8.02693C1.90183 8.85285 0.838453 10.5047 0.944791 12.3401V17.1121ZM16.6614 35.1698C15.6908 35.1698 14.8173 34.9755 14.0408 34.49L3.55815 28.4685C2.00517 27.4971 1.03456 25.8462 0.9375 23.9037V20.9901C0.9375 20.7958 1.13162 20.6016 1.32575 20.6016C1.51987 20.6016 1.71399 20.7958 1.71399 20.9901V23.9037C1.71399 25.4576 2.58754 26.9145 3.9464 27.6914L14.526 33.7129C15.2055 34.1014 15.8849 34.2957 16.6614 34.2957C17.4379 34.2957 18.2143 34.1014 18.8938 33.7129L23.0674 31.2849C23.2616 31.1878 23.5528 31.1878 23.6498 31.4791C23.7469 31.6734 23.7469 31.9648 23.4557 32.0619L19.2821 34.49C18.5056 34.8784 17.6321 35.1698 16.6614 35.1698ZM29.9696 18.1431C29.9696 18.3317 30.1881 18.5201 30.4064 18.5201C30.6248 18.5201 30.8431 18.3317 30.9524 18.0489V12.2045C30.9524 11.0734 30.1881 9.94223 28.9868 9.37666L26.4754 8.15124C26.257 8.05698 25.9293 8.15124 25.8202 8.33977C25.711 8.52829 25.8202 8.81108 26.0385 8.90534L28.5501 10.1308C29.4237 10.6021 29.9696 11.4504 29.9696 12.2988V18.1431ZM26.3087 29.9661C26.2108 29.9661 26.0149 29.8697 25.917 29.7732L24.8401 28.3267C24.7422 28.2303 24.7422 28.1338 24.7422 27.9409C24.7422 27.8446 24.8401 27.7482 24.938 27.6517L24.938 27.6517L28.1688 25.8194C28.9522 25.3373 29.4417 24.5657 29.4417 23.6014V22.2513C29.4417 22.0584 29.6376 21.8655 29.8333 21.8655C30.0291 21.8655 30.2249 22.0584 30.2249 22.2513V23.6014C30.2249 24.7586 29.5396 25.9158 28.5605 26.4945L25.7212 28.1338L26.3087 28.9054L29.0501 27.3624C30.4208 26.5909 31.2041 25.1444 31.2041 23.6014V11.6435C31.2041 10.1006 30.3228 8.65404 28.9522 7.88255C28.7563 7.78612 28.6584 7.49681 28.7563 7.30395C28.8542 7.11107 29.148 7.01464 29.3438 7.11107C31.0082 8.07542 31.9873 9.71481 31.9873 11.5471V23.505C31.9873 25.3373 31.0082 27.073 29.3438 28.0374L26.2108 29.7732C26.5045 29.9661 26.4066 29.9661 26.3087 29.9661ZM15.1862 33.0285C15.6775 33.3188 16.267 33.5122 16.8566 33.5122C17.4462 33.5122 18.0358 33.3188 18.5271 32.9317L24.4227 29.545C24.7175 29.4482 24.7175 29.1579 24.6192 28.9643C24.521 28.674 24.2262 28.674 24.0296 28.7708L18.134 32.1575C17.741 32.4478 17.3479 32.5446 16.8566 32.5446C16.3654 32.5446 15.9723 32.4478 15.5793 32.2543L12.7297 30.7061C12.5331 30.6094 12.2384 30.7061 12.1401 30.8996C12.0419 31.0931 12.1401 31.3834 12.3366 31.4802L15.1862 33.0285ZM8.78763 28.9261C8.68967 28.9261 8.5917 28.9261 8.5917 28.8321L4.77115 26.7653C3.69355 26.2017 3.00781 25.0744 3.00781 23.9471V15.7742C3.00781 15.5863 3.20374 15.3984 3.39966 15.3984C3.59559 15.3984 3.79152 15.5863 3.79152 15.7742V23.9471C3.79152 24.7926 4.28133 25.638 5.06504 26.1078L8.98356 28.1744C9.17948 28.2684 9.27745 28.5502 9.17948 28.7382C9.08152 28.8321 8.88559 28.9261 8.78763 28.9261ZM3.00783 11.8889C3.00783 12.0829 3.20526 12.2768 3.40269 12.2768C3.69884 12.2768 3.89628 12.0829 3.89628 11.792C3.89628 10.8224 4.38987 10.0467 5.17961 9.56193L10.0168 6.84711C10.2142 6.65318 10.3129 6.45927 10.2142 6.26535C10.0168 5.97448 9.81934 5.97448 9.52319 6.16839L4.68602 8.98018C3.69884 9.56193 3.00783 10.7254 3.00783 11.8889ZM37.5918 26.8359H66.9718V27.3197H37.5918V26.8359ZM124.945 26.8359H97.1367V27.3197H124.945V26.8359ZM93.3819 30.3755C93.3574 30.4171 93.3311 30.4621 93.3048 30.5139L92.9117 30.2236C92.9117 30.1268 92.8134 30.1268 92.7152 30.1268C92.5187 30.1268 92.3221 30.2236 92.3221 30.3204C92.3221 30.4171 92.617 30.6107 93.2065 30.6107H93.8944V30.7075C93.7961 30.8041 93.698 30.9972 93.5999 31.1904L93.5995 31.1912C92.9117 31.288 92.4205 31.4815 92.0274 31.6751L91.9291 31.5783C91.9782 31.4815 92.0274 31.409 92.0765 31.3364C92.1256 31.2638 92.1747 31.1912 92.2239 31.0944C91.9291 30.9978 91.8309 30.901 91.8309 30.6107C91.8309 30.4171 91.9291 30.2236 92.2239 29.9333C92.4205 29.7399 92.7152 29.6431 93.0099 29.6431C93.3048 29.6431 93.5013 29.8366 93.5013 30.0301C93.5013 30.1717 93.4486 30.2616 93.3819 30.3755ZM92.7903 29.2102C92.7343 29.2848 92.6756 29.3628 92.6169 29.4495L92.3221 29.3528C92.4205 28.8689 92.4205 28.3851 92.4205 27.8045V27.8043C92.4205 26.4497 92.4205 24.9982 92.2239 23.6437C92.3262 23.543 92.4166 23.4422 92.5034 23.3455C92.6669 23.1636 92.8175 22.9959 93.0099 22.8695L93.1083 22.9663C93.3048 24.321 93.3048 25.5789 93.3048 26.8369C93.3048 27.8045 93.2065 28.4819 93.1083 28.6753C93.0393 28.879 92.922 29.035 92.7903 29.2102ZM89.4725 26.7401C89.0796 26.7401 88.8831 26.9336 88.6865 27.3207C89.1778 27.7077 89.6691 27.998 90.2587 27.998C90.357 27.998 90.4552 27.9013 90.4552 27.9013C90.2587 27.224 89.8656 26.7401 89.4725 26.7401ZM89.9639 29.1592C89.4725 29.1592 88.8831 28.9657 88.2935 28.4819C88.097 28.9657 87.7039 29.256 87.2125 29.3528H87.1143C87.0229 29.3528 86.9409 29.3155 86.8713 29.2555C86.6533 29.2531 86.4907 29.2392 86.3282 29.1592C86.3282 29.8366 86.1317 30.2236 85.9351 30.6107C85.6404 31.1912 85.1491 31.5783 84.6578 31.5783C84.1665 31.5783 83.5769 31.3848 82.8891 30.901L82.9873 30.6107C83.2822 30.7075 83.4787 30.7075 83.5769 30.7075C84.0683 30.7075 84.5596 30.5139 84.9526 30.1268C85.4439 29.7399 85.6404 29.256 85.7386 28.8689C85.7076 28.823 85.6741 28.7748 85.6389 28.7241C85.4515 28.454 85.2164 28.1151 85.0508 27.7077C85.1206 27.5704 85.178 27.4452 85.2318 27.3279C85.3295 27.1147 85.4154 26.9274 85.5422 26.7401H85.6404C85.9351 27.5142 86.3282 27.998 87.1143 27.998H87.2125C87.4092 27.998 87.6057 27.9013 87.7039 27.7077C87.9496 27.5625 88.0479 27.2722 88.1584 26.9456C88.2689 26.6191 88.3917 26.2563 88.6865 25.966C88.9813 25.6757 89.276 25.5789 89.5709 25.5789C90.6517 25.5789 91.0448 27.224 91.0448 27.9013C91.0448 27.998 90.8482 29.1592 89.9639 29.1592ZM89.4726 31.7719C89.8656 31.6509 90.2587 31.5299 90.6517 31.3848L90.357 31.9654C89.9638 32.1106 89.5952 32.2316 89.2266 32.3526C88.8582 32.4735 88.4898 32.5944 88.0969 32.7395L88.2935 32.159C88.6865 32.0138 89.0796 31.8928 89.4726 31.7719ZM81.7591 24.6113C81.9802 24.6355 82.2013 24.6597 82.3979 24.7081L82.2012 25.2886C83.1839 26.1596 83.4787 26.5465 83.4787 27.3207C83.4787 27.7077 83.3804 28.0948 83.1839 28.4819C82.8891 29.0624 82.0048 29.3528 80.6291 29.3528H80.5309C80.3469 29.3528 80.2275 29.268 80.1525 29.148C79.5886 29.1017 79.1279 28.9119 78.9587 28.5787C78.6638 28.9657 78.2709 29.1592 77.8778 29.1592C77.583 29.1592 77.2882 29.0624 77.0917 28.6753C76.797 29.0624 76.4039 29.256 75.9127 29.256C75.8143 29.8365 75.716 30.2236 75.3231 30.4171C74.8317 30.901 74.1439 31.288 73.3578 31.288C72.0804 31.288 71.3926 30.3204 71.3926 29.1592C71.3926 28.5787 71.4908 27.9013 71.8839 27.3207L72.2769 27.5142C72.0804 27.998 71.9822 28.3851 71.9822 28.5787C71.9822 29.0624 72.0804 29.4495 72.4735 29.7399C72.7682 30.0301 73.1613 30.1268 73.5543 30.1268C74.0457 30.1268 74.4386 30.0301 74.8317 29.7399L74.8321 29.7396C75.1267 29.5462 75.4213 29.3527 75.4213 29.1592C75.4213 28.6753 75.2248 28.1916 74.7335 27.5142C74.8318 27.3206 74.9301 27.1512 75.0284 26.9818C75.1266 26.8125 75.2248 26.6432 75.3231 26.4498H75.4213C75.5194 26.643 75.593 26.8121 75.6666 26.9812C75.7404 27.1508 75.8142 27.3204 75.9127 27.5142C76.0109 27.7077 76.1091 27.9013 76.4039 27.9013C76.6004 27.9013 76.6987 27.9013 76.8952 27.7077C77.0917 27.6109 77.1899 27.3207 77.2882 26.9336L77.8778 26.6433C77.6813 27.1272 77.583 27.5142 77.583 27.6109C77.583 27.6593 77.6076 27.7077 77.6322 27.7561C77.6567 27.8045 77.6813 27.8529 77.6813 27.9013C77.7795 27.998 77.8778 27.998 77.976 27.998C78.2709 27.998 78.4674 27.9013 78.6639 27.7077C78.8605 27.4174 78.9587 27.1272 79.057 26.7401L79.5483 26.4498H79.6465L79.646 26.4514C79.5479 26.7412 79.4499 27.0308 79.4499 27.224C79.4499 27.5142 79.4499 27.7077 79.6465 27.8045C79.843 27.9013 80.1378 27.998 80.4326 27.998H80.5309H80.6291C81.9065 27.998 82.7908 27.8045 82.7908 27.5142C82.7908 27.0304 81.9065 26.2562 80.6291 25.3854C80.5309 25.0951 80.5309 24.9016 80.5309 24.6113C80.5309 24.1274 80.7273 23.8371 81.2187 23.6437C81.9065 23.2566 83.0856 22.8695 84.5596 22.3857C84.4615 22.5789 84.3634 22.7479 84.2653 22.917C84.1668 23.0866 84.0684 23.2562 83.97 23.4501C83.6698 23.5576 83.3773 23.6576 83.0943 23.7543C82.3585 24.0058 81.6882 24.2349 81.1204 24.5145C81.3169 24.5629 81.538 24.5871 81.7591 24.6113Z" fill="white"/>
<defs>
<radialGradient id="paint0_radial_2_6491" cx="0" cy="0" r="1" gradientUnits="userSpaceOnUse" gradientTransform="translate(62.941 18.0911) rotate(90) scale(17.261 62.0035)">
<stop offset="0.509077" stop-color="#7E50FF"/>
<stop offset="0.755599" stop-color="#FF8484"/>
</radialGradient>
</defs>
</svg>
