<svg width="38" height="32" viewBox="0 0 38 32" fill="none" xmlns="http://www.w3.org/2000/svg">
<g clip-path="url(#clip0_2_16412)">
<path fill-rule="evenodd" clip-rule="evenodd" d="M11.9593 10.9127L18.291 0L19.9435 13.4102C20.0673 14.4068 20.2901 16.4245 19.207 18.0546C17.8391 19.9739 16.7065 20.3737 15.5615 20.7736C14.9983 20.9704 14.4288 21.1734 13.8347 21.5548C11.7674 22.7666 0.0078125 31.4956 0.0078125 31.4956L12.1017 15.9508C12.2812 15.7232 12.3554 15.4402 12.3183 15.1572L11.8293 11.5832C11.7922 11.3495 11.8417 11.1157 11.9593 10.9127Z" fill="url(#paint0_radial_2_16412)"/>
<path fill-rule="evenodd" clip-rule="evenodd" d="M11.9593 10.9127L18.291 0L19.9435 13.4102C20.0673 14.4068 20.2901 16.4245 19.207 18.0546C17.8391 19.9739 16.7065 20.3737 15.5615 20.7736C14.9983 20.9704 14.4288 21.1734 13.8347 21.5548C11.7674 22.7666 0.0078125 31.4956 0.0078125 31.4956L12.1017 15.9508C12.2812 15.7232 12.3554 15.4402 12.3183 15.1572L11.8293 11.5832C11.7922 11.3495 11.8417 11.1157 11.9593 10.9127Z" fill="url(#paint1_linear_2_16412)"/>
<path fill-rule="evenodd" clip-rule="evenodd" d="M11.9593 10.9127L18.291 0L19.9435 13.4102C20.0673 14.4068 20.2901 16.4245 19.207 18.0546C17.8391 19.9739 16.7065 20.3737 15.5615 20.7736C14.9983 20.9704 14.4288 21.1734 13.8347 21.5548C11.7674 22.7666 0.0078125 31.4956 0.0078125 31.4956L12.1017 15.9508C12.2812 15.7232 12.3554 15.4402 12.3183 15.1572L11.8293 11.5832C11.7922 11.3495 11.8417 11.1157 11.9593 10.9127Z" fill="url(#paint2_radial_2_16412)"/>
<path fill-rule="evenodd" clip-rule="evenodd" d="M11.9593 10.9127L18.291 0L19.9435 13.4102C20.0673 14.4068 20.2901 16.4245 19.207 18.0546C17.8391 19.9739 16.7065 20.3737 15.5615 20.7736C14.9983 20.9704 14.4288 21.1734 13.8347 21.5548C11.7674 22.7666 0.0078125 31.4956 0.0078125 31.4956L12.1017 15.9508C12.2812 15.7232 12.3554 15.4402 12.3183 15.1572L11.8293 11.5832C11.7922 11.3495 11.8417 11.1157 11.9593 10.9127Z" fill="url(#paint3_radial_2_16412)"/>
<path fill-rule="evenodd" clip-rule="evenodd" d="M11.9671 10.9127L18.2988 0L19.9513 13.4102C20.0751 14.4068 20.2979 16.4245 19.2148 18.0546C17.8469 19.9739 16.7143 20.3737 15.5693 20.7736C15.0061 20.9704 14.4366 21.1734 13.8425 21.5548C11.7753 22.7666 0.015625 31.4956 0.015625 31.4956L12.1095 15.9508C12.289 15.7232 12.3632 15.4402 12.3261 15.1572L11.8371 11.5832C11.8 11.3495 11.8495 11.1157 11.9671 10.9127Z" fill="url(#paint4_radial_2_16412)"/>
<path fill-rule="evenodd" clip-rule="evenodd" d="M11.9671 10.9127L18.2988 0L19.9513 13.4102C20.0751 14.4068 20.2979 16.4245 19.2148 18.0546C17.8469 19.9739 16.7143 20.3737 15.5693 20.7736C15.0061 20.9704 14.4366 21.1734 13.8425 21.5548C11.7753 22.7666 0.015625 31.4956 0.015625 31.4956L12.1095 15.9508C12.289 15.7232 12.3632 15.4402 12.3261 15.1572L11.8371 11.5832C11.8 11.3495 11.8495 11.1157 11.9671 10.9127Z" fill="url(#paint5_radial_2_16412)"/>
<path fill-rule="evenodd" clip-rule="evenodd" d="M30.6975 20.3291L37.0401 31.2356L24.5293 25.9529C23.5991 25.5612 21.7296 24.7441 20.8508 22.9967C19.8624 20.8597 20.0804 19.6849 20.3045 18.4994C20.4146 17.9161 20.5224 17.3245 20.4872 16.6224C20.4649 14.237 18.739 -0.249735 18.739 -0.249735L26.2365 17.9326C26.3451 18.2009 26.5545 18.4064 26.8197 18.5159L30.1782 19.882C30.4005 19.9669 30.5794 20.1264 30.6975 20.3291Z" fill="url(#paint6_radial_2_16412)"/>
<path fill-rule="evenodd" clip-rule="evenodd" d="M30.6975 20.3291L37.0401 31.2356L24.5293 25.9529C23.5991 25.5612 21.7296 24.7441 20.8508 22.9967C19.8624 20.8597 20.0804 19.6849 20.3045 18.4994C20.4146 17.9161 20.5224 17.3245 20.4872 16.6224C20.4649 14.237 18.739 -0.249735 18.739 -0.249735L26.2365 17.9326C26.3451 18.2009 26.5545 18.4064 26.8197 18.5159L30.1782 19.882C30.4005 19.9669 30.5794 20.1264 30.6975 20.3291Z" fill="url(#paint7_linear_2_16412)"/>
<path fill-rule="evenodd" clip-rule="evenodd" d="M30.6975 20.3291L37.0401 31.2356L24.5293 25.9529C23.5991 25.5612 21.7296 24.7441 20.8508 22.9967C19.8624 20.8597 20.0804 19.6849 20.3045 18.4994C20.4146 17.9161 20.5224 17.3245 20.4872 16.6224C20.4649 14.237 18.739 -0.249735 18.739 -0.249735L26.2365 17.9326C26.3451 18.2009 26.5545 18.4064 26.8197 18.5159L30.1782 19.882C30.4005 19.9669 30.5794 20.1264 30.6975 20.3291Z" fill="url(#paint8_radial_2_16412)"/>
<path fill-rule="evenodd" clip-rule="evenodd" d="M30.6975 20.3291L37.0401 31.2356L24.5293 25.9529C23.5991 25.5612 21.7296 24.7441 20.8508 22.9967C19.8624 20.8597 20.0804 19.6849 20.3045 18.4994C20.4146 17.9161 20.5224 17.3245 20.4872 16.6224C20.4649 14.237 18.739 -0.249735 18.739 -0.249735L26.2365 17.9326C26.3451 18.2009 26.5545 18.4064 26.8197 18.5159L30.1782 19.882C30.4005 19.9669 30.5794 20.1264 30.6975 20.3291Z" fill="url(#paint9_radial_2_16412)"/>
<path fill-rule="evenodd" clip-rule="evenodd" d="M30.6936 20.336L37.0362 31.2424L24.5254 25.9597C23.5952 25.568 21.7257 24.751 20.8469 23.0036C19.8585 20.8666 20.0765 19.6917 20.3006 18.5062C20.4107 17.923 20.5185 17.3313 20.4833 16.6292C20.461 14.2439 18.7351 -0.242909 18.7351 -0.242909L26.2326 17.9395C26.3412 18.2078 26.5506 18.4132 26.8157 18.5227L30.1743 19.8888C30.3966 19.9738 30.5755 20.1333 30.6936 20.336Z" fill="url(#paint10_radial_2_16412)"/>
<path fill-rule="evenodd" clip-rule="evenodd" d="M11.9593 10.9127L18.291 0L19.9435 13.4102C20.0673 14.4068 20.2901 16.4245 19.207 18.0546C17.8391 19.9739 16.7065 20.3737 15.5615 20.7735C14.9983 20.9704 14.4288 21.1734 13.8347 21.5548C11.7675 22.7666 0.0078125 31.4956 0.0078125 31.4956L12.1017 15.9508C12.2812 15.7232 12.3554 15.4402 12.3183 15.1572L11.8293 11.5832C11.7922 11.3495 11.8417 11.1157 11.9593 10.9127Z" fill="url(#paint11_radial_2_16412)"/>
<path fill-rule="evenodd" clip-rule="evenodd" d="M11.9593 10.9127L18.291 0L19.9435 13.4102C20.0673 14.4068 20.2901 16.4245 19.207 18.0546C17.8391 19.9739 16.7065 20.3737 15.5615 20.7735C14.9983 20.9704 14.4288 21.1734 13.8347 21.5548C11.7675 22.7666 0.0078125 31.4956 0.0078125 31.4956L12.1017 15.9508C12.2812 15.7232 12.3554 15.4402 12.3183 15.1572L11.8293 11.5832C11.7922 11.3495 11.8417 11.1157 11.9593 10.9127Z" fill="url(#paint12_linear_2_16412)"/>
<path fill-rule="evenodd" clip-rule="evenodd" d="M11.9593 10.9127L18.291 0L19.9435 13.4102C20.0673 14.4068 20.2901 16.4245 19.207 18.0546C17.8391 19.9739 16.7065 20.3737 15.5615 20.7735C14.9983 20.9704 14.4288 21.1734 13.8347 21.5548C11.7675 22.7666 0.0078125 31.4956 0.0078125 31.4956L12.1017 15.9508C12.2812 15.7232 12.3554 15.4402 12.3183 15.1572L11.8293 11.5832C11.7922 11.3495 11.8417 11.1157 11.9593 10.9127Z" fill="url(#paint13_radial_2_16412)"/>
<path fill-rule="evenodd" clip-rule="evenodd" d="M11.9593 10.9127L18.291 0L19.9435 13.4102C20.0673 14.4068 20.2901 16.4245 19.207 18.0546C17.8391 19.9739 16.7065 20.3737 15.5615 20.7735C14.9983 20.9704 14.4288 21.1734 13.8347 21.5548C11.7675 22.7666 0.0078125 31.4956 0.0078125 31.4956L12.1017 15.9508C12.2812 15.7232 12.3554 15.4402 12.3183 15.1572L11.8293 11.5832C11.7922 11.3495 11.8417 11.1157 11.9593 10.9127Z" fill="url(#paint14_radial_2_16412)"/>
<path fill-rule="evenodd" clip-rule="evenodd" d="M11.9671 10.9127L18.2988 0L19.9513 13.4102C20.0751 14.4068 20.2979 16.4245 19.2148 18.0546C17.8469 19.9739 16.7143 20.3737 15.5693 20.7735C15.0061 20.9704 14.4366 21.1734 13.8425 21.5548C11.7753 22.7666 0.015625 31.4956 0.015625 31.4956L12.1095 15.9508C12.289 15.7232 12.3632 15.4402 12.3261 15.1572L11.8372 11.5832C11.8 11.3495 11.8495 11.1157 11.9671 10.9127Z" fill="url(#paint15_radial_2_16412)"/>
<path fill-rule="evenodd" clip-rule="evenodd" d="M11.9593 10.9127L18.291 0L19.9435 13.4102C20.0673 14.4068 20.2901 16.4245 19.207 18.0546C17.8391 19.9739 16.7065 20.3737 15.5615 20.7735C14.9983 20.9704 14.4288 21.1734 13.8347 21.5548C11.7675 22.7666 0.0078125 31.4956 0.0078125 31.4956L12.1017 15.9508C12.2812 15.7232 12.3554 15.4402 12.3183 15.1572L11.8293 11.5832C11.7922 11.3495 11.8417 11.1157 11.9593 10.9127Z" fill="url(#paint16_radial_2_16412)"/>
<path fill-rule="evenodd" clip-rule="evenodd" d="M30.6896 20.3291L37.0323 31.2356L24.5214 25.9529C23.5913 25.5612 21.7218 24.7441 20.843 22.9967C19.8546 20.8597 20.0726 19.6849 20.2967 18.4994C20.4068 17.9161 20.5146 17.3245 20.4794 16.6224C20.4571 14.237 18.7312 -0.249734 18.7312 -0.249734L26.2287 17.9326C26.3373 18.2009 26.5467 18.4064 26.8118 18.5159L30.1704 19.882C30.3927 19.9669 30.5716 20.1264 30.6896 20.3291Z" fill="url(#paint17_radial_2_16412)"/>
<path fill-rule="evenodd" clip-rule="evenodd" d="M30.6896 20.3291L37.0323 31.2356L24.5214 25.9529C23.5913 25.5612 21.7218 24.7441 20.843 22.9967C19.8546 20.8597 20.0726 19.6849 20.2967 18.4994C20.4068 17.9161 20.5146 17.3245 20.4794 16.6224C20.4571 14.237 18.7312 -0.249734 18.7312 -0.249734L26.2287 17.9326C26.3373 18.2009 26.5467 18.4064 26.8118 18.5159L30.1704 19.882C30.3927 19.9669 30.5716 20.1264 30.6896 20.3291Z" fill="url(#paint18_linear_2_16412)"/>
<path fill-rule="evenodd" clip-rule="evenodd" d="M30.6896 20.3291L37.0323 31.2356L24.5214 25.9529C23.5913 25.5612 21.7218 24.7441 20.843 22.9967C19.8546 20.8597 20.0726 19.6849 20.2967 18.4994C20.4068 17.9161 20.5146 17.3245 20.4794 16.6224C20.4571 14.237 18.7312 -0.249734 18.7312 -0.249734L26.2287 17.9326C26.3373 18.2009 26.5467 18.4064 26.8118 18.5159L30.1704 19.882C30.3927 19.9669 30.5716 20.1264 30.6896 20.3291Z" fill="url(#paint19_radial_2_16412)"/>
<path fill-rule="evenodd" clip-rule="evenodd" d="M30.6896 20.3291L37.0323 31.2356L24.5214 25.9529C23.5913 25.5612 21.7218 24.7441 20.843 22.9967C19.8546 20.8597 20.0726 19.6849 20.2967 18.4994C20.4068 17.9161 20.5146 17.3245 20.4794 16.6224C20.4571 14.237 18.7312 -0.249734 18.7312 -0.249734L26.2287 17.9326C26.3373 18.2009 26.5467 18.4064 26.8118 18.5159L30.1704 19.882C30.3927 19.9669 30.5716 20.1264 30.6896 20.3291Z" fill="url(#paint20_radial_2_16412)"/>
<path fill-rule="evenodd" clip-rule="evenodd" d="M30.6857 20.336L37.0284 31.2424L24.5175 25.9597C23.5873 25.568 21.7179 24.751 20.8391 23.0036C19.8507 20.8666 20.0687 19.6917 20.2928 18.5062C20.4029 17.923 20.5107 17.3313 20.4755 16.6292C20.4532 14.2439 18.7273 -0.242909 18.7273 -0.242909L26.2248 17.9395C26.3334 18.2078 26.5428 18.4132 26.8079 18.5227L30.1665 19.8888C30.3887 19.9738 30.5677 20.1333 30.6857 20.336Z" fill="url(#paint21_radial_2_16412)"/>
<path fill-rule="evenodd" clip-rule="evenodd" d="M30.6896 20.3291L37.0323 31.2356L24.5214 25.9529C23.5913 25.5612 21.7218 24.7441 20.843 22.9967C19.8546 20.8597 20.0726 19.6849 20.2967 18.4994C20.4068 17.9161 20.5146 17.3245 20.4794 16.6224C20.4571 14.237 18.7312 -0.249734 18.7312 -0.249734L26.2287 17.9326C26.3373 18.2009 26.5467 18.4064 26.8118 18.5159L30.1704 19.882C30.3927 19.9669 30.5716 20.1264 30.6896 20.3291Z" fill="url(#paint22_radial_2_16412)"/>
<path fill-rule="evenodd" clip-rule="evenodd" d="M13.0894 31.9515L0.415145 31.9578L11.2734 23.8302C12.0798 23.2254 13.7265 22.0248 15.6884 22.142C18.0446 22.3598 18.9593 23.1348 19.8802 23.9205C20.3333 24.3068 20.7949 24.6955 21.4243 25.0162C23.5138 26.1897 36.9993 31.9475 36.9993 31.9475L17.408 29.3099C17.1199 29.2692 16.8362 29.3468 16.6082 29.5202L13.7386 31.7281C13.5535 31.877 13.3251 31.9512 13.0894 31.9515Z" fill="url(#paint23_radial_2_16412)"/>
<path fill-rule="evenodd" clip-rule="evenodd" d="M13.0894 31.9515L0.415145 31.9578L11.2734 23.8302C12.0798 23.2254 13.7265 22.0248 15.6884 22.142C18.0446 22.3598 18.9593 23.1348 19.8802 23.9205C20.3333 24.3068 20.7949 24.6955 21.4243 25.0162C23.5138 26.1897 36.9993 31.9475 36.9993 31.9475L17.408 29.3099C17.1199 29.2692 16.8362 29.3468 16.6082 29.5202L13.7386 31.7281C13.5535 31.877 13.3251 31.9512 13.0894 31.9515Z" fill="url(#paint24_linear_2_16412)"/>
<path fill-rule="evenodd" clip-rule="evenodd" d="M13.0894 31.9515L0.415145 31.9578L11.2734 23.8302C12.0798 23.2254 13.7265 22.0248 15.6884 22.142C18.0446 22.3598 18.9593 23.1348 19.8802 23.9205C20.3333 24.3068 20.7949 24.6955 21.4243 25.0162C23.5138 26.1897 36.9993 31.9475 36.9993 31.9475L17.408 29.3099C17.1199 29.2692 16.8362 29.3468 16.6082 29.5202L13.7386 31.7281C13.5535 31.877 13.3251 31.9512 13.0894 31.9515Z" fill="url(#paint25_radial_2_16412)"/>
<path fill-rule="evenodd" clip-rule="evenodd" d="M13.0894 31.9515L0.415145 31.9578L11.2734 23.8302C12.0798 23.2254 13.7265 22.0248 15.6884 22.142C18.0446 22.3598 18.9593 23.1348 19.8802 23.9205C20.3333 24.3068 20.7949 24.6955 21.4243 25.0162C23.5138 26.1897 36.9993 31.9475 36.9993 31.9475L17.408 29.3099C17.1199 29.2692 16.8362 29.3468 16.6082 29.5202L13.7386 31.7281C13.5535 31.877 13.3251 31.9512 13.0894 31.9515Z" fill="url(#paint26_radial_2_16412)"/>
<path fill-rule="evenodd" clip-rule="evenodd" d="M13.0855 31.9447L0.411237 31.9509L11.2695 23.8234C12.0759 23.2186 13.7226 22.0179 15.6845 22.1352C18.0407 22.3529 18.9554 23.1279 19.8763 23.9136C20.3294 24.3 20.791 24.6886 21.4204 25.0094C23.5099 26.1829 36.9954 31.9407 36.9954 31.9407L17.4041 29.3031C17.116 29.2624 16.8323 29.3399 16.6043 29.5134L13.7347 31.7213C13.5496 31.8701 13.3212 31.9444 13.0855 31.9447Z" fill="url(#paint27_radial_2_16412)"/>
<path fill-rule="evenodd" clip-rule="evenodd" d="M13.0894 31.9515L0.415145 31.9578L11.2734 23.8302C12.0798 23.2254 13.7265 22.0248 15.6884 22.142C18.0446 22.3598 18.9593 23.1348 19.8802 23.9205C20.3333 24.3068 20.7949 24.6955 21.4243 25.0162C23.5138 26.1897 36.9993 31.9475 36.9993 31.9475L17.408 29.3099C17.1199 29.2692 16.8362 29.3468 16.6082 29.5202L13.7386 31.7281C13.5535 31.877 13.3251 31.9512 13.0894 31.9515Z" fill="url(#paint28_radial_2_16412)"/>
</g>
<defs>
<radialGradient id="paint0_radial_2_16412" cx="0" cy="0" r="1" gradientUnits="userSpaceOnUse" gradientTransform="translate(19.7458 17.1459) rotate(143.972) scale(24.3977 27.9042)">
<stop stop-color="#1C1159"/>
<stop offset="0.4487" stop-color="#FF78D1"/>
<stop offset="0.6228" stop-color="#FFC979"/>
<stop offset="0.7685" stop-color="#FFF58C"/>
<stop offset="0.8983" stop-color="white"/>
</radialGradient>
<linearGradient id="paint1_linear_2_16412" x1="20.0349" y1="16.098" x2="9.47419" y2="14.7319" gradientUnits="userSpaceOnUse">
<stop offset="0.0456257" stop-color="#0F0F13" stop-opacity="0.67"/>
<stop offset="0.321849" stop-color="#582C7A" stop-opacity="0"/>
</linearGradient>
<radialGradient id="paint2_radial_2_16412" cx="0" cy="0" r="1" gradientUnits="userSpaceOnUse" gradientTransform="translate(-6.52302 5.79926) rotate(2.93603) scale(28.3052 112.548)">
<stop offset="0.735423" stop-color="#D7468C" stop-opacity="0.24"/>
<stop offset="0.908835" stop-color="#27043F" stop-opacity="0.32"/>
</radialGradient>
<radialGradient id="paint3_radial_2_16412" cx="0" cy="0" r="1" gradientUnits="userSpaceOnUse" gradientTransform="translate(0.686107 9.16257) rotate(9.22007) scale(23.6277 25.8486)">
<stop offset="0.11701" stop-color="#27043F" stop-opacity="0"/>
<stop offset="0.56027" stop-color="#E33272" stop-opacity="0.4"/>
<stop offset="0.779103" stop-color="#9036EC" stop-opacity="0.17"/>
</radialGradient>
<radialGradient id="paint4_radial_2_16412" cx="0" cy="0" r="1" gradientUnits="userSpaceOnUse" gradientTransform="translate(0.0156246 31.496) rotate(-36.8502) scale(27.2394 28.5756)">
<stop stop-color="white"/>
<stop offset="0.185217" stop-color="#FFD79A"/>
<stop offset="0.34495" stop-color="#FFBF51"/>
<stop offset="0.629193" stop-color="#FF778F" stop-opacity="0.03"/>
</radialGradient>
<radialGradient id="paint5_radial_2_16412" cx="0" cy="0" r="1" gradientUnits="userSpaceOnUse" gradientTransform="translate(18.2742) rotate(82.6547) scale(16.1303 5.21619)">
<stop stop-color="#FFBF51"/>
<stop offset="0.520833" stop-color="#E33272" stop-opacity="0.28"/>
<stop offset="1" stop-color="#46008E" stop-opacity="0"/>
</radialGradient>
<radialGradient id="paint6_radial_2_16412" cx="0" cy="0" r="1" gradientUnits="userSpaceOnUse" gradientTransform="translate(21.3731 23.9149) rotate(-96.2315) scale(24.3027 28.0134)">
<stop stop-color="#1C1159"/>
<stop offset="0.4487" stop-color="#FF78D1"/>
<stop offset="0.6228" stop-color="#FFC979"/>
<stop offset="0.7685" stop-color="#FFF58C"/>
<stop offset="0.8983" stop-color="white"/>
</radialGradient>
<linearGradient id="paint7_linear_2_16412" x1="22.1417" y1="24.6877" x2="28.5496" y2="16.2329" gradientUnits="userSpaceOnUse">
<stop offset="0.0456257" stop-color="#0F0F13" stop-opacity="0.67"/>
<stop offset="0.321849" stop-color="#582C7A" stop-opacity="0"/>
</linearGradient>
<radialGradient id="paint8_radial_2_16412" cx="0" cy="0" r="1" gradientUnits="userSpaceOnUse" gradientTransform="translate(23.0995 26.7383) rotate(-30.4356) scale(17.0479 32.2521)">
<stop offset="0.1475" stop-color="#27043F" stop-opacity="0.12"/>
<stop offset="0.456553" stop-color="#DB3B80" stop-opacity="0.08"/>
</radialGradient>
<radialGradient id="paint9_radial_2_16412" cx="0" cy="0" r="1" gradientUnits="userSpaceOnUse" gradientTransform="translate(37.859 11.5006) rotate(136.12) scale(21.8995 23.0077)">
<stop offset="0.11701" stop-color="#27043F" stop-opacity="0"/>
<stop offset="0.535374" stop-color="#E33272" stop-opacity="0.4"/>
<stop offset="0.700045" stop-color="#9036EC" stop-opacity="0.17"/>
</radialGradient>
<radialGradient id="paint10_radial_2_16412" cx="0" cy="0" r="1" gradientUnits="userSpaceOnUse" gradientTransform="translate(18.7348 -0.243116) rotate(82.9398) scale(27.1361 28.6844)">
<stop offset="0.0916302" stop-color="white"/>
<stop offset="0.225286" stop-color="#FFD79A"/>
<stop offset="0.486767" stop-color="#FF77F3" stop-opacity="0"/>
</radialGradient>
<radialGradient id="paint11_radial_2_16412" cx="0" cy="0" r="1" gradientUnits="userSpaceOnUse" gradientTransform="translate(19.7458 17.1459) rotate(143.972) scale(24.3977 27.9042)">
<stop stop-color="#1C1159"/>
<stop offset="0.0281713" stop-color="#5D09E1"/>
<stop offset="0.4487" stop-color="#E478FF"/>
<stop offset="0.6228" stop-color="#8479FF"/>
<stop offset="0.7685" stop-color="#8CF1FF"/>
<stop offset="0.8983" stop-color="#37FFDB"/>
</radialGradient>
<linearGradient id="paint12_linear_2_16412" x1="20.0349" y1="16.098" x2="9.47419" y2="14.7319" gradientUnits="userSpaceOnUse">
<stop offset="0.0456257" stop-color="#0F0F13" stop-opacity="0.67"/>
<stop offset="0.321849" stop-color="#582C7A" stop-opacity="0"/>
</linearGradient>
<radialGradient id="paint13_radial_2_16412" cx="0" cy="0" r="1" gradientUnits="userSpaceOnUse" gradientTransform="translate(21.3427 14.2482) rotate(-150.737) scale(17.0498 32.2487)">
<stop offset="0.1475" stop-color="#27043F" stop-opacity="0.12"/>
<stop offset="0.456553" stop-color="#DB3B80" stop-opacity="0.08"/>
</radialGradient>
<radialGradient id="paint14_radial_2_16412" cx="0" cy="0" r="1" gradientUnits="userSpaceOnUse" gradientTransform="translate(0.686107 9.16257) rotate(15.8535) scale(21.9539 22.9508)">
<stop offset="0.11701" stop-color="#27043F" stop-opacity="0"/>
<stop offset="0.524525" stop-color="#E33272" stop-opacity="0.65"/>
<stop offset="0.700045" stop-color="#5C0FAB" stop-opacity="0.4"/>
</radialGradient>
<radialGradient id="paint15_radial_2_16412" cx="0" cy="0" r="1" gradientUnits="userSpaceOnUse" gradientTransform="translate(0.0156246 31.496) rotate(-36.8502) scale(27.2394 28.5756)">
<stop offset="0.0916302" stop-color="#37FFDB"/>
<stop offset="0.225286" stop-color="#9AF9FF"/>
<stop offset="0.641005" stop-color="#C377FF" stop-opacity="0"/>
</radialGradient>
<radialGradient id="paint16_radial_2_16412" cx="0" cy="0" r="1" gradientUnits="userSpaceOnUse" gradientTransform="translate(18.2664) rotate(82.6546) scale(16.1303 5.2162)">
<stop stop-color="#51F5FF"/>
<stop offset="0.677663" stop-color="#8032E3" stop-opacity="0.28"/>
<stop offset="1" stop-color="#46008E" stop-opacity="0"/>
</radialGradient>
<radialGradient id="paint17_radial_2_16412" cx="0" cy="0" r="1" gradientUnits="userSpaceOnUse" gradientTransform="translate(21.3653 23.9149) rotate(-96.2315) scale(24.3027 28.0134)">
<stop stop-color="#1C1159"/>
<stop offset="0.0281713" stop-color="#5D09E1"/>
<stop offset="0.4487" stop-color="#E478FF"/>
<stop offset="0.6228" stop-color="#8479FF"/>
<stop offset="0.7685" stop-color="#8CF1FF"/>
<stop offset="0.8983" stop-color="#37FFDB"/>
</radialGradient>
<linearGradient id="paint18_linear_2_16412" x1="22.1339" y1="24.6877" x2="28.5418" y2="16.2329" gradientUnits="userSpaceOnUse">
<stop offset="0.0456257" stop-color="#0F0F13" stop-opacity="0.67"/>
<stop offset="0.321849" stop-color="#582C7A" stop-opacity="0"/>
</linearGradient>
<radialGradient id="paint19_radial_2_16412" cx="0" cy="0" r="1" gradientUnits="userSpaceOnUse" gradientTransform="translate(23.0917 26.7383) rotate(-30.4356) scale(17.0479 32.2521)">
<stop offset="0.1475" stop-color="#27043F" stop-opacity="0.12"/>
<stop offset="0.456553" stop-color="#DB3B80" stop-opacity="0.08"/>
</radialGradient>
<radialGradient id="paint20_radial_2_16412" cx="0" cy="0" r="1" gradientUnits="userSpaceOnUse" gradientTransform="translate(37.8512 11.5006) rotate(136.12) scale(21.8995 23.0077)">
<stop offset="0.11701" stop-color="#27043F" stop-opacity="0"/>
<stop offset="0.524525" stop-color="#E33272" stop-opacity="0.65"/>
<stop offset="0.700045" stop-color="#5C0FAB" stop-opacity="0.4"/>
</radialGradient>
<radialGradient id="paint21_radial_2_16412" cx="0" cy="0" r="1" gradientUnits="userSpaceOnUse" gradientTransform="translate(18.727 -0.243116) rotate(82.9398) scale(27.1361 28.6844)">
<stop offset="0.0916302" stop-color="#37FFDB"/>
<stop offset="0.225286" stop-color="#9AF9FF"/>
<stop offset="0.641005" stop-color="#C377FF" stop-opacity="0"/>
</radialGradient>
<radialGradient id="paint22_radial_2_16412" cx="0" cy="0" r="1" gradientUnits="userSpaceOnUse" gradientTransform="translate(37.0446 31.2144) rotate(-157.425) scale(16.2126 5.18972)">
<stop stop-color="#51F5FF"/>
<stop offset="0.677663" stop-color="#8032E3" stop-opacity="0.28"/>
<stop offset="1" stop-color="#46008E" stop-opacity="0"/>
</radialGradient>
<radialGradient id="paint23_radial_2_16412" cx="0" cy="0" r="1" gradientUnits="userSpaceOnUse" gradientTransform="translate(14.6272 22.1326) rotate(23.6774) scale(24.4253 27.8728)">
<stop stop-color="#1C1159"/>
<stop offset="0.0281713" stop-color="#5D09E1"/>
<stop offset="0.4487" stop-color="#E478FF"/>
<stop offset="0.6228" stop-color="#8479FF"/>
<stop offset="0.7685" stop-color="#8CF1FF"/>
<stop offset="0.8983" stop-color="#37FFDB"/>
</radialGradient>
<linearGradient id="paint24_linear_2_16412" x1="13.5696" y1="22.4077" x2="17.6325" y2="32.1923" gradientUnits="userSpaceOnUse">
<stop offset="0.0456257" stop-color="#0F0F13" stop-opacity="0.67"/>
<stop offset="0.321849" stop-color="#582C7A" stop-opacity="0"/>
</linearGradient>
<radialGradient id="paint25_radial_2_16412" cx="0" cy="0" r="1" gradientUnits="userSpaceOnUse" gradientTransform="translate(11.304 22.2069) rotate(89.4081) scale(16.971 32.3982)">
<stop offset="0.1475" stop-color="#27043F" stop-opacity="0.12"/>
<stop offset="0.456553" stop-color="#DB3B80" stop-opacity="0.08"/>
</radialGradient>
<radialGradient id="paint26_radial_2_16412" cx="0" cy="0" r="1" gradientUnits="userSpaceOnUse" gradientTransform="translate(17.2011 42.5302) rotate(-104.137) scale(21.8384 23.0721)">
<stop offset="0.11701" stop-color="#27043F" stop-opacity="0"/>
<stop offset="0.524525" stop-color="#E33272" stop-opacity="0.65"/>
<stop offset="0.700045" stop-color="#5C0FAB" stop-opacity="0.4"/>
</radialGradient>
<radialGradient id="paint27_radial_2_16412" cx="0" cy="0" r="1" gradientUnits="userSpaceOnUse" gradientTransform="translate(36.9958 31.9405) rotate(-157.143) scale(27.2741 28.5392)">
<stop offset="0.0916302" stop-color="#37FFDB"/>
<stop offset="0.225286" stop-color="#9AF9FF"/>
<stop offset="0.641005" stop-color="#C377FF" stop-opacity="0"/>
</radialGradient>
<radialGradient id="paint28_radial_2_16412" cx="0" cy="0" r="1" gradientUnits="userSpaceOnUse" gradientTransform="translate(0.427439 31.979) rotate(-37.1332) scale(16.1912 5.1966)">
<stop stop-color="#51F5FF"/>
<stop offset="0.677663" stop-color="#8032E3" stop-opacity="0.28"/>
<stop offset="1" stop-color="#46008E" stop-opacity="0"/>
</radialGradient>
<clipPath id="clip0_2_16412">
<rect width="37.1233" height="32" fill="white"/>
</clipPath>
</defs>
</svg>
