<svg width="175" height="16" viewBox="0 0 175 16" fill="none" xmlns="http://www.w3.org/2000/svg">
<path fill-rule="evenodd" clip-rule="evenodd" d="M35.0272 3.16404H29.4072L30.502 0.0351562H44.9169L44.0045 3.16404H38.3116L34.9907 15.7152H31.4873L35.0272 3.16404Z" fill="white"/>
<path fill-rule="evenodd" clip-rule="evenodd" d="M163.082 0.0351562H174.796L173.446 3.16404H166.111L165.016 6.43516H172.205L171.001 9.49293H164.505L163.702 12.6574H170.965L169.614 15.8218H158.776L163.082 0.0351562Z" fill="white"/>
<path fill-rule="evenodd" clip-rule="evenodd" d="M47.7632 0.0351562H59.4776L58.1273 3.16404H50.7922L49.6974 6.43516H56.8866L55.6823 9.49293H49.1865L48.3836 12.6574H55.6458L54.2955 15.8218H43.457L47.7632 0.0351562Z" fill="white"/>
<path fill-rule="evenodd" clip-rule="evenodd" d="M16.4156 0.0351562H28.1299L26.7432 3.16404H19.4445L18.3497 6.43516H25.5389L24.3346 9.49293H17.8023L16.9995 12.6574H24.2616L22.9114 15.8218H12.1094L16.4156 0.0351562Z" fill="white"/>
<path fill-rule="evenodd" clip-rule="evenodd" d="M65.1339 7.57333L61.667 0H65.6448L67.6884 5.04889L72.2136 0H76.7388L69.1482 7.92889L72.7245 15.68H68.7467L66.5936 10.4178L61.886 15.68H57.3608L65.1339 7.57333Z" fill="white"/>
<path fill-rule="evenodd" clip-rule="evenodd" d="M74.6953 9.17333C74.6953 4.30222 78.965 0 84.2566 0C87.2855 0 89.2926 1.24444 90.5699 3.27111L87.7234 5.22667C86.8111 3.94667 85.7528 3.12889 83.8551 3.12889C80.9722 3.12889 78.3082 5.79556 78.3082 9.06667C78.3082 11.2711 79.9139 12.7644 82.1399 12.7644C83.6727 12.7644 84.658 12.16 85.8258 11.2356L88.0884 13.5111C86.5921 14.8622 84.7675 15.8578 82.1399 15.8578C77.8337 15.8578 74.6953 13.2622 74.6953 9.17333Z" fill="white"/>
<path fill-rule="evenodd" clip-rule="evenodd" d="M94.0366 0.0351562H97.6129L95.6788 6.79071H102.175L104.036 0.0351562H107.612L103.269 15.7507H99.6565L101.372 9.56404H95.0584L93.3432 15.7507H89.6938L94.0366 0.0351562Z" fill="white"/>
<path fill-rule="evenodd" clip-rule="evenodd" d="M116.663 0.0351562H120.057L122.611 15.7507H118.816L118.232 11.8396H112.065L109.51 15.7507H105.532L116.663 0.0351562ZM118.086 8.99516L117.356 3.80404L113.816 8.99516H118.086Z" fill="white"/>
<path fill-rule="evenodd" clip-rule="evenodd" d="M129.289 0.0351562H132.573L137.281 10.0263L140.055 0.0351562H143.558L139.215 15.7507H136.186L131.296 5.4396L128.45 15.7507H124.946L129.289 0.0351562Z" fill="white"/>
<path fill-rule="evenodd" clip-rule="evenodd" d="M143.521 9.20889C143.521 4.40889 147.682 0 153.338 0C156.659 0 158.666 1.24444 159.761 2.66667L157.206 4.87111C156.294 3.87556 155.053 3.09333 153.083 3.09333C149.725 3.09333 147.134 5.90222 147.134 9.10222C147.134 11.4844 148.922 12.8 151.149 12.8C152.353 12.8 153.265 12.5156 153.959 12.1956L154.688 9.70667H151.222L152.024 6.79111H158.849L156.623 14.4356C155.053 15.2889 153.265 15.8933 150.893 15.8933C147.317 15.8578 143.521 13.7956 143.521 9.20889Z" fill="white"/>
<path fill-rule="evenodd" clip-rule="evenodd" d="M5.10254 0.0351562H12.5107L9.59122 9.70627L5.10254 0.0351562Z" fill="white"/>
<path fill-rule="evenodd" clip-rule="evenodd" d="M7.62054 15.7516H0.212402L3.16836 6.04492L7.62054 15.7516Z" fill="white"/>
</svg>
