<svg width="132" height="26" viewBox="0 0 132 26" fill="none" xmlns="http://www.w3.org/2000/svg">
<g clip-path="url(#clip0_2_6487)">
<path d="M26.4949 20.8358H7.98679L11.6172 14.0604L17.2394 14.09V9.87802H13.8577L16.3738 5.18229H17.2394V0.773438H15.2253C14.6458 0.773438 14.1051 1.09755 13.8145 1.62171L9.23815 9.87802H3.38509L0.9375 14.0031L6.93357 14.0357L2.3706 22.2656C2.0801 22.7882 2.0801 23.438 2.3706 23.9606C2.66109 24.4832 3.20037 24.8073 3.77986 24.8073H28.7101L26.4949 20.8358Z" fill="url(#paint0_linear_2_6487)"/>
<path d="M26.4949 20.8358H7.98679L11.6172 14.0604L17.2394 14.09V9.87802H13.8577L16.3738 5.18229H17.2394V0.773438H15.2253C14.6458 0.773438 14.1051 1.09755 13.8145 1.62171L9.23815 9.87802H3.38509L0.9375 14.0031L6.93357 14.0357L2.3706 22.2656C2.0801 22.7882 2.0801 23.438 2.3706 23.9606C2.66109 24.4832 3.20037 24.8073 3.77986 24.8073H28.7101L26.4949 20.8358Z" fill="white"/>
<path d="M24.0011 11.953L18.4862 1.64342C18.2002 1.10685 17.655 0.773438 17.0651 0.773438H15.0465V5.18229H15.8078L18.4475 9.87802H3.38509L0.9375 14.0031L22.7706 14.1194C22.7736 14.1194 22.7751 14.1194 22.7781 14.1194C23.2711 14.1194 23.733 13.8449 23.9832 13.4029C24.235 12.9594 24.2425 12.4042 24.0011 11.953Z" fill="url(#paint1_linear_2_6487)"/>
<path d="M24.0011 11.953L18.4862 1.64342C18.2002 1.10685 17.655 0.773438 17.0651 0.773438H15.0465V5.18229H15.8078L18.4475 9.87802H3.38509L0.9375 14.0031L22.7706 14.1194C22.7736 14.1194 22.7751 14.1194 22.7781 14.1194C23.2711 14.1194 23.733 13.8449 23.9832 13.4029C24.235 12.9594 24.2425 12.4042 24.0011 11.953Z" fill="white"/>
<path fill-rule="evenodd" clip-rule="evenodd" d="M126.198 23.9654C126.885 24.8062 127.842 25.2265 129.067 25.2265C129.561 25.2265 130.063 25.1564 130.575 25.0163C131.086 24.8855 131.54 24.6987 131.937 24.4559L131.104 21.6674C130.724 21.9664 130.306 22.1159 129.847 22.1159C129.407 22.1159 129.067 21.9524 128.829 21.6254C128.591 21.2892 128.472 20.8081 128.472 20.1822V13.0783H131.592V10.43H128.472V5.06348H125.18V10.43H123.527V13.0783H125.18V20.4205C125.18 21.943 125.52 23.1247 126.198 23.9654ZM30.0723 16.606L34.3034 24.5379C35.2986 24.997 36.3976 25.2265 37.6003 25.2265C39.0018 25.2265 40.271 24.9089 41.4082 24.2737C42.554 23.6292 43.4487 22.7371 44.0921 21.5974L41.699 20.2943C41.1789 21.0136 40.5972 21.5508 39.9538 21.9057C39.3191 22.2513 38.5919 22.4241 37.7721 22.4241C36.9083 22.4241 36.1415 22.2419 35.4715 21.8776C34.8105 21.5041 34.2948 20.9903 33.9246 20.3363C33.5544 19.6731 33.3693 18.9072 33.3693 18.0385H44.3962C44.4227 17.8516 44.4403 17.7208 44.4491 17.6461C44.4579 17.562 44.4623 17.4593 44.4623 17.3378C44.4623 15.8713 44.1627 14.5868 43.5633 13.4846C42.9727 12.3823 42.1441 11.523 41.0775 10.9065C40.0199 10.2899 38.7858 9.98163 37.3755 9.98163C36.3441 9.98163 35.3834 10.1778 34.4931 10.5701C33.6029 10.9624 32.8228 11.5089 32.1529 12.2095C31.483 12.9101 30.9585 13.7228 30.5794 14.6475C30.3249 15.2687 30.1559 15.9215 30.0723 16.606ZM33.5147 15.8526H41.1966C41.082 15.1987 40.8484 14.6335 40.4959 14.1572C40.1432 13.6808 39.6981 13.3118 39.1604 13.0502C38.6228 12.7793 38.0234 12.6439 37.3622 12.6439C36.6659 12.6439 36.0445 12.7746 35.498 13.0362C34.9515 13.2977 34.5063 13.6667 34.1626 14.1431C33.8189 14.6196 33.6029 15.1894 33.5147 15.8526ZM52.8824 24.7781L45.9542 10.43H49.8413L53.9798 20.0841L58.1182 10.43H62.0054L55.0771 24.7781H52.8824ZM67.2324 24.2317C68.3782 24.8949 69.674 25.2265 71.1195 25.2265C72.5211 25.2265 73.7903 24.9089 74.9274 24.2737C76.0733 23.6292 76.968 22.7371 77.6115 21.5974L75.2183 20.2943C74.6982 21.0136 74.1165 21.5508 73.4731 21.9057C72.8384 22.2513 72.1111 22.4241 71.2914 22.4241C70.4276 22.4241 69.6608 22.2419 68.9908 21.8776C68.3297 21.5041 67.8141 20.9903 67.4439 20.3363C67.0737 19.6731 66.8885 18.9072 66.8885 18.0385H77.9155C77.942 17.8516 77.9596 17.7208 77.9684 17.6461C77.9772 17.562 77.9816 17.4593 77.9816 17.3378C77.9816 15.8713 77.682 14.5868 77.0826 13.4846C76.492 12.3823 75.6634 11.523 74.5968 10.9065C73.5391 10.2899 72.3051 9.98163 70.8948 9.98163C69.8634 9.98163 68.9027 10.1778 68.0124 10.5701C67.1222 10.9624 66.3421 11.5089 65.6722 12.2095C65.0022 12.9101 64.4777 13.7228 64.0987 14.6475C63.7197 15.5723 63.5303 16.5672 63.5303 17.632C63.5303 19.0707 63.8608 20.3644 64.5218 21.5133C65.1918 22.6623 66.0952 23.5685 67.2324 24.2317ZM74.7159 15.8526H67.034C67.1222 15.1894 67.3382 14.6196 67.6819 14.1431C68.0256 13.6667 68.4708 13.2977 69.0173 13.0362C69.5638 12.7746 70.1851 12.6439 70.8815 12.6439C71.5427 12.6439 72.142 12.7793 72.6797 13.0502C73.2174 13.3118 73.6625 13.6808 74.0151 14.1572C74.3677 14.6335 74.6013 15.1987 74.7159 15.8526ZM81.9176 24.7781V10.43H85.2099V12.5177C85.6858 11.6957 86.2807 11.0698 86.9948 10.6402C87.7087 10.2011 88.4933 9.98163 89.3482 9.98163C89.7978 9.98163 90.2561 10.047 90.7233 10.1778C91.1993 10.2992 91.6047 10.4627 91.9397 10.6682L90.5778 13.6247C90.287 13.4379 89.9477 13.2885 89.5598 13.1764C89.1807 13.0642 88.8282 13.0082 88.5021 13.0082C87.9379 13.0082 87.4046 13.1623 86.9022 13.4706C86.3998 13.7788 85.9899 14.1758 85.6726 14.6616C85.364 15.1474 85.2099 15.6704 85.2099 16.2309V24.7781H81.9176ZM97.0846 24.2317C98.2305 24.8949 99.5258 25.2265 100.972 25.2265C102.374 25.2265 103.643 24.9089 104.78 24.2737C105.925 23.6292 106.821 22.7371 107.464 21.5974L105.071 20.2943C104.551 21.0136 103.969 21.5508 103.326 21.9057C102.69 22.2513 101.963 22.4241 101.144 22.4241C100.28 22.4241 99.5131 22.2419 98.8435 21.8776C98.1821 21.5041 97.6664 20.9903 97.2962 20.3363C96.926 19.6731 96.7409 18.9072 96.7409 18.0385H107.768C107.794 17.8516 107.812 17.7208 107.821 17.6461C107.83 17.562 107.834 17.4593 107.834 17.3378C107.834 15.8713 107.534 14.5868 106.935 13.4846C106.345 12.3823 105.516 11.523 104.449 10.9065C103.391 10.2899 102.158 9.98163 100.747 9.98163C99.7155 9.98163 98.7555 10.1778 97.8648 10.5701C96.9745 10.9624 96.1944 11.5089 95.5245 12.2095C94.8546 12.9101 94.3301 13.7228 93.9511 14.6475C93.5721 15.5723 93.3825 16.5672 93.3825 17.632C93.3825 19.0707 93.713 20.3644 94.3742 21.5133C95.0441 22.6623 95.9476 23.5685 97.0846 24.2317ZM104.568 15.8526H96.8863C96.9745 15.1894 97.1904 14.6196 97.5341 14.1431C97.878 13.6667 98.3231 13.2977 98.8699 13.0362C99.4163 12.7746 100.037 12.6439 100.734 12.6439C101.395 12.6439 101.994 12.7793 102.532 13.0502C103.07 13.3118 103.514 13.6808 103.867 14.1572C104.22 14.6335 104.454 15.1987 104.568 15.8526ZM115.447 25.2265C114.309 25.2265 113.296 25.0023 112.406 24.554C111.524 24.0963 110.806 23.4423 110.25 22.5923L111.705 20.3223C112.225 21.0509 112.803 21.6161 113.437 22.0178C114.081 22.4195 114.746 22.6203 115.434 22.6203C115.857 22.6203 116.231 22.5409 116.558 22.3821C116.883 22.214 117.143 21.9758 117.338 21.6674C117.531 21.3499 117.628 20.9763 117.628 20.5465C117.628 20.0982 117.518 19.7479 117.298 19.4956C117.078 19.2434 116.747 19.0146 116.307 18.8091C115.866 18.6036 115.31 18.3607 114.641 18.0805C114.077 17.8283 113.539 17.548 113.028 17.2397C112.516 16.9315 112.093 16.5439 111.758 16.0768C111.432 15.6004 111.269 14.9978 111.269 14.2693C111.269 13.4379 111.485 12.6999 111.917 12.0553C112.357 11.4109 112.956 10.9065 113.715 10.5421C114.481 10.1778 115.354 9.99565 116.333 9.99565C117.038 9.99565 117.748 10.1311 118.461 10.402C119.176 10.6635 119.889 11.0465 120.603 11.5509L119.413 13.7509C118.382 12.8447 117.364 12.3917 116.359 12.3917C115.769 12.3917 115.293 12.5411 114.931 12.84C114.578 13.1389 114.402 13.522 114.402 13.989C114.402 14.372 114.557 14.6989 114.865 14.9698C115.173 15.2408 115.557 15.4789 116.015 15.6844C116.474 15.8899 116.932 16.0861 117.391 16.273C118.113 16.5531 118.748 16.8521 119.294 17.1696C119.841 17.4873 120.269 17.8983 120.577 18.4028C120.886 18.9072 121.039 19.5797 121.039 20.4205C121.039 21.4293 120.81 22.2933 120.352 23.0126C119.902 23.7319 119.259 24.283 118.422 24.6661C117.584 25.0396 116.593 25.2265 115.447 25.2265Z" fill="white"/>
</g>
<defs>
<linearGradient id="paint0_linear_2_6487" x1="-7.76384" y1="27.9066" x2="21.3571" y2="14.2588" gradientUnits="userSpaceOnUse">
<stop stop-color="#35E0F4"/>
<stop offset="0.0772" stop-color="#33D7F0"/>
<stop offset="0.2056" stop-color="#2EBDE4"/>
<stop offset="0.3693" stop-color="#2594D0"/>
<stop offset="0.5601" stop-color="#195BB6"/>
<stop offset="0.6836" stop-color="#1132A3"/>
</linearGradient>
<linearGradient id="paint1_linear_2_6487" x1="0.9375" y1="7.4464" x2="24.1775" y2="7.4464" gradientUnits="userSpaceOnUse">
<stop stop-color="#35E0F4"/>
<stop offset="0.0696" stop-color="#33D7F0"/>
<stop offset="0.1854" stop-color="#2EBDE4"/>
<stop offset="0.333" stop-color="#2594D0"/>
<stop offset="0.505" stop-color="#195BB6"/>
<stop offset="0.6164" stop-color="#1132A3"/>
<stop offset="1" stop-color="#1132A3"/>
</linearGradient>
<clipPath id="clip0_2_6487">
<rect width="131" height="26" fill="white" transform="translate(0.9375)"/>
</clipPath>
</defs>
</svg>
