<svg width="597" height="265" viewBox="0 0 597 265" fill="none" xmlns="http://www.w3.org/2000/svg">
<g clip-path="url(#clip0)">
<circle cx="304" cy="304" r="219" fill="#F9FEFC"/>
<circle cx="304" cy="304" r="172" fill="#F0FCF8"/>
<circle cx="304" cy="304" r="116" fill="#E2F8F4"/>
<path d="M321.921 164.494C324.42 162.742 326.176 159.98 327.932 157.487C330.025 154.658 332.051 151.896 334.55 149.47C336.981 147.18 339.75 144.417 342.924 143.137C346.571 141.655 349.88 144.754 351.636 147.786C355.485 154.321 346.03 158.7 340.966 160.115C334.685 161.867 328.54 159.711 322.394 160.991C320.908 161.328 319.828 163.484 320.841 164.831C326.514 172.309 338.872 170.221 346.436 166.987C355.282 163.214 363.994 155.062 358.862 144.822C356.836 140.712 352.514 136.467 347.989 135.255C342.924 133.907 338.062 136.602 334.145 139.634C330.16 142.666 326.851 146.371 323.947 150.413C321.381 154.052 318.68 158.902 319.49 163.551C319.625 164.562 321.111 165.1 321.921 164.494Z" fill="#E84542"/>
<path d="M346.705 143.07C346.705 143.07 346.638 143.138 346.57 143.205C348.664 143.946 350.419 145.967 351.567 147.921C355.417 154.456 345.962 158.835 340.897 160.25C336.44 161.53 332.118 160.789 327.796 160.722C325.5 162.945 323.406 164.899 321.988 166.314C328.066 172.175 339.277 170.154 346.367 167.122C350.352 165.438 354.269 162.878 356.903 159.644C359.536 151.088 347.853 143.07 346.705 143.07Z" fill="#A31C1C"/>
<path d="M358.795 144.888C356.769 140.778 352.447 136.534 347.923 135.321C342.858 133.974 337.995 136.669 334.079 139.7C330.094 142.732 326.785 146.438 323.881 150.48C322.193 152.838 320.572 155.667 319.762 158.564C320.707 159.306 322.125 159.508 324.219 158.969C325.637 158.632 334.281 135.725 346.707 137.477C355.824 138.757 359.133 147.718 360.079 153.242C360.619 150.682 360.349 147.852 358.795 144.888Z" fill="#FF7466"/>
<path d="M316.851 158.034C317.661 158.371 318.539 158.91 319.215 159.449C319.687 159.786 320.093 160.594 320.295 161.133C320.633 162.211 321.646 162.885 322.794 162.75C323.807 162.615 324.887 161.672 324.752 160.527C324.55 158.506 323.604 156.956 321.916 155.811C320.363 154.8 318.472 154.666 316.919 155.744C316.108 156.215 315.838 157.63 316.851 158.034Z" fill="#E84542"/>
<g opacity="0.34">
<path opacity="0.34" d="M316.851 158.034C317.661 158.371 318.539 158.91 319.215 159.449C319.687 159.786 320.093 160.594 320.295 161.133C320.633 162.211 321.646 162.885 322.794 162.75C323.807 162.615 324.887 161.672 324.752 160.527C324.55 158.506 323.604 156.956 321.916 155.811C320.363 154.8 318.472 154.666 316.919 155.744C316.108 156.215 315.838 157.63 316.851 158.034Z" fill="#A31C1C"/>
</g>
<path d="M310.442 157.492C310.712 159.243 312.805 159.513 313.481 160.389C314.359 161.467 314.426 163.286 315.574 164.498C315.372 164.027 315.169 163.488 314.966 163.016C314.966 163.151 314.966 163.286 314.966 163.42C315.034 165.037 317.06 166.048 318.275 164.768C318.343 164.7 318.478 164.566 318.546 164.498C318.208 164.7 317.938 164.835 317.6 165.037C318.748 164.633 319.491 164.161 319.896 162.949C320.166 162.208 320.369 161.332 320.369 160.523C320.437 158.839 319.491 157.087 318.208 155.942C316.992 154.864 315.439 154.056 313.818 153.988C311.792 153.988 310.104 155.47 310.442 157.492Z" fill="#E84542"/>
<g opacity="0.34">
<path opacity="0.34" d="M310.442 157.492C310.712 159.243 312.805 159.513 313.481 160.389C314.359 161.467 314.426 163.286 315.574 164.498C315.372 164.027 315.169 163.488 314.966 163.016C314.966 163.151 314.966 163.286 314.966 163.42C315.034 165.037 317.06 166.048 318.275 164.768C318.343 164.7 318.478 164.566 318.546 164.498C318.208 164.7 317.938 164.835 317.6 165.037C318.748 164.633 319.491 164.161 319.896 162.949C320.166 162.208 320.369 161.332 320.369 160.523C320.437 158.839 319.491 157.087 318.208 155.942C316.992 154.864 315.439 154.056 313.818 153.988C311.792 153.988 310.104 155.47 310.442 157.492Z" fill="#A31C1C"/>
</g>
<g opacity="0.34">
<path opacity="0.34" d="M310.442 157.492C310.712 159.243 312.805 159.513 313.481 160.389C314.359 161.467 314.426 163.286 315.574 164.498C315.372 164.027 315.169 163.488 314.966 163.016C314.966 163.151 314.966 163.286 314.966 163.42C315.034 165.037 317.06 166.048 318.275 164.768C318.343 164.7 318.478 164.566 318.546 164.498C318.208 164.7 317.938 164.835 317.6 165.037C318.748 164.633 319.491 164.161 319.896 162.949C320.166 162.208 320.369 161.332 320.369 160.523C320.437 158.839 319.491 157.087 318.208 155.942C316.992 154.864 315.439 154.056 313.818 153.988C311.792 153.988 310.104 155.47 310.442 157.492Z" fill="#A31C1C"/>
</g>
<path d="M314.963 164.567C315.976 158.167 305.981 158.167 302.064 156.55C297.337 154.529 291.867 149.746 290.516 144.558C290.111 143.076 290.381 141.93 291.259 140.65C291.597 140.111 292.204 139.101 292.745 138.764C293.555 138.292 292.947 138.494 293.825 138.764C296.391 139.572 298.823 142.671 300.241 144.827C302.132 147.657 303.28 150.756 304.158 154.057C305.103 157.493 305.306 161.94 307.534 164.837C308.75 166.454 311.586 167.06 312.667 164.837C314.963 160.255 313.477 154.125 311.991 149.476C310.438 144.895 308.21 140.583 304.968 136.945C302.267 133.913 298.215 130.612 294.028 130.073C289.03 129.399 285.181 133.509 283.02 137.619C278.293 146.444 284.438 156.617 291.664 161.94C295.378 164.702 299.903 166.588 304.495 167.127C306.724 167.464 314.423 168.138 314.963 164.567Z" fill="#E84542"/>
<path d="M311.992 167.06C311.316 165.712 307.805 160.862 304.698 156.685C304.766 156.887 304.766 157.156 304.833 157.426C303.753 157.156 302.807 156.887 302.064 156.617C297.337 154.596 291.867 149.813 290.516 144.625C290.111 143.143 290.381 141.998 291.259 140.717C291.597 140.246 292.137 139.303 292.61 138.898C289.976 139.168 283.696 140.717 281.805 148.196C283.155 153.653 287.207 158.706 291.597 161.94C293.488 163.354 295.581 164.5 297.81 165.376C302.064 166.521 306.116 167.127 308.885 167.329C309.966 167.397 311.046 167.262 311.992 167.06Z" fill="#A31C1C"/>
<path d="M282.484 138.698C282.416 138.901 282.349 139.035 282.281 139.237C282.214 139.372 282.214 139.44 282.146 139.574C282.079 139.709 282.011 139.844 282.011 140.046C281.944 140.181 281.944 140.315 281.876 140.45C281.809 140.585 281.809 140.72 281.741 140.854C281.674 140.989 281.674 141.124 281.674 141.259C281.674 141.393 281.606 141.528 281.606 141.663C281.606 141.798 281.539 141.932 281.539 142.067C281.539 142.134 281.539 142.269 281.471 142.337C281.403 142.741 281.403 143.145 281.336 143.549C281.809 142 285.726 130.412 294.505 133.376C299.975 135.195 304.432 140.248 306.931 144.964C309.429 149.68 310.51 156.08 312.941 160.796C313.279 161.403 313.752 162.144 314.427 162.077C314.494 162.077 314.562 162.077 314.629 162.009C314.427 161.538 314.089 161.133 313.752 160.796C314.089 157.024 313.076 152.914 311.928 149.613C311.253 147.524 310.375 145.436 309.362 143.549C307.876 141.461 306.661 139.035 304.905 137.082C302.203 134.05 298.152 130.749 293.965 130.21C288.967 129.536 285.118 133.646 282.957 137.755C282.822 138.025 282.687 138.294 282.552 138.564C282.552 138.564 282.552 138.631 282.484 138.698Z" fill="#FF7466"/>
<path d="M328.335 162.277C330.091 168.004 334.143 173.259 339.815 175.482C346.096 177.975 353.322 176.762 358.724 172.787C361.291 170.901 362.979 168.543 364.667 165.915C365.613 164.433 366.626 162.547 368.449 162.008C370.475 161.469 373.717 162.951 375.067 164.366C377.498 166.993 376.823 171.17 379.254 173.865C381.28 176.088 384.252 176.897 386.615 174.808C387.831 173.73 386.75 172.046 385.4 171.911C381.348 171.574 381.618 166.656 380.2 163.827C378.984 161.334 376.823 159.582 374.257 158.504C368.449 156.079 364.127 158.167 360.953 163.288C357.441 169.014 352.579 173.124 345.488 173.057C338.532 173.057 331.982 168.408 329.753 161.873C329.483 160.997 328.065 161.334 328.335 162.277Z" fill="#A31C1C"/>
<path d="M329.754 165.777C329.686 165.508 329.551 165.306 329.484 165.036C329.416 164.901 329.349 164.834 329.281 164.699C329.416 165.103 329.619 165.44 329.754 165.777Z" fill="#E84542"/>
<path d="M358.722 172.785C361.288 170.898 362.977 168.54 364.665 165.913C365.611 164.431 366.624 162.544 368.447 162.005C370.473 161.466 373.714 162.948 375.065 164.363C377.496 166.991 376.821 171.168 379.252 173.863C381.075 175.884 383.709 176.76 385.87 175.345C385.6 175.21 385.398 175.075 385.06 175.075C381.008 174.739 381.278 169.82 379.86 166.991C378.644 164.498 376.483 162.746 373.917 161.668C368.109 159.243 363.787 161.332 360.613 166.452C357.101 172.178 352.239 176.288 345.148 176.221C341.704 176.221 338.327 175.075 335.559 173.054C336.842 174.065 338.26 174.873 339.746 175.48C346.161 177.972 353.32 176.76 358.722 172.785Z" fill="#E84542"/>
<path d="M289.164 156.753C286.936 157.763 284.977 159.111 283.289 160.93C282.614 161.671 280.115 165.915 279.372 165.915C278.359 165.983 277.481 163.153 277.346 162.412C277.076 160.862 277.346 159.178 277.751 157.696C278.359 155.54 279.912 153.586 280.115 151.296C280.588 146.714 274.915 144.424 271.268 143.817C267.216 143.144 262.422 143.885 260.058 147.523C259.383 148.533 260.261 150.285 261.544 150.15C263.907 149.881 266.271 148.938 268.702 148.87C270.458 148.87 274.645 149.274 274.78 151.43C274.848 152.306 273.497 154.395 273.227 155.203C272.889 156.281 272.619 157.359 272.416 158.504C272.146 160.66 272.349 162.749 273.159 164.703C274.307 167.33 277.414 171.036 280.655 169.149C282.141 168.273 282.884 166.32 283.762 164.972C285.45 162.277 287.341 159.784 290.042 158.033C290.853 157.561 290.11 156.281 289.164 156.753Z" fill="#A31C1C"/>
<path d="M287.005 159.245C285.249 160.053 283.628 161.064 282.21 162.411C281.264 163.826 280.049 165.645 279.441 165.914C278.563 167.194 277.618 168.474 277.212 168.474C276.199 168.542 275.321 165.712 275.186 164.971C274.916 163.422 275.186 161.737 275.592 160.255C276.199 158.099 277.753 156.145 277.955 153.855C278.428 149.273 272.755 146.983 269.108 146.376C265.934 145.838 262.355 146.174 259.789 148.061C259.586 149.071 260.397 150.284 261.477 150.149C263.841 149.88 266.205 148.937 268.636 148.869C270.392 148.869 274.579 149.273 274.714 151.429C274.781 152.305 273.431 154.394 273.16 155.202C272.823 156.28 272.553 157.358 272.35 158.503C272.08 160.659 272.282 162.748 273.093 164.702C274.241 167.329 277.347 171.035 280.589 169.148C280.589 169.148 280.589 169.148 280.657 169.148C280.994 168.609 281.264 168.003 281.602 167.531C282.615 165.847 283.763 164.23 285.181 162.815C286.059 161.603 287.005 160.457 288.153 159.514C287.882 159.245 287.477 159.042 287.005 159.245Z" fill="#E84542"/>
<path d="M233.117 179.99C234.805 180.866 295.652 200.808 295.652 200.808L367.98 205.929L365.008 194.004L323.746 168.941L234.805 179.99" fill="#5B1A28"/>
<path d="M318.613 194.815C318.613 194.815 256.483 171.302 232.441 162.477L234.805 179.993H233.117C234.805 180.869 295.652 200.811 295.652 200.811L316.519 202.293L318.613 194.815Z" fill="#9B4419"/>
<path d="M231.833 162.544L230.145 180.397L332.254 180.801L367.978 205.864L373.111 194.006L333.942 160.051L231.833 162.544Z" fill="#FBF348"/>
<path d="M232.98 180.398L332.253 180.802L367.978 205.864L372.84 194.546L336.508 163.016L234.399 165.508L232.98 180.398Z" fill="#FFC41F"/>
<path opacity="0.34" d="M341.707 188.01L357.78 199.261L361.156 184.911L347.785 172.852C345.894 177.365 342.99 184.776 341.707 188.01Z" fill="#A31C1C"/>
<path d="M343.938 189.018L360.01 200.269L363.387 185.919L349.948 173.859C348.125 178.373 345.221 185.717 343.938 189.018Z" fill="#E84542"/>
<path opacity="0.34" d="M263.844 180.937L301.392 181.139L298.893 161.332L269.381 162.073L263.844 180.937Z" fill="#A31C1C"/>
<path d="M262.152 180.531L299.7 180.666L297.202 160.926L267.622 161.667L262.152 180.531Z" fill="#FF7466"/>
<path d="M266.137 180.531L299.7 180.666L297.607 163.891L270.864 164.564L266.137 180.531Z" fill="#E84542"/>
<path opacity="0.34" d="M333.134 160.051C332.458 167.125 331.851 176.018 331.445 180.801H332.256L367.98 205.864L373.113 194.006L333.944 160.051H333.134Z" fill="#A31C1C"/>
<path opacity="0.34" d="M367.845 206.269L367.98 205.865L330.972 184.238H330.77C330.635 185.249 330.499 186.529 330.297 188.078L367.845 206.269Z" fill="#A31C1C"/>
<path opacity="0.34" d="M367.845 206.269L367.98 205.865L330.972 184.238H330.77C330.635 185.249 330.499 186.529 330.297 188.078L367.845 206.269Z" fill="#A31C1C"/>
<path d="M224.877 168.471C219.474 173.322 221.77 181.878 227.646 185.382C233.453 188.885 243.583 186.123 242.638 178.038C242.3 174.872 239.464 173.053 236.357 173.659C233.251 174.265 230.82 176.893 230.077 179.925C228.321 187.066 236.357 194.409 243.313 193.129C244.664 192.86 244.934 190.704 243.718 190.098C240.274 188.481 236.56 188.481 234.466 184.708C233.521 182.956 233.318 180.733 234.466 178.981C235.209 177.903 238.383 175.074 239.126 178.914C239.396 180.127 237.911 181.744 237.1 182.283C233.656 184.641 228.996 183.024 226.633 179.925C224.269 176.825 224.674 172.514 225.89 168.943C226.092 168.404 225.282 168.067 224.877 168.471Z" fill="url(#paint0_linear)"/>
<path d="M300.514 186.597C304.295 184.307 307.469 179.927 306.321 175.414C305.376 171.708 300.986 169.081 297.88 172.247C294.098 176.087 299.501 179.388 302.945 179.927C307.334 180.669 312.804 179.119 313.075 173.931C313.142 172.921 311.656 172.584 311.184 173.392C309.63 175.953 306.794 176.491 304.025 176.02C303.485 175.953 301.189 175.683 300.919 175.144C300.784 174.403 301.189 174.336 302.067 174.875C302.404 175.211 302.607 175.548 302.675 176.02C303.552 178.513 301.999 180.669 300.514 182.42C299.568 183.498 298.825 184.643 299.23 186.126C299.365 186.597 300.041 186.867 300.514 186.597Z" fill="url(#paint1_linear)"/>
<path d="M255.47 193.063C257.596 193.063 259.32 191.344 259.32 189.223C259.32 187.102 257.596 185.383 255.47 185.383C253.345 185.383 251.621 187.102 251.621 189.223C251.621 191.344 253.345 193.063 255.47 193.063Z" fill="#70E5A5"/>
<path d="M267.289 189.964C267.289 191.109 266.343 192.052 265.195 192.052C264.047 192.052 263.102 191.109 263.102 189.964C263.102 188.818 264.047 187.875 265.195 187.875C266.343 187.942 267.289 188.818 267.289 189.964Z" fill="#54C685"/>
<path d="M278.953 189.672C279.662 186.665 277.793 183.655 274.78 182.948C271.767 182.242 268.749 184.105 268.041 187.112C267.332 190.118 269.201 193.128 272.214 193.835C275.227 194.542 278.244 192.678 278.953 189.672Z" fill="#ECC933"/>
<path d="M283.025 191.649C284.629 191.649 285.929 190.352 285.929 188.752C285.929 187.152 284.629 185.855 283.025 185.855C281.421 185.855 280.121 187.152 280.121 188.752C280.121 190.352 281.421 191.649 283.025 191.649Z" fill="#54C685"/>
<path d="M295.041 190.165C296.644 190.165 297.945 188.868 297.945 187.268C297.945 185.668 296.644 184.371 295.041 184.371C293.437 184.371 292.137 185.668 292.137 187.268C292.137 188.868 293.437 190.165 295.041 190.165Z" fill="#70E5A5"/>
<path d="M286.738 194.947C290.095 194.947 292.816 192.233 292.816 188.884C292.816 185.535 290.095 182.82 286.738 182.82C283.381 182.82 280.66 185.535 280.66 188.884C280.66 192.233 283.381 194.947 286.738 194.947Z" fill="#ECC933"/>
<path d="M233.52 191.447L256.075 277.616L318.61 286.913L345.016 272.495L367.977 205.865L330.969 184.238L233.52 191.447Z" fill="#FBF348"/>
<path d="M238.652 194.412L260.6 278.29L318.611 286.913L345.016 272.496L367.977 205.865L336.034 187.203L238.652 194.412Z" fill="#FFC41F"/>
<path opacity="0.34" d="M298.822 283.613C299.362 265.221 301.253 205.933 301.861 186.598L266.406 189.225C268.297 204.788 275.456 260.033 278.089 280.514L298.822 283.613Z" fill="#A31C1C"/>
<path d="M296.255 283.613C296.796 265.221 298.687 205.933 299.294 186.598L263.84 189.225C265.731 204.788 272.889 260.033 275.523 280.514L296.255 283.613Z" fill="#FF7466"/>
<path d="M296.257 283.611C296.797 266.229 298.486 212.197 299.229 190.031L267.488 192.389C269.244 207.278 275.93 258.751 278.766 280.983L296.257 283.611Z" fill="#E84542"/>
<path opacity="0.34" d="M328.941 279.907L335.222 276.471L357.373 201.149L342.921 192.66L328.941 279.907Z" fill="#A31C1C"/>
<path d="M331.441 279.907L337.789 276.471L359.94 201.149L345.488 192.66L331.441 279.907Z" fill="#E84542"/>
<path opacity="0.34" d="M347.581 235.979C337.586 254.506 327.321 269.732 320.163 279.501C319.757 282.263 319.42 284.688 319.082 286.642L344.947 272.494L367.638 206.672C362.168 212.601 355.212 221.898 347.581 235.979Z" fill="#A31C1C"/>
<path opacity="0.34" d="M367.977 205.865L330.969 184.238H330.767C329.146 197.982 320.907 268.184 318.746 286.846L344.949 272.495L367.977 205.865Z" fill="#A31C1C"/>
<path d="M236.22 186.798C234.802 187.269 232.708 187.067 231.223 186.73C232.033 188.145 233.114 189.425 234.397 190.436C235.815 189.897 237.841 189.021 239.191 188.415C238.111 188.011 237.098 187.539 236.22 186.798Z" fill="#19916F" fill-opacity="0.3"/>
<path opacity="0.5" d="M304.027 183.633C304.972 182.555 305.647 181.342 306.12 179.995C303.689 180.197 301.595 178.984 301.595 178.984C301.595 178.984 301.46 179.119 301.258 179.389C301.595 179.523 302.001 179.658 302.338 179.725C302.136 180.13 301.933 180.467 301.663 180.871C302.473 181.545 303.351 182.69 304.027 183.633Z" fill="#19916F"/>
<path d="M307.808 179.658C307.606 179.726 307.403 179.793 307.133 179.86C307.538 179.793 307.943 179.658 308.348 179.523C308.213 179.523 308.078 179.523 307.808 179.658Z" fill="#6A77FF"/>
</g>
<path d="M381.931 63.3757C379.019 67.0778 373.703 68.8793 370.453 67.0548C368.306 65.8519 367.761 62.8472 367.564 60.9513L369.425 58.6085C369.621 60.5043 370.167 63.5091 372.313 64.712C374.96 66.2369 379.556 64.5918 382.955 61.6454C382.758 62.2266 382.355 62.8526 381.931 63.3757Z" fill="url(#paint2_linear)"/>
<path d="M388.05 40.2374C386.919 41.7218 384.236 41.7663 381.996 42.3609C381.8 41.7036 381.808 41.0016 382.148 40.3354C382.269 40.1476 382.39 39.9598 382.511 39.772C383.745 38.2653 386.24 38.1 388.337 37.5904C388.556 38.3505 388.65 39.0302 388.372 39.7366C388.292 39.8618 388.171 40.0496 388.05 40.2374Z" fill="url(#paint3_linear)"/>
<path d="M384.944 59.6507C386.178 58.144 386.997 56.4583 387.216 54.7414C387.873 49.5905 382.732 45.7538 381.954 42.4226C381.798 41.7027 381.807 41.0007 382.146 40.3345C382.267 40.1468 382.388 39.959 382.509 39.7712L379.15 43.8935L379.11 43.9561C378.989 44.1439 378.869 44.3317 378.748 44.5195C376.892 48.3691 384.663 52.6576 383.817 58.9263C383.71 59.9189 383.415 60.7908 382.995 61.5822C382.695 62.1858 382.292 62.8117 381.868 63.3349L384.944 59.6507Z" fill="url(#paint4_radial)"/>
<path d="M397.352 29.7605L395.532 32.0407C391.208 30.234 388.302 29.2501 386.437 28.8476C385.226 27.9801 384.47 27.2289 384.832 26.6655L384.872 26.6029C385.481 25.9323 387.998 25.8698 397.352 29.7605Z" fill="url(#paint5_linear)"/>
<path d="M391.408 36.1133C391.529 35.9255 391.649 35.7377 391.81 35.4873C392.718 32.9745 388.717 30.667 386.374 28.8068C385.225 27.9796 384.469 27.2283 384.831 26.665L384.871 26.6024L383.052 28.8826L383.011 28.9452C382.126 30.3223 387.268 34.159 388.376 37.526C388.595 38.2861 388.689 38.9658 388.412 39.6722C388.354 39.9002 388.233 40.088 388.112 40.2758L391.408 36.1133Z" fill="url(#paint6_radial)"/>
<path d="M374 116.647C376.745 117.25 379.588 120.162 381.451 122.372C382.333 123.477 382.725 124.883 383.412 125.988C384 126.992 384.686 127.896 385.078 129.001C385.078 128.9 385.765 127.394 385.667 127.494C386.157 126.289 386.647 124.983 387.039 123.778C387.529 122.573 387.922 121.267 388.412 119.961C388.51 119.66 389 118.756 389 118.354C388.706 117.149 388.02 116.346 387.333 115.341C386.549 114.136 386.255 112.73 385.373 111.726C383.608 109.516 380.667 106.603 377.922 106.001C377.235 105.9 374.49 116.747 374 116.647Z" fill="url(#paint7_linear)"/>
<path d="M168.221 108.02C169.113 107.697 169.902 107.276 170.692 106.856C172.37 106.012 174.252 105.262 176.251 105.21C177.75 105.171 179.36 105.53 180.586 106.498L180.688 106.595C180.993 106.787 181.301 107.08 181.509 107.374C181.922 107.864 182.235 108.356 182.448 108.85C181.945 108.763 181.545 108.774 181.046 108.787C179.046 108.839 177.162 109.488 175.386 110.435C174.4 110.96 173.413 111.486 172.319 111.715C171.324 111.941 170.122 111.872 169.307 111.293C169.207 111.296 169.204 111.196 169.104 111.198C168.381 110.317 168.05 109.125 168.221 108.02Z" fill="url(#paint8_linear)"/>
<path d="M164.406 107.518C164.509 107.616 164.509 107.616 164.609 107.613L169.501 111.087C169.401 111.09 169.398 110.99 169.298 110.992C168.48 110.313 168.147 109.022 168.318 107.917C168.318 107.917 168.318 107.917 168.315 107.817C168.387 106.715 168.861 105.702 169.334 104.689C169.714 103.879 170.093 103.069 170.469 102.159L165.577 98.685C165.198 99.4952 164.819 100.305 164.442 101.215C163.969 102.228 163.495 103.241 163.423 104.343C163.257 105.648 163.588 106.84 164.406 107.518Z" fill="url(#paint9_radial)"/>
<path d="M181.606 107.273C182.019 107.763 182.332 108.255 182.545 108.749C183.507 111.125 183.083 114.037 182.348 116.557C181.529 119.679 180.418 123.109 181.796 126.075C182.219 126.964 182.84 127.748 183.655 128.327L183.757 128.424C184.573 129.003 185.583 129.377 186.483 129.354C185.308 126.483 186.321 123.156 187.143 120.133C187.962 117.011 188.466 113.297 186.401 110.85C186.093 110.557 185.786 110.265 185.478 109.973L185.375 109.876L180.789 106.594C181.094 106.786 181.299 106.981 181.606 107.273Z" fill="url(#paint10_radial)"/>
<path d="M188.447 131.802C189.365 132.478 190.475 132.849 191.575 132.821C193.671 132.666 195.621 130.715 195.467 128.618L190.575 125.144C190.729 127.241 188.779 129.192 186.683 129.347C186.583 129.349 186.483 129.352 186.383 129.354C185.383 129.38 184.473 129.004 183.658 128.425L188.447 131.802Z" fill="url(#paint11_linear)"/>
<path d="M479.516 107.78C479.714 106.852 479.776 105.96 479.837 105.068C480.011 103.197 480.372 101.204 481.387 99.4812C482.149 98.1888 483.305 97.0132 484.776 96.4869L484.913 96.4515C485.238 96.2945 485.648 96.1883 486.008 96.1683C486.642 96.0774 487.225 96.0727 487.758 96.1542C487.418 96.5342 487.215 96.8789 486.961 97.3097C485.946 99.0329 485.498 100.974 485.36 102.982C485.283 104.098 485.206 105.213 484.82 106.262C484.485 107.225 483.79 108.209 482.867 108.593C482.816 108.679 482.73 108.629 482.679 108.715C481.548 108.861 480.362 108.511 479.516 107.78Z" fill="url(#paint12_linear)"/>
<path d="M477.069 110.748C477.206 110.713 477.206 110.713 477.257 110.626L482.795 108.318C482.744 108.404 482.658 108.353 482.607 108.44C481.598 108.774 480.326 108.372 479.479 107.641C479.479 107.641 479.479 107.641 479.393 107.591C478.496 106.946 477.888 106.008 477.28 105.069C476.794 104.319 476.308 103.568 475.736 102.767L470.197 105.075C470.684 105.826 471.17 106.576 471.742 107.378C472.35 108.316 472.958 109.255 473.855 109.899C474.873 110.731 476.06 111.082 477.069 110.748Z" fill="url(#paint13_radial)"/>
<path d="M485.971 96.0312C486.605 95.9404 487.188 95.9357 487.72 96.0172C490.245 96.4599 492.49 98.3627 494.238 100.321C496.452 102.67 498.772 105.43 502.017 105.832C502.996 105.944 503.989 105.834 504.912 105.449L505.049 105.413C505.972 105.029 506.825 104.37 507.281 103.595C504.224 103.07 501.939 100.448 499.811 98.1495C497.597 95.8006 494.714 93.4055 491.545 93.8598C491.134 93.966 490.723 94.0722 490.313 94.1784L490.176 94.2138L484.962 96.3652C485.287 96.2083 485.56 96.1375 485.971 96.0312Z" fill="url(#paint14_radial)"/>
<path d="M510.403 103.228C511.463 102.808 512.366 102.063 512.924 101.115C513.904 99.2553 513.282 96.5677 511.422 95.5879L505.884 97.8963C507.744 98.8761 508.366 101.564 507.386 103.424C507.335 103.51 507.284 103.596 507.234 103.682C506.726 104.544 505.925 105.116 505.001 105.501L510.403 103.228Z" fill="url(#paint15_linear)"/>
<path d="M141 176C145.418 176 149 172.418 149 168C149 163.582 145.418 160 141 160C136.582 160 133 163.582 133 168C133 172.418 136.582 176 141 176Z" fill="url(#paint16_linear)"/>
<path d="M257 118C259.209 118 261 116.209 261 114C261 111.791 259.209 110 257 110C254.791 110 253 111.791 253 114C253 116.209 254.791 118 257 118Z" fill="url(#paint17_linear)"/>
<path d="M554 152C556.761 152 559 149.761 559 147C559 144.239 556.761 142 554 142C551.239 142 549 144.239 549 147C549 149.761 551.239 152 554 152Z" fill="url(#paint18_radial)"/>
<path d="M176.8 73.409C173.3 70.709 170.1 68.709 165.6 67.909C161.9 67.209 158.8 67.809 155.3 68.609C154.9 68.709 152 64.809 151.6 64.309C151.3 63.909 148.5 59.909 148 60.009C151.5 59.209 154.6 58.609 158.3 59.309C162.8 60.109 166 62.109 169.5 64.709C172.5 67.009 173.9 71.209 176.8 73.409Z" fill="url(#paint19_radial)"/>
<path d="M239.3 21.3C236.5 20.7 233.6 17.8 231.7 15.6C230.8 14.5 230.4 13.1 229.7 12C229.1 11 228.4 10.1 228 9C228 9.1 227.3 10.6 227.4 10.5C226.9 11.7 226.4 13 226 14.2C225.5 15.4 225.1 16.7 224.6 18C224.5 18.3 224 19.2 224 19.6C224.3 20.8 225 21.6 225.7 22.6C226.5 23.8 226.8 25.2 227.7 26.2C229.5 28.3 232.4 31.3 235.3 31.9C236 32.1 238.8 21.2 239.3 21.3Z" fill="url(#paint20_linear)"/>
<path d="M10.5 200.2C8.5 199.9 7.1 198.4 5.5 197.3C3.8 196.1 1.5 195.4 0 194C0.1 194.1 0.199991 195.8 0.0999908 195.7C0.199991 197 0.4 198.4 0.5 199.7C0.7 201 0.8 202.4 1 203.7C1 204 0.999997 205.2 1.2 205.3C2.8 206.7 5 207.4 6.7 208.6C8.3 209.7 9.6 211.3 11.7 211.5C11.6 211.5 11.2 206.3 11.1 205.9C11.1 205.3 10.8 200.2 10.5 200.2Z" fill="url(#paint21_linear)"/>
<path d="M580.519 221.927C578.997 223.258 576.948 223.356 575.074 223.865C573.059 224.385 571.038 225.687 569 225.926C569.141 225.914 570.502 226.937 570.361 226.949C571.418 227.713 572.615 228.466 573.671 229.231C574.792 229.919 575.924 230.748 577.045 231.436C577.274 231.63 578.189 232.406 578.395 232.318C580.498 232.003 582.454 230.778 584.469 230.257C586.343 229.748 588.404 229.791 589.914 228.319C589.85 228.395 585.625 225.337 585.255 225.155C584.797 224.767 580.713 221.698 580.519 221.927Z" fill="url(#paint22_linear)"/>
<path d="M487.344 35.9263C486.156 37.5625 484.179 38.1128 482.465 39.025C480.616 39.9798 478.934 41.6977 477 42.3828C477.135 42.3402 478.689 43.0356 478.554 43.0782C479.754 43.5891 481.088 44.0574 482.288 44.5683C483.534 44.9905 484.822 45.5476 486.068 45.9697C486.334 46.1081 487.399 46.6616 487.58 46.5303C489.56 45.7564 491.196 44.1273 493.045 43.1725C494.759 42.2602 496.778 41.8448 497.924 40.0738C497.878 40.1625 493.079 38.1189 492.678 38.0231C492.146 37.7464 487.483 35.6601 487.344 35.9263Z" fill="url(#paint23_linear)"/>
<path d="M57.9316 61.5357C56.0984 62.3899 54.103 61.9123 52.1616 61.8786C50.0817 61.8167 47.7775 62.5031 45.7539 62.1641C45.8925 62.1922 46.9145 63.5544 46.7759 63.5262C47.5771 64.5549 48.5169 65.6117 49.318 66.6403C50.2026 67.6138 51.059 68.7258 51.9435 69.6992C52.1092 69.9493 52.7717 70.9498 52.9937 70.9228C55.1007 71.2066 57.3215 70.5755 59.4014 70.6373C61.3428 70.671 63.3101 71.2872 65.1714 70.2944C65.088 70.3496 61.8833 66.235 61.5791 65.9567C61.2478 65.4565 58.1817 61.37 57.9316 61.5357Z" fill="url(#paint24_linear)"/>
<path d="M520 203.509C523.5 200.809 526.7 198.809 531.2 198.009C534.9 197.309 538 197.909 541.5 198.709C542 198.809 544.8 194.909 545.2 194.409C545.6 194.009 548.4 189.909 548.8 190.009C545.3 189.209 542.2 188.609 538.5 189.309C534 190.109 530.9 192.109 527.3 194.809C524.4 197.109 523 201.309 520 203.509Z" fill="url(#paint25_linear)"/>
<path d="M462.407 183.193C461.988 183.828 461.488 184.348 460.826 184.635C460.263 184.94 459.521 185.111 458.913 185.102C458.6 185.148 458.403 185.112 458.108 185.059C458.937 183.278 458.192 181.213 458.449 179.227C458.794 176.749 460.661 174.85 462.976 173.845C463.307 173.702 463.638 173.558 464.067 173.432C464.496 173.306 464.925 173.181 465.354 173.055C464.139 174.157 463.283 175.526 462.999 177.101C462.626 179.167 463.434 181.447 462.407 183.193Z" fill="url(#paint26_linear)"/>
<path d="M468.518 171.289C468.088 171.414 467.758 171.558 467.311 171.782L462.859 173.926C463.19 173.782 463.521 173.639 463.95 173.513C464.379 173.387 464.808 173.261 465.238 173.136C467.562 172.641 469.977 172.771 472.375 173.001L476.925 170.875C474.134 170.575 471.209 170.453 468.518 171.289Z" fill="url(#paint27_linear)"/>
<path d="M433.707 192.442C434.247 195.08 433.58 198.211 431.292 199.627C431.176 199.708 430.962 199.771 430.845 199.851C430.068 200.219 429.129 200.355 428.324 200.311C429.431 198.682 429.624 196.481 429.255 194.585C428.715 191.948 427.415 189.579 426.428 187.165C425.459 184.653 424.954 181.819 426.203 179.402C426.845 178.095 427.926 177.173 429.249 176.598C430.027 176.231 430.885 175.979 431.824 175.844C431.44 176.283 431.056 176.721 430.753 177.276C429.504 179.693 430.009 182.528 430.978 185.04C431.866 187.435 433.167 189.804 433.707 192.442Z" fill="url(#paint28_radial)"/>
<path d="M428.227 200.294C427.126 200.197 426.062 199.903 425.131 199.43C423.188 198.368 421.746 196.787 420.224 195.09L415.656 197.314C417.098 198.895 418.621 200.592 420.581 201.556C422.344 202.484 424.509 202.874 426.297 201.978L430.748 199.834C429.971 200.202 429.13 200.355 428.227 200.294Z" fill="url(#paint29_linear)"/>
<path d="M460.826 184.635C460.263 184.94 459.521 185.111 458.913 185.103C458.6 185.148 458.403 185.113 458.108 185.059C457.007 184.962 455.88 184.454 454.949 183.981C452.174 182.464 449.837 180.214 447.365 178.142C444.894 176.07 442.173 174.258 439.023 173.69C437.252 173.37 435.374 173.641 433.819 174.376L429.269 176.502C430.047 176.134 430.905 175.883 431.844 175.747C432.783 175.612 433.686 175.673 434.572 175.833C437.721 176.401 440.541 178.231 442.914 180.285C445.385 182.357 447.723 184.608 450.498 186.125C451.706 186.749 453.129 187.311 454.461 187.247C455.168 187.272 455.812 187.084 456.375 186.779L456.491 186.698C456.607 186.618 456.822 186.555 456.938 186.474C456.822 186.555 456.607 186.618 456.491 186.698L460.826 184.635Z" fill="url(#paint30_radial)"/>
<path d="M481.9 235.4L480.4 232.3L477 231.8L479.5 229.4L478.9 226L481.9 227.6L485 226L484.4 229.4L486.9 231.8L483.5 232.3L481.9 235.4Z" fill="url(#paint31_linear)"/>
<path d="M184.656 221.787L187.067 219.328L186.389 215.959L189.492 217.502L192.49 215.788L191.997 219.152L194.55 221.53L191.147 222.114L189.733 225.277L188.114 222.246L184.656 221.787Z" fill="url(#paint32_linear)"/>
<path d="M299.534 66.5565L299.324 63.1191L296.368 61.3657L299.592 60.0946L300.328 56.7214L302.496 59.3406L305.971 59.0374L304.125 61.955L305.527 65.1245L302.192 64.2961L299.534 66.5565Z" fill="url(#paint33_linear)"/>
<path d="M78.6556 189.787L81.0666 187.328L80.3886 183.959L83.4921 185.502L86.4895 183.788L85.997 187.152L88.5502 189.53L85.1474 190.114L83.7331 193.277L82.1139 190.246L78.6556 189.787Z" fill="url(#paint34_radial)"/>
<path d="M585.656 84.7875L588.067 82.3284L587.389 78.9594L590.492 80.5016L593.49 78.7883L592.997 82.1524L595.55 84.5297L592.147 85.1135L590.733 88.2773L589.114 85.2461L585.656 84.7875Z" fill="url(#paint35_radial)"/>
<path d="M64.2657 144.261C63.5435 144.502 62.8294 144.602 62.1316 144.42C61.5004 144.313 60.8108 143.99 60.3371 143.608C60.0629 143.45 59.9299 143.301 59.7304 143.077C61.4818 142.187 62.1692 140.102 63.5964 138.697C65.3969 136.96 68.0374 136.617 70.4795 137.254C70.8284 137.345 71.1773 137.436 71.5927 137.602C72.008 137.768 72.4234 137.933 72.8388 138.099C71.2029 138.217 69.6837 138.766 68.4888 139.83C66.9205 141.227 66.1502 143.52 64.2657 144.261Z" fill="url(#paint36_linear)"/>
<path d="M76.4201 138.661C76.0047 138.495 75.6558 138.404 75.1657 138.305L70.3398 137.246C70.6887 137.337 71.0376 137.428 71.453 137.594C71.8683 137.76 72.2837 137.925 72.6991 138.091C74.8343 139.135 76.6544 140.728 78.3999 142.388L83.2923 143.521C81.2808 141.563 79.0535 139.663 76.4201 138.661Z" fill="url(#paint37_linear)"/>
<path d="M35.9732 133.839C34.7712 136.248 32.3149 138.301 29.6406 138.005C29.4994 137.997 29.2917 137.914 29.1505 137.906C28.3116 137.715 27.489 137.243 26.8823 136.712C28.7586 136.112 30.2686 134.5 31.1473 132.78C32.3493 130.371 32.7871 127.704 33.499 125.196C34.2856 122.621 35.637 120.078 38.1107 118.947C39.4222 118.314 40.8423 118.255 42.2378 118.619C43.0767 118.809 43.9074 119.141 44.73 119.613C44.1571 119.722 43.5842 119.83 43.0031 120.08C40.5294 121.212 39.178 123.754 38.3914 126.329C37.613 128.763 37.1752 131.429 35.9732 133.839Z" fill="url(#paint38_radial)"/>
<path d="M26.815 136.639C26.0088 135.884 25.3519 134.996 24.9109 134.049C24.0371 132.016 23.8774 129.881 23.7259 127.606L18.7588 126.539C18.9185 128.673 19.07 130.949 20.0185 132.916C20.834 134.734 22.2971 136.377 24.2573 136.774L29.0832 137.833C28.2443 137.642 27.4882 137.244 26.815 136.639Z" fill="url(#paint39_linear)"/>
<path d="M62.132 144.421C61.5007 144.314 60.8112 143.99 60.3375 143.609C60.0633 143.451 59.9303 143.302 59.7307 143.078C58.9245 142.323 58.3505 141.227 57.9095 140.281C56.6612 137.375 56.2099 134.162 55.5427 131.007C54.8755 127.852 53.8512 124.747 51.7231 122.357C50.526 121.013 48.8809 120.067 47.203 119.687L42.3106 118.554C43.1496 118.744 43.9803 119.075 44.8029 119.548C45.6255 120.021 46.2987 120.626 46.8972 121.298C49.0253 123.688 50.1161 126.868 50.7168 129.948C51.384 133.103 51.8353 136.317 53.0836 139.222C53.6495 140.459 54.423 141.779 55.5116 142.55C56.0518 143.006 56.6748 143.255 57.3061 143.362L57.4473 143.371C57.5884 143.379 57.7961 143.462 57.9373 143.47C57.7961 143.462 57.5884 143.379 57.4473 143.371L62.132 144.421Z" fill="url(#paint40_radial)"/>
<defs>
<linearGradient id="paint0_linear" x1="230.944" y1="193.187" x2="233.844" y2="168.354" gradientUnits="userSpaceOnUse">
<stop stop-color="#93DFB0"/>
<stop offset="0.9196" stop-color="#75BE4B"/>
</linearGradient>
<linearGradient id="paint1_linear" x1="303.222" y1="186.648" x2="304.837" y2="170.82" gradientUnits="userSpaceOnUse">
<stop stop-color="#93DFB0"/>
<stop offset="0.9196" stop-color="#75BE4B"/>
</linearGradient>
<linearGradient id="paint2_linear" x1="372.877" y1="56.9938" x2="377.483" y2="66.841" gradientUnits="userSpaceOnUse">
<stop stop-color="#FFA06A"/>
<stop offset="0.9196" stop-color="#EF1C17"/>
</linearGradient>
<linearGradient id="paint3_linear" x1="388.723" y1="38.3601" x2="381.633" y2="41.6762" gradientUnits="userSpaceOnUse">
<stop stop-color="#FF985F"/>
<stop offset="0.9196" stop-color="#EE1F1A"/>
</linearGradient>
<radialGradient id="paint4_radial" cx="0" cy="0" r="1" gradientUnits="userSpaceOnUse" gradientTransform="translate(382.21 51.5623) rotate(64.9351) scale(8.36955)">
<stop stop-color="#FF8743"/>
<stop offset="1" stop-color="#F44312"/>
</radialGradient>
<linearGradient id="paint5_linear" x1="389.205" y1="24.5177" x2="393.214" y2="33.0877" gradientUnits="userSpaceOnUse">
<stop stop-color="#FFA572"/>
<stop offset="0.9196" stop-color="#EB231D"/>
</linearGradient>
<radialGradient id="paint6_radial" cx="0" cy="0" r="1" gradientUnits="userSpaceOnUse" gradientTransform="translate(387.823 32.8026) rotate(64.9351) scale(5.31766)">
<stop stop-color="#FF9960"/>
<stop offset="1" stop-color="#F75629"/>
</radialGradient>
<linearGradient id="paint7_linear" x1="374" y1="117.524" x2="388.988" y2="117.524" gradientUnits="userSpaceOnUse">
<stop stop-color="#93DFB0"/>
<stop offset="0.9196" stop-color="#75BE4B"/>
</linearGradient>
<linearGradient id="paint8_linear" x1="182.389" y1="109.617" x2="168.251" y2="107.696" gradientUnits="userSpaceOnUse">
<stop stop-color="#93DFB0"/>
<stop offset="0.9196" stop-color="#75BE4B"/>
</linearGradient>
<radialGradient id="paint9_radial" cx="0" cy="0" r="1" gradientUnits="userSpaceOnUse" gradientTransform="translate(166.781 104.952) rotate(-172.261) scale(4.78743)">
<stop stop-color="#93DFB0"/>
<stop offset="1" stop-color="#4BBE51"/>
</radialGradient>
<radialGradient id="paint10_radial" cx="0" cy="0" r="1" gradientUnits="userSpaceOnUse" gradientTransform="translate(183.638 117.96) rotate(-172.261) scale(8.33219)">
<stop stop-color="#93DFB0"/>
<stop offset="1" stop-color="#4BBE51"/>
</radialGradient>
<linearGradient id="paint11_linear" x1="195.454" y1="129.621" x2="183.822" y2="128.04" gradientUnits="userSpaceOnUse">
<stop stop-color="#93DFB0"/>
<stop offset="0.9196" stop-color="#75BE4B"/>
</linearGradient>
<linearGradient id="paint12_linear" x1="488.377" y1="96.6107" x2="479.257" y2="107.583" gradientUnits="userSpaceOnUse">
<stop stop-color="#93DFB0"/>
<stop offset="0.9196" stop-color="#75BE4B"/>
</linearGradient>
<radialGradient id="paint13_radial" cx="0" cy="0" r="1" gradientUnits="userSpaceOnUse" gradientTransform="translate(476.15 107.374) rotate(129.733) scale(4.78743)">
<stop stop-color="#93DFB0"/>
<stop offset="1" stop-color="#4BBE51"/>
</radialGradient>
<radialGradient id="paint14_radial" cx="0" cy="0" r="1" gradientUnits="userSpaceOnUse" gradientTransform="translate(496.112 99.9704) rotate(129.733) scale(8.33219)">
<stop stop-color="#93DFB0"/>
<stop offset="1" stop-color="#4BBE51"/>
</radialGradient>
<linearGradient id="paint15_linear" x1="512.266" y1="96.13" x2="504.763" y2="105.158" gradientUnits="userSpaceOnUse">
<stop stop-color="#93DFB0"/>
<stop offset="0.9196" stop-color="#75BE4B"/>
</linearGradient>
<linearGradient id="paint16_linear" x1="133.064" y1="168.048" x2="148.982" y2="168.048" gradientUnits="userSpaceOnUse">
<stop stop-color="#EFCF64"/>
<stop offset="1" stop-color="#FF9254"/>
</linearGradient>
<linearGradient id="paint17_linear" x1="253.032" y1="114.024" x2="260.991" y2="114.024" gradientUnits="userSpaceOnUse">
<stop stop-color="#EFCF64"/>
<stop offset="1" stop-color="#FF9254"/>
</linearGradient>
<radialGradient id="paint18_radial" cx="0" cy="0" r="1" gradientUnits="userSpaceOnUse" gradientTransform="translate(548.5 149.5) rotate(-1.54987) scale(10.7455 8.5197)">
<stop stop-color="#FF8743"/>
<stop offset="1" stop-color="#F44312"/>
</radialGradient>
<radialGradient id="paint19_radial" cx="0" cy="0" r="1" gradientUnits="userSpaceOnUse" gradientTransform="translate(162.361 66.2018) rotate(11.8886) scale(15.4662 6.91494)">
<stop stop-color="#FF8743"/>
<stop offset="1" stop-color="#F44312"/>
</radialGradient>
<linearGradient id="paint20_linear" x1="224.061" y1="20.5195" x2="239.283" y2="20.5195" gradientUnits="userSpaceOnUse">
<stop stop-color="#EFCF64"/>
<stop offset="1" stop-color="#FF9254"/>
</linearGradient>
<linearGradient id="paint21_linear" x1="0.0468" y1="202.802" x2="11.687" y2="202.802" gradientUnits="userSpaceOnUse">
<stop stop-color="#EFCF64"/>
<stop offset="1" stop-color="#FF9254"/>
</linearGradient>
<linearGradient id="paint22_linear" x1="575.744" y1="231.582" x2="583.272" y2="222.704" gradientUnits="userSpaceOnUse">
<stop stop-color="#EFCF64"/>
<stop offset="1" stop-color="#FF9254"/>
</linearGradient>
<linearGradient id="paint23_linear" x1="484.831" y1="46.4013" x2="490.2" y2="36.0734" gradientUnits="userSpaceOnUse">
<stop stop-color="#EFCF64"/>
<stop offset="1" stop-color="#FF9254"/>
</linearGradient>
<linearGradient id="paint24_linear" x1="50.5954" y1="69.4746" x2="60.3421" y2="63.0198" gradientUnits="userSpaceOnUse">
<stop stop-color="#93DFB0"/>
<stop offset="0.9196" stop-color="#75BE4B"/>
</linearGradient>
<linearGradient id="paint25_linear" x1="520.115" y1="196.298" x2="548.768" y2="196.298" gradientUnits="userSpaceOnUse">
<stop stop-color="#EFCF64"/>
<stop offset="1" stop-color="#FF9254"/>
</linearGradient>
<linearGradient id="paint26_linear" x1="465.077" y1="172.987" x2="457.913" y2="184.983" gradientUnits="userSpaceOnUse">
<stop stop-color="#EFCF64"/>
<stop offset="1" stop-color="#FF9E2D"/>
</linearGradient>
<linearGradient id="paint27_linear" x1="465.409" y1="169.627" x2="474.419" y2="175.007" gradientUnits="userSpaceOnUse">
<stop stop-color="#EFCF64"/>
<stop offset="1" stop-color="#F0972E"/>
</linearGradient>
<radialGradient id="paint28_radial" cx="0" cy="0" r="1" gradientUnits="userSpaceOnUse" gradientTransform="translate(429.864 188.016) rotate(30.8441) scale(9.73514)">
<stop stop-color="#EFCF64"/>
<stop offset="1" stop-color="#E99028"/>
</radialGradient>
<linearGradient id="paint29_linear" x1="416.774" y1="195.415" x2="429.07" y2="202.758" gradientUnits="userSpaceOnUse">
<stop stop-color="#EFCF64"/>
<stop offset="1" stop-color="#E29624"/>
</linearGradient>
<radialGradient id="paint30_radial" cx="0" cy="0" r="1" gradientUnits="userSpaceOnUse" gradientTransform="translate(444.957 180.598) rotate(30.8441) scale(11.5733)">
<stop stop-color="#EFCF64"/>
<stop offset="1" stop-color="#EF9A36"/>
</radialGradient>
<linearGradient id="paint31_linear" x1="486.894" y1="230.705" x2="477" y2="230.705" gradientUnits="userSpaceOnUse">
<stop stop-color="#EFCF64"/>
<stop offset="1" stop-color="#FB8920"/>
</linearGradient>
<linearGradient id="paint32_linear" x1="190.762" y1="224.902" x2="187.419" y2="215.589" gradientUnits="userSpaceOnUse">
<stop stop-color="#EFCF64"/>
<stop offset="1" stop-color="#FB8920"/>
</linearGradient>
<linearGradient id="paint33_linear" x1="305.937" y1="64.1091" x2="296.784" y2="60.3526" gradientUnits="userSpaceOnUse">
<stop stop-color="#EFCF64"/>
<stop offset="1" stop-color="#FB8920"/>
</linearGradient>
<radialGradient id="paint34_radial" cx="0" cy="0" r="1" gradientUnits="userSpaceOnUse" gradientTransform="translate(83.0934 188.234) rotate(92.0343) scale(5.60235 4.28095)">
<stop stop-color="#FF8743"/>
<stop offset="1" stop-color="#F44312"/>
</radialGradient>
<radialGradient id="paint35_radial" cx="0" cy="0" r="1" gradientUnits="userSpaceOnUse" gradientTransform="translate(590.093 83.2336) rotate(92.0343) scale(5.60235 4.28095)">
<stop stop-color="#FF8743"/>
<stop offset="1" stop-color="#F44312"/>
</radialGradient>
<linearGradient id="paint36_linear" x1="72.6618" y1="137.875" x2="59.624" y2="142.898" gradientUnits="userSpaceOnUse">
<stop stop-color="#EFCF64"/>
<stop offset="1" stop-color="#FF9E2D"/>
</linearGradient>
<linearGradient id="paint37_linear" x1="74.9988" y1="135.435" x2="78.7713" y2="145.227" gradientUnits="userSpaceOnUse">
<stop stop-color="#EFCF64"/>
<stop offset="1" stop-color="#F0972E"/>
</linearGradient>
<radialGradient id="paint38_radial" cx="0" cy="0" r="1" gradientUnits="userSpaceOnUse" gradientTransform="translate(35.6784 127.985) rotate(68.9299) scale(9.73514)">
<stop stop-color="#EFCF64"/>
<stop offset="1" stop-color="#E99028"/>
</radialGradient>
<linearGradient id="paint39_linear" x1="20.8094" y1="125.735" x2="25.9582" y2="139.099" gradientUnits="userSpaceOnUse">
<stop stop-color="#EFCF64"/>
<stop offset="1" stop-color="#E29624"/>
</linearGradient>
<radialGradient id="paint40_radial" cx="0" cy="0" r="1" gradientUnits="userSpaceOnUse" gradientTransform="translate(52.1318 131.455) rotate(68.9299) scale(11.5733)">
<stop stop-color="#EFCF64"/>
<stop offset="1" stop-color="#EF9A36"/>
</radialGradient>
<clipPath id="clip0">
<rect width="496" height="265" fill="white" transform="translate(54)"/>
</clipPath>
</defs>
</svg>
