<svg width="496" height="265" viewBox="0 0 496 265" fill="none" xmlns="http://www.w3.org/2000/svg">
<g clip-path="url(#clip0)">
<circle cx="250" cy="304" r="219" fill="#F9FEFC"/>
<circle cx="250" cy="304" r="172" fill="#F0FCF8"/>
<circle cx="250" cy="304" r="116" fill="#E2F8F4"/>
<path d="M267.921 164.494C270.42 162.742 272.176 159.98 273.932 157.487C276.025 154.658 278.051 151.896 280.55 149.47C282.981 147.18 285.75 144.417 288.924 143.137C292.571 141.655 295.88 144.754 297.636 147.786C301.485 154.321 292.03 158.7 286.966 160.115C280.685 161.867 274.54 159.711 268.394 160.991C266.908 161.328 265.828 163.484 266.841 164.831C272.514 172.309 284.872 170.221 292.436 166.987C301.282 163.214 309.994 155.062 304.862 144.822C302.836 140.712 298.514 136.467 293.989 135.255C288.924 133.907 284.062 136.602 280.145 139.634C276.16 142.666 272.851 146.371 269.947 150.413C267.381 154.052 264.68 158.902 265.49 163.551C265.625 164.562 267.111 165.1 267.921 164.494Z" fill="#E84542"/>
<path d="M292.705 143.07C292.705 143.07 292.638 143.137 292.57 143.205C294.664 143.946 296.419 145.967 297.567 147.921C301.417 154.456 291.962 158.835 286.897 160.25C282.44 161.53 278.118 160.789 273.796 160.721C271.5 162.945 269.406 164.899 267.988 166.313C274.066 172.175 285.277 170.154 292.367 167.122C296.352 165.438 300.269 162.877 302.903 159.644C305.536 151.087 293.853 143.07 292.705 143.07Z" fill="#A31C1C"/>
<path d="M304.795 144.888C302.769 140.778 298.447 136.534 293.923 135.321C288.858 133.974 283.995 136.669 280.079 139.7C276.094 142.732 272.785 146.438 269.881 150.48C268.193 152.838 266.572 155.667 265.762 158.564C266.707 159.306 268.125 159.508 270.219 158.969C271.637 158.632 280.281 135.725 292.707 137.477C301.824 138.757 305.133 147.718 306.079 153.242C306.619 150.682 306.349 147.852 304.795 144.888Z" fill="#FF7466"/>
<path d="M262.851 158.034C263.661 158.371 264.539 158.91 265.215 159.449C265.687 159.786 266.093 160.594 266.295 161.133C266.633 162.211 267.646 162.885 268.794 162.75C269.807 162.615 270.887 161.672 270.752 160.527C270.55 158.506 269.604 156.956 267.916 155.811C266.363 154.8 264.472 154.666 262.919 155.744C262.108 156.215 261.838 157.63 262.851 158.034Z" fill="#E84542"/>
<g opacity="0.34">
<path opacity="0.34" d="M262.851 158.034C263.661 158.371 264.539 158.91 265.215 159.449C265.687 159.786 266.093 160.594 266.295 161.133C266.633 162.211 267.646 162.885 268.794 162.75C269.807 162.615 270.887 161.672 270.752 160.527C270.55 158.506 269.604 156.956 267.916 155.811C266.363 154.8 264.472 154.666 262.919 155.744C262.108 156.215 261.838 157.63 262.851 158.034Z" fill="#A31C1C"/>
</g>
<path d="M256.442 157.492C256.712 159.243 258.805 159.513 259.481 160.389C260.359 161.467 260.426 163.286 261.574 164.498C261.372 164.027 261.169 163.488 260.966 163.016C260.966 163.151 260.966 163.286 260.966 163.42C261.034 165.037 263.06 166.048 264.275 164.768C264.343 164.7 264.478 164.566 264.546 164.498C264.208 164.7 263.938 164.835 263.6 165.037C264.748 164.633 265.491 164.161 265.896 162.949C266.166 162.208 266.369 161.332 266.369 160.523C266.437 158.839 265.491 157.087 264.208 155.942C262.992 154.864 261.439 154.056 259.818 153.988C257.792 153.988 256.104 155.47 256.442 157.492Z" fill="#E84542"/>
<g opacity="0.34">
<path opacity="0.34" d="M256.442 157.492C256.712 159.243 258.805 159.513 259.481 160.389C260.359 161.467 260.426 163.286 261.574 164.498C261.372 164.027 261.169 163.488 260.966 163.016C260.966 163.151 260.966 163.286 260.966 163.42C261.034 165.037 263.06 166.048 264.275 164.768C264.343 164.7 264.478 164.566 264.546 164.498C264.208 164.7 263.938 164.835 263.6 165.037C264.748 164.633 265.491 164.161 265.896 162.949C266.166 162.208 266.369 161.332 266.369 160.523C266.437 158.839 265.491 157.087 264.208 155.942C262.992 154.864 261.439 154.056 259.818 153.988C257.792 153.988 256.104 155.47 256.442 157.492Z" fill="#A31C1C"/>
</g>
<g opacity="0.34">
<path opacity="0.34" d="M256.442 157.492C256.712 159.243 258.805 159.513 259.481 160.389C260.359 161.467 260.426 163.286 261.574 164.498C261.372 164.027 261.169 163.488 260.966 163.016C260.966 163.151 260.966 163.286 260.966 163.42C261.034 165.037 263.06 166.048 264.275 164.768C264.343 164.7 264.478 164.566 264.546 164.498C264.208 164.7 263.938 164.835 263.6 165.037C264.748 164.633 265.491 164.161 265.896 162.949C266.166 162.208 266.369 161.332 266.369 160.523C266.437 158.839 265.491 157.087 264.208 155.942C262.992 154.864 261.439 154.056 259.818 153.988C257.792 153.988 256.104 155.47 256.442 157.492Z" fill="#A31C1C"/>
</g>
<path d="M260.963 164.567C261.976 158.167 251.981 158.167 248.064 156.55C243.337 154.529 237.867 149.746 236.516 144.558C236.111 143.076 236.381 141.93 237.259 140.65C237.597 140.111 238.204 139.101 238.745 138.764C239.555 138.292 238.947 138.494 239.825 138.764C242.391 139.572 244.823 142.671 246.241 144.827C248.132 147.657 249.28 150.756 250.158 154.057C251.103 157.493 251.306 161.94 253.534 164.837C254.75 166.454 257.586 167.06 258.667 164.837C260.963 160.255 259.477 154.125 257.991 149.476C256.438 144.895 254.21 140.583 250.968 136.945C248.267 133.913 244.215 130.612 240.028 130.073C235.03 129.399 231.181 133.509 229.02 137.619C224.293 146.444 230.438 156.617 237.664 161.94C241.378 164.702 245.903 166.588 250.495 167.127C252.724 167.464 260.423 168.138 260.963 164.567Z" fill="#E84542"/>
<path d="M257.992 167.06C257.316 165.713 253.805 160.862 250.698 156.685C250.766 156.887 250.766 157.156 250.833 157.426C249.753 157.156 248.807 156.887 248.064 156.617C243.337 154.596 237.867 149.813 236.516 144.625C236.111 143.143 236.381 141.998 237.259 140.718C237.597 140.246 238.137 139.303 238.61 138.899C235.976 139.168 229.696 140.718 227.805 148.196C229.155 153.653 233.207 158.706 237.597 161.94C239.488 163.355 241.581 164.5 243.81 165.376C248.064 166.521 252.116 167.127 254.885 167.329C255.966 167.397 257.046 167.262 257.992 167.06Z" fill="#A31C1C"/>
<path d="M228.484 138.698C228.416 138.901 228.349 139.035 228.281 139.237C228.214 139.372 228.214 139.44 228.146 139.574C228.079 139.709 228.011 139.844 228.011 140.046C227.944 140.181 227.944 140.315 227.876 140.45C227.809 140.585 227.809 140.72 227.741 140.854C227.674 140.989 227.674 141.124 227.674 141.259C227.674 141.393 227.606 141.528 227.606 141.663C227.606 141.798 227.539 141.932 227.539 142.067C227.539 142.134 227.539 142.269 227.471 142.337C227.403 142.741 227.403 143.145 227.336 143.549C227.809 142 231.726 130.412 240.505 133.376C245.975 135.195 250.432 140.248 252.931 144.964C255.429 149.68 256.51 156.08 258.941 160.796C259.279 161.403 259.752 162.144 260.427 162.077C260.494 162.077 260.562 162.077 260.629 162.009C260.427 161.538 260.089 161.133 259.752 160.796C260.089 157.024 259.076 152.914 257.928 149.613C257.253 147.524 256.375 145.436 255.362 143.549C253.876 141.461 252.661 139.035 250.905 137.082C248.203 134.05 244.152 130.749 239.965 130.21C234.967 129.536 231.118 133.646 228.957 137.755C228.822 138.025 228.687 138.294 228.552 138.564C228.552 138.564 228.552 138.631 228.484 138.698Z" fill="#FF7466"/>
<path d="M274.335 162.277C276.091 168.004 280.143 173.259 285.815 175.482C292.096 177.975 299.322 176.762 304.724 172.787C307.291 170.901 308.979 168.543 310.667 165.915C311.613 164.433 312.626 162.547 314.449 162.008C316.475 161.469 319.717 162.951 321.067 164.366C323.498 166.993 322.823 171.17 325.254 173.865C327.28 176.088 330.252 176.897 332.615 174.808C333.831 173.73 332.75 172.046 331.4 171.911C327.348 171.574 327.618 166.656 326.2 163.827C324.984 161.334 322.823 159.582 320.257 158.504C314.449 156.079 310.127 158.167 306.953 163.288C303.441 169.014 298.579 173.124 291.488 173.057C284.532 173.057 277.982 168.408 275.753 161.873C275.483 160.997 274.065 161.334 274.335 162.277Z" fill="#A31C1C"/>
<path d="M275.754 165.777C275.686 165.508 275.551 165.306 275.484 165.036C275.416 164.901 275.349 164.834 275.281 164.699C275.416 165.103 275.619 165.44 275.754 165.777Z" fill="#E84542"/>
<path d="M304.722 172.785C307.288 170.898 308.977 168.54 310.665 165.913C311.611 164.431 312.624 162.544 314.447 162.005C316.473 161.466 319.714 162.948 321.065 164.363C323.496 166.991 322.821 171.168 325.252 173.863C327.075 175.884 329.709 176.76 331.87 175.345C331.6 175.21 331.398 175.075 331.06 175.075C327.008 174.739 327.278 169.82 325.86 166.991C324.644 164.498 322.483 162.746 319.917 161.668C314.109 159.243 309.787 161.332 306.613 166.452C303.101 172.178 298.239 176.288 291.148 176.221C287.704 176.221 284.327 175.075 281.559 173.054C282.842 174.065 284.26 174.873 285.746 175.48C292.161 177.972 299.32 176.76 304.722 172.785Z" fill="#E84542"/>
<path d="M235.164 156.753C232.936 157.763 230.977 159.111 229.289 160.93C228.614 161.671 226.115 165.915 225.372 165.915C224.359 165.983 223.481 163.153 223.346 162.412C223.076 160.862 223.346 159.178 223.751 157.696C224.359 155.54 225.912 153.586 226.115 151.296C226.588 146.714 220.915 144.424 217.268 143.817C213.216 143.144 208.422 143.885 206.058 147.523C205.383 148.533 206.261 150.285 207.544 150.15C209.907 149.881 212.271 148.938 214.702 148.87C216.458 148.87 220.645 149.274 220.78 151.43C220.848 152.306 219.497 154.395 219.227 155.203C218.889 156.281 218.619 157.359 218.416 158.504C218.146 160.66 218.349 162.749 219.159 164.703C220.307 167.33 223.414 171.036 226.655 169.149C228.141 168.273 228.884 166.32 229.762 164.972C231.45 162.277 233.341 159.784 236.042 158.033C236.853 157.561 236.11 156.281 235.164 156.753Z" fill="#A31C1C"/>
<path d="M233.005 159.245C231.249 160.053 229.628 161.064 228.21 162.411C227.264 163.826 226.049 165.645 225.441 165.914C224.563 167.194 223.618 168.474 223.212 168.474C222.199 168.542 221.321 165.712 221.186 164.971C220.916 163.422 221.186 161.737 221.592 160.255C222.199 158.099 223.753 156.145 223.955 153.855C224.428 149.273 218.755 146.983 215.108 146.376C211.934 145.838 208.355 146.174 205.789 148.061C205.586 149.071 206.397 150.284 207.477 150.149C209.841 149.88 212.205 148.937 214.636 148.869C216.392 148.869 220.579 149.273 220.714 151.429C220.781 152.305 219.431 154.394 219.16 155.202C218.823 156.28 218.553 157.358 218.35 158.503C218.08 160.659 218.282 162.748 219.093 164.702C220.241 167.329 223.347 171.035 226.589 169.148C226.589 169.148 226.589 169.148 226.657 169.148C226.994 168.609 227.264 168.003 227.602 167.531C228.615 165.847 229.763 164.23 231.181 162.815C232.059 161.603 233.005 160.457 234.153 159.514C233.882 159.245 233.477 159.042 233.005 159.245Z" fill="#E84542"/>
<path d="M179.117 179.99C180.805 180.866 241.652 200.808 241.652 200.808L313.98 205.929L311.008 194.004L269.746 168.941L180.805 179.99" fill="#5B1A28"/>
<path d="M264.613 194.815C264.613 194.815 202.483 171.302 178.441 162.477L180.805 179.993H179.117C180.805 180.869 241.652 200.811 241.652 200.811L262.519 202.293L264.613 194.815Z" fill="#9B4419"/>
<path d="M177.833 162.544L176.145 180.397L278.254 180.801L313.978 205.864L319.111 194.006L279.942 160.051L177.833 162.544Z" fill="#FBF348"/>
<path d="M178.98 180.397L278.253 180.801L313.978 205.863L318.84 194.545L282.508 163.015L180.399 165.508L178.98 180.397Z" fill="#FFC41F"/>
<path opacity="0.34" d="M287.707 188.01L303.78 199.261L307.156 184.911L293.785 172.852C291.894 177.365 288.99 184.776 287.707 188.01Z" fill="#A31C1C"/>
<path d="M289.938 189.018L306.01 200.269L309.387 185.919L295.948 173.859C294.125 178.373 291.221 185.717 289.938 189.018Z" fill="#E84542"/>
<path opacity="0.34" d="M209.844 180.938L247.392 181.14L244.893 161.332L215.381 162.073L209.844 180.938Z" fill="#A31C1C"/>
<path d="M208.152 180.531L245.7 180.666L243.202 160.926L213.622 161.667L208.152 180.531Z" fill="#FF7466"/>
<path d="M212.137 180.531L245.7 180.666L243.607 163.891L216.864 164.564L212.137 180.531Z" fill="#E84542"/>
<path opacity="0.34" d="M279.134 160.051C278.458 167.125 277.851 176.018 277.445 180.801H278.256L313.98 205.864L319.113 194.006L279.944 160.051H279.134Z" fill="#A31C1C"/>
<path opacity="0.34" d="M313.845 206.269L313.98 205.865L276.972 184.238H276.77C276.635 185.249 276.499 186.529 276.297 188.078L313.845 206.269Z" fill="#A31C1C"/>
<path opacity="0.34" d="M313.845 206.269L313.98 205.865L276.972 184.238H276.77C276.635 185.249 276.499 186.529 276.297 188.078L313.845 206.269Z" fill="#A31C1C"/>
<path d="M170.877 168.472C165.474 173.323 167.77 181.879 173.646 185.382C179.453 188.886 189.583 186.123 188.638 178.039C188.3 174.872 185.464 173.053 182.357 173.66C179.251 174.266 176.82 176.893 176.077 179.925C174.321 187.067 182.357 194.41 189.313 193.13C190.664 192.861 190.934 190.705 189.718 190.098C186.274 188.481 182.56 188.481 180.466 184.709C179.521 182.957 179.318 180.734 180.466 178.982C181.209 177.904 184.383 175.074 185.126 178.915C185.396 180.127 183.911 181.744 183.1 182.283C179.656 184.641 174.996 183.024 172.633 179.925C170.269 176.826 170.674 172.514 171.89 168.944C172.092 168.405 171.282 168.068 170.877 168.472Z" fill="url(#paint0_linear)"/>
<path d="M246.514 186.597C250.295 184.307 253.469 179.927 252.321 175.414C251.376 171.708 246.986 169.081 243.88 172.247C240.098 176.087 245.501 179.388 248.945 179.927C253.334 180.669 258.804 179.119 259.075 173.931C259.142 172.921 257.656 172.584 257.184 173.392C255.63 175.953 252.794 176.491 250.025 176.02C249.485 175.953 247.189 175.683 246.919 175.144C246.784 174.403 247.189 174.336 248.067 174.875C248.404 175.211 248.607 175.548 248.675 176.02C249.552 178.513 247.999 180.669 246.514 182.42C245.568 183.498 244.825 184.643 245.23 186.126C245.365 186.597 246.041 186.867 246.514 186.597Z" fill="url(#paint1_linear)"/>
<path d="M201.47 193.063C203.596 193.063 205.32 191.344 205.32 189.223C205.32 187.102 203.596 185.383 201.47 185.383C199.345 185.383 197.621 187.102 197.621 189.223C197.621 191.344 199.345 193.063 201.47 193.063Z" fill="#70E5A5"/>
<path d="M213.289 189.964C213.289 191.109 212.343 192.053 211.195 192.053C210.047 192.053 209.102 191.109 209.102 189.964C209.102 188.819 210.047 187.876 211.195 187.876C212.343 187.943 213.289 188.819 213.289 189.964Z" fill="#54C685"/>
<path d="M224.953 189.672C225.662 186.666 223.793 183.656 220.78 182.949C217.767 182.242 214.749 184.106 214.041 187.112C213.332 190.118 215.201 193.128 218.214 193.835C221.227 194.542 224.244 192.678 224.953 189.672Z" fill="#ECC933"/>
<path d="M229.025 191.649C230.629 191.649 231.929 190.352 231.929 188.752C231.929 187.152 230.629 185.855 229.025 185.855C227.421 185.855 226.121 187.152 226.121 188.752C226.121 190.352 227.421 191.649 229.025 191.649Z" fill="#54C685"/>
<path d="M241.041 190.165C242.644 190.165 243.945 188.868 243.945 187.268C243.945 185.668 242.644 184.371 241.041 184.371C239.437 184.371 238.137 185.668 238.137 187.268C238.137 188.868 239.437 190.165 241.041 190.165Z" fill="#70E5A5"/>
<path d="M232.738 194.947C236.095 194.947 238.816 192.233 238.816 188.884C238.816 185.535 236.095 182.82 232.738 182.82C229.381 182.82 226.66 185.535 226.66 188.884C226.66 192.233 229.381 194.947 232.738 194.947Z" fill="#ECC933"/>
<path d="M179.52 191.447L202.075 277.616L264.61 286.913L291.016 272.495L313.977 205.865L276.969 184.238L179.52 191.447Z" fill="#FBF348"/>
<path d="M184.652 194.411L206.6 278.289L264.611 286.913L291.016 272.495L313.977 205.864L282.034 187.202L184.652 194.411Z" fill="#FFC41F"/>
<path opacity="0.34" d="M244.822 283.613C245.362 265.221 247.253 205.933 247.861 186.598L212.406 189.225C214.297 204.788 221.456 260.033 224.089 280.514L244.822 283.613Z" fill="#A31C1C"/>
<path d="M242.255 283.613C242.796 265.221 244.687 205.933 245.294 186.598L209.84 189.225C211.731 204.788 218.889 260.033 221.523 280.514L242.255 283.613Z" fill="#FF7466"/>
<path d="M242.257 283.61C242.797 266.228 244.486 212.196 245.229 190.03L213.488 192.388C215.244 207.278 221.93 258.75 224.766 280.982L242.257 283.61Z" fill="#E84542"/>
<path opacity="0.34" d="M274.941 279.907L281.222 276.471L303.373 201.149L288.921 192.66L274.941 279.907Z" fill="#A31C1C"/>
<path d="M277.441 279.907L283.789 276.471L305.94 201.149L291.488 192.66L277.441 279.907Z" fill="#E84542"/>
<path opacity="0.34" d="M293.581 235.979C283.586 254.506 273.321 269.732 266.163 279.501C265.757 282.263 265.42 284.688 265.082 286.642L290.947 272.494L313.638 206.672C308.168 212.601 301.212 221.898 293.581 235.979Z" fill="#A31C1C"/>
<path opacity="0.34" d="M313.977 205.865L276.969 184.238H276.767C275.146 197.982 266.907 268.184 264.746 286.846L290.949 272.495L313.977 205.865Z" fill="#A31C1C"/>
<path d="M182.22 186.798C180.802 187.27 178.708 187.068 177.223 186.731C178.033 188.146 179.114 189.426 180.397 190.436C181.815 189.897 183.841 189.021 185.191 188.415C184.111 188.011 183.098 187.539 182.22 186.798Z" fill="#19916F" fill-opacity="0.3"/>
<path opacity="0.5" d="M250.027 183.633C250.972 182.555 251.647 181.342 252.12 179.995C249.689 180.197 247.595 178.984 247.595 178.984C247.595 178.984 247.46 179.119 247.258 179.389C247.595 179.523 248.001 179.658 248.338 179.725C248.136 180.13 247.933 180.467 247.663 180.871C248.473 181.545 249.351 182.69 250.027 183.633Z" fill="#19916F"/>
<path d="M253.808 179.659C253.606 179.726 253.403 179.794 253.133 179.861C253.538 179.794 253.943 179.659 254.348 179.524C254.213 179.524 254.078 179.524 253.808 179.659Z" fill="#6A77FF"/>
</g>
<defs>
<linearGradient id="paint0_linear" x1="176.944" y1="193.187" x2="179.844" y2="168.354" gradientUnits="userSpaceOnUse">
<stop stop-color="#93DFB0"/>
<stop offset="0.9196" stop-color="#75BE4B"/>
</linearGradient>
<linearGradient id="paint1_linear" x1="249.222" y1="186.648" x2="250.837" y2="170.82" gradientUnits="userSpaceOnUse">
<stop stop-color="#93DFB0"/>
<stop offset="0.9196" stop-color="#75BE4B"/>
</linearGradient>
<clipPath id="clip0">
<rect width="496" height="265" fill="white"/>
</clipPath>
</defs>
</svg>
