<svg width="20" height="20" viewBox="0 0 20 20" fill="none" xmlns="http://www.w3.org/2000/svg">
    <path fill-rule="evenodd" clip-rule="evenodd" d="M2.83808 2.83789C1.6665 4.00947 1.6665 5.89508 1.6665 9.66632V10.333C1.6665 14.1042 1.6665 15.9898 2.83808 17.1614C4.00965 18.333 5.89527 18.333 9.66651 18.333H10.3332C14.1044 18.333 15.99 18.333 17.1616 17.1614C18.3332 15.9898 18.3332 14.1042 18.3332 10.333V9.66632C18.3332 6.9944 18.3332 5.269 17.9165 4.07347V14.1663C17.1161 14.1663 16.3486 13.8484 15.7826 13.2824L15.1562 12.656L15.1562 12.656C14.7762 12.276 14.5861 12.0859 14.3927 11.9651C13.7444 11.5602 12.9219 11.5602 12.2736 11.9651C12.0802 12.0859 11.8902 12.276 11.5101 12.656L11.5101 12.656L11.4158 12.7503C11.0855 13.0807 10.9203 13.2459 10.7615 13.3203C10.3691 13.5042 9.90287 13.4144 9.60682 13.0979C9.48707 12.9699 9.39505 12.7551 9.21101 12.3257L9.1665 12.2219C8.71874 11.1771 8.49486 10.6547 8.17994 10.3647C7.62228 9.85127 6.82227 9.6972 6.11381 9.96684C5.71371 10.1191 5.31183 10.521 4.50808 11.3247L2.9165 12.9163V2.76221C2.89001 2.78688 2.86387 2.8121 2.83808 2.83789Z" fill="white"/>
    <path d="M2.5665 9.66602C2.5665 7.75496 2.56842 6.4122 2.70493 5.39685C2.83795 4.4074 3.08378 3.86468 3.47447 3.47398C3.86517 3.08329 4.40788 2.83747 5.39734 2.70444C6.41269 2.56793 7.75544 2.56602 9.6665 2.56602H10.3332C12.2442 2.56602 13.587 2.56793 14.6023 2.70444C15.5918 2.83747 16.1345 3.08329 16.5252 3.47398L17.1616 2.83759L16.5252 3.47398C16.9159 3.86468 17.1617 4.4074 17.2948 5.39685C17.4313 6.4122 17.4332 7.75495 17.4332 9.66602V10.3327C17.4332 12.2437 17.4313 13.5865 17.2948 14.6018C17.1617 15.5913 16.9159 16.134 16.5252 16.5247C16.1345 16.9154 15.5918 17.1612 14.6023 17.2943C13.587 17.4308 12.2442 17.4327 10.3332 17.4327H9.66651C7.75545 17.4327 6.41269 17.4308 5.39734 17.2943C4.40788 17.1612 3.86517 16.9154 3.47447 16.5247L2.83808 17.1611L3.47447 16.5247C3.08378 16.134 2.83795 15.5913 2.70492 14.6018C2.56842 13.5865 2.5665 12.2437 2.5665 10.3327V9.66602Z" stroke="white" stroke-width="1.8"/>
    <ellipse cx="12.5002" cy="7.49967" rx="1.66667" ry="1.66667" fill="white"/>
</svg>
