<svg width="177" height="40" viewBox="0 0 177 40" fill="none" xmlns="http://www.w3.org/2000/svg">
    <g clip-path="url(#clip0)">
        <g clip-path="url(#clip1)">
            <path fill-rule="evenodd" clip-rule="evenodd" d="M14.8584 13.6409L22.7249 0L24.7781 16.7628C24.9319 18.0085 25.2087 20.5306 23.863 22.5682C22.1636 24.9673 20.7564 25.4671 19.3338 25.9669C18.6341 26.213 17.9266 26.4667 17.1884 26.9435C14.6201 28.4583 0.00976562 39.3695 0.00976562 39.3695L15.0353 19.9385C15.2583 19.654 15.3506 19.3003 15.3044 18.9466L14.697 14.479C14.6508 14.1869 14.7123 13.8947 14.8584 13.6409Z" fill="url(#paint0_radial)"/>
            <path fill-rule="evenodd" clip-rule="evenodd" d="M14.8584 13.6409L22.7249 0L24.7781 16.7628C24.9319 18.0085 25.2087 20.5306 23.863 22.5682C22.1636 24.9673 20.7564 25.4671 19.3338 25.9669C18.6341 26.213 17.9266 26.4667 17.1884 26.9435C14.6201 28.4583 0.00976562 39.3695 0.00976562 39.3695L15.0353 19.9385C15.2583 19.654 15.3506 19.3003 15.3044 18.9466L14.697 14.479C14.6508 14.1869 14.7123 13.8947 14.8584 13.6409Z" fill="url(#paint1_linear)"/>
            <path fill-rule="evenodd" clip-rule="evenodd" d="M14.8584 13.6409L22.7249 0L24.7781 16.7628C24.9319 18.0085 25.2087 20.5306 23.863 22.5682C22.1636 24.9673 20.7564 25.4671 19.3338 25.9669C18.6341 26.213 17.9266 26.4667 17.1884 26.9435C14.6201 28.4583 0.00976562 39.3695 0.00976562 39.3695L15.0353 19.9385C15.2583 19.654 15.3506 19.3003 15.3044 18.9466L14.697 14.479C14.6508 14.1869 14.7123 13.8947 14.8584 13.6409Z" fill="url(#paint2_radial)"/>
            <path fill-rule="evenodd" clip-rule="evenodd" d="M14.8584 13.6409L22.7249 0L24.7781 16.7628C24.9319 18.0085 25.2087 20.5306 23.863 22.5682C22.1636 24.9673 20.7564 25.4671 19.3338 25.9669C18.6341 26.213 17.9266 26.4667 17.1884 26.9435C14.6201 28.4583 0.00976562 39.3695 0.00976562 39.3695L15.0353 19.9385C15.2583 19.654 15.3506 19.3003 15.3044 18.9466L14.697 14.479C14.6508 14.1869 14.7123 13.8947 14.8584 13.6409Z" fill="url(#paint3_radial)"/>
            <path fill-rule="evenodd" clip-rule="evenodd" d="M14.8682 13.6409L22.7347 0L24.7878 16.7628C24.9416 18.0085 25.2184 20.5306 23.8727 22.5682C22.1733 24.9673 20.7661 25.4671 19.3436 25.9669C18.6438 26.213 17.9364 26.4667 17.1982 26.9435C14.6298 28.4583 0.0195312 39.3695 0.0195312 39.3695L15.0451 19.9385C15.2681 19.654 15.3603 19.3003 15.3142 18.9466L14.7067 14.479C14.6606 14.1869 14.7221 13.8947 14.8682 13.6409Z" fill="url(#paint4_radial)"/>
            <path fill-rule="evenodd" clip-rule="evenodd" d="M14.8682 13.6409L22.7347 0L24.7878 16.7628C24.9416 18.0085 25.2184 20.5306 23.8727 22.5682C22.1733 24.9673 20.7661 25.4671 19.3436 25.9669C18.6438 26.213 17.9364 26.4667 17.1982 26.9435C14.6298 28.4583 0.0195312 39.3695 0.0195312 39.3695L15.0451 19.9385C15.2681 19.654 15.3603 19.3003 15.3142 18.9466L14.7067 14.479C14.6606 14.1869 14.7221 13.8947 14.8682 13.6409Z" fill="url(#paint5_radial)"/>
            <path fill-rule="evenodd" clip-rule="evenodd" d="M38.1402 25.4109L46.0203 39.044L30.4768 32.4406C29.3211 31.951 26.9985 30.9297 25.9066 28.7454C24.6787 26.0742 24.9494 24.6056 25.2279 23.1237C25.3647 22.3947 25.4986 21.6551 25.4549 20.7775C25.4272 17.7958 23.283 -0.312657 23.283 -0.312657L32.5979 22.4153C32.7328 22.7507 32.993 23.0075 33.3224 23.1444L37.4951 24.852C37.7712 24.9582 37.9935 25.1575 38.1402 25.4109Z" fill="url(#paint6_radial)"/>
            <path fill-rule="evenodd" clip-rule="evenodd" d="M38.1402 25.4109L46.0203 39.044L30.4768 32.4406C29.3211 31.951 26.9985 30.9297 25.9066 28.7454C24.6787 26.0742 24.9494 24.6056 25.2279 23.1237C25.3647 22.3947 25.4986 21.6551 25.4549 20.7775C25.4272 17.7958 23.283 -0.312657 23.283 -0.312657L32.5979 22.4153C32.7328 22.7507 32.993 23.0075 33.3224 23.1444L37.4951 24.852C37.7712 24.9582 37.9935 25.1575 38.1402 25.4109Z" fill="url(#paint7_linear)"/>
            <path fill-rule="evenodd" clip-rule="evenodd" d="M38.1402 25.4109L46.0203 39.044L30.4768 32.4406C29.3211 31.951 26.9985 30.9297 25.9066 28.7454C24.6787 26.0742 24.9494 24.6056 25.2279 23.1237C25.3647 22.3947 25.4986 21.6551 25.4549 20.7775C25.4272 17.7958 23.283 -0.312657 23.283 -0.312657L32.5979 22.4153C32.7328 22.7507 32.993 23.0075 33.3224 23.1444L37.4951 24.852C37.7712 24.9582 37.9935 25.1575 38.1402 25.4109Z" fill="url(#paint8_radial)"/>
            <path fill-rule="evenodd" clip-rule="evenodd" d="M38.1402 25.4109L46.0203 39.044L30.4768 32.4406C29.3211 31.951 26.9985 30.9297 25.9066 28.7454C24.6787 26.0742 24.9494 24.6056 25.2279 23.1237C25.3647 22.3947 25.4986 21.6551 25.4549 20.7775C25.4272 17.7958 23.283 -0.312657 23.283 -0.312657L32.5979 22.4153C32.7328 22.7507 32.993 23.0075 33.3224 23.1444L37.4951 24.852C37.7712 24.9582 37.9935 25.1575 38.1402 25.4109Z" fill="url(#paint9_radial)"/>
            <path fill-rule="evenodd" clip-rule="evenodd" d="M38.1353 25.4197L46.0155 39.0528L30.4719 32.4494C29.3162 31.9598 26.9936 30.9385 25.9018 28.7542C24.6738 26.083 24.9446 24.6144 25.223 23.1325C25.3598 22.4035 25.4938 21.6639 25.45 20.7862C25.4223 17.8046 23.2781 -0.303882 23.2781 -0.303882L32.593 22.4241C32.7279 22.7595 32.9881 23.0163 33.3175 23.1532L37.4902 24.8608C37.7663 24.967 37.9886 25.1663 38.1353 25.4197Z" fill="url(#paint10_radial)"/>
            <path fill-rule="evenodd" clip-rule="evenodd" d="M14.8584 13.6409L22.7249 0L24.7781 16.7628C24.9319 18.0085 25.2087 20.5306 23.863 22.5682C22.1636 24.9673 20.7564 25.4671 19.3338 25.9669C18.6341 26.213 17.9266 26.4667 17.1884 26.9435C14.6201 28.4583 0.00976563 39.3695 0.00976563 39.3695L15.0353 19.9385C15.2583 19.654 15.3506 19.3003 15.3044 18.9466L14.697 14.479C14.6508 14.1869 14.7123 13.8947 14.8584 13.6409Z" fill="url(#paint11_radial)"/>
            <path fill-rule="evenodd" clip-rule="evenodd" d="M14.8584 13.6409L22.7249 0L24.7781 16.7628C24.9319 18.0085 25.2087 20.5306 23.863 22.5682C22.1636 24.9673 20.7564 25.4671 19.3338 25.9669C18.6341 26.213 17.9266 26.4667 17.1884 26.9435C14.6201 28.4583 0.00976563 39.3695 0.00976563 39.3695L15.0353 19.9385C15.2583 19.654 15.3506 19.3003 15.3044 18.9466L14.697 14.479C14.6508 14.1869 14.7123 13.8947 14.8584 13.6409Z" fill="url(#paint12_linear)"/>
            <path fill-rule="evenodd" clip-rule="evenodd" d="M14.8584 13.6409L22.7249 0L24.7781 16.7628C24.9319 18.0085 25.2087 20.5306 23.863 22.5682C22.1636 24.9673 20.7564 25.4671 19.3338 25.9669C18.6341 26.213 17.9266 26.4667 17.1884 26.9435C14.6201 28.4583 0.00976563 39.3695 0.00976563 39.3695L15.0353 19.9385C15.2583 19.654 15.3506 19.3003 15.3044 18.9466L14.697 14.479C14.6508 14.1869 14.7123 13.8947 14.8584 13.6409Z" fill="url(#paint13_radial)"/>
            <path fill-rule="evenodd" clip-rule="evenodd" d="M14.8584 13.6409L22.7249 0L24.7781 16.7628C24.9319 18.0085 25.2087 20.5306 23.863 22.5682C22.1636 24.9673 20.7564 25.4671 19.3338 25.9669C18.6341 26.213 17.9266 26.4667 17.1884 26.9435C14.6201 28.4583 0.00976563 39.3695 0.00976563 39.3695L15.0353 19.9385C15.2583 19.654 15.3506 19.3003 15.3044 18.9466L14.697 14.479C14.6508 14.1869 14.7123 13.8947 14.8584 13.6409Z" fill="url(#paint14_radial)"/>
            <path fill-rule="evenodd" clip-rule="evenodd" d="M14.8682 13.6409L22.7347 0L24.7878 16.7628C24.9416 18.0085 25.2184 20.5306 23.8728 22.5682C22.1734 24.9673 20.7661 25.4671 19.3436 25.9669C18.6438 26.213 17.9364 26.4667 17.1982 26.9435C14.6298 28.4583 0.0195313 39.3695 0.0195313 39.3695L15.0451 19.9385C15.2681 19.654 15.3603 19.3003 15.3142 18.9466L14.7067 14.479C14.6606 14.1869 14.7221 13.8947 14.8682 13.6409Z" fill="url(#paint15_radial)"/>
            <path fill-rule="evenodd" clip-rule="evenodd" d="M14.8584 13.6409L22.7249 0L24.7781 16.7628C24.9319 18.0085 25.2087 20.5306 23.863 22.5682C22.1636 24.9673 20.7564 25.4671 19.3338 25.9669C18.6341 26.213 17.9266 26.4667 17.1884 26.9435C14.6201 28.4583 0.00976563 39.3695 0.00976563 39.3695L15.0353 19.9385C15.2583 19.654 15.3506 19.3003 15.3044 18.9466L14.697 14.479C14.6508 14.1869 14.7123 13.8947 14.8584 13.6409Z" fill="url(#paint16_radial)"/>
            <path fill-rule="evenodd" clip-rule="evenodd" d="M38.1305 25.4109L46.0106 39.044L30.467 32.4406C29.3113 31.951 26.9887 30.9297 25.8969 28.7454C24.6689 26.0742 24.9397 24.6056 25.2181 23.1237C25.3549 22.3947 25.4889 21.6551 25.4451 20.7775C25.4174 17.7958 23.2732 -0.312656 23.2732 -0.312656L32.5882 22.4153C32.7231 22.7507 32.9832 23.0075 33.3126 23.1444L37.4853 24.852C37.7615 24.9582 37.9838 25.1575 38.1305 25.4109Z" fill="url(#paint17_radial)"/>
            <path fill-rule="evenodd" clip-rule="evenodd" d="M38.1305 25.4109L46.0106 39.044L30.467 32.4406C29.3113 31.951 26.9887 30.9297 25.8969 28.7454C24.6689 26.0742 24.9397 24.6056 25.2181 23.1237C25.3549 22.3947 25.4889 21.6551 25.4451 20.7775C25.4174 17.7958 23.2732 -0.312656 23.2732 -0.312656L32.5882 22.4153C32.7231 22.7507 32.9832 23.0075 33.3126 23.1444L37.4853 24.852C37.7615 24.9582 37.9838 25.1575 38.1305 25.4109Z" fill="url(#paint18_linear)"/>
            <path fill-rule="evenodd" clip-rule="evenodd" d="M38.1305 25.4109L46.0106 39.044L30.467 32.4406C29.3113 31.951 26.9887 30.9297 25.8969 28.7454C24.6689 26.0742 24.9397 24.6056 25.2181 23.1237C25.3549 22.3947 25.4889 21.6551 25.4451 20.7775C25.4174 17.7958 23.2732 -0.312656 23.2732 -0.312656L32.5882 22.4153C32.7231 22.7507 32.9832 23.0075 33.3126 23.1444L37.4853 24.852C37.7615 24.9582 37.9838 25.1575 38.1305 25.4109Z" fill="url(#paint19_radial)"/>
            <path fill-rule="evenodd" clip-rule="evenodd" d="M38.1305 25.4109L46.0106 39.044L30.467 32.4406C29.3113 31.951 26.9887 30.9297 25.8969 28.7454C24.6689 26.0742 24.9397 24.6056 25.2181 23.1237C25.3549 22.3947 25.4889 21.6551 25.4451 20.7775C25.4174 17.7958 23.2732 -0.312656 23.2732 -0.312656L32.5882 22.4153C32.7231 22.7507 32.9832 23.0075 33.3126 23.1444L37.4853 24.852C37.7615 24.9582 37.9838 25.1575 38.1305 25.4109Z" fill="url(#paint20_radial)"/>
            <path fill-rule="evenodd" clip-rule="evenodd" d="M38.1256 25.4197L46.0057 39.0528L30.4621 32.4494C29.3065 31.9598 26.9838 30.9385 25.892 28.7542C24.664 26.083 24.9348 24.6144 25.2132 23.1325C25.35 22.4035 25.484 21.6639 25.4402 20.7862C25.4125 17.8046 23.2683 -0.303881 23.2683 -0.303881L32.5833 22.4241C32.7182 22.7595 32.9784 23.0163 33.3077 23.1532L37.4805 24.8608C37.7566 24.967 37.9789 25.1663 38.1256 25.4197Z" fill="url(#paint21_radial)"/>
            <path fill-rule="evenodd" clip-rule="evenodd" d="M38.1305 25.4109L46.0106 39.044L30.467 32.4406C29.3113 31.951 26.9887 30.9297 25.8969 28.7454C24.6689 26.0742 24.9397 24.6056 25.2181 23.1237C25.3549 22.3947 25.4889 21.6551 25.4451 20.7775C25.4174 17.7958 23.2732 -0.312656 23.2732 -0.312656L32.5882 22.4153C32.7231 22.7507 32.9832 23.0075 33.3126 23.1444L37.4853 24.852C37.7615 24.9582 37.9838 25.1575 38.1305 25.4109Z" fill="url(#paint22_radial)"/>
            <path fill-rule="evenodd" clip-rule="evenodd" d="M16.2631 39.9374L0.516442 39.9453L14.0069 29.7858C15.0088 29.0298 17.0546 27.529 19.4921 27.6756C22.4194 27.9478 23.5559 28.9165 24.7 29.8986C25.263 30.3816 25.8365 30.8674 26.6185 31.2683C29.2145 32.7352 45.969 39.9325 45.969 39.9325L21.6285 36.6355C21.2706 36.5846 20.9181 36.6815 20.6349 36.8983L17.0697 39.6582C16.8397 39.8442 16.5559 39.9371 16.2631 39.9374Z" fill="url(#paint23_radial)"/>
            <path fill-rule="evenodd" clip-rule="evenodd" d="M16.2631 39.9374L0.516442 39.9453L14.0069 29.7858C15.0088 29.0298 17.0546 27.529 19.4921 27.6756C22.4194 27.9478 23.5559 28.9165 24.7 29.8986C25.263 30.3816 25.8365 30.8674 26.6185 31.2683C29.2145 32.7352 45.969 39.9325 45.969 39.9325L21.6285 36.6355C21.2706 36.5846 20.9181 36.6815 20.6349 36.8983L17.0697 39.6582C16.8397 39.8442 16.5559 39.9371 16.2631 39.9374Z" fill="url(#paint24_linear)"/>
            <path fill-rule="evenodd" clip-rule="evenodd" d="M16.2631 39.9374L0.516442 39.9453L14.0069 29.7858C15.0088 29.0298 17.0546 27.529 19.4921 27.6756C22.4194 27.9478 23.5559 28.9165 24.7 29.8986C25.263 30.3816 25.8365 30.8674 26.6185 31.2683C29.2145 32.7352 45.969 39.9325 45.969 39.9325L21.6285 36.6355C21.2706 36.5846 20.9181 36.6815 20.6349 36.8983L17.0697 39.6582C16.8397 39.8442 16.5559 39.9371 16.2631 39.9374Z" fill="url(#paint25_radial)"/>
            <path fill-rule="evenodd" clip-rule="evenodd" d="M16.2631 39.9374L0.516442 39.9453L14.0069 29.7858C15.0088 29.0298 17.0546 27.529 19.4921 27.6756C22.4194 27.9478 23.5559 28.9165 24.7 29.8986C25.263 30.3816 25.8365 30.8674 26.6185 31.2683C29.2145 32.7352 45.969 39.9325 45.969 39.9325L21.6285 36.6355C21.2706 36.5846 20.9181 36.6815 20.6349 36.8983L17.0697 39.6582C16.8397 39.8442 16.5559 39.9371 16.2631 39.9374Z" fill="url(#paint26_radial)"/>
            <path fill-rule="evenodd" clip-rule="evenodd" d="M16.2582 39.9286L0.511558 39.9365L14.002 29.777C15.0039 29.021 17.0497 27.5202 19.4872 27.6668C22.4146 27.939 23.551 28.9077 24.6952 29.8898C25.2581 30.3728 25.8316 30.8586 26.6136 31.2595C29.2096 32.7264 45.9641 39.9237 45.9641 39.9237L21.6236 36.6267C21.2657 36.5758 20.9133 36.6727 20.63 36.8895L17.0648 39.6494C16.8348 39.8354 16.551 39.9283 16.2582 39.9286Z" fill="url(#paint27_radial)"/>
            <path fill-rule="evenodd" clip-rule="evenodd" d="M16.2631 39.9374L0.516442 39.9453L14.0069 29.7858C15.0088 29.0298 17.0546 27.529 19.4921 27.6756C22.4194 27.9478 23.5559 28.9165 24.7 29.8986C25.263 30.3816 25.8365 30.8674 26.6185 31.2683C29.2145 32.7352 45.969 39.9325 45.969 39.9325L21.6285 36.6355C21.2706 36.5846 20.9181 36.6815 20.6349 36.8983L17.0697 39.6582C16.8397 39.8442 16.5559 39.9371 16.2631 39.9374Z" fill="url(#paint28_radial)"/>
        </g>
    </g>
    <path d="M72.0009 14H63.397C62.052 14 60.8545 14.4977 59.8043 15.4747C58.7541 16.4516 58.2383 17.6682 58.2383 19.1244V20.8203C58.2383 22.3134 58.7357 23.5484 59.749 24.5253C60.7623 25.5023 61.9415 25.9816 63.2864 25.9816H71.9825V24.5438H63.8391C62.7521 24.5438 61.8309 24.1751 61.0756 23.4562C60.3202 22.7373 59.9517 21.8157 59.9517 20.6912V20.4332H71.8719V18.977H59.9517C59.9885 18.0184 60.3754 17.1889 61.1308 16.5069C61.8862 15.8249 62.7153 15.4747 63.618 15.4747H71.9825L72.0009 14Z" fill="white"/>
    <path d="M83.2386 25.9816L89.4842 16.9124V25.9816H91.1977V14H89.6316L82.8517 23.788L76.1454 14H74.5794V25.9816H76.2744V16.9493L82.4095 25.9816H83.2386Z" fill="white"/>
    <path d="M106.646 25.9816V24.5438H101.009V15.4747H106.646V14.0184H93.8051V15.4747H99.2954V24.5438H93.8051V25.9816H106.646Z" fill="white"/>
    <path d="M122.717 15.4747V14.0184H114.113C112.769 14.0184 111.571 14.5161 110.521 15.5115C109.471 16.5069 108.936 17.7419 108.936 19.235V20.4332H120.949V21.0783C120.949 22.0369 120.617 22.8664 119.935 23.5484C119.254 24.2304 118.369 24.5806 117.282 24.5806H108.936V26H117.725C119.033 26 120.193 25.5023 121.188 24.5253C122.183 23.5484 122.681 22.2949 122.681 20.7834V18.9954H110.705V18.8111C110.705 17.9447 111.037 17.1705 111.7 16.4885C112.363 15.8065 113.137 15.4747 114.04 15.4747H122.717Z" fill="white"/>
    <path d="M139.223 25.9816H141.195L146.243 14H144.272L140.181 24.212L136.055 14.0184H134.636L130.509 24.1198L126.271 14H124.3L129.477 25.9816H131.412L135.299 16.3226L139.223 25.9816Z" fill="white"/>
    <path d="M161.143 25.9816L154.843 14H151.692L145.299 25.9816H147.215L148.523 23.4378H157.938L159.246 25.9816H161.143ZM157.219 22.0369H149.242L152.65 15.4378H153.848L157.219 22.0369Z" fill="white"/>
    <path d="M172.424 21.318C173.732 21.318 174.727 20.9493 175.409 20.212C176.091 19.4747 176.422 18.6267 176.422 17.6682C176.422 16.7097 176.091 15.8618 175.427 15.1244C174.764 14.3871 173.769 14.0184 172.461 14.0184H163.065V25.9816H164.778V21.318H172.424ZM172.295 15.4562C173.106 15.4562 173.714 15.6774 174.119 16.1382C174.525 16.5991 174.727 17.1152 174.727 17.6866C174.727 18.2581 174.525 18.7742 174.119 19.235C173.714 19.6959 173.106 19.9171 172.295 19.9171H164.778V15.4931L172.295 15.4562Z" fill="white"/>
    <defs>
        <radialGradient id="paint0_radial" cx="0" cy="0" r="1" gradientUnits="userSpaceOnUse" gradientTransform="translate(24.5324 21.4324) rotate(143.806) scale(30.3762 34.8066)">
            <stop stop-color="#1C1159"/>
            <stop offset="0.4487" stop-color="#FF78D1"/>
            <stop offset="0.6228" stop-color="#FFC979"/>
            <stop offset="0.7685" stop-color="#FFF58C"/>
            <stop offset="0.8983" stop-color="white"/>
        </radialGradient>
        <linearGradient id="paint1_linear" x1="24.8916" y1="20.1224" x2="11.7683" y2="18.4352" gradientUnits="userSpaceOnUse">
            <stop offset="0.0456257" stop-color="#0F0F13" stop-opacity="0.67"/>
            <stop offset="0.321849" stop-color="#582C7A" stop-opacity="0"/>
        </linearGradient>
        <radialGradient id="paint2_radial" cx="0" cy="0" r="1" gradientUnits="userSpaceOnUse" gradientTransform="translate(-8.1042 7.24907) rotate(2.95394) scale(35.1673 140.683)">
            <stop offset="0.735423" stop-color="#D7468C" stop-opacity="0.24"/>
            <stop offset="0.908835" stop-color="#27043F" stop-opacity="0.32"/>
        </radialGradient>
        <radialGradient id="paint3_radial" cx="0" cy="0" r="1" gradientUnits="userSpaceOnUse" gradientTransform="translate(0.852486 11.4532) rotate(9.27541) scale(29.3599 32.3057)">
            <stop offset="0.11701" stop-color="#27043F" stop-opacity="0"/>
            <stop offset="0.56027" stop-color="#E33272" stop-opacity="0.4"/>
            <stop offset="0.779103" stop-color="#9036EC" stop-opacity="0.17"/>
        </radialGradient>
        <radialGradient id="paint4_radial" cx="0" cy="0" r="1" gradientUnits="userSpaceOnUse" gradientTransform="translate(0.0195308 39.37) rotate(-37.0178) scale(33.917 35.6411)">
            <stop stop-color="white"/>
            <stop offset="0.185217" stop-color="#FFD79A"/>
            <stop offset="0.34495" stop-color="#FFBF51"/>
            <stop offset="0.629193" stop-color="#FF778F" stop-opacity="0.03"/>
        </radialGradient>
        <radialGradient id="paint5_radial" cx="0" cy="0" r="1" gradientUnits="userSpaceOnUse" gradientTransform="translate(22.7041) rotate(82.6988) scale(20.1609 6.48129)">
            <stop stop-color="#FFBF51"/>
            <stop offset="0.520833" stop-color="#E33272" stop-opacity="0.28"/>
            <stop offset="1" stop-color="#46008E" stop-opacity="0"/>
        </radialGradient>
        <radialGradient id="paint6_radial" cx="0" cy="0" r="1" gradientUnits="userSpaceOnUse" gradientTransform="translate(26.5556 29.8931) rotate(-96.194) scale(30.3762 34.8066)">
            <stop stop-color="#1C1159"/>
            <stop offset="0.4487" stop-color="#FF78D1"/>
            <stop offset="0.6228" stop-color="#FFC979"/>
            <stop offset="0.7685" stop-color="#FFF58C"/>
            <stop offset="0.8983" stop-color="white"/>
        </radialGradient>
        <linearGradient id="paint7_linear" x1="27.5105" y1="30.8591" x2="35.5334" y2="20.3377" gradientUnits="userSpaceOnUse">
            <stop offset="0.0456257" stop-color="#0F0F13" stop-opacity="0.67"/>
            <stop offset="0.321849" stop-color="#582C7A" stop-opacity="0"/>
        </linearGradient>
        <radialGradient id="paint8_radial" cx="0" cy="0" r="1" gradientUnits="userSpaceOnUse" gradientTransform="translate(28.7005 33.4224) rotate(-30.5883) scale(21.2138 40.2519)">
            <stop offset="0.1475" stop-color="#27043F" stop-opacity="0.12"/>
            <stop offset="0.456553" stop-color="#DB3B80" stop-opacity="0.08"/>
        </radialGradient>
        <radialGradient id="paint9_radial" cx="0" cy="0" r="1" gradientUnits="userSpaceOnUse" gradientTransform="translate(47.0378 14.3753) rotate(135.945) scale(27.2882 28.6753)">
            <stop offset="0.11701" stop-color="#27043F" stop-opacity="0"/>
            <stop offset="0.535374" stop-color="#E33272" stop-opacity="0.4"/>
            <stop offset="0.700045" stop-color="#9036EC" stop-opacity="0.17"/>
        </radialGradient>
        <radialGradient id="paint10_radial" cx="0" cy="0" r="1" gradientUnits="userSpaceOnUse" gradientTransform="translate(23.2776 -0.30414) rotate(82.9822) scale(33.917 35.6411)">
            <stop offset="0.0916302" stop-color="white"/>
            <stop offset="0.225286" stop-color="#FFD79A"/>
            <stop offset="0.486767" stop-color="#FF77F3" stop-opacity="0"/>
        </radialGradient>
        <radialGradient id="paint11_radial" cx="0" cy="0" r="1" gradientUnits="userSpaceOnUse" gradientTransform="translate(24.5324 21.4324) rotate(143.806) scale(30.3762 34.8066)">
            <stop stop-color="#1C1159"/>
            <stop offset="0.0281713" stop-color="#5D09E1"/>
        </radialGradient>
        <linearGradient id="paint12_linear" x1="24.8916" y1="20.1224" x2="11.7683" y2="18.4352" gradientUnits="userSpaceOnUse">
            <stop offset="0.0456257" stop-color="#0F0F13" stop-opacity="0.67"/>
            <stop offset="0.321849" stop-color="#582C7A" stop-opacity="0"/>
        </linearGradient>
        <radialGradient id="paint13_radial" cx="0" cy="0" r="1" gradientUnits="userSpaceOnUse" gradientTransform="translate(26.5164 17.8102) rotate(-150.588) scale(21.2138 40.2519)">
            <stop offset="0.1475" stop-color="#27043F" stop-opacity="0.12"/>
            <stop offset="0.456553" stop-color="#DB3B80" stop-opacity="0.08"/>
        </radialGradient>
        <radialGradient id="paint14_radial" cx="0" cy="0" r="1" gradientUnits="userSpaceOnUse" gradientTransform="translate(0.852487 11.4532) rotate(15.9454) scale(27.2882 28.6753)">
            <stop offset="0.11701" stop-color="#27043F" stop-opacity="0"/>
            <stop offset="0.524525" stop-color="#E33272" stop-opacity="0.65"/>
            <stop offset="0.700045" stop-color="#5C0FAB" stop-opacity="0.4"/>
        </radialGradient>
        <radialGradient id="paint15_radial" cx="0" cy="0" r="1" gradientUnits="userSpaceOnUse" gradientTransform="translate(0.0195308 39.37) rotate(-37.0178) scale(33.917 35.6411)">
            <stop offset="0.0916302" stop-color="#37FFDB"/>
            <stop offset="0.225286" stop-color="#9AF9FF"/>
            <stop offset="0.641005" stop-color="#C377FF" stop-opacity="0"/>
        </radialGradient>
        <radialGradient id="paint16_radial" cx="0" cy="0" r="1" gradientUnits="userSpaceOnUse" gradientTransform="translate(22.6944) rotate(82.6988) scale(20.1609 6.4813)">
            <stop stop-color="#51F5FF"/>
            <stop offset="0.677663" stop-color="#8032E3" stop-opacity="0.28"/>
            <stop offset="1" stop-color="#46008E" stop-opacity="0"/>
        </radialGradient>
        <radialGradient id="paint17_radial" cx="0" cy="0" r="1" gradientUnits="userSpaceOnUse" gradientTransform="translate(26.5458 29.8931) rotate(-96.194) scale(30.3762 34.8066)">
            <stop stop-color="#1C1159"/>
            <stop offset="0.0281713" stop-color="#5D09E1"/>
        </radialGradient>
        <linearGradient id="paint18_linear" x1="27.5007" y1="30.8591" x2="35.5236" y2="20.3377" gradientUnits="userSpaceOnUse">
            <stop offset="0.0456257" stop-color="#0F0F13" stop-opacity="0.67"/>
            <stop offset="0.321849" stop-color="#582C7A" stop-opacity="0"/>
        </linearGradient>
        <radialGradient id="paint19_radial" cx="0" cy="0" r="1" gradientUnits="userSpaceOnUse" gradientTransform="translate(28.6907 33.4224) rotate(-30.5883) scale(21.2138 40.2519)">
            <stop offset="0.1475" stop-color="#27043F" stop-opacity="0.12"/>
            <stop offset="0.456553" stop-color="#DB3B80" stop-opacity="0.08"/>
        </radialGradient>
        <radialGradient id="paint20_radial" cx="0" cy="0" r="1" gradientUnits="userSpaceOnUse" gradientTransform="translate(47.028 14.3753) rotate(135.945) scale(27.2882 28.6753)">
            <stop offset="0.11701" stop-color="#27043F" stop-opacity="0"/>
            <stop offset="0.524525" stop-color="#E33272" stop-opacity="0.65"/>
            <stop offset="0.700045" stop-color="#5C0FAB" stop-opacity="0.4"/>
        </radialGradient>
        <radialGradient id="paint21_radial" cx="0" cy="0" r="1" gradientUnits="userSpaceOnUse" gradientTransform="translate(23.2679 -0.30414) rotate(82.9822) scale(33.917 35.6411)">
            <stop offset="0.0916302" stop-color="#37FFDB"/>
            <stop offset="0.225286" stop-color="#9AF9FF"/>
            <stop offset="0.641005" stop-color="#C377FF" stop-opacity="0"/>
        </radialGradient>
        <radialGradient id="paint22_radial" cx="0" cy="0" r="1" gradientUnits="userSpaceOnUse" gradientTransform="translate(46.0259 39.0175) rotate(-157.301) scale(20.1609 6.48129)">
            <stop stop-color="#51F5FF"/>
            <stop offset="0.677663" stop-color="#8032E3" stop-opacity="0.28"/>
            <stop offset="1" stop-color="#46008E" stop-opacity="0"/>
        </radialGradient>
        <radialGradient id="paint23_radial" cx="0" cy="0" r="1" gradientUnits="userSpaceOnUse" gradientTransform="translate(18.1737 27.6638) rotate(23.806) scale(30.3762 34.8066)">
            <stop stop-color="#1C1159"/>
            <stop offset="0.0281713" stop-color="#5D09E1"/>
        </radialGradient>
        <linearGradient id="paint24_linear" x1="16.8597" y1="28.0077" x2="21.9601" y2="40.2164" gradientUnits="userSpaceOnUse">
            <stop offset="0.0456257" stop-color="#0F0F13" stop-opacity="0.67"/>
            <stop offset="0.321849" stop-color="#582C7A" stop-opacity="0"/>
        </linearGradient>
        <radialGradient id="paint25_radial" cx="0" cy="0" r="1" gradientUnits="userSpaceOnUse" gradientTransform="translate(14.0448 27.7567) rotate(89.4117) scale(21.2138 40.2519)">
            <stop offset="0.1475" stop-color="#27043F" stop-opacity="0.12"/>
            <stop offset="0.456553" stop-color="#DB3B80" stop-opacity="0.08"/>
        </radialGradient>
        <radialGradient id="paint26_radial" cx="0" cy="0" r="1" gradientUnits="userSpaceOnUse" gradientTransform="translate(21.3714 53.1608) rotate(-104.055) scale(27.2882 28.6753)">
            <stop offset="0.11701" stop-color="#27043F" stop-opacity="0"/>
            <stop offset="0.524525" stop-color="#E33272" stop-opacity="0.65"/>
            <stop offset="0.700045" stop-color="#5C0FAB" stop-opacity="0.4"/>
        </radialGradient>
        <radialGradient id="paint27_radial" cx="0" cy="0" r="1" gradientUnits="userSpaceOnUse" gradientTransform="translate(45.9646 39.9234) rotate(-157.018) scale(33.917 35.6411)">
            <stop offset="0.0916302" stop-color="#37FFDB"/>
            <stop offset="0.225286" stop-color="#9AF9FF"/>
            <stop offset="0.641005" stop-color="#C377FF" stop-opacity="0"/>
        </radialGradient>
        <radialGradient id="paint28_radial" cx="0" cy="0" r="1" gradientUnits="userSpaceOnUse" gradientTransform="translate(0.531716 39.9717) rotate(-37.3012) scale(20.1609 6.4813)">
            <stop stop-color="#51F5FF"/>
            <stop offset="0.677663" stop-color="#8032E3" stop-opacity="0.28"/>
            <stop offset="1" stop-color="#46008E" stop-opacity="0"/>
        </radialGradient>
        <clipPath id="clip0">
            <rect width="46.1224" height="40" fill="white"/>
        </clipPath>
        <clipPath id="clip1">
            <rect width="46.1224" height="40" fill="white"/>
        </clipPath>
    </defs>
</svg>
