<svg width="160" height="48" viewBox="0 0 160 48" fill="none" xmlns="http://www.w3.org/2000/svg">
<path d="M10.4135 7.16545C10.2066 7.16545 9.99975 7.02632 9.93078 6.88719C9.79285 6.60893 9.86182 6.2611 10.1377 6.05241L12.4135 4.73067C12.6894 4.59154 13.0342 4.6611 13.2411 4.93936C13.3791 5.21762 13.3101 5.56545 13.0342 5.77415L10.7584 7.09589C10.6204 7.16545 10.4825 7.16545 10.4135 7.16545Z" fill="#C39465"/>
<path d="M0.62069 23.6525C0.275862 23.6525 0 23.3743 0 23.0265V16.0699C0 13.496 1.31034 11.1308 3.51724 9.87862L5.65517 8.62645C5.93103 8.48732 6.27586 8.55688 6.48276 8.83515C6.62069 9.11341 6.55172 9.46123 6.27586 9.66993L4.13793 10.9221C2.34483 11.9656 1.17241 13.983 1.24138 16.0699V23.0265C1.17241 23.3743 0.965517 23.6525 0.62069 23.6525Z" fill="#C39465"/>
<path d="M21.3793 47.9308C20.1379 47.9308 18.8966 47.5829 17.8621 46.9569L3.58621 38.8177C1.37931 37.5656 0.0689655 35.2003 0 32.6264V28.6612C0 28.3134 0.275862 28.0351 0.551724 28.0351C0.896552 28.0351 1.10345 28.3134 1.10345 28.5916V32.5569C1.10345 34.6438 2.27586 36.6612 4.06897 37.7047L18.2759 45.9134C19.1724 46.4003 20.2069 46.6786 21.1724 46.6786C22.2069 46.6786 23.2414 46.4003 24.1379 45.8438L29.7931 42.5047C30.069 42.3656 30.4138 42.4351 30.6207 42.7134C30.7586 42.9916 30.6897 43.3395 30.4138 43.5482L24.7586 46.8873C23.7931 47.583 22.5517 47.9308 21.3793 47.9308Z" fill="#C39465"/>
<path d="M39.4484 24.8349C39.1036 24.8349 38.8967 24.5566 38.8967 24.2784V16.0001C38.8967 14.748 38.207 13.6349 37.1725 13.0088L34.138 11.2697C33.8622 11.1306 33.7932 10.7132 33.9311 10.4349C34.0691 10.1566 34.4829 10.0871 34.7587 10.2262L37.7932 11.9653C39.2415 12.8001 40.138 14.3306 40.138 16.0001V24.2784C40.0001 24.6262 39.7932 24.8349 39.4484 24.8349Z" fill="#C39465"/>
<path d="M34.5518 41.1826C34.3449 41.1826 34.207 41.113 34.0691 40.9044L32.6208 38.887C32.5518 38.7478 32.4829 38.6087 32.5518 38.4C32.6208 38.2609 32.6898 38.1217 32.8277 37.9826L37.1725 35.4087C38.207 34.7826 38.8967 33.6696 38.8967 32.4174V30.5391C38.8967 30.1913 39.1725 29.913 39.4484 29.913C39.7932 29.913 40.0001 30.1913 40.0001 30.4696V32.3478C40.0001 34.0174 39.1035 35.5478 37.7242 36.3826L33.9311 38.6087L34.6898 39.6522L38.4139 37.4957C40.207 36.4522 41.3794 34.4348 41.3104 32.3478V16C41.3104 13.913 40.138 11.8957 38.3449 10.8522C38.0691 10.713 38.0001 10.2957 38.138 10.0174C38.276 9.73914 38.6898 9.66957 38.9656 9.8087C41.1725 11.0609 42.4829 13.4261 42.5518 16L42.6208 32.487C42.6208 34.9913 41.3104 37.4261 39.1035 38.6783L34.8966 41.113C34.7587 41.1826 34.6208 41.1826 34.5518 41.1826Z" fill="#C39465"/>
<path d="M21.3106 45.4263C20.483 45.4263 19.7244 45.2176 19.0347 44.8002L15.2416 42.6437C14.9658 42.5046 14.8968 42.0872 15.0347 41.8089C15.1727 41.5307 15.5864 41.4611 15.8623 41.6002L19.6554 43.7568C20.2071 44.035 20.7589 44.2437 21.3796 44.2437C22.0002 44.2437 22.552 44.1046 23.1037 43.7568L30.9658 39.1655C31.2416 39.0263 31.5864 39.0959 31.7933 39.3741C31.9313 39.6524 31.8623 40.0002 31.5864 40.2089L23.7244 44.8002C22.9658 45.2176 22.1382 45.4263 21.3106 45.4263Z" fill="#C39465"/>
<path d="M10.207 39.6522C10.1381 39.6522 10.0002 39.6522 9.93119 39.5826L4.82774 36.6609C3.37946 35.8261 2.48291 34.2956 2.48291 32.6261V21.1478C2.48291 20.8 2.75877 20.5217 3.03463 20.5217C3.37946 20.5217 3.65532 20.8 3.65532 21.0782L3.72429 32.5565C3.72429 33.8087 4.41394 34.9217 5.44843 35.5478L10.5519 38.4696C10.8277 38.6087 10.8967 39.0261 10.7588 39.3043C10.6208 39.513 10.4139 39.6522 10.207 39.6522Z" fill="#C39465"/>
<path d="M3.03463 16.696C2.68981 16.696 2.48291 16.4177 2.48291 16.1395C2.48291 14.4699 3.37946 12.9395 4.75877 12.1047L11.2415 8.27861C11.5174 8.13948 11.8622 8.20905 12.0691 8.48731C12.207 8.76557 12.1381 9.11339 11.8622 9.32209L5.37946 13.1482C4.34498 13.7743 3.65532 14.8873 3.65532 16.1395C3.65532 16.4177 3.37946 16.696 3.03463 16.696Z" fill="#C39465"/>
<path d="M30.345 8.97415C30.276 8.97415 30.1381 8.97415 30.0691 8.90458L22.8967 4.80023C21.8622 4.17415 20.4829 4.17415 19.4484 4.80023L15.1036 7.37415C14.8277 7.51328 14.4829 7.44371 14.276 7.16545C14.1381 6.88719 14.207 6.53936 14.4829 6.33067L18.8277 3.75675C20.207 2.92197 22.0001 2.92197 23.4484 3.75675L30.1381 7.58284L30.8967 6.53936L24.1381 2.64371C22.345 1.60023 20.0001 1.60023 18.207 2.64371L15.4484 4.24371C15.1725 4.38284 14.8277 4.31328 14.6208 4.03502C14.4829 3.75675 14.5519 3.40893 14.8277 3.20023L17.5863 1.60023C19.7243 0.348059 22.5519 0.348059 24.6898 1.60023L32.0691 5.84371C32.207 5.91328 32.345 6.05241 32.345 6.2611C32.4139 6.40023 32.345 6.60893 32.276 6.74806L30.8277 8.76545C30.6898 8.90458 30.5519 8.97415 30.345 8.97415Z" fill="#C39465"/>
<path d="M32.2762 17.0436L32.9659 17.461C33.3107 17.6697 33.5176 17.5306 33.5176 17.2523V16.5566C33.5176 16.1393 33.5866 16.0697 33.1728 15.7914L32.4831 15.374C32.0693 15.1653 31.9314 15.3045 31.9314 15.5827V16.2784C32.0004 16.7653 31.9314 16.7653 32.2762 17.0436Z" fill="#004222"/>
<path d="M36.6207 17.8783L34.7586 16.6957C34.4138 16.487 34.2069 16.6261 34.2069 16.9044V17.6C34.2069 18.0174 34.1379 18.0174 34.5517 18.2261L35.3103 18.6435C35.6552 18.8522 35.8621 19.2 35.8621 19.6174V20.9391C35.8621 21.5652 35.8621 21.7044 36.2069 21.9131C36.2069 21.9131 36.6207 22.1913 36.7586 22.1913C36.9655 22.2609 37.3103 22.1913 37.3103 21.9131V18.7826C37.2414 18.3652 37.1034 18.087 36.6207 17.8783Z" fill="#004222"/>
<path d="M33.3108 25.0436C33.3108 25.0436 33.6556 25.2523 33.9314 25.3914C34.0004 25.461 34.1383 25.461 34.2073 25.461C34.3452 25.461 34.4832 25.3219 34.4832 25.1827V20.9392C34.4832 20.4523 34.3452 20.2436 33.9314 19.9653L29.2418 17.2523C29.1039 17.1827 28.897 17.1132 28.759 17.1132C28.6211 17.1132 28.4142 17.1827 28.2073 17.2523L24.1383 19.8958C23.7245 20.1045 23.6556 20.174 23.6556 20.4523C23.6556 20.4523 23.6556 20.8697 23.6556 21.1479C23.6556 21.2175 23.6556 21.2871 23.7245 21.3566C23.7935 21.4958 23.9314 21.4958 24.0694 21.4262L28.3452 18.9219C28.4832 18.8523 28.6901 18.7827 28.828 18.7827C28.9659 18.7827 29.1728 18.8523 29.3108 18.9219L32.5521 20.8001C32.828 21.0088 33.0349 21.2871 33.0349 21.6349V24.1392C33.0349 24.7653 33.0349 24.9045 33.3108 25.0436Z" fill="#004222"/>
<path d="M31.9311 30.5396L25.7243 26.8527C25.5863 26.7831 25.4484 26.7135 25.2415 26.7135C25.1036 26.7135 25.0346 26.7135 24.8967 26.7831C24.6208 26.8527 24.138 27.2701 24.138 27.2701C24.0001 27.3396 23.9311 27.4787 23.8622 27.6179C23.8622 27.757 23.9311 27.8266 24.0001 27.8961L29.9312 31.444C30.207 31.5831 30.4139 31.6527 30.6208 31.6527C30.7587 31.6527 30.8277 31.6527 30.8967 31.5831C30.8967 31.5831 31.5174 31.3048 31.8622 31.0266C32.0001 30.8874 32.0691 30.8179 32.0691 30.7483C32.0691 30.6787 32.0001 30.6092 31.9311 30.5396Z" fill="#004222"/>
<path d="M34.4833 28.0348L29.035 24.8348C28.897 24.7652 28.7591 24.6956 28.5522 24.6956C28.4143 24.6956 28.3453 24.6956 28.2074 24.7652C27.9315 24.8348 27.4488 25.1826 27.4488 25.2522C27.3108 25.3217 27.1729 25.4609 27.1729 25.6C27.1729 25.6696 27.2419 25.8087 27.3108 25.8783L32.4833 28.9391C32.7591 29.0783 32.966 29.1478 33.1729 29.1478C33.3108 29.1478 33.3798 29.1478 33.4488 29.0783C33.4488 29.0783 34.0695 28.8 34.4143 28.5217C34.5522 28.4522 34.6212 28.313 34.6212 28.2435C34.6212 28.1739 34.5522 28.1043 34.4833 28.0348Z" fill="#004222"/>
<path d="M9.58633 17.4612L10.207 17.1134C10.5518 16.9047 10.4829 16.8352 10.5518 16.4178V15.7221C10.5518 15.4439 10.4139 15.3047 10.0001 15.5134L9.37943 15.8612C9.03461 16.1395 9.10357 16.1395 9.03461 16.6265V17.3221C9.03461 17.4612 9.17254 17.6004 9.58633 17.4612Z" fill="#004222"/>
<path d="M8.34509 17.6697V16.9741C8.34509 16.6958 8.20716 16.5567 7.79337 16.7654L5.86233 17.8784C5.44854 18.1567 5.31061 18.3654 5.31061 18.9219V22.0523C5.31061 22.3306 5.65544 22.4002 5.86233 22.3306C6.00026 22.261 6.41406 22.0523 6.41406 22.0523C6.68992 21.8436 6.75888 21.7045 6.75888 21.0784V21.0088V19.7567C6.75888 19.3393 6.96578 18.9915 7.31061 18.7828L8.06923 18.3654C8.34509 18.0871 8.27613 18.0871 8.34509 17.6697Z" fill="#004222"/>
<path d="M8.00012 21.0091V25.2525C8.00012 25.3917 8.13805 25.5308 8.27598 25.5308C8.34495 25.5308 8.41391 25.5308 8.55185 25.4612C8.82771 25.3221 9.17254 25.1134 9.17254 25.1134C9.4484 24.9047 9.4484 24.7656 9.4484 24.2091V21.7047C9.4484 21.3569 9.65529 21.0091 9.93116 20.8699L13.1725 18.9917C13.3105 18.9221 13.5174 18.8525 13.6553 18.8525C13.7932 18.8525 14.0001 18.9221 14.1381 18.9917L18.4139 21.496C18.5518 21.5656 18.6898 21.496 18.7587 21.4264C18.7587 21.3569 18.8277 21.2873 18.8277 21.2178C18.8277 20.9395 18.8277 20.5221 18.8277 20.5221C18.8277 20.2438 18.6898 20.1743 18.3449 19.9656L14.1381 17.3917C13.9312 17.2525 13.7932 17.2525 13.5863 17.2525C13.4484 17.2525 13.3105 17.3221 13.1036 17.3917L8.41391 20.1047C8.13805 20.2438 8.00012 20.5221 8.00012 21.0091Z" fill="#004222"/>
<path d="M15.3108 25.5309C15.3108 25.3918 15.1729 25.2526 15.035 25.1831C15.035 25.1831 14.4832 24.8353 14.2763 24.6961C14.1384 24.6266 14.0005 24.6266 13.9315 24.6266C13.7936 24.6266 13.6557 24.6961 13.4488 24.7657L8.00048 27.9657C7.93151 28.0353 7.86255 28.1048 7.86255 28.1744C7.86255 28.2439 7.93151 28.3135 8.06945 28.4526C8.41427 28.7309 9.03496 29.0092 9.03496 29.0092C9.10393 29.0787 9.24186 29.0787 9.37979 29.0787C9.58669 29.0787 9.79358 29.0092 10.0694 28.87L15.2419 25.8092C15.2419 25.7396 15.3108 25.67 15.3108 25.5309Z" fill="#004222"/>
<path d="M18.6208 27.6179C18.6208 27.4787 18.5519 27.3396 18.345 27.2701C18.345 27.2701 17.7932 26.9222 17.5864 26.7831C17.4484 26.7135 17.3105 26.7135 17.2415 26.7135C17.1036 26.7135 16.9657 26.7831 16.7588 26.8527L10.5519 30.5396C10.4829 30.6092 10.4139 30.6787 10.4139 30.7483C10.4139 30.8179 10.4829 30.8874 10.6208 31.0266C10.9657 31.3048 11.5864 31.5831 11.5864 31.5831C11.6553 31.6527 11.7932 31.6527 11.9312 31.6527C12.1381 31.6527 12.345 31.5831 12.6208 31.444L18.5519 27.8961C18.6208 27.8266 18.6898 27.6874 18.6208 27.6179Z" fill="#004222"/>
<path d="M29.1729 32.6959L22.0695 28.5915V26.1568L28.3453 22.5394C28.6212 22.4002 28.966 22.4002 29.1729 22.5394L30.6212 23.3741C31.035 23.5828 31.1729 23.4437 31.1729 23.1655V22.4698C31.1729 22.0524 31.2419 21.9828 30.8281 21.7046C30.8281 21.7046 29.3798 20.8698 29.3109 20.8002C29.035 20.6611 28.6902 20.522 28.2074 20.8002L22.0695 24.4176V18.922L28.3453 15.3046C28.6212 15.1655 28.966 15.1655 29.1729 15.3046L30.6212 16.1394C31.035 16.3481 31.1729 16.2089 31.1729 15.9307V15.235C31.1729 14.8176 31.2419 14.7481 30.8281 14.4698C30.8281 14.4698 29.3798 13.635 29.3109 13.5655C29.035 13.4263 28.6902 13.2872 28.2074 13.5655L22.0695 17.1828V12.8002C22.0695 12.3133 21.7246 11.9655 21.2419 11.9655C20.7591 11.9655 20.4143 12.3133 20.4143 12.8002V17.1828L14.2764 13.5655C13.7936 13.3568 13.4488 13.4263 13.1729 13.5655L11.6557 14.4698C11.3109 14.7481 11.3798 14.7481 11.3109 15.235V15.9307C11.3109 16.2089 11.4488 16.3481 11.8626 16.1394L13.3109 15.3046C13.5867 15.1655 13.9315 15.1655 14.1384 15.3046L20.4143 18.922V24.4176L14.2764 20.8002C13.7936 20.5915 13.4488 20.6611 13.1729 20.8002L11.6557 21.7046C11.3109 21.9828 11.3798 21.9828 11.3109 22.4698V23.1655C11.3109 23.4437 11.4488 23.5828 11.8626 23.3741L13.3109 22.5394C13.5867 22.4002 13.9315 22.4002 14.1384 22.5394L20.4143 26.1568V28.5915L13.3798 32.6959C13.3109 32.7655 13.2419 32.835 13.2419 32.9046C13.2419 32.9742 13.3109 33.0437 13.4488 33.1828C13.7936 33.4611 14.4143 33.7394 14.4143 33.7394C14.4833 33.8089 14.6212 33.8089 14.7591 33.8089C14.966 33.8089 15.1729 33.7394 15.4488 33.6002L20.5522 30.6089V40.2089C20.5522 40.6959 20.8971 41.0437 21.3798 41.0437C21.8626 41.0437 22.2074 40.6959 22.2074 40.2089V30.6089L27.3109 33.6002C27.5867 33.7394 27.7936 33.8089 28.0005 33.8089C28.1384 33.8089 28.2074 33.8089 28.2764 33.7394C28.2764 33.7394 28.8971 33.4611 29.2419 33.1828C29.3798 33.1133 29.4488 32.9742 29.4488 32.9046C29.3109 32.835 29.2419 32.7655 29.1729 32.6959Z" fill="#004222"/>
<path d="M82.7584 33.9485H54.8963V34.5051H82.7584V33.9485Z" fill="#C39465"/>
<path d="M156.413 33.9485H128.551V34.5051H156.413V33.9485Z" fill="#C39465"/>
<path d="M81.0343 13.7747C80.7585 13.7747 80.5516 13.8442 80.4136 13.9138C80.2757 13.9834 80.1378 14.1225 79.9998 14.2616L74.2757 21.8442L68.6205 14.2616C68.4826 14.1225 68.3447 13.9834 68.2067 13.9138C68.0688 13.8442 67.8619 13.7747 67.586 13.7747C67.2412 13.7747 66.9654 13.8442 66.6895 13.9834C66.4826 14.1225 66.3447 14.3312 66.3447 14.679V24.1399H68.4136V17.4616L73.3102 23.9312C73.5171 24.2094 73.8619 24.3486 74.2757 24.3486C74.6895 24.3486 75.0343 24.2094 75.2412 23.9312L80.1378 17.4616V24.1399H82.2067V14.679C82.2067 14.3312 82.0688 14.1225 81.8619 13.9834C81.655 13.8442 81.3791 13.7747 81.0343 13.7747Z" fill="#004222"/>
<path d="M88.8963 13.9831H86.6204V24.1396H88.8963V13.9831Z" fill="#004222"/>
<path d="M159.655 15.5832C159.517 15.1658 159.241 14.8876 158.965 14.6789C158.621 14.4702 158.207 14.2615 157.724 14.1919C157.241 14.1224 156.621 14.0528 155.931 14.0528H148.069V15.9311H155.793C156.138 15.9311 156.483 15.9311 156.689 16.0006C156.965 16.0006 157.103 16.0702 157.241 16.2093C157.379 16.2789 157.448 16.418 157.517 16.6267C157.586 16.7658 157.586 17.0441 157.586 17.2528V17.8093C157.586 18.0876 157.586 18.2963 157.517 18.505C157.448 18.6441 157.379 18.7832 157.241 18.9224C157.103 18.9919 156.896 19.0615 156.689 19.1311C156.483 19.1311 156.138 19.2006 155.793 19.2006H148.069V24.3484H150.276V20.9398H154.138H155.931C156.621 20.9398 157.241 20.8702 157.724 20.8006C158.207 20.7311 158.621 20.5224 158.965 20.3137C159.31 20.105 159.517 19.7571 159.724 19.4093C159.862 19.0615 159.931 18.5745 159.931 17.9484V17.2528C159.862 16.418 159.793 15.9311 159.655 15.5832Z" fill="#004222"/>
<path d="M54.4825 22.1918C54.2756 22.1222 54.1377 22.0527 53.9997 21.9135C53.8618 21.7744 53.7928 21.6353 53.7239 21.4266C53.6549 21.2179 53.6549 21.0092 53.6549 20.6614V19.9657H62.2066V18.157H51.448V20.6614C51.448 21.2874 51.517 21.844 51.6549 22.2614C51.7928 22.6788 51.9997 23.0266 52.2756 23.3048C52.5514 23.5831 52.9652 23.7918 53.448 23.9309C53.9308 24.0701 54.5514 24.1396 55.3101 24.1396H62.3446V22.2614H55.2411C54.8963 22.2614 54.6894 22.1918 54.4825 22.1918Z" fill="#004222"/>
<path d="M62.2758 13.9831H55.2414C54.4827 13.9831 53.862 14.0527 53.3793 14.1918C52.8965 14.3309 52.4827 14.5396 52.2069 14.8179C51.931 15.0962 51.7241 15.444 51.5862 15.9309H62.2758V13.9831Z" fill="#004222"/>
<path d="M94.8271 14.1223C94.4822 14.2614 94.1374 14.4005 93.9305 14.6092C93.7236 14.8179 93.5167 15.1657 93.4478 15.5136C93.3788 15.6527 93.3788 15.7918 93.3788 15.9309H107.379V13.9831H96.2064C95.5857 13.9831 95.1719 14.0527 94.8271 14.1223Z" fill="#004222"/>
<path d="M106.621 18.7134C106.345 18.5047 106.069 18.3656 105.655 18.2265C105.241 18.1569 104.758 18.0873 104.207 18.0873H93.3102C93.3102 18.2265 93.3791 18.3656 93.3791 18.4352C93.4481 18.783 93.586 19.0613 93.8619 19.27C94.0688 19.4786 94.3447 19.6178 94.7584 19.7569C95.1033 19.896 95.586 19.896 96.1378 19.896H104.138C104.552 19.896 104.827 19.9656 105.034 20.1047C105.241 20.2439 105.31 20.4526 105.31 20.8004V21.3569C105.31 21.7047 105.241 21.9134 105.034 22.0526C104.827 22.1917 104.552 22.2613 104.138 22.2613H93.2412V24.2091H104.207C104.758 24.2091 105.241 24.1395 105.655 24.0699C106.069 24.0004 106.345 23.7917 106.621 23.583C106.896 23.3743 107.034 23.096 107.172 22.7482C107.31 22.4004 107.31 21.983 107.31 21.496V20.6613C107.31 20.1743 107.241 19.8265 107.172 19.4786C107.034 19.2004 106.896 18.9221 106.621 18.7134Z" fill="#004222"/>
<path d="M138.344 13.9832C138.069 13.7745 137.724 13.705 137.31 13.705C136.827 13.705 136.482 13.7745 136.207 13.9832C135.931 14.1919 135.724 14.4006 135.586 14.6789L129.655 24.1397H132.275L133.724 21.7745H140.758L142.207 24.1397H144.827L138.965 14.6789C138.827 14.4006 138.551 14.1919 138.344 13.9832ZM134.758 20.0354L137.241 16.0006L139.724 20.0354H134.758Z" fill="#004222"/>
<path d="M127.172 13.9135L124.137 21.2875L121.241 14.5396C121.103 14.1918 120.896 13.9831 120.689 13.844C120.482 13.7048 120.206 13.6353 119.793 13.6353C119.448 13.6353 119.172 13.7048 118.965 13.844C118.758 13.9831 118.62 14.1918 118.413 14.5396L115.379 21.2875L112.482 13.9135H109.931L113.862 23.3744C114 23.6527 114.137 23.9309 114.344 24.0701C114.551 24.2092 114.827 24.3483 115.241 24.3483C115.586 24.3483 115.862 24.2788 116.137 24.0701C116.344 23.8614 116.551 23.6527 116.689 23.3744L119.793 16.7657L122.758 23.3744C122.896 23.6527 123.103 23.9309 123.31 24.0701C123.517 24.2788 123.862 24.3483 124.206 24.3483C124.551 24.3483 124.827 24.2788 125.034 24.0701C125.241 23.8614 125.448 23.6527 125.586 23.3744C125.724 23.0962 125.862 22.7483 126.068 22.2614C126.275 21.7744 126.551 21.2179 126.827 20.5918C127.103 19.9657 127.379 19.3396 127.655 18.644C127.931 17.9483 128.206 17.3222 128.482 16.6962C128.758 16.0701 128.965 15.5135 129.241 15.0266C129.448 14.5396 129.655 14.1222 129.724 13.9135H127.172Z" fill="#004222"/>
<path d="M88.3445 35.6177C88.4134 35.2698 88.4134 34.8524 88.4134 34.5046V33.9481C88.4134 32.9046 88.2755 31.4437 88.2065 30.4698C88.3445 30.2611 87.4479 30.0524 87.6548 29.8438H87.7238C87.8617 31.0959 88.9652 32.4872 88.9652 33.809C88.9652 34.1568 88.9652 34.5046 88.8962 34.7133C88.8962 34.9916 88.7583 35.2698 88.4134 35.6177H88.3445Z" fill="#C39465"/>
<path d="M93.8615 33.3218C93.7236 32.8348 93.5857 32.6261 93.4478 32.6261C93.1719 32.6261 92.8271 32.7652 92.5512 33.0435C92.2064 33.3218 91.9995 33.6 91.9995 33.7391C91.9995 34.2261 93.4478 34.1565 93.8615 34.5044C93.9995 34.6435 94.1374 34.8522 94.1374 35.1305C94.1374 35.4087 93.9305 35.8957 93.6547 36.1739C93.1029 36.6609 92.2753 37.0783 91.5167 37.0783C90.2064 37.0783 89.5857 36.1739 89.5857 34.9913C89.5857 34.4348 89.7236 34.0174 89.8616 33.6L90.0685 33.6696C89.9305 34.0174 89.8616 34.3652 89.8616 34.6435C89.8616 35.687 90.5512 36.2435 91.5167 36.2435C91.8615 36.2435 92.4822 36.1044 93.034 35.7565C93.3788 35.5478 93.7236 35.2696 93.7236 35.2C93.7236 35.0609 93.3098 34.9218 92.8271 34.8522C92.3443 34.7826 91.9305 34.6435 91.7926 34.5044C91.6547 34.3652 91.5857 34.2261 91.5857 34.0174C91.5857 33.4609 91.7926 32.9739 92.2064 32.5565C92.6202 32.1391 93.1719 31.7913 93.5857 31.7913C93.7926 31.7913 93.8615 31.8609 93.9995 32.0696C94.0684 32.2783 94.1374 32.4174 94.1374 32.6261C94.1374 32.7652 93.9995 33.0435 93.9305 33.2522L93.8615 33.3218ZM91.2409 38.8174C91.034 38.6087 90.8271 38.4 90.6202 38.2609C90.7581 38.0522 90.896 37.8435 91.034 37.7044C91.2409 37.9131 91.4478 38.0522 91.6546 38.3305C91.5167 38.5391 91.3788 38.6783 91.2409 38.8174ZM92.2753 38.7478C92.0684 38.5391 91.8615 38.3305 91.6546 38.1913C91.7926 37.9826 91.9305 37.7739 92.0684 37.6348C92.2753 37.8435 92.4822 37.9826 92.6891 38.2609C92.5512 38.4696 92.4822 38.6087 92.2753 38.7478Z" fill="#C39465"/>
<path d="M95.9999 34.5049C95.3792 34.5049 95.1033 34.7831 95.1033 34.9223C95.1033 35.4788 95.5171 36.5918 95.793 37.7744C95.793 37.9136 95.8619 38.1223 95.8619 38.2614C95.8619 38.5396 95.793 38.8179 95.724 39.0962H95.5861C95.5861 38.4005 95.1033 37.2875 94.7585 36.1049C94.6895 35.8962 94.6205 35.6179 94.6205 35.4788C94.6205 35.2005 94.6895 34.9918 94.7585 34.7136C94.8964 34.3657 95.0343 34.157 95.2412 34.0179C95.1723 33.7396 95.1723 33.4614 95.1723 33.3223C95.1723 33.1136 95.3102 32.7657 95.5171 32.6266C95.655 32.4875 95.8619 32.4179 96.0688 32.4179C96.3447 32.4179 96.5516 32.4875 96.7585 32.6962C97.1033 32.9744 97.3792 33.3223 97.5861 33.8092C97.655 33.8788 97.655 34.0875 97.655 34.157C97.655 34.3657 97.5861 34.5744 97.4481 34.7831C97.0343 34.5744 96.4826 34.5049 95.9999 34.5049ZM97.1033 33.8788C96.7585 33.4614 96.4137 33.044 95.9309 33.044C95.793 33.044 95.724 33.044 95.5861 33.1136V33.3918C95.5861 33.6005 95.5171 33.8092 95.4481 33.9483C95.655 33.8788 95.9309 33.8788 96.2068 33.8788C96.4137 33.8092 96.7585 33.8788 97.1033 33.8788Z" fill="#C39465"/>
<path d="M102.551 33.3218C102.413 32.8348 102.275 32.6261 102.138 32.6261C101.862 32.6261 101.517 32.7652 101.241 33.0435C100.896 33.3218 100.689 33.6 100.689 33.7391C100.689 34.2261 102.138 34.1565 102.551 34.5044C102.689 34.6435 102.827 34.8522 102.827 35.1305C102.827 35.4087 102.62 35.8957 102.344 36.1739C101.793 36.6609 100.965 37.0783 100.206 37.0783C98.8961 37.0783 98.2755 36.1739 98.2755 34.9913C98.2755 34.4348 98.4134 34.0174 98.5513 33.6L98.7582 33.6696C98.6203 34.0174 98.5513 34.3652 98.5513 34.6435C98.5513 35.687 99.241 36.2435 100.206 36.2435C100.551 36.2435 101.172 36.1044 101.724 35.7565C102.069 35.5478 102.413 35.2696 102.413 35.2C102.413 35.0609 102 34.9218 101.517 34.8522C101.034 34.7826 100.62 34.6435 100.482 34.5044C100.344 34.3652 100.275 34.2261 100.275 34.0174C100.275 33.4609 100.482 32.9739 100.896 32.5565C101.31 32.1391 101.862 31.7913 102.275 31.7913C102.482 31.7913 102.551 31.8609 102.689 32.0696C102.758 32.2783 102.827 32.4174 102.827 32.6261C102.827 32.7652 102.689 33.0435 102.62 33.2522L102.551 33.3218ZM99.9306 38.8174C99.7237 38.6087 99.5168 38.4 99.3099 38.2609C99.4479 38.0522 99.5858 37.8435 99.7237 37.7044C99.9306 37.9131 100.138 38.0522 100.344 38.3305C100.206 38.5391 100.069 38.6783 99.9306 38.8174ZM100.965 38.7478C100.758 38.5391 100.551 38.3305 100.344 38.1913C100.482 37.9826 100.62 37.7739 100.758 37.6348C100.965 37.8435 101.172 37.9826 101.379 38.2609C101.241 38.4696 101.172 38.6087 100.965 38.7478Z" fill="#C39465"/>
<path d="M108.413 33.2526C108.551 33.5308 108.689 33.8091 108.758 34.0873C108.827 34.296 108.896 34.5743 109.241 34.5743C109.31 34.5743 109.517 34.5047 109.586 34.4352C109.724 34.3656 109.862 34.2265 109.931 34.0178L110.069 33.4613L110.413 33.2526C110.344 33.4613 110.344 33.67 110.344 33.8091C110.344 34.296 110.689 34.4352 110.965 34.4352C111.103 34.4352 111.241 34.3656 111.241 34.1569C111.241 33.9482 111.172 33.6004 111.034 33.2526C111.172 33.0439 111.379 32.9047 111.517 32.696C111.586 33.1134 111.655 33.4613 111.655 33.7395C111.655 34.0178 111.586 34.296 111.448 34.4352C111.31 34.783 111.034 35.0613 110.689 35.0613C110.413 35.0613 110.138 34.9221 109.931 34.6439C109.724 34.9221 109.448 35.2004 108.965 35.2004H108.827C108.827 35.5482 108.758 35.8265 108.62 36.0352C108.344 36.6613 107.517 37.1482 106.758 37.1482C105.655 37.1482 105.172 36.383 105.172 35.4091C105.172 34.783 105.31 34.2265 105.586 33.8091L105.793 33.8787C105.655 34.2265 105.517 34.5743 105.517 34.9221C105.517 35.8265 106.138 36.3134 106.896 36.3134C107.586 36.3134 108.413 35.8265 108.551 35.2004C108.482 34.5743 108.275 34.2265 108 33.67C108.069 33.67 108.206 33.4613 108.413 33.2526Z" fill="#C39465"/>
<path d="M114.069 34.9223C113.448 34.9223 112.827 34.644 112.827 33.8788C112.827 33.531 112.965 33.1831 113.172 32.9049C113.448 32.6266 113.724 32.4179 114 32.4179C114.344 32.4179 114.62 32.6266 114.827 33.044C115.034 33.4614 115.172 33.9483 115.172 34.5744C115.172 35.131 115.034 35.6179 114.758 36.0353C114.275 36.8005 113.793 37.0788 113.31 37.0788C112.827 37.0788 112.275 36.9397 111.724 36.5223L111.793 36.3136C112.069 36.4527 112.344 36.5223 112.62 36.5223C113.172 36.5223 113.724 36.244 114.275 35.6875C114.551 35.4092 114.758 35.0614 114.827 34.7831C114.551 34.8527 114.275 34.9223 114.069 34.9223ZM113.793 33.1136C113.517 33.1136 113.172 33.3918 113.172 33.6005C113.172 33.9483 113.655 34.2266 114.138 34.2266C114.344 34.2266 114.551 34.2266 114.758 34.157C114.62 33.6005 114.275 33.1136 113.793 33.1136Z" fill="#C39465"/>
<path d="M115.793 35.6177C115.861 35.2698 115.862 34.8524 115.862 34.5046V33.9481C115.862 32.9046 115.724 31.4437 115.655 30.4698C115.793 30.2611 114.896 30.0524 115.103 29.8438H115.172C115.31 31.0959 116.413 32.4872 116.413 33.809C116.413 34.1568 116.413 34.5046 116.344 34.7133C116.344 34.9916 116.206 35.2698 115.862 35.6177H115.793Z" fill="#C39465"/>
<path d="M119.793 35.6873C118.276 35.6873 117.034 35.1308 117.034 33.7395C117.034 33.2526 117.103 32.8352 117.379 32.3482L117.586 32.4178C117.448 32.7656 117.448 33.0439 117.448 33.2526C117.448 34.3656 118.552 34.8526 119.931 34.8526C120.552 34.8526 121.241 34.783 121.862 34.6439C122.138 34.5743 122.345 34.5047 122.621 34.4352C122.689 34.4352 122.689 34.3656 122.689 34.3656C122.689 34.0873 122.414 33.5308 122.138 32.9743C122.276 32.7656 122.414 32.4873 122.552 32.3482C122.827 32.8352 123.103 33.5308 123.103 34.0873C123.103 34.5047 122.965 34.783 122.827 34.9917C122.345 35.3395 120.896 35.6873 119.793 35.6873ZM120 36.7308C120.207 36.8699 120.483 37.0786 120.689 37.3569C120.552 37.5656 120.414 37.7743 120.207 37.9134C120 37.7047 119.793 37.496 119.517 37.3569C119.655 37.0786 119.862 36.8699 120 36.7308Z" fill="#C39465"/>
</svg>
