<svg width="136" height="119" viewBox="0 0 136 119" fill="none" xmlns="http://www.w3.org/2000/svg">
<g clip-path="url(#clip0)">
<path fill-rule="evenodd" clip-rule="evenodd" d="M43.8132 40.2918L67.0089 0L73.0629 49.5131C73.5164 53.1925 74.3327 60.6422 70.3647 66.6609C65.3537 73.7472 61.2043 75.2235 57.0096 76.6998C54.9462 77.4266 52.8602 78.1761 50.6835 79.5843C43.1103 84.0587 0.0292969 116.288 0.0292969 116.288L44.3347 58.8933C44.9923 58.0529 45.2644 57.0082 45.1283 55.9634L43.337 42.7675C43.201 41.9044 43.3824 41.0413 43.8132 40.2918Z" fill="url(#paint0_radial)"/>
<path fill-rule="evenodd" clip-rule="evenodd" d="M43.8132 40.2918L67.0089 0L73.0629 49.5131C73.5164 53.1925 74.3327 60.6422 70.3647 66.6609C65.3537 73.7472 61.2043 75.2235 57.0096 76.6998C54.9462 77.4266 52.8602 78.1761 50.6835 79.5843C43.1103 84.0587 0.0292969 116.288 0.0292969 116.288L44.3347 58.8933C44.9923 58.0529 45.2644 57.0082 45.1283 55.9634L43.337 42.7675C43.201 41.9044 43.3824 41.0413 43.8132 40.2918Z" fill="url(#paint1_linear)"/>
<path fill-rule="evenodd" clip-rule="evenodd" d="M43.8132 40.2918L67.0089 0L73.0629 49.5131C73.5164 53.1925 74.3327 60.6422 70.3647 66.6609C65.3537 73.7472 61.2043 75.2235 57.0096 76.6998C54.9462 77.4266 52.8602 78.1761 50.6835 79.5843C43.1103 84.0587 0.0292969 116.288 0.0292969 116.288L44.3347 58.8933C44.9923 58.0529 45.2644 57.0082 45.1283 55.9634L43.337 42.7675C43.201 41.9044 43.3824 41.0413 43.8132 40.2918Z" fill="url(#paint2_radial)"/>
<path fill-rule="evenodd" clip-rule="evenodd" d="M43.8132 40.2918L67.0089 0L73.0629 49.5131C73.5164 53.1925 74.3327 60.6422 70.3647 66.661C65.3537 73.7472 61.2043 75.2235 57.0096 76.6998C54.9462 77.4266 52.8602 78.1762 50.6835 79.5843C43.1103 84.0587 0.0292969 116.288 0.0292969 116.288L44.3347 58.8933C44.9923 58.0529 45.2644 57.0082 45.1283 55.9634L43.337 42.7675C43.201 41.9044 43.3824 41.0413 43.8132 40.2918Z" fill="url(#paint3_radial)"/>
<path fill-rule="evenodd" clip-rule="evenodd" d="M43.8425 40.2918L67.0383 0L73.0923 49.5131C73.5458 53.1925 74.362 60.6422 70.394 66.6609C65.383 73.7472 61.2337 75.2235 57.0389 76.6998C54.9756 77.4266 52.8895 78.1761 50.7128 79.5843C43.1396 84.0587 0.0585938 116.288 0.0585938 116.288L44.364 58.8933C45.0216 58.0529 45.2937 57.0082 45.1576 55.9634L43.3664 42.7675C43.2303 41.9044 43.4117 41.0413 43.8425 40.2918Z" fill="url(#paint4_radial)"/>
<path fill-rule="evenodd" clip-rule="evenodd" d="M43.8425 40.2918L67.0383 0L73.0923 49.5131C73.5458 53.1925 74.362 60.6422 70.394 66.6609C65.383 73.7472 61.2337 75.2235 57.0389 76.6998C54.9756 77.4266 52.8895 78.1761 50.7128 79.5843C43.1396 84.0587 0.0585938 116.288 0.0585938 116.288L44.364 58.8933C45.0216 58.0529 45.2937 57.0082 45.1576 55.9634L43.3664 42.7675C43.2303 41.9044 43.4117 41.0413 43.8425 40.2918Z" fill="url(#paint5_radial)"/>
<path fill-rule="evenodd" clip-rule="evenodd" d="M112.464 75.059L135.7 115.328L89.8667 95.823C86.459 94.3767 79.6103 91.36 76.3909 84.9083C72.77 77.018 73.5684 72.6802 74.3894 68.3031C74.7928 66.1497 75.1878 63.9653 75.0588 61.3728C74.9771 52.5658 68.6545 -0.922098 68.6545 -0.922098L96.1213 66.2107C96.519 67.2013 97.2862 67.9597 98.2575 68.3641L110.561 73.4081C111.376 73.7216 112.031 74.3105 112.464 75.059Z" fill="url(#paint6_radial)"/>
<path fill-rule="evenodd" clip-rule="evenodd" d="M112.464 75.059L135.7 115.328L89.8667 95.823C86.459 94.3767 79.6103 91.36 76.3909 84.9083C72.77 77.018 73.5684 72.6802 74.3894 68.3031C74.7928 66.1497 75.1878 63.9653 75.0588 61.3728C74.9771 52.5658 68.6545 -0.922098 68.6545 -0.922098L96.1213 66.2107C96.519 67.2013 97.2862 67.9597 98.2575 68.3641L110.561 73.4081C111.376 73.7216 112.031 74.3105 112.464 75.059Z" fill="url(#paint7_linear)"/>
<path fill-rule="evenodd" clip-rule="evenodd" d="M112.464 75.059L135.7 115.328L89.8667 95.823C86.459 94.3767 79.6103 91.36 76.3909 84.9083C72.77 77.018 73.5684 72.6802 74.3894 68.3031C74.7928 66.1497 75.1878 63.9653 75.0588 61.3728C74.9771 52.5658 68.6545 -0.922098 68.6545 -0.922098L96.1213 66.2107C96.519 67.2013 97.2862 67.9597 98.2575 68.3641L110.561 73.4081C111.376 73.7216 112.031 74.3105 112.464 75.059Z" fill="url(#paint8_radial)"/>
<path fill-rule="evenodd" clip-rule="evenodd" d="M112.464 75.059L135.7 115.328L89.8667 95.823C86.459 94.3767 79.6103 91.36 76.3909 84.9083C72.77 77.018 73.5684 72.6802 74.3894 68.3031C74.7928 66.1497 75.1878 63.9653 75.0588 61.3728C74.9771 52.5658 68.6545 -0.922098 68.6545 -0.922098L96.1213 66.2107C96.519 67.2013 97.2862 67.9597 98.2575 68.3641L110.561 73.4081C111.376 73.7216 112.031 74.3105 112.464 75.059Z" fill="url(#paint9_radial)"/>
<path fill-rule="evenodd" clip-rule="evenodd" d="M112.446 75.0844L135.682 115.353L89.8492 95.8484C86.4414 94.4021 79.5928 91.3854 76.3733 84.9337C72.7524 77.0434 73.5508 72.7056 74.3719 68.3285C74.7752 66.1751 75.1702 63.9907 75.0412 61.3982C74.9595 52.5912 68.6369 -0.896742 68.6369 -0.896742L96.1037 66.2361C96.5015 67.2267 97.2687 67.9851 98.2399 68.3895L110.544 73.4335C111.358 73.747 112.014 74.3359 112.446 75.0844Z" fill="url(#paint10_radial)"/>
<path fill-rule="evenodd" clip-rule="evenodd" d="M43.8132 40.2918L67.0089 0L73.063 49.5131C73.5164 53.1925 74.3327 60.6422 70.3647 66.6609C65.3537 73.7472 61.2043 75.2235 57.0096 76.6998C54.9463 77.4266 52.8602 78.1761 50.6835 79.5843C43.1103 84.0587 0.0292969 116.288 0.0292969 116.288L44.3347 58.8933C44.9923 58.0529 45.2644 57.0082 45.1283 55.9634L43.3371 42.7675C43.201 41.9044 43.3824 41.0413 43.8132 40.2918Z" fill="url(#paint11_radial)"/>
<path fill-rule="evenodd" clip-rule="evenodd" d="M43.8132 40.2918L67.0089 0L73.063 49.5131C73.5164 53.1925 74.3327 60.6422 70.3647 66.6609C65.3537 73.7472 61.2043 75.2235 57.0096 76.6998C54.9463 77.4266 52.8602 78.1761 50.6835 79.5843C43.1103 84.0587 0.0292969 116.288 0.0292969 116.288L44.3347 58.8933C44.9923 58.0529 45.2644 57.0082 45.1283 55.9634L43.3371 42.7675C43.201 41.9044 43.3824 41.0413 43.8132 40.2918Z" fill="url(#paint12_linear)"/>
<path fill-rule="evenodd" clip-rule="evenodd" d="M43.8132 40.2918L67.0089 0L73.063 49.5131C73.5164 53.1925 74.3327 60.6422 70.3647 66.6609C65.3537 73.7472 61.2043 75.2235 57.0096 76.6998C54.9463 77.4266 52.8602 78.1761 50.6835 79.5843C43.1103 84.0587 0.0292969 116.288 0.0292969 116.288L44.3347 58.8933C44.9923 58.0529 45.2644 57.0082 45.1283 55.9634L43.3371 42.7675C43.201 41.9044 43.3824 41.0413 43.8132 40.2918Z" fill="url(#paint13_radial)"/>
<path fill-rule="evenodd" clip-rule="evenodd" d="M43.8132 40.2918L67.0089 0L73.063 49.5131C73.5164 53.1925 74.3327 60.6422 70.3647 66.6609C65.3537 73.7472 61.2043 75.2235 57.0096 76.6998C54.9463 77.4266 52.8602 78.1761 50.6835 79.5843C43.1103 84.0587 0.0292969 116.288 0.0292969 116.288L44.3347 58.8933C44.9923 58.0529 45.2644 57.0082 45.1283 55.9634L43.3371 42.7675C43.201 41.9044 43.3824 41.0413 43.8132 40.2918Z" fill="url(#paint14_radial)"/>
<path fill-rule="evenodd" clip-rule="evenodd" d="M43.8425 40.2918L67.0382 0L73.0923 49.5131C73.5457 53.1925 74.362 60.6422 70.394 66.6609C65.383 73.7472 61.2336 75.2235 57.0389 76.6998C54.9756 77.4266 52.8895 78.1761 50.7128 79.5843C43.1396 84.0587 0.0585938 116.288 0.0585938 116.288L44.364 58.8933C45.0216 58.0529 45.2937 57.0082 45.1576 55.9634L43.3664 42.7675C43.2303 41.9044 43.4117 41.0413 43.8425 40.2918Z" fill="url(#paint15_radial)"/>
<path fill-rule="evenodd" clip-rule="evenodd" d="M43.8132 40.2918L67.0089 0L73.063 49.5131C73.5164 53.1925 74.3327 60.6422 70.3647 66.6609C65.3537 73.7472 61.2043 75.2235 57.0096 76.6998C54.9463 77.4266 52.8602 78.1761 50.6835 79.5843C43.1103 84.0587 0.0292969 116.288 0.0292969 116.288L44.3347 58.8933C44.9923 58.0529 45.2644 57.0082 45.1283 55.9634L43.3371 42.7675C43.201 41.9044 43.3824 41.0413 43.8132 40.2918Z" fill="url(#paint16_radial)"/>
<path fill-rule="evenodd" clip-rule="evenodd" d="M112.434 75.059L135.67 115.328L89.8374 95.823C86.4297 94.3767 79.581 91.36 76.3615 84.9083C72.7407 77.018 73.5391 72.6802 74.3601 68.3031C74.7634 66.1497 75.1585 63.9653 75.0294 61.3728C74.9478 52.5658 68.6252 -0.922092 68.6252 -0.922092L96.092 66.2107C96.4897 67.2013 97.2569 67.9597 98.2282 68.3641L110.532 73.4081C111.346 73.7216 112.002 74.3105 112.434 75.059Z" fill="url(#paint17_radial)"/>
<path fill-rule="evenodd" clip-rule="evenodd" d="M112.434 75.059L135.67 115.328L89.8374 95.823C86.4297 94.3767 79.581 91.36 76.3615 84.9083C72.7407 77.018 73.5391 72.6802 74.3601 68.3031C74.7634 66.1497 75.1585 63.9653 75.0294 61.3728C74.9478 52.5658 68.6252 -0.922092 68.6252 -0.922092L96.092 66.2107C96.4897 67.2013 97.2569 67.9597 98.2282 68.3641L110.532 73.4081C111.346 73.7216 112.002 74.3105 112.434 75.059Z" fill="url(#paint18_linear)"/>
<path fill-rule="evenodd" clip-rule="evenodd" d="M112.434 75.059L135.67 115.328L89.8374 95.823C86.4297 94.3767 79.581 91.36 76.3615 84.9083C72.7407 77.018 73.5391 72.6802 74.3601 68.3031C74.7634 66.1497 75.1585 63.9653 75.0294 61.3728C74.9478 52.5658 68.6252 -0.922092 68.6252 -0.922092L96.092 66.2107C96.4897 67.2013 97.2569 67.9597 98.2282 68.3641L110.532 73.4081C111.346 73.7216 112.002 74.3105 112.434 75.059Z" fill="url(#paint19_radial)"/>
<path fill-rule="evenodd" clip-rule="evenodd" d="M112.434 75.059L135.67 115.328L89.8374 95.823C86.4297 94.3767 79.581 91.36 76.3615 84.9083C72.7407 77.018 73.5391 72.6802 74.3601 68.3031C74.7634 66.1497 75.1585 63.9653 75.0294 61.3728C74.9478 52.5658 68.6252 -0.922092 68.6252 -0.922092L96.092 66.2107C96.4897 67.2013 97.2569 67.9597 98.2282 68.3641L110.532 73.4081C111.346 73.7216 112.002 74.3105 112.434 75.059Z" fill="url(#paint20_radial)"/>
<path fill-rule="evenodd" clip-rule="evenodd" d="M112.417 75.0844L135.653 115.353L89.8198 95.8484C86.4121 94.4021 79.5634 91.3854 76.3439 84.9337C72.7231 77.0434 73.5215 72.7056 74.3425 68.3285C74.7458 66.1751 75.1409 63.9907 75.0118 61.3982C74.9302 52.5912 68.6076 -0.896745 68.6076 -0.896745L96.0744 66.2361C96.4721 67.2267 97.2393 67.9851 98.2106 68.3895L110.515 73.4335C111.329 73.747 111.984 74.3359 112.417 75.0844Z" fill="url(#paint21_radial)"/>
<path fill-rule="evenodd" clip-rule="evenodd" d="M112.434 75.059L135.67 115.328L89.8374 95.823C86.4297 94.3767 79.581 91.36 76.3615 84.9083C72.7407 77.018 73.5391 72.6802 74.3601 68.3031C74.7634 66.1497 75.1585 63.9653 75.0294 61.3728C74.9478 52.5658 68.6252 -0.922092 68.6252 -0.922092L96.092 66.2107C96.4897 67.2013 97.2569 67.9597 98.2282 68.3641L110.532 73.4081C111.346 73.7216 112.002 74.3105 112.434 75.059Z" fill="url(#paint22_radial)"/>
<path fill-rule="evenodd" clip-rule="evenodd" d="M47.9516 117.967L1.51995 117.99L41.2988 87.9813C44.2531 85.7482 50.2855 81.3153 57.4729 81.7482C66.1048 82.5521 69.4558 85.4136 72.8295 88.3145C74.4895 89.7411 76.1805 91.176 78.4863 92.3603C86.1411 96.6929 135.545 117.952 135.545 117.952L63.7725 108.213C62.7172 108.063 61.6779 108.35 60.8427 108.99L50.33 117.142C49.6518 117.691 48.815 117.966 47.9516 117.967Z" fill="url(#paint23_radial)"/>
<path fill-rule="evenodd" clip-rule="evenodd" d="M47.9516 117.967L1.51995 117.99L41.2988 87.9813C44.2531 85.7482 50.2855 81.3153 57.4729 81.7482C66.1048 82.5521 69.4558 85.4136 72.8295 88.3145C74.4895 89.7411 76.1805 91.176 78.4863 92.3603C86.1411 96.6929 135.545 117.952 135.545 117.952L63.7725 108.213C62.7172 108.063 61.6779 108.35 60.8427 108.99L50.33 117.142C49.6518 117.691 48.815 117.966 47.9516 117.967Z" fill="url(#paint24_linear)"/>
<path fill-rule="evenodd" clip-rule="evenodd" d="M47.9516 117.967L1.51995 117.99L41.2988 87.9813C44.2531 85.7482 50.2855 81.3153 57.4729 81.7482C66.1048 82.5521 69.4558 85.4136 72.8295 88.3145C74.4895 89.7411 76.1805 91.176 78.4863 92.3603C86.1411 96.6929 135.545 117.952 135.545 117.952L63.7725 108.213C62.7172 108.063 61.6779 108.35 60.8427 108.99L50.33 117.142C49.6518 117.691 48.815 117.966 47.9516 117.967Z" fill="url(#paint25_radial)"/>
<path fill-rule="evenodd" clip-rule="evenodd" d="M47.9516 117.967L1.51995 117.99L41.2988 87.9813C44.2531 85.7482 50.2855 81.3153 57.4729 81.7482C66.1048 82.5521 69.4558 85.4136 72.8295 88.3145C74.4895 89.7411 76.1805 91.176 78.4863 92.3603C86.1411 96.6929 135.545 117.952 135.545 117.952L63.7725 108.213C62.7172 108.063 61.6779 108.35 60.8427 108.99L50.33 117.142C49.6518 117.691 48.815 117.966 47.9516 117.967Z" fill="url(#paint26_radial)"/>
<path fill-rule="evenodd" clip-rule="evenodd" d="M47.936 117.94L1.50433 117.963L41.2832 87.955C44.2375 85.7218 50.2699 81.2889 57.4573 81.7218C66.0892 82.5258 69.4402 85.3873 72.8139 88.2881C74.4739 89.7147 76.1649 91.1496 78.4707 92.3339C86.1255 96.6666 135.529 117.926 135.529 117.926L63.7569 108.187C62.7016 108.037 61.6623 108.323 60.8271 108.964L50.3144 117.115C49.6362 117.665 48.7994 117.939 47.936 117.94Z" fill="url(#paint27_radial)"/>
<path fill-rule="evenodd" clip-rule="evenodd" d="M47.9516 117.967L1.51995 117.99L41.2988 87.9813C44.2531 85.7482 50.2855 81.3153 57.4729 81.7482C66.1048 82.5521 69.4558 85.4136 72.8295 88.3145C74.4895 89.7411 76.1805 91.176 78.4863 92.3603C86.1411 96.6929 135.545 117.952 135.545 117.952L63.7725 108.213C62.7172 108.063 61.6779 108.35 60.8427 108.99L50.33 117.142C49.6518 117.691 48.815 117.966 47.9516 117.967Z" fill="url(#paint28_radial)"/>
</g>
<defs>
<radialGradient id="paint0_radial" cx="0" cy="0" r="1" gradientUnits="userSpaceOnUse" gradientTransform="translate(72.3386 63.306) rotate(143.759) scale(89.6233 102.748)">
<stop stop-color="#1C1159"/>
<stop offset="0.4487" stop-color="#FF78D1"/>
<stop offset="0.6228" stop-color="#FFC979"/>
<stop offset="0.7685" stop-color="#FFF58C"/>
<stop offset="0.8983" stop-color="white"/>
</radialGradient>
<linearGradient id="paint1_linear" x1="73.3977" y1="59.4367" x2="34.6991" y2="54.4697" gradientUnits="userSpaceOnUse">
<stop offset="0.0456257" stop-color="#0F0F13" stop-opacity="0.67"/>
<stop offset="0.321849" stop-color="#582C7A" stop-opacity="0"/>
</linearGradient>
<radialGradient id="paint2_radial" cx="0" cy="0" r="1" gradientUnits="userSpaceOnUse" gradientTransform="translate(-23.8962 21.4119) rotate(2.95901) scale(103.697 415.54)">
<stop offset="0.735423" stop-color="#D7468C" stop-opacity="0.24"/>
<stop offset="0.908835" stop-color="#27043F" stop-opacity="0.32"/>
</radialGradient>
<radialGradient id="paint3_radial" cx="0" cy="0" r="1" gradientUnits="userSpaceOnUse" gradientTransform="translate(2.5142 33.8299) rotate(9.2911) scale(86.5766 95.4186)">
<stop offset="0.11701" stop-color="#27043F" stop-opacity="0"/>
<stop offset="0.56027" stop-color="#E33272" stop-opacity="0.4"/>
<stop offset="0.779103" stop-color="#9036EC" stop-opacity="0.17"/>
</radialGradient>
<radialGradient id="paint4_radial" cx="0" cy="0" r="1" gradientUnits="userSpaceOnUse" gradientTransform="translate(0.0585924 116.289) rotate(-37.0651) scale(100.073 105.209)">
<stop stop-color="white"/>
<stop offset="0.185217" stop-color="#FFD79A"/>
<stop offset="0.34495" stop-color="#FFBF51"/>
<stop offset="0.629193" stop-color="#FF778F" stop-opacity="0.03"/>
</radialGradient>
<radialGradient id="paint5_radial" cx="0" cy="0" r="1" gradientUnits="userSpaceOnUse" gradientTransform="translate(66.9482) rotate(82.7112) scale(59.5487 19.1118)">
<stop stop-color="#FFBF51"/>
<stop offset="0.520833" stop-color="#E33272" stop-opacity="0.28"/>
<stop offset="1" stop-color="#46008E" stop-opacity="0"/>
</radialGradient>
<radialGradient id="paint6_radial" cx="0" cy="0" r="1" gradientUnits="userSpaceOnUse" gradientTransform="translate(78.3044 88.2982) rotate(-96.1834) scale(89.7218 102.635)">
<stop stop-color="#1C1159"/>
<stop offset="0.4487" stop-color="#FF78D1"/>
<stop offset="0.6228" stop-color="#FFC979"/>
<stop offset="0.7685" stop-color="#FFF58C"/>
<stop offset="0.8983" stop-color="white"/>
</radialGradient>
<linearGradient id="paint7_linear" x1="81.12" y1="91.1516" x2="104.828" y2="60.1131" gradientUnits="userSpaceOnUse">
<stop offset="0.0456257" stop-color="#0F0F13" stop-opacity="0.67"/>
<stop offset="0.321849" stop-color="#582C7A" stop-opacity="0"/>
</linearGradient>
<radialGradient id="paint8_radial" cx="0" cy="0" r="1" gradientUnits="userSpaceOnUse" gradientTransform="translate(84.629 98.7227) rotate(-30.6315) scale(62.5805 118.841)">
<stop offset="0.1475" stop-color="#27043F" stop-opacity="0.12"/>
<stop offset="0.456553" stop-color="#DB3B80" stop-opacity="0.08"/>
</radialGradient>
<radialGradient id="paint9_radial" cx="0" cy="0" r="1" gradientUnits="userSpaceOnUse" gradientTransform="translate(138.7 42.4624) rotate(135.896) scale(80.531 84.6293)">
<stop offset="0.11701" stop-color="#27043F" stop-opacity="0"/>
<stop offset="0.535374" stop-color="#E33272" stop-opacity="0.4"/>
<stop offset="0.700045" stop-color="#9036EC" stop-opacity="0.17"/>
</radialGradient>
<radialGradient id="paint10_radial" cx="0" cy="0" r="1" gradientUnits="userSpaceOnUse" gradientTransform="translate(68.6356 -0.897506) rotate(82.9942) scale(100.18 105.097)">
<stop offset="0.0916302" stop-color="white"/>
<stop offset="0.225286" stop-color="#FFD79A"/>
<stop offset="0.486767" stop-color="#FF77F3" stop-opacity="0"/>
</radialGradient>
<radialGradient id="paint11_radial" cx="0" cy="0" r="1" gradientUnits="userSpaceOnUse" gradientTransform="translate(72.3386 63.306) rotate(143.759) scale(89.6233 102.748)">
<stop stop-color="#1C1159"/>
<stop offset="0.0281713" stop-color="#5D09E1"/>
<stop offset="0.4487" stop-color="#E478FF"/>
<stop offset="0.6228" stop-color="#8479FF"/>
<stop offset="0.7685" stop-color="#8CF1FF"/>
<stop offset="0.8983" stop-color="#37FFDB"/>
</radialGradient>
<linearGradient id="paint12_linear" x1="73.3977" y1="59.4367" x2="34.6991" y2="54.4697" gradientUnits="userSpaceOnUse">
<stop offset="0.0456257" stop-color="#0F0F13" stop-opacity="0.67"/>
<stop offset="0.321849" stop-color="#582C7A" stop-opacity="0"/>
</linearGradient>
<radialGradient id="paint13_radial" cx="0" cy="0" r="1" gradientUnits="userSpaceOnUse" gradientTransform="translate(78.1887 52.607) rotate(-150.546) scale(62.5786 118.845)">
<stop offset="0.1475" stop-color="#27043F" stop-opacity="0.12"/>
<stop offset="0.456553" stop-color="#DB3B80" stop-opacity="0.08"/>
</radialGradient>
<radialGradient id="paint14_radial" cx="0" cy="0" r="1" gradientUnits="userSpaceOnUse" gradientTransform="translate(2.51421 33.8299) rotate(15.9714) scale(80.4745 84.6888)">
<stop offset="0.11701" stop-color="#27043F" stop-opacity="0"/>
<stop offset="0.524525" stop-color="#E33272" stop-opacity="0.65"/>
<stop offset="0.700045" stop-color="#5C0FAB" stop-opacity="0.4"/>
</radialGradient>
<radialGradient id="paint15_radial" cx="0" cy="0" r="1" gradientUnits="userSpaceOnUse" gradientTransform="translate(0.0585924 116.289) rotate(-37.0651) scale(100.073 105.209)">
<stop offset="0.0916302" stop-color="#37FFDB"/>
<stop offset="0.225286" stop-color="#9AF9FF"/>
<stop offset="0.641005" stop-color="#C377FF" stop-opacity="0"/>
</radialGradient>
<radialGradient id="paint16_radial" cx="0" cy="0" r="1" gradientUnits="userSpaceOnUse" gradientTransform="translate(66.9189) rotate(82.7112) scale(59.5487 19.1118)">
<stop stop-color="#51F5FF"/>
<stop offset="0.677663" stop-color="#8032E3" stop-opacity="0.28"/>
<stop offset="1" stop-color="#46008E" stop-opacity="0"/>
</radialGradient>
<radialGradient id="paint17_radial" cx="0" cy="0" r="1" gradientUnits="userSpaceOnUse" gradientTransform="translate(78.2751 88.2982) rotate(-96.1834) scale(89.7218 102.635)">
<stop stop-color="#1C1159"/>
<stop offset="0.0281713" stop-color="#5D09E1"/>
<stop offset="0.4487" stop-color="#E478FF"/>
<stop offset="0.6228" stop-color="#8479FF"/>
<stop offset="0.7685" stop-color="#8CF1FF"/>
<stop offset="0.8983" stop-color="#37FFDB"/>
</radialGradient>
<linearGradient id="paint18_linear" x1="81.0907" y1="91.1516" x2="104.799" y2="60.1131" gradientUnits="userSpaceOnUse">
<stop offset="0.0456257" stop-color="#0F0F13" stop-opacity="0.67"/>
<stop offset="0.321849" stop-color="#582C7A" stop-opacity="0"/>
</linearGradient>
<radialGradient id="paint19_radial" cx="0" cy="0" r="1" gradientUnits="userSpaceOnUse" gradientTransform="translate(84.5997 98.7227) rotate(-30.6314) scale(62.5805 118.841)">
<stop offset="0.1475" stop-color="#27043F" stop-opacity="0.12"/>
<stop offset="0.456553" stop-color="#DB3B80" stop-opacity="0.08"/>
</radialGradient>
<radialGradient id="paint20_radial" cx="0" cy="0" r="1" gradientUnits="userSpaceOnUse" gradientTransform="translate(138.67 42.4624) rotate(135.896) scale(80.531 84.6293)">
<stop offset="0.11701" stop-color="#27043F" stop-opacity="0"/>
<stop offset="0.524525" stop-color="#E33272" stop-opacity="0.65"/>
<stop offset="0.700045" stop-color="#5C0FAB" stop-opacity="0.4"/>
</radialGradient>
<radialGradient id="paint21_radial" cx="0" cy="0" r="1" gradientUnits="userSpaceOnUse" gradientTransform="translate(68.6062 -0.897509) rotate(82.9942) scale(100.18 105.097)">
<stop offset="0.0916302" stop-color="#37FFDB"/>
<stop offset="0.225286" stop-color="#9AF9FF"/>
<stop offset="0.641005" stop-color="#C377FF" stop-opacity="0"/>
</radialGradient>
<radialGradient id="paint22_radial" cx="0" cy="0" r="1" gradientUnits="userSpaceOnUse" gradientTransform="translate(135.715 115.249) rotate(-157.266) scale(59.4633 19.1392)">
<stop stop-color="#51F5FF"/>
<stop offset="0.677663" stop-color="#8032E3" stop-opacity="0.28"/>
<stop offset="1" stop-color="#46008E" stop-opacity="0"/>
</radialGradient>
<radialGradient id="paint23_radial" cx="0" cy="0" r="1" gradientUnits="userSpaceOnUse" gradientTransform="translate(53.5855 81.7133) rotate(23.8424) scale(89.5946 102.781)">
<stop stop-color="#1C1159"/>
<stop offset="0.0281713" stop-color="#5D09E1"/>
<stop offset="0.4487" stop-color="#E478FF"/>
<stop offset="0.6228" stop-color="#8479FF"/>
<stop offset="0.7685" stop-color="#8CF1FF"/>
<stop offset="0.8983" stop-color="#37FFDB"/>
</radialGradient>
<linearGradient id="paint24_linear" x1="49.7108" y1="82.7291" x2="64.7944" y2="118.772" gradientUnits="userSpaceOnUse">
<stop offset="0.0456257" stop-color="#0F0F13" stop-opacity="0.67"/>
<stop offset="0.321849" stop-color="#582C7A" stop-opacity="0"/>
</linearGradient>
<radialGradient id="paint25_radial" cx="0" cy="0" r="1" gradientUnits="userSpaceOnUse" gradientTransform="translate(41.4108 81.9877) rotate(89.4127) scale(62.6602 118.69)">
<stop offset="0.1475" stop-color="#27043F" stop-opacity="0.12"/>
<stop offset="0.456553" stop-color="#DB3B80" stop-opacity="0.08"/>
</radialGradient>
<radialGradient id="paint26_radial" cx="0" cy="0" r="1" gradientUnits="userSpaceOnUse" gradientTransform="translate(63.0145 157.025) rotate(-104.031) scale(80.5943 84.5628)">
<stop offset="0.11701" stop-color="#27043F" stop-opacity="0"/>
<stop offset="0.524525" stop-color="#E33272" stop-opacity="0.65"/>
<stop offset="0.700045" stop-color="#5C0FAB" stop-opacity="0.4"/>
</radialGradient>
<radialGradient id="paint27_radial" cx="0" cy="0" r="1" gradientUnits="userSpaceOnUse" gradientTransform="translate(135.53 117.925) rotate(-156.982) scale(100.036 105.247)">
<stop offset="0.0916302" stop-color="#37FFDB"/>
<stop offset="0.225286" stop-color="#9AF9FF"/>
<stop offset="0.641005" stop-color="#C377FF" stop-opacity="0"/>
</radialGradient>
<radialGradient id="paint28_radial" cx="0" cy="0" r="1" gradientUnits="userSpaceOnUse" gradientTransform="translate(1.56499 118.068) rotate(-37.3487) scale(59.4856 19.132)">
<stop stop-color="#51F5FF"/>
<stop offset="0.677663" stop-color="#8032E3" stop-opacity="0.28"/>
<stop offset="1" stop-color="#46008E" stop-opacity="0"/>
</radialGradient>
<clipPath id="clip0">
<rect width="136" height="118.15" fill="white"/>
</clipPath>
</defs>
</svg>
