<svg width="87" height="82" viewBox="0 0 87 82" fill="none" xmlns="http://www.w3.org/2000/svg">
<g opacity="0.5" clip-path="url(#clip0)">
<path d="M75.8178 15.9241L75.4599 15.6038L75.1468 15.2377L74.789 14.9174L74.4759 14.5971L74.1628 14.231L73.8049 13.9107L73.4918 13.5446L73.134 13.2243L72.8209 12.904L72.5077 12.5379L72.1499 12.2176L71.8368 11.8516L71.479 11.5312L71.1658 11.1652L70.8527 10.8449L70.4949 10.5246L70.1818 10.1585L69.8239 9.83817L69.5108 9.4721L69.1977 9.15179L68.8399 8.83147L68.5268 8.4654L68.1689 8.14509L67.99 7.96205L67.8558 7.77902L67.5427 7.4587L67.1849 7.13839L66.8718 6.77232L66.5139 6.45201L66.2008 6.08594L65.843 5.76562L65.5299 5.44531L65.2167 5.07924L64.8589 4.75893L64.5458 4.39286L64.188 4.07254L63.8748 3.75223L63.5617 3.38616L63.2039 3.06585L62.8908 2.69978L62.5329 2.37946L60.2517 0H50.8137H46.6985H39.8101H26.8383L24.5571 2.37946L24.1993 2.69978L23.8862 3.06585L23.5283 3.38616L23.2152 3.75223L22.9021 4.07254L22.5443 4.39286L22.2311 4.75893L21.8733 5.07924L21.5602 5.44531L21.2471 5.76562L20.8892 6.08594L20.5761 6.45201L20.2183 6.77232L19.9052 7.13839L19.5921 7.4587L19.2342 7.77902L18.9211 8.14509L18.5633 8.4654L18.2502 8.83147L17.9371 9.15179L17.5792 9.4721L17.2661 9.83817L16.9083 10.1585L16.5952 10.5246L16.282 10.8449L15.9242 11.1652L15.6111 11.5312L15.2533 11.8516L14.9401 12.2176L14.627 12.5379L14.2692 12.904L13.9561 13.2243L13.5982 13.5446L13.2851 13.9107L12.972 14.231L12.6142 14.5971L12.3011 14.9174L11.9432 15.2377L11.6301 15.6038L11.2723 15.9241L11.5854 16.2902L11.9432 16.6105L12.2563 16.9308L12.6142 17.2969L12.9273 17.6172L13.2404 17.9833L13.5982 18.3036L13.9114 18.6239L14.2692 18.99L14.5823 19.3103L14.8954 19.6763L15.2533 19.9967L15.5664 20.317L15.9242 20.683L16.2373 21.0033L16.5504 21.3694L16.9083 21.6897L17.2214 22.01L17.5792 22.3761L17.8923 22.6964L18.2054 23.0625L18.5633 23.3828L18.8764 23.7489L19.2342 24.0692L19.5473 24.3895L19.8605 24.7556L20.2183 25.0759L20.5314 25.442L20.8892 25.7623L21.2024 26.0826L21.5155 26.4487L21.8733 26.769L22.1864 27.135L22.5443 27.4554L22.8574 27.7757L23.1705 28.1417L23.5283 28.4621L23.8414 28.8281L24.1993 29.1484L24.5124 29.4687L24.8255 29.8348L25.1833 30.1551L25.4964 30.5212L25.8543 30.8415L26.1674 31.1618L26.5252 31.5279L26.8383 31.8482L27.1515 32.2143L27.5093 32.5346L27.8224 32.9007L28.1802 33.221L28.4934 33.5413L28.8065 33.9074L29.1643 34.2277L29.4774 34.5937L29.8353 34.9141L30.1484 35.2344L30.4615 35.6004L30.8193 35.9208L31.1324 36.2868L31.4903 36.6071L31.8034 36.9275L32.1165 37.2935L32.4743 37.6138L32.698 37.8884L32.9664 37.6138L33.2795 37.2935L33.6373 36.9275L33.9504 36.6071L34.3083 36.2868L34.6214 35.9208L34.9345 35.6004L35.2923 35.2344L35.6054 34.9141L35.9633 34.5937L36.2764 34.2277L36.5895 33.9074L36.9473 33.5413L37.2604 33.221L37.6183 32.9007L37.9314 32.5346L38.2445 32.2143L38.6024 31.8482L38.9155 31.5279L39.2733 31.1618L39.5864 30.8415L39.8995 30.5212L40.2574 30.1551L40.5257 29.8806L40.4363 29.8348L40.1232 29.4687L39.8101 29.1484L39.4522 28.8281L39.1391 28.4621L38.7813 28.1417L38.4682 27.7757L38.1551 27.4554L37.7972 27.135L37.4841 26.769L37.1263 26.4487L36.8131 26.0826L36.5 25.7623L36.1422 25.442L35.8291 25.0759L35.4712 24.7556L35.1581 24.3895L34.845 24.0692L34.4872 23.7489L34.1741 23.3828L33.8162 23.0625L33.5031 22.6964L33.19 22.3761L32.8322 22.01L32.5191 21.6897L32.1612 21.3694L31.8481 21.0033L31.4903 20.683L31.1772 20.317L30.864 19.9967L30.5062 19.6763L30.1931 19.356V19.3103L29.8353 18.99L29.5221 18.6239L29.209 18.3036L28.8512 17.9833L28.5381 17.6172L28.1802 17.2969L27.8671 16.9308L27.554 16.6105L27.1962 16.2902L26.8831 15.9241L27.2409 15.6038L27.554 15.2377L27.9119 14.9174L28.225 14.5971L28.5381 14.231L28.8959 13.9107L29.209 13.5446L29.5669 13.2243L29.88 12.904L30.1931 12.5379L30.5509 12.2176L30.864 11.8516L31.2219 11.5312L31.4455 11.3025H44.7751H55.6445L55.8682 11.5312L56.226 11.8516L56.5391 12.2176L56.8969 12.5379L57.2101 12.904L57.5232 13.2243L57.881 13.5446L58.1941 13.9107L58.552 14.231L58.8651 14.5971L59.1782 14.9174L59.536 15.2377L59.8491 15.6038L60.207 15.9241L59.8491 16.2902L59.7149 16.4275H37.7078L37.9314 16.6105L38.2445 16.9308L38.5576 17.2969L38.9155 17.6172L39.2286 17.9833L39.5864 18.3036L39.8995 18.6239L40.2126 18.99L40.5705 19.3103L40.8836 19.6763L41.2414 19.9967L41.5545 20.317L41.8676 20.683L42.2255 21.0033L42.5386 21.3694L42.8964 21.6897L43.2095 22.01L43.5227 22.3761L43.8805 22.6964L44.1936 23.0625L44.5514 23.3828L44.8646 23.7489L45.2224 24.0692L45.5355 24.3895L45.8486 24.7556L46.2065 25.0759L46.5196 25.442L46.8774 25.7623L47.1905 26.0826L47.5036 26.4487L47.8615 26.769L48.1746 27.135L48.5324 27.4554L48.7561 27.6842H64.3221L64.5458 27.4554L64.8589 27.135L65.2167 26.769L65.5299 26.4487L65.8877 26.0826L66.2008 25.7623L66.5139 25.442L66.8718 25.0759L67.1849 24.7556L67.5427 24.3895L67.8558 24.0692L67.99 23.9319L68.2137 23.7489L68.5268 23.3828L68.8399 23.0625L69.1977 22.6964L69.5108 22.3761L69.8687 22.01L70.1818 21.6897L70.4949 21.3694L70.8527 21.0033L71.1658 20.683L71.5237 20.317L71.8368 19.9967L72.1499 19.6763L72.5077 19.3103L72.8209 18.99L73.1787 18.6239L73.4918 18.3036L73.8049 17.9833L74.1628 17.6172L74.4759 17.2969L74.8337 16.9308L75.1468 16.6105L75.4599 16.2902L75.8178 15.9241Z" fill="#C49E72"/>
<path d="M11.2723 66.0298L15.1638 70.0566L11.2723 66.0298Z" fill="#131716"/>
<path d="M60.207 66.0302L55.6445 70.6976H42.3149H31.4008L26.8831 66.0302L27.3751 65.5726H49.3823L45.0882 61.1798L44.9987 61.0882L44.9093 60.9967L44.8198 60.9052L44.7304 60.8137L44.6409 60.7222L44.5514 60.6306L44.462 60.5391L44.3725 60.4476L44.2831 60.3561L44.1936 60.2646L44.1041 60.1731L44.0147 60.1273L43.9252 60.0358L43.8358 59.9443L43.7463 59.8527L43.6568 59.7612L43.5674 59.6697L43.5227 59.5782L43.4332 59.4867L43.3437 59.3952L43.2543 59.3036L43.1648 59.2121L43.0754 59.1206L42.9859 59.0291L42.8964 58.9376L42.807 58.8461L42.7175 58.7545L42.6281 58.663L42.5386 58.5715L42.4491 58.48L42.3597 58.3885L42.2702 58.2969L42.1808 58.2054L42.0913 58.1597L42.0018 58.0681L41.9124 57.9766L41.8229 57.8851L41.7335 57.7936L41.644 57.7021L41.5993 57.6106L41.5098 57.519L41.4203 57.4275L41.3309 57.336L41.2414 57.2445L41.152 57.153L41.0625 57.0614L40.973 56.9699L40.8836 56.8784L40.7941 56.7869L40.7047 56.6954L40.6152 56.6039L40.5257 56.5123L40.4363 56.4208L40.3468 56.3293L40.2574 56.2378L40.1679 56.192L40.0784 56.1005L39.989 56.009L39.8995 55.9175L39.8101 55.826L39.7206 55.7344L39.6759 55.6429L39.5864 55.5514L39.497 55.4599L39.4075 55.3684L39.318 55.2769L39.2286 55.1853L39.1391 55.0938L39.0497 55.0023L38.9602 54.9108L38.8707 54.8193L38.7813 54.7277L38.6918 54.6362L38.6024 54.5447L38.5129 54.4532L38.4234 54.3617L38.334 54.2702H22.7679L22.6784 54.3617L22.589 54.4532L22.4995 54.5447L22.4101 54.6362L22.3206 54.7277L22.2311 54.8193L22.1417 54.9108L22.0522 55.0023L21.9628 55.0938L21.8733 55.1853L21.8286 55.2769L21.7391 55.3684L21.6497 55.4599L21.5602 55.5514L21.4707 55.6429L21.3813 55.7344L21.2918 55.826L21.2024 55.9175L21.1129 56.009L21.0234 56.1005L20.934 56.192L20.8445 56.2378L20.7551 56.3293L20.6656 56.4208L20.5761 56.5123L20.4867 56.6039L20.3972 56.6954L20.3078 56.7869L20.2183 56.8784L20.1288 56.9699L20.0394 57.0614L19.9499 57.153L19.9052 57.2445L19.8157 57.336L19.7263 57.4275L19.6368 57.519L19.5473 57.6106L19.4579 57.7021L19.3684 57.7936L19.279 57.8851L19.1895 57.9766L19.1 58.0681L19.0106 58.1597L18.9211 58.2054L18.8317 58.2969L18.7422 58.3885L18.6527 58.48L18.5633 58.5715L18.4738 58.663L18.3844 58.7545L18.2949 58.8461L18.2054 58.9376L18.116 59.0291L18.0265 59.1206L17.9818 59.2121L17.8923 59.3036L17.8029 59.3952L17.7134 59.4867L17.6239 59.5782L17.5345 59.6697L17.445 59.7612L17.3556 59.8527L17.2661 59.9443L17.1766 60.0358L17.0872 60.1273L17.0425 60.1731H16.9977L16.9083 60.2646L16.8188 60.3561L16.7293 60.4476L16.6399 60.5391L16.5504 60.6306L16.461 60.7222L16.3715 60.8137L16.282 60.9052L16.1926 60.9967L16.1031 61.0882L16.0584 61.1798L11.2723 66.0302L15.1638 70.057L26.8383 81.9543L36.2764 82.0001H40.3916H47.28L60.207 81.9543L75.8178 66.0302L71.0764 61.1798L70.9869 61.0882L70.8975 60.9967L70.808 60.9052L70.7185 60.8137L70.6291 60.7222L70.5396 60.6306L70.4502 60.5391L70.3607 60.4476L70.2712 60.3561L70.1818 60.2646L70.0923 60.1731L70.0029 60.1273L69.9134 60.0358L69.8239 59.9443L69.7345 59.8527L69.645 59.7612L69.5556 59.6697L69.4661 59.5782L69.3766 59.4867L69.3319 59.3952L69.2425 59.3036L69.153 59.2121L69.0635 59.1206L68.9741 59.0291L68.8846 58.9376L68.7952 58.8461L68.7057 58.7545L68.6162 58.663L68.5268 58.5715L68.4373 58.48L68.3479 58.3885L68.2584 58.2969L68.1689 58.2054L68.0795 58.1597L67.99 58.0681L67.9005 57.9766L67.8111 57.8851L67.7216 57.7936L67.6322 57.7021L67.5427 57.6106L67.4532 57.519L67.4085 57.4275L67.3191 57.336L67.2296 57.2445L67.1401 57.153L67.0507 57.0614L66.9612 56.9699L66.8718 56.8784L66.7823 56.7869L66.6928 56.6954L66.6034 56.6039L66.5139 56.5123L66.4245 56.4208L66.335 56.3293L66.2455 56.2378L66.1561 56.192L66.0666 56.1005L65.9772 56.009L65.8877 55.9175L65.7982 55.826L65.7088 55.7344L65.6193 55.6429L65.5299 55.5514L65.4851 55.4599L65.3957 55.3684L65.3062 55.2769L65.2167 55.1853L65.1273 55.0938L65.0378 55.0023L64.9484 54.9108L64.8589 54.8193L64.7694 54.7277L64.68 54.6362L64.5905 54.5447L64.5011 54.4532L64.4116 54.3617L64.3221 54.2702L64.2774 54.2244H48.7113V54.2702L60.207 66.0302Z" fill="#C49E72"/>
<path d="M61.1013 50.9753L60.6093 50.472L60.1172 49.9686L59.6252 49.4653L59.1332 48.9619L58.6411 48.4586L58.1491 47.9552L57.6571 47.4519L57.165 46.9485L56.673 46.4452L56.4046 46.1706L56.2257 45.9876L55.7337 45.4842L55.2416 44.9809L54.7496 44.4775L54.2576 43.9742L53.7656 43.4708L53.2735 42.9675L52.9157 42.6014L52.7815 42.4641L52.2895 41.9608L51.7974 41.4574L51.3054 40.9541L50.8134 40.4507L50.3213 39.9474L49.8293 39.444L49.3373 38.9407L48.8452 38.4374L48.3532 37.934L47.8612 37.4307L47.6375 37.2019L47.4139 36.9731L46.9219 36.4697L46.4298 35.9664L45.9378 35.463L45.4458 34.9597L44.9537 34.4563L44.4617 33.953L43.9697 33.4496L43.4776 32.9463H43.5224L43.1645 33.3124L42.6725 33.8157L42.1805 34.319L41.6884 34.8224L41.1964 35.3257L40.7044 35.8291L40.2571 36.2867L39.765 36.79L39.273 37.2934L38.781 37.7967L38.2889 38.3001L37.7969 38.8034L37.3049 39.3068L36.8129 39.8101L36.3208 40.3135L35.8288 40.8168L35.4262 41.2286L35.471 41.1829L34.9789 41.6405L34.4869 42.1438L33.9949 42.6472L33.5476 43.1505L33.0555 43.6539L32.5635 44.1572L32.0715 44.6606L31.5794 45.1639L31.0874 45.6673L30.5954 46.1706L30.4165 46.3536L30.2375 46.1706L29.7455 45.6673L29.2535 45.1639L28.7614 44.6606L28.2694 44.1572L27.7774 43.6539L27.2853 43.1505L26.7933 42.6472L26.3013 42.1438L25.9882 41.6405L25.4961 41.1829L25.0041 40.6795L24.5121 40.1762L24.0201 39.6728L23.528 39.1695L23.036 38.6661L22.544 38.1628L22.4545 38.0713C22.3203 37.934 22.1861 37.7967 22.0519 37.7052C21.873 37.5222 21.6941 37.3849 21.5599 37.2019C21.381 37.0188 21.2021 36.8815 21.0231 36.6985C20.8442 36.5155 20.6206 36.3782 20.4416 36.1952C20.218 36.0121 20.0391 35.8749 19.8154 35.6918C19.5918 35.5088 19.3681 35.3715 19.1445 35.1885C18.9208 35.0054 18.6524 34.8682 18.4288 34.6851C18.1604 34.5021 17.892 34.3648 17.6237 34.1818C17.3553 33.9987 17.0422 33.8615 16.7738 33.6784C16.4607 33.4954 16.1476 33.3581 15.8344 33.1751C15.4766 32.992 15.1188 32.8548 14.7609 32.6717C14.3584 32.4887 13.9111 32.3514 13.4638 32.1684C12.927 31.9853 12.435 31.8023 11.8982 31.665C11.1825 31.482 10.4221 31.299 9.6617 31.1617C8.40926 30.9329 7.11208 30.8414 5.85964 30.8414H0L0.313111 31.1617L0.805141 31.665L1.29717 32.1684L1.7892 32.6717L2.2365 33.3124L2.72853 33.8157L3.17584 34.319L3.66787 34.8224L4.1599 35.3257L4.65193 35.8291L5.14396 36.3324L5.63599 36.8358L6.12802 37.3391L6.62005 37.8425L7.11208 38.3458L7.60411 38.8492L8.09614 39.3525L8.58818 39.8559L9.08021 40.3592L9.57224 40.8626L10.0643 41.3659L10.5563 41.8693L11.0483 42.3726L11.5404 42.876L12.0324 43.3793L12.5244 43.8827L13.0165 44.386L13.5085 44.8894L14.0005 45.3927L14.4925 45.8961L14.9846 46.3994L15.4766 46.9028L15.9686 47.4061L16.4607 47.9094L16.9527 48.4128L17.4447 48.9161L17.9368 49.4195L18.4288 49.9228L18.9208 50.4262L19.4129 50.9295L19.9049 51.4329L23.0807 54.7275H38.6468L41.8226 51.4786L42.3147 50.9753L42.8067 50.472L43.2987 49.9686L43.7907 49.4653L43.8802 49.3737L43.9697 49.4653L44.4617 49.9686L44.9537 50.472L45.4458 50.9753L45.9378 51.4786L49.1584 54.7733H64.7244H64.7692L61.1013 50.9753Z" fill="#E7D3B6"/>
<path d="M81.1857 31.0702C79.8885 31.0702 78.6361 31.1617 77.3837 31.3905C76.6232 31.5278 75.8628 31.6651 75.1472 31.8939C74.6104 32.0311 74.0736 32.2142 73.5816 32.3972C73.1343 32.5345 72.7317 32.7175 72.2844 32.9006C71.9266 33.0378 71.5688 33.2209 71.1662 33.4039C70.8531 33.5412 70.54 33.7242 70.2268 33.9073C69.9137 34.0445 69.6454 34.2276 69.377 34.4106C69.1086 34.5479 68.8402 34.7309 68.5718 34.914C68.3482 35.0512 68.0798 35.2343 67.8562 35.4173C67.6325 35.6003 67.4089 35.7376 67.1852 35.9206C66.9616 36.0579 66.7826 36.241 66.559 36.424C66.3801 36.5613 66.1564 36.7443 65.9775 36.9273C65.7986 37.1104 65.6197 37.2477 65.4407 37.4307C65.2618 37.568 65.0829 37.751 64.9487 37.934C64.8145 38.0713 64.6803 38.1628 64.5461 38.3001L64.4567 38.3916L63.9646 38.895L63.4726 39.3983L62.9806 39.9017L62.4885 40.405L61.9965 40.9084L61.5045 41.4117L61.0125 41.9151L60.5204 42.4184L60.0284 42.9218L59.5364 43.4251L59.4469 43.5166L59.8495 43.9285L60.3415 44.4318L60.8335 44.9352L61.3256 45.4385L61.8176 45.9419L62.3096 46.4452L62.8017 46.9486L63.2937 47.4519L63.7857 47.9553L64.2777 48.4586L64.7698 48.9619L65.2618 49.4653L65.7538 49.9686L66.2459 50.472L66.7379 50.9753L67.2299 51.4787L67.4536 51.7075L67.6772 51.4787L68.1693 50.9753L68.6613 50.472L69.1533 49.9686L69.6454 49.4653L70.1374 48.9619L70.6294 48.4586L71.1214 47.9553L71.6135 47.4519L72.1055 46.9486L72.5975 46.4452L73.0896 45.9419L73.5816 45.4385L74.0736 44.9352L74.5657 44.4318L75.0577 43.9285L75.5497 43.4251L76.0418 42.9218L76.5338 42.4184L77.0258 41.9151L77.5178 41.4117L78.0099 40.9084L78.5019 40.405L78.9939 39.9017L79.486 39.3983L79.978 38.895L80.47 38.3916L80.9621 37.8883L81.4541 37.3849L81.9461 36.8816L82.4382 36.3782L82.9302 35.8749L83.4222 35.3715L83.9142 34.8682L84.4063 34.3648L84.8983 33.8615L85.3903 33.3581L85.8824 32.8548L86.3744 32.3515L86.8664 31.8481L87.3585 31.3448L87.6716 31.0244H81.1857V31.0702Z" fill="#E7D3B6"/>
</g>
<defs>
<clipPath id="clip0">
<rect width="87" height="82" fill="white"/>
</clipPath>
</defs>
</svg>
