<svg width="158" height="34" viewBox="0 0 158 34" fill="none" xmlns="http://www.w3.org/2000/svg">
<g clip-path="url(#clip0_2_6588)">
<path d="M40.9351 14.0144L31.7052 1.47116C31.0176 0.533654 29.957 0 28.79 0C27.6229 0 26.5624 0.533654 25.8748 1.47116L24.8676 2.83653L23.8652 1.47116C23.1775 0.533654 22.117 0 20.9499 0C19.7829 0 18.7224 0.533654 18.0347 1.47116L17.0421 2.81731L16.0493 1.47116C15.3616 0.533654 14.2964 0 13.1342 0C11.9719 0 10.9066 0.533654 10.2189 1.47116L0.984239 14.0144C-0.32808 15.7981 -0.32808 18.1971 0.984239 19.9856L10.2189 32.5289C10.9066 33.4616 11.9671 34 13.1342 34C14.3012 34 15.3616 33.4664 16.0493 32.5289L20.9597 25.851L21.9717 27.2308C21.9766 27.2355 21.9814 27.2404 21.9814 27.2452L25.87 32.5289C26.5576 33.4616 27.6181 34 28.7852 34C29.9522 34 31.0127 33.4664 31.7003 32.5289L40.9302 19.9856C42.2522 18.1971 42.2522 15.7981 40.9351 14.0144ZM19.5069 2.53846C19.8459 2.07692 20.3737 1.8125 20.9499 1.8125C21.5262 1.8125 22.0541 2.07692 22.393 2.53846L23.7392 4.37019L20.9597 8.14424L18.1703 4.35096L19.5069 2.53846ZM14.5772 31.4567C14.2382 31.9183 13.7104 32.1827 13.1342 32.1827C12.5579 32.1827 12.03 31.9183 11.6911 31.4567L2.46121 18.9134C1.61861 17.7692 1.61861 16.226 2.46121 15.0817L11.6911 2.53846C12.03 2.07692 12.5579 1.8125 13.1342 1.8125C13.7104 1.8125 14.2382 2.07692 14.5772 2.53846L15.9137 4.35577L8.80488 14.0144C7.49259 15.7981 7.49259 18.1971 8.80979 19.9856L9.35212 20.7116L14.1172 27.226C14.7225 28.0529 15.6232 28.5625 16.6256 28.673L14.5772 31.4567ZM18.4754 26.1635C18.1316 26.625 17.6086 26.8894 17.0323 26.8894C16.4561 26.8894 15.9283 26.625 15.5893 26.1635L10.6887 19.4615H10.6838L10.2722 18.9086C9.42957 17.7645 9.42957 16.2212 10.2722 15.0769L17.0372 5.88461L19.8265 9.67787L16.6401 14.0096C15.3278 15.7932 15.3278 18.1923 16.6401 19.9808L19.8265 24.3125L18.4754 26.1635ZM20.9597 11.2164L23.807 15.0817C24.6496 16.226 24.6496 17.7692 23.807 18.9134L20.9597 22.7788L18.1122 18.9134C17.2696 17.7692 17.2696 16.226 18.1122 15.0817L20.9597 11.2164ZM25.2791 19.9808C26.5915 18.1971 26.5915 15.7981 25.2791 14.0096L22.0928 9.67787L24.8724 5.90385L31.6229 15.0817C32.4655 16.226 32.4655 17.7692 31.6181 18.9183L30.5381 20.4087L26.3349 26.1587C25.9958 26.6202 25.468 26.8846 24.8918 26.8846C24.3203 26.8846 23.8022 26.625 23.4584 26.173L22.0879 24.3125L25.2791 19.9808ZM39.4629 18.9134L30.2331 31.4567C29.8941 31.9183 29.3663 32.1827 28.79 32.1827C28.2137 32.1827 27.6859 31.9183 27.3469 31.4567L25.2985 28.673C26.3009 28.5625 27.2017 28.0481 27.807 27.2212L31.4195 22.2837L31.4243 22.2885L32.0151 21.4712L32.7076 20.524L32.7027 20.5192L33.095 19.9759C34.4073 18.1923 34.4073 15.7932 33.095 14.0048L26.0007 4.37019L27.3469 2.53846C27.6859 2.07692 28.2137 1.8125 28.79 1.8125C29.3663 1.8125 29.8941 2.07692 30.2331 2.53846L39.4629 15.0817C40.3055 16.2307 40.3055 17.7692 39.4629 18.9134Z" fill="url(#paint0_linear_2_6588)"/>
<path d="M40.9351 14.0144L31.7052 1.47116C31.0176 0.533654 29.957 0 28.79 0C27.6229 0 26.5624 0.533654 25.8748 1.47116L24.8676 2.83653L23.8652 1.47116C23.1775 0.533654 22.117 0 20.9499 0C19.7829 0 18.7224 0.533654 18.0347 1.47116L17.0421 2.81731L16.0493 1.47116C15.3616 0.533654 14.2964 0 13.1342 0C11.9719 0 10.9066 0.533654 10.2189 1.47116L0.984239 14.0144C-0.32808 15.7981 -0.32808 18.1971 0.984239 19.9856L10.2189 32.5289C10.9066 33.4616 11.9671 34 13.1342 34C14.3012 34 15.3616 33.4664 16.0493 32.5289L20.9597 25.851L21.9717 27.2308C21.9766 27.2355 21.9814 27.2404 21.9814 27.2452L25.87 32.5289C26.5576 33.4616 27.6181 34 28.7852 34C29.9522 34 31.0127 33.4664 31.7003 32.5289L40.9302 19.9856C42.2522 18.1971 42.2522 15.7981 40.9351 14.0144ZM19.5069 2.53846C19.8459 2.07692 20.3737 1.8125 20.9499 1.8125C21.5262 1.8125 22.0541 2.07692 22.393 2.53846L23.7392 4.37019L20.9597 8.14424L18.1703 4.35096L19.5069 2.53846ZM14.5772 31.4567C14.2382 31.9183 13.7104 32.1827 13.1342 32.1827C12.5579 32.1827 12.03 31.9183 11.6911 31.4567L2.46121 18.9134C1.61861 17.7692 1.61861 16.226 2.46121 15.0817L11.6911 2.53846C12.03 2.07692 12.5579 1.8125 13.1342 1.8125C13.7104 1.8125 14.2382 2.07692 14.5772 2.53846L15.9137 4.35577L8.80488 14.0144C7.49259 15.7981 7.49259 18.1971 8.80979 19.9856L9.35212 20.7116L14.1172 27.226C14.7225 28.0529 15.6232 28.5625 16.6256 28.673L14.5772 31.4567ZM18.4754 26.1635C18.1316 26.625 17.6086 26.8894 17.0323 26.8894C16.4561 26.8894 15.9283 26.625 15.5893 26.1635L10.6887 19.4615H10.6838L10.2722 18.9086C9.42957 17.7645 9.42957 16.2212 10.2722 15.0769L17.0372 5.88461L19.8265 9.67787L16.6401 14.0096C15.3278 15.7932 15.3278 18.1923 16.6401 19.9808L19.8265 24.3125L18.4754 26.1635ZM20.9597 11.2164L23.807 15.0817C24.6496 16.226 24.6496 17.7692 23.807 18.9134L20.9597 22.7788L18.1122 18.9134C17.2696 17.7692 17.2696 16.226 18.1122 15.0817L20.9597 11.2164ZM25.2791 19.9808C26.5915 18.1971 26.5915 15.7981 25.2791 14.0096L22.0928 9.67787L24.8724 5.90385L31.6229 15.0817C32.4655 16.226 32.4655 17.7692 31.6181 18.9183L30.5381 20.4087L26.3349 26.1587C25.9958 26.6202 25.468 26.8846 24.8918 26.8846C24.3203 26.8846 23.8022 26.625 23.4584 26.173L22.0879 24.3125L25.2791 19.9808ZM39.4629 18.9134L30.2331 31.4567C29.8941 31.9183 29.3663 32.1827 28.79 32.1827C28.2137 32.1827 27.6859 31.9183 27.3469 31.4567L25.2985 28.673C26.3009 28.5625 27.2017 28.0481 27.807 27.2212L31.4195 22.2837L31.4243 22.2885L32.0151 21.4712L32.7076 20.524L32.7027 20.5192L33.095 19.9759C34.4073 18.1923 34.4073 15.7932 33.095 14.0048L26.0007 4.37019L27.3469 2.53846C27.6859 2.07692 28.2137 1.8125 28.79 1.8125C29.3663 1.8125 29.8941 2.07692 30.2331 2.53846L39.4629 15.0817C40.3055 16.2307 40.3055 17.7692 39.4629 18.9134Z" fill="white"/>
<path opacity="0.4" d="M17.0279 28.6971C16.8875 28.6971 16.7519 28.6874 16.6115 28.6731L14.6309 31.3846L16.1272 32.4326L19.7494 27.4951C19.0666 28.2644 18.0788 28.6971 17.0279 28.6971Z" fill="url(#paint1_linear_2_6588)"/>
<path opacity="0.4" d="M24.8824 28.6971C25.0228 28.6971 25.1584 28.6875 25.2988 28.6731L27.2794 31.3846L25.783 32.4327L22.1802 27.5C22.863 28.2692 23.8364 28.6971 24.8824 28.6971Z" fill="url(#paint2_linear_2_6588)"/>
<path opacity="0.4" d="M19.8169 24.3027L20.9695 25.8652L19.2164 28.2018L18.064 26.6825L19.8169 24.3027Z" fill="url(#paint3_linear_2_6588)"/>
<path opacity="0.6" d="M15.9087 4.35059L17.0467 5.89866L12.9403 11.4948L11.5068 10.3698L15.9087 4.35059Z" fill="url(#paint4_linear_2_6588)"/>
<path opacity="0.6" d="M19.8359 9.67773L20.9546 11.2258L18.3396 14.8171L16.9062 13.6873L19.8359 9.67773Z" fill="url(#paint5_linear_2_6588)"/>
<path opacity="0.6" d="M23.7396 4.37012L24.8679 5.90858L22.0931 9.67785L20.9648 8.13935L23.7396 4.37012Z" fill="url(#paint6_linear_2_6588)"/>
<path d="M66.3339 11.25V21.4279H64.2225V14.9423L60.0241 21.4279H57.6658L53.4673 14.9664V21.4279H51.356V11.25H53.4673L58.8377 19.6106L64.2274 11.25H66.3339Z" fill="white"/>
<path d="M96.8323 11.25V21.4279H94.7207V17.1971H87.1912V21.4279H85.0796V11.25H87.1912V15.4519H94.7207V11.25H96.8323Z" fill="white"/>
<path d="M127.451 16.3029C127.451 19 125.848 21.4231 121.441 21.4231H115.577V11.25H121.441C126.056 11.25 127.451 13.6057 127.451 16.3029ZM125.3 16.3029C125.3 14.5769 124.424 13.0385 121.393 13.0385H117.688V19.6298H121.393C124.424 19.6298 125.3 18.0288 125.3 16.3029Z" fill="white"/>
<path d="M144.396 16.3371C144.396 13.0294 146.778 11.0391 150.88 11.0391C154.976 11.0391 157.364 13.0246 157.364 16.3371C157.364 19.6496 154.976 21.6352 150.88 21.6352C146.778 21.6352 144.396 19.6448 144.396 16.3371ZM155.15 16.3371C155.15 13.9813 153.393 12.8515 150.875 12.8515C148.356 12.8515 146.551 13.9813 146.551 16.3371C146.551 18.6977 148.356 19.8179 150.875 19.8179C153.393 19.8179 155.15 18.6977 155.15 16.3371Z" fill="white"/>
<path d="M77.1371 11.8562C76.9046 11.2985 76.3478 10.9043 75.694 10.9043C75.0403 10.9043 74.4834 11.2985 74.2509 11.8514L69.7231 21.4236H71.9991L73.0113 19.2072H78.3671L79.3843 21.4236H81.6843L77.1371 11.8562ZM73.8151 17.462L75.6892 13.361L77.5729 17.462H73.8151Z" fill="white"/>
<path d="M107.549 11.8562C107.316 11.2985 106.759 10.9043 106.105 10.9043C105.452 10.9043 104.895 11.2985 104.662 11.8514L100.135 21.4236H102.411L103.423 19.2072H108.779L109.795 21.4236H112.096L107.549 11.8562ZM104.232 17.462L106.105 13.361L107.99 17.462H104.232Z" fill="white"/>
<path d="M137.601 11.8552C137.368 11.2976 136.812 10.9033 136.158 10.9033C135.504 10.9033 134.947 11.2976 134.715 11.8505L130.187 21.4226H132.462L133.475 19.2062H138.831L139.848 21.4226H142.148L137.601 11.8552ZM134.279 17.4611L136.152 13.3601L138.037 17.4611H134.279Z" fill="white"/>
</g>
<defs>
<linearGradient id="paint0_linear_2_6588" x1="7.73733" y1="30.1275" x2="33.9945" y2="3.68013" gradientUnits="userSpaceOnUse">
<stop stop-color="#FF8506"/>
<stop offset="0.5805" stop-color="#FD3947"/>
<stop offset="1" stop-color="#FB0078"/>
</linearGradient>
<linearGradient id="paint1_linear_2_6588" x1="18.6036" y1="27.4583" x2="15.5438" y2="31.82" gradientUnits="userSpaceOnUse">
<stop stop-color="#78005B"/>
<stop offset="0.3483" stop-color="#7A025A" stop-opacity="0.6517"/>
<stop offset="0.51" stop-color="#820955" stop-opacity="0.49"/>
<stop offset="0.6332" stop-color="#8E154E" stop-opacity="0.3668"/>
<stop offset="0.7369" stop-color="#A12643" stop-opacity="0.2631"/>
<stop offset="0.8283" stop-color="#B83C36" stop-opacity="0.1717"/>
<stop offset="0.9111" stop-color="#D65725" stop-opacity="0.0889"/>
<stop offset="0.9857" stop-color="#F87711" stop-opacity="0.0143"/>
<stop offset="1" stop-color="#FF7E0D" stop-opacity="0"/>
</linearGradient>
<linearGradient id="paint2_linear_2_6588" x1="26.152" y1="31.4762" x2="23.2724" y2="27.3043" gradientUnits="userSpaceOnUse">
<stop stop-color="#FF7E0D" stop-opacity="0"/>
<stop offset="0.00928743" stop-color="#F97811" stop-opacity="0.0127"/>
<stop offset="0.0651" stop-color="#D65825" stop-opacity="0.0888"/>
<stop offset="0.1269" stop-color="#B93D36" stop-opacity="0.1729"/>
<stop offset="0.1949" stop-color="#A12643" stop-opacity="0.2657"/>
<stop offset="0.272" stop-color="#8F154E" stop-opacity="0.3707"/>
<stop offset="0.3632" stop-color="#820955" stop-opacity="0.495"/>
<stop offset="0.4822" stop-color="#7A025A" stop-opacity="0.6573"/>
<stop offset="0.7336" stop-color="#78005B"/>
</linearGradient>
<linearGradient id="paint3_linear_2_6588" x1="18.7043" y1="27.4361" x2="21.0329" y2="24.0626" gradientUnits="userSpaceOnUse">
<stop stop-color="#FF7E0D" stop-opacity="0"/>
<stop offset="0.0133" stop-color="#F97910" stop-opacity="0.0192"/>
<stop offset="0.1144" stop-color="#D25427" stop-opacity="0.1659"/>
<stop offset="0.219" stop-color="#B1363A" stop-opacity="0.3175"/>
<stop offset="0.3263" stop-color="#981E48" stop-opacity="0.4731"/>
<stop offset="0.4375" stop-color="#860D53" stop-opacity="0.6344"/>
<stop offset="0.5551" stop-color="#7B0359" stop-opacity="0.8048"/>
<stop offset="0.6897" stop-color="#78005B"/>
</linearGradient>
<linearGradient id="paint4_linear_2_6588" x1="11.7349" y1="10.5951" x2="16.9294" y2="5.36289" gradientUnits="userSpaceOnUse">
<stop stop-color="#FF4630" stop-opacity="0"/>
<stop offset="0.5722" stop-color="#B31F48" stop-opacity="0.5722"/>
<stop offset="1" stop-color="#78005B"/>
</linearGradient>
<linearGradient id="paint5_linear_2_6588" x1="17.2687" y1="14.0509" x2="20.7287" y2="10.5658" gradientUnits="userSpaceOnUse">
<stop stop-color="#FF4630" stop-opacity="0"/>
<stop offset="0.5722" stop-color="#B31F48" stop-opacity="0.5722"/>
<stop offset="1" stop-color="#78005B"/>
</linearGradient>
<linearGradient id="paint6_linear_2_6588" x1="21.1695" y1="8.75799" x2="24.641" y2="5.26136" gradientUnits="userSpaceOnUse">
<stop stop-color="#FF4630" stop-opacity="0"/>
<stop offset="0.5722" stop-color="#B31F48" stop-opacity="0.5722"/>
<stop offset="1" stop-color="#78005B"/>
</linearGradient>
<clipPath id="clip0_2_6588">
<rect width="158" height="34" fill="white"/>
</clipPath>
</defs>
</svg>
