<svg width="398" height="425" viewBox="0 0 398 425" fill="none" xmlns="http://www.w3.org/2000/svg">
    <mask id="mask0" mask-type="alpha" maskUnits="userSpaceOnUse" x="86" y="43" width="67" height="84">
        <path d="M87.6112 56.3744C85.1412 53.4014 85.5412 48.9764 88.6042 46.6184C89.6192 45.8364 90.6422 45.0654 91.6722 44.3044C94.7822 42.0084 99.1462 42.8414 101.326 46.0344L151.663 119.781C152.966 121.691 152.468 124.288 150.622 125.68C148.776 127.071 146.142 126.836 144.665 125.057L87.6112 56.3744Z" fill="white"/>
    </mask>
    <g mask="url(#mask0)">
        <path d="M87.6112 56.3744C85.1412 53.4014 85.5412 48.9764 88.6042 46.6184C89.6192 45.8364 90.6422 45.0654 91.6722 44.3044C94.7822 42.0084 99.1462 42.8414 101.326 46.0344L151.663 119.781C152.966 121.691 152.468 124.288 150.622 125.68C148.776 127.071 146.142 126.836 144.665 125.057L87.6112 56.3744Z" fill="#D4D3FF" stroke="#272530" stroke-width="6"/>
    </g>
    <mask id="mask1" mask-type="alpha" maskUnits="userSpaceOnUse" x="102" y="24" width="67" height="99">
        <path d="M103.876 46.6273C100.48 41.5903 101.794 34.7233 107.02 31.6253C110.944 29.2993 114.952 27.1153 119.034 25.0782C124.469 22.3656 130.953 24.9821 133.345 30.5663L167.67 110.688C169.377 114.673 167.508 119.256 163.701 121.331C159.894 123.406 155.03 122.493 152.606 118.898L103.876 46.6273Z" fill="white"/>
    </mask>
    <g mask="url(#mask1)">
        <path d="M103.876 46.6273C100.48 41.5903 101.794 34.7233 107.02 31.6253C110.944 29.2993 114.952 27.1153 119.034 25.0782C124.469 22.3656 130.953 24.9821 133.345 30.5663L167.67 110.688C169.377 114.673 167.508 119.256 163.701 121.331C159.894 123.406 155.03 122.493 152.606 118.898L103.876 46.6273Z" fill="#147AF1" stroke="#272530" stroke-width="10"/>
    </g>
    <mask id="mask2" mask-type="alpha" maskUnits="userSpaceOnUse" x="227" y="93" width="166" height="281">
        <path d="M350.836 94.8582C355.883 91.4762 362.746 92.8112 365.829 98.0452C379.086 120.555 387.561 145.602 390.675 171.62C394.225 201.284 390.705 231.367 380.401 259.409C370.097 287.452 353.302 312.658 331.391 332.966C312.172 350.777 289.496 364.378 264.819 372.95C259.08 374.943 252.985 371.517 251.329 365.672L228.418 284.841C226.761 278.996 230.197 272.981 235.773 270.569C244.413 266.831 252.382 261.645 259.326 255.21C268.967 246.275 276.356 235.184 280.89 222.845C285.424 210.507 286.973 197.27 285.411 184.218C284.286 174.818 281.57 165.706 277.405 157.264C274.718 151.816 275.994 145.007 281.041 141.625L350.836 94.8582Z" fill="white"/>
    </mask>
    <g mask="url(#mask2)">
        <path d="M350.836 94.8582C355.883 91.4762 362.746 92.8112 365.829 98.0452C379.086 120.555 387.561 145.602 390.675 171.62C394.225 201.284 390.705 231.367 380.401 259.409C370.097 287.452 353.302 312.658 331.391 332.966C312.172 350.777 289.496 364.378 264.819 372.95C259.08 374.943 252.985 371.517 251.329 365.672L228.418 284.841C226.761 278.996 230.197 272.981 235.773 270.569C244.413 266.831 252.382 261.645 259.326 255.21C268.967 246.275 276.356 235.184 280.89 222.845C285.424 210.507 286.973 197.27 285.411 184.218C284.286 174.818 281.57 165.706 277.405 157.264C274.718 151.816 275.994 145.007 281.041 141.625L350.836 94.8582Z" fill="#5D09E1" stroke="#272530" stroke-width="10"/>
    </g>
    <mask id="mask3" mask-type="alpha" maskUnits="userSpaceOnUse" x="39" y="237" width="217" height="147">
        <path d="M254.772 364.625C256.557 370.432 253.301 376.619 247.4 378.064C208.365 387.619 167.192 384.523 129.893 369.06C92.5933 353.597 61.3063 326.655 40.4803 292.284C37.3323 287.088 39.4093 280.412 44.7793 277.571L119.041 238.279C124.41 235.438 131.011 237.542 134.534 242.491C143.554 255.16 155.99 265.115 170.492 271.127C184.993 277.138 200.825 278.902 216.163 276.33C222.154 275.326 228.307 278.509 230.092 284.316L254.772 364.625Z" fill="white"/>
    </mask>
    <g mask="url(#mask3)">
        <path d="M254.773 364.625C256.558 370.432 253.302 376.619 247.401 378.064C208.366 387.619 167.193 384.523 129.894 369.06C92.5935 353.597 61.3065 326.655 40.4805 292.284C37.3325 287.088 39.4095 280.412 44.7795 277.571L119.042 238.279C124.411 235.438 131.012 237.542 134.535 242.491C143.555 255.16 155.991 265.115 170.493 271.127C184.994 277.138 200.826 278.902 216.164 276.33C222.155 275.326 228.307 278.509 230.092 284.316L254.773 364.625Z" fill="#E478FF" stroke="#272530" stroke-width="10"/>
    </g>
    <mask id="mask4" mask-type="alpha" maskUnits="userSpaceOnUse" x="13" y="54" width="132" height="229">
        <path d="M46.705 281.502C41.403 284.469 34.669 282.588 32.015 277.123C14.4602 240.972 8.82433 200.07 16.093 160.351C23.3617 120.633 43.118 84.3779 72.338 56.7869C76.755 52.6159 83.719 53.2419 87.626 57.8939L141.663 122.225C145.571 126.877 144.903 133.772 140.806 138.258C130.318 149.742 123.203 163.994 120.377 179.436C117.551 194.878 119.158 210.726 124.899 225.18C127.141 230.826 125.324 237.51 120.022 240.477L46.705 281.502Z" fill="white"/>
    </mask>
    <g mask="url(#mask4)">
        <path d="M46.705 281.502C41.403 284.469 34.669 282.588 32.015 277.123C14.4602 240.972 8.82433 200.07 16.093 160.351C23.3617 120.633 43.118 84.3779 72.338 56.7869C76.755 52.6159 83.719 53.2419 87.626 57.8939L141.663 122.225C145.571 126.877 144.903 133.772 140.806 138.258C130.318 149.742 123.203 163.994 120.377 179.436C117.551 194.878 119.158 210.726 124.899 225.18C127.141 230.826 125.324 237.51 120.022 240.477L46.705 281.502Z" fill="#57D7FF" stroke="#272530" stroke-width="10"/>
    </g>
    <mask id="mask5" mask-type="alpha" maskUnits="userSpaceOnUse" x="223" y="12" width="102" height="116">
        <path d="M243.339 20.331C244.717 14.4142 250.642 10.7029 256.469 12.4219C279.931 19.3431 301.831 30.7468 320.954 46.0008C325.703 49.7888 326.06 56.7718 322.003 61.2928L265.887 123.82C261.829 128.341 254.909 128.647 249.892 125.22C244.417 121.48 238.516 118.406 232.312 116.065C226.628 113.92 222.909 108.075 224.287 102.158L243.339 20.331Z" fill="white"/>
    </mask>
    <g mask="url(#mask5)">
        <path d="M243.34 20.331C244.718 14.4142 250.643 10.7029 256.47 12.4219C279.932 19.3431 301.832 30.7468 320.955 46.0008C325.704 49.7888 326.061 56.7718 322.004 61.2928L265.888 123.82C261.83 128.341 254.91 128.647 249.893 125.22C244.418 121.48 238.516 118.406 232.312 116.065C226.628 113.92 222.91 108.075 224.288 102.158L243.34 20.331Z" fill="#A973FF" stroke="#272530" stroke-width="10"/>
        <path d="M260 78.2398C259.187 78.2398 258.46 78.1398 257.82 77.9398C257.193 77.7265 256.66 77.4398 256.22 77.0798C255.793 76.7198 255.467 76.2931 255.24 75.7998C255.013 75.3065 254.9 74.7665 254.9 74.1798C254.9 73.2731 255.147 72.5398 255.64 71.9798C256.147 71.4065 256.82 71.0065 257.66 70.7798V70.6198C256.967 70.3665 256.4 69.9731 255.96 69.4398C255.533 68.9065 255.32 68.2331 255.32 67.4198C255.32 66.8865 255.42 66.3998 255.62 65.9598C255.833 65.5198 256.14 65.1398 256.54 64.8198C256.94 64.4998 257.427 64.2531 258 64.0798C258.587 63.8931 259.253 63.7998 260 63.7998C260.747 63.7998 261.407 63.8931 261.98 64.0798C262.567 64.2531 263.06 64.4998 263.46 64.8198C263.86 65.1398 264.16 65.5198 264.36 65.9598C264.573 66.3998 264.68 66.8865 264.68 67.4198C264.68 68.2331 264.46 68.9065 264.02 69.4398C263.593 69.9731 263.033 70.3665 262.34 70.6198V70.7798C263.18 71.0065 263.847 71.4065 264.34 71.9798C264.847 72.5398 265.1 73.2731 265.1 74.1798C265.1 74.7665 264.987 75.3065 264.76 75.7998C264.533 76.2931 264.2 76.7198 263.76 77.0798C263.333 77.4398 262.8 77.7265 262.16 77.9398C261.533 78.1398 260.813 78.2398 260 78.2398ZM260 76.1798C260.76 76.1798 261.34 76.0065 261.74 75.6598C262.153 75.3131 262.36 74.8265 262.36 74.1998V73.7798C262.36 73.1531 262.153 72.6665 261.74 72.3198C261.34 71.9731 260.76 71.7998 260 71.7998C259.24 71.7998 258.653 71.9731 258.24 72.3198C257.84 72.6665 257.64 73.1531 257.64 73.7798V74.1998C257.64 74.8265 257.84 75.3131 258.24 75.6598C258.653 76.0065 259.24 76.1798 260 76.1798ZM260 69.8398C260.707 69.8398 261.247 69.6798 261.62 69.3598C261.993 69.0398 262.18 68.5865 262.18 67.9998V67.6798C262.18 67.1065 261.993 66.6598 261.62 66.3398C261.247 66.0198 260.707 65.8598 260 65.8598C259.293 65.8598 258.753 66.0198 258.38 66.3398C258.007 66.6598 257.82 67.1065 257.82 67.6798V67.9998C257.82 68.5865 258.007 69.0398 258.38 69.3598C258.753 69.6798 259.293 69.8398 260 69.8398Z" fill="white"/>
        <path d="M269.392 77.9998L279.072 64.0398H281.392L271.712 77.9998H269.392ZM270.352 71.7198C269.219 71.7198 268.352 71.3865 267.752 70.7198C267.165 70.0398 266.872 69.0531 266.872 67.7598C266.872 66.4665 267.165 65.4865 267.752 64.8198C268.352 64.1398 269.219 63.7998 270.352 63.7998C271.485 63.7998 272.345 64.1398 272.932 64.8198C273.519 65.4865 273.812 66.4665 273.812 67.7598C273.812 69.0531 273.519 70.0398 272.932 70.7198C272.345 71.3865 271.485 71.7198 270.352 71.7198ZM270.352 70.1998C271.179 70.1998 271.592 69.5665 271.592 68.2998V67.2198C271.592 65.9531 271.179 65.3198 270.352 65.3198C269.525 65.3198 269.112 65.9531 269.112 67.2198V68.2998C269.112 69.5665 269.525 70.1998 270.352 70.1998ZM280.432 78.2398C279.312 78.2398 278.452 77.9065 277.852 77.2398C277.265 76.5598 276.972 75.5731 276.972 74.2798C276.972 72.9865 277.265 72.0065 277.852 71.3398C278.452 70.6598 279.312 70.3198 280.432 70.3198C281.565 70.3198 282.425 70.6598 283.012 71.3398C283.612 72.0065 283.912 72.9865 283.912 74.2798C283.912 75.5731 283.612 76.5598 283.012 77.2398C282.425 77.9065 281.565 78.2398 280.432 78.2398ZM280.432 76.7198C281.259 76.7198 281.672 76.0865 281.672 74.8198V73.7398C281.672 72.4731 281.259 71.8398 280.432 71.8398C279.605 71.8398 279.192 72.4731 279.192 73.7398V74.8198C279.192 76.0865 279.605 76.7198 280.432 76.7198Z" fill="white"/>
    </g>
    <mask id="mask6" mask-type="alpha" maskUnits="userSpaceOnUse" x="261" y="53" width="99" height="93">
        <path d="M317.266 56.9367C321.149 52.2647 328.109 51.6027 332.548 55.7507C341.682 64.2867 349.948 73.7067 357.225 83.8717C360.761 88.8117 359.2 95.6267 354.063 98.8697L283.022 143.723C277.885 146.967 271.143 145.374 267.252 140.709C266.362 139.642 265.445 138.597 264.503 137.576C260.383 133.111 259.679 126.22 263.563 121.548L317.266 56.9367Z" fill="white"/>
    </mask>
    <g mask="url(#mask6)">
        <path d="M317.266 56.9367C321.149 52.2647 328.109 51.6027 332.548 55.7507C341.682 64.2867 349.948 73.7067 357.225 83.8717C360.761 88.8117 359.2 95.6267 354.063 98.8697L283.022 143.723C277.885 146.967 271.143 145.374 267.252 140.709C266.362 139.642 265.445 138.597 264.503 137.576C260.383 133.111 259.679 126.22 263.563 121.548L317.266 56.9367Z" fill="#8479FF" stroke="#272530" stroke-width="12"/>
    </g>
    <mask id="mask7" mask-type="alpha" maskUnits="userSpaceOnUse" x="129" y="8" width="61" height="107">
        <path d="M129.942 30.9545C127.485 25.3982 129.988 18.8702 135.677 16.7402C145.525 13.0535 155.663 10.1936 165.985 8.19026C171.949 7.03286 177.494 11.2904 178.303 17.3114L189.493 100.578C190.303 106.599 186.047 112.065 180.185 113.659C179.686 113.795 179.188 113.936 178.691 114.081C172.86 115.785 166.375 113.349 163.918 107.793L129.942 30.9545Z" fill="white"/>
    </mask>
    <g mask="url(#mask7)">
        <path d="M129.942 30.9545C127.485 25.3982 129.988 18.8702 135.677 16.7402C145.525 13.0535 155.663 10.1936 165.985 8.19026C171.949 7.03286 177.493 11.2904 178.303 17.3114L189.493 100.578C190.303 106.599 186.047 112.065 180.185 113.659C179.686 113.795 179.188 113.936 178.691 114.081C172.86 115.785 166.375 113.349 163.918 107.793L129.942 30.9545Z" fill="#47FF37" stroke="#272530" stroke-width="10"/>
    </g>
    <mask id="mask8" mask-type="alpha" maskUnits="userSpaceOnUse" x="179" y="5" width="68" height="107">
        <path d="M179.103 17.6542C178.277 11.6354 182.487 6.05335 188.543 5.57865C204.973 4.29115 221.5 5.15435 237.706 8.14635C243.68 9.24935 247.285 15.2396 245.837 21.1396L225.811 102.733C224.363 108.633 218.404 112.165 212.364 111.506C209.248 111.166 206.115 111.003 202.98 111.016C196.905 111.042 191.346 106.909 190.52 100.89L179.103 17.6542Z" fill="white"/>
    </mask>
    <g mask="url(#mask8)">
        <path d="M179.103 17.6542C178.277 11.6354 182.487 6.05335 188.543 5.57865C204.973 4.29115 221.5 5.15435 237.706 8.14635C243.68 9.24935 247.285 15.2396 245.837 21.1396L225.811 102.733C224.363 108.633 218.404 112.165 212.364 111.506C209.248 111.166 206.115 111.003 202.98 111.016C196.905 111.042 191.346 106.909 190.52 100.89L179.103 17.6542Z" fill="#37FFDB" stroke="#272530" stroke-width="10"/>
    </g>
    <path d="M315.24 232.68C316.04 232.68 316.627 232.52 317 232.2C317.387 231.866 317.58 231.446 317.58 230.94V230.8C317.58 230.226 317.393 229.78 317.02 229.46C316.66 229.126 316.16 228.96 315.52 228.96C314.907 228.96 314.36 229.106 313.88 229.4C313.413 229.693 313.007 230.106 312.66 230.64L310.98 229.12C311.22 228.8 311.48 228.5 311.76 228.22C312.053 227.926 312.387 227.68 312.76 227.48C313.133 227.266 313.553 227.1 314.02 226.98C314.487 226.86 315.013 226.8 315.6 226.8C316.307 226.8 316.947 226.886 317.52 227.06C318.107 227.22 318.607 227.46 319.02 227.78C319.447 228.1 319.773 228.486 320 228.94C320.227 229.38 320.34 229.88 320.34 230.44C320.34 230.893 320.267 231.3 320.12 231.66C319.987 232.02 319.793 232.333 319.54 232.6C319.3 232.866 319.013 233.086 318.68 233.26C318.36 233.42 318.02 233.54 317.66 233.62V233.74C318.06 233.82 318.44 233.946 318.8 234.12C319.16 234.293 319.467 234.526 319.72 234.82C319.987 235.1 320.193 235.433 320.34 235.82C320.5 236.206 320.58 236.646 320.58 237.14C320.58 237.753 320.453 238.313 320.2 238.82C319.96 239.326 319.613 239.76 319.16 240.12C318.707 240.48 318.167 240.76 317.54 240.96C316.913 241.146 316.213 241.24 315.44 241.24C314.76 241.24 314.16 241.166 313.64 241.02C313.12 240.886 312.66 240.7 312.26 240.46C311.873 240.22 311.533 239.946 311.24 239.64C310.947 239.32 310.693 238.986 310.48 238.64L312.42 237.16C312.58 237.44 312.753 237.7 312.94 237.94C313.127 238.166 313.34 238.366 313.58 238.54C313.82 238.713 314.093 238.846 314.4 238.94C314.707 239.033 315.053 239.08 315.44 239.08C316.213 239.08 316.807 238.893 317.22 238.52C317.633 238.146 317.84 237.633 317.84 236.98V236.84C317.84 236.2 317.613 235.713 317.16 235.38C316.72 235.046 316.08 234.88 315.24 234.88H313.86V232.68H315.24Z" fill="white"/>
    <path d="M327.792 241.24C326.899 241.24 326.126 241.08 325.472 240.76C324.819 240.426 324.279 239.953 323.852 239.34C323.426 238.726 323.106 237.973 322.892 237.08C322.692 236.186 322.592 235.166 322.592 234.02C322.592 232.886 322.692 231.873 322.892 230.98C323.106 230.073 323.426 229.313 323.852 228.7C324.279 228.086 324.819 227.62 325.472 227.3C326.126 226.966 326.899 226.8 327.792 226.8C329.566 226.8 330.872 227.433 331.712 228.7C332.566 229.966 332.992 231.74 332.992 234.02C332.992 236.3 332.566 238.073 331.712 239.34C330.872 240.606 329.566 241.24 327.792 241.24ZM327.792 239.02C328.686 239.02 329.306 238.686 329.652 238.02C330.012 237.34 330.192 236.426 330.192 235.28V232.76C330.192 231.613 330.012 230.706 329.652 230.04C329.306 229.36 328.686 229.02 327.792 229.02C326.899 229.02 326.272 229.36 325.912 230.04C325.566 230.706 325.392 231.613 325.392 232.76V235.28C325.392 236.426 325.566 237.34 325.912 238.02C326.272 238.686 326.899 239.02 327.792 239.02Z" fill="white"/>
    <path d="M337.184 241L346.864 227.04H349.184L339.504 241H337.184ZM338.144 234.72C337.011 234.72 336.144 234.386 335.544 233.72C334.958 233.04 334.664 232.053 334.664 230.76C334.664 229.466 334.958 228.486 335.544 227.82C336.144 227.14 337.011 226.8 338.144 226.8C339.278 226.8 340.138 227.14 340.724 227.82C341.311 228.486 341.604 229.466 341.604 230.76C341.604 232.053 341.311 233.04 340.724 233.72C340.138 234.386 339.278 234.72 338.144 234.72ZM338.144 233.2C338.971 233.2 339.384 232.566 339.384 231.3V230.22C339.384 228.953 338.971 228.32 338.144 228.32C337.318 228.32 336.904 228.953 336.904 230.22V231.3C336.904 232.566 337.318 233.2 338.144 233.2ZM348.224 241.24C347.104 241.24 346.244 240.906 345.644 240.24C345.058 239.56 344.764 238.573 344.764 237.28C344.764 235.986 345.058 235.006 345.644 234.34C346.244 233.66 347.104 233.32 348.224 233.32C349.358 233.32 350.218 233.66 350.804 234.34C351.404 235.006 351.704 235.986 351.704 237.28C351.704 238.573 351.404 239.56 350.804 240.24C350.218 240.906 349.358 241.24 348.224 241.24ZM348.224 239.72C349.051 239.72 349.464 239.086 349.464 237.82V236.74C349.464 235.473 349.051 234.84 348.224 234.84C347.398 234.84 346.984 235.473 346.984 236.74V237.82C346.984 239.086 347.398 239.72 348.224 239.72Z" fill="white"/>
    <path d="M135.92 323H126.24V320.56L130.62 316.72C131.367 316.066 131.913 315.48 132.26 314.96C132.607 314.426 132.78 313.853 132.78 313.24V312.98C132.78 312.366 132.58 311.9 132.18 311.58C131.78 311.246 131.293 311.08 130.72 311.08C130 311.08 129.453 311.286 129.08 311.7C128.707 312.1 128.44 312.586 128.28 313.16L126 312.28C126.147 311.813 126.353 311.373 126.62 310.96C126.887 310.533 127.22 310.16 127.62 309.84C128.033 309.52 128.513 309.266 129.06 309.08C129.607 308.893 130.233 308.8 130.94 308.8C131.673 308.8 132.327 308.906 132.9 309.12C133.473 309.32 133.953 309.606 134.34 309.98C134.74 310.353 135.04 310.793 135.24 311.3C135.453 311.806 135.56 312.36 135.56 312.96C135.56 313.546 135.467 314.08 135.28 314.56C135.093 315.04 134.84 315.5 134.52 315.94C134.2 316.366 133.827 316.78 133.4 317.18C132.973 317.566 132.52 317.96 132.04 318.36L129.1 320.78H135.92V323Z" fill="white"/>
    <path d="M147.712 323H138.032V320.56L142.412 316.72C143.159 316.066 143.706 315.48 144.052 314.96C144.399 314.426 144.572 313.853 144.572 313.24V312.98C144.572 312.366 144.372 311.9 143.972 311.58C143.572 311.246 143.086 311.08 142.512 311.08C141.792 311.08 141.246 311.286 140.872 311.7C140.499 312.1 140.232 312.586 140.072 313.16L137.792 312.28C137.939 311.813 138.146 311.373 138.412 310.96C138.679 310.533 139.012 310.16 139.412 309.84C139.826 309.52 140.306 309.266 140.852 309.08C141.399 308.893 142.026 308.8 142.732 308.8C143.466 308.8 144.119 308.906 144.692 309.12C145.266 309.32 145.746 309.606 146.132 309.98C146.532 310.353 146.832 310.793 147.032 311.3C147.246 311.806 147.352 312.36 147.352 312.96C147.352 313.546 147.259 314.08 147.072 314.56C146.886 315.04 146.632 315.5 146.312 315.94C145.992 316.366 145.619 316.78 145.192 317.18C144.766 317.566 144.312 317.96 143.832 318.36L140.892 320.78H147.712V323Z" fill="white"/>
    <path d="M152.184 323L161.864 309.04H164.184L154.504 323H152.184ZM153.144 316.72C152.011 316.72 151.144 316.386 150.544 315.72C149.958 315.04 149.664 314.053 149.664 312.76C149.664 311.466 149.958 310.486 150.544 309.82C151.144 309.14 152.011 308.8 153.144 308.8C154.278 308.8 155.138 309.14 155.724 309.82C156.311 310.486 156.604 311.466 156.604 312.76C156.604 314.053 156.311 315.04 155.724 315.72C155.138 316.386 154.278 316.72 153.144 316.72ZM153.144 315.2C153.971 315.2 154.384 314.566 154.384 313.3V312.22C154.384 310.953 153.971 310.32 153.144 310.32C152.318 310.32 151.904 310.953 151.904 312.22V313.3C151.904 314.566 152.318 315.2 153.144 315.2ZM163.224 323.24C162.104 323.24 161.244 322.906 160.644 322.24C160.058 321.56 159.764 320.573 159.764 319.28C159.764 317.986 160.058 317.006 160.644 316.34C161.244 315.66 162.104 315.32 163.224 315.32C164.358 315.32 165.218 315.66 165.804 316.34C166.404 317.006 166.704 317.986 166.704 319.28C166.704 320.573 166.404 321.56 165.804 322.24C165.218 322.906 164.358 323.24 163.224 323.24ZM163.224 321.72C164.051 321.72 164.464 321.086 164.464 319.82V318.74C164.464 317.473 164.051 316.84 163.224 316.84C162.398 316.84 161.984 317.473 161.984 318.74V319.82C161.984 321.086 162.398 321.72 163.224 321.72Z" fill="white"/>
    <path d="M59.92 176H50.24V173.56L54.62 169.72C55.3667 169.066 55.9133 168.48 56.26 167.96C56.6067 167.426 56.78 166.853 56.78 166.24V165.98C56.78 165.366 56.58 164.9 56.18 164.58C55.78 164.246 55.2933 164.08 54.72 164.08C54 164.08 53.4533 164.286 53.08 164.7C52.7067 165.1 52.44 165.586 52.28 166.16L50 165.28C50.1467 164.813 50.3533 164.373 50.62 163.96C50.8867 163.533 51.22 163.16 51.62 162.84C52.0333 162.52 52.5133 162.266 53.06 162.08C53.6067 161.893 54.2333 161.8 54.94 161.8C55.6733 161.8 56.3267 161.906 56.9 162.12C57.4733 162.32 57.9533 162.606 58.34 162.98C58.74 163.353 59.04 163.793 59.24 164.3C59.4533 164.806 59.56 165.36 59.56 165.96C59.56 166.546 59.4667 167.08 59.28 167.56C59.0933 168.04 58.84 168.5 58.52 168.94C58.2 169.366 57.8267 169.78 57.4 170.18C56.9733 170.566 56.52 170.96 56.04 171.36L53.1 173.78H59.92V176Z" fill="white"/>
    <path d="M66.7922 176.24C65.8989 176.24 65.1255 176.08 64.4722 175.76C63.8189 175.426 63.2789 174.953 62.8522 174.34C62.4255 173.726 62.1055 172.973 61.8922 172.08C61.6922 171.186 61.5922 170.166 61.5922 169.02C61.5922 167.886 61.6922 166.873 61.8922 165.98C62.1055 165.073 62.4255 164.313 62.8522 163.7C63.2789 163.086 63.8189 162.62 64.4722 162.3C65.1255 161.966 65.8989 161.8 66.7922 161.8C68.5655 161.8 69.8722 162.433 70.7122 163.7C71.5655 164.966 71.9922 166.74 71.9922 169.02C71.9922 171.3 71.5655 173.073 70.7122 174.34C69.8722 175.606 68.5655 176.24 66.7922 176.24ZM66.7922 174.02C67.6855 174.02 68.3055 173.686 68.6522 173.02C69.0122 172.34 69.1922 171.426 69.1922 170.28V167.76C69.1922 166.613 69.0122 165.706 68.6522 165.04C68.3055 164.36 67.6855 164.02 66.7922 164.02C65.8989 164.02 65.2722 164.36 64.9122 165.04C64.5655 165.706 64.3922 166.613 64.3922 167.76V170.28C64.3922 171.426 64.5655 172.34 64.9122 173.02C65.2722 173.686 65.8989 174.02 66.7922 174.02Z" fill="white"/>
    <path d="M76.1844 176L85.8644 162.04H88.1844L78.5044 176H76.1844ZM77.1444 169.72C76.011 169.72 75.1444 169.386 74.5444 168.72C73.9577 168.04 73.6644 167.053 73.6644 165.76C73.6644 164.466 73.9577 163.486 74.5444 162.82C75.1444 162.14 76.011 161.8 77.1444 161.8C78.2777 161.8 79.1377 162.14 79.7244 162.82C80.311 163.486 80.6044 164.466 80.6044 165.76C80.6044 167.053 80.311 168.04 79.7244 168.72C79.1377 169.386 78.2777 169.72 77.1444 169.72ZM77.1444 168.2C77.971 168.2 78.3844 167.566 78.3844 166.3V165.22C78.3844 163.953 77.971 163.32 77.1444 163.32C76.3177 163.32 75.9044 163.953 75.9044 165.22V166.3C75.9044 167.566 76.3177 168.2 77.1444 168.2ZM87.2244 176.24C86.1044 176.24 85.2444 175.906 84.6444 175.24C84.0577 174.56 83.7644 173.573 83.7644 172.28C83.7644 170.986 84.0577 170.006 84.6444 169.34C85.2444 168.66 86.1044 168.32 87.2244 168.32C88.3577 168.32 89.2177 168.66 89.8044 169.34C90.4044 170.006 90.7044 170.986 90.7044 172.28C90.7044 173.573 90.4044 174.56 89.8044 175.24C89.2177 175.906 88.3577 176.24 87.2244 176.24ZM87.2244 174.72C88.051 174.72 88.4644 174.086 88.4644 172.82V171.74C88.4644 170.473 88.051 169.84 87.2244 169.84C86.3977 169.84 85.9844 170.473 85.9844 171.74V172.82C85.9844 174.086 86.3977 174.72 87.2244 174.72Z" fill="white"/>
    <path d="M202.5 285C252.482 285 293 244.482 293 194.5C293 144.518 252.482 104 202.5 104C152.518 104 112 144.518 112 194.5C112 244.482 152.518 285 202.5 285Z" fill="#615C69" stroke="#27272E" stroke-width="7" stroke-miterlimit="10"/>
    <path d="M175.872 205.72H160.384V201.816L167.392 195.672C168.587 194.627 169.461 193.688 170.016 192.856C170.571 192.003 170.848 191.085 170.848 190.104V189.688C170.848 188.707 170.528 187.96 169.888 187.448C169.248 186.915 168.469 186.648 167.552 186.648C166.4 186.648 165.525 186.979 164.928 187.64C164.331 188.28 163.904 189.059 163.648 189.976L160 188.568C160.235 187.821 160.565 187.117 160.992 186.456C161.419 185.773 161.952 185.176 162.592 184.664C163.253 184.152 164.021 183.747 164.896 183.448C165.771 183.149 166.773 183 167.904 183C169.077 183 170.123 183.171 171.04 183.512C171.957 183.832 172.725 184.291 173.344 184.888C173.984 185.485 174.464 186.189 174.784 187C175.125 187.811 175.296 188.696 175.296 189.656C175.296 190.595 175.147 191.448 174.848 192.216C174.549 192.984 174.144 193.72 173.632 194.424C173.12 195.107 172.523 195.768 171.84 196.408C171.157 197.027 170.432 197.656 169.664 198.296L164.96 202.168H175.872V205.72Z" fill="white"/>
    <path d="M186.868 206.104C185.438 206.104 184.201 205.848 183.156 205.336C182.11 204.803 181.246 204.045 180.563 203.064C179.881 202.083 179.369 200.877 179.028 199.448C178.708 198.019 178.548 196.387 178.548 194.552C178.548 192.739 178.708 191.117 179.028 189.688C179.369 188.237 179.881 187.021 180.563 186.04C181.246 185.059 182.11 184.312 183.156 183.8C184.201 183.267 185.438 183 186.868 183C189.705 183 191.796 184.013 193.14 186.04C194.505 188.067 195.188 190.904 195.188 194.552C195.188 198.2 194.505 201.037 193.14 203.064C191.796 205.091 189.705 206.104 186.868 206.104ZM186.868 202.552C188.297 202.552 189.289 202.019 189.844 200.952C190.42 199.864 190.708 198.403 190.708 196.568V192.536C190.708 190.701 190.42 189.251 189.844 188.184C189.289 187.096 188.297 186.552 186.868 186.552C185.438 186.552 184.436 187.096 183.86 188.184C183.305 189.251 183.028 190.701 183.028 192.536V196.568C183.028 198.403 183.305 199.864 183.86 200.952C184.436 202.019 185.438 202.552 186.868 202.552Z" fill="white"/>
    <path d="M205.735 206.104C204.306 206.104 203.068 205.848 202.023 205.336C200.978 204.803 200.114 204.045 199.431 203.064C198.748 202.083 198.236 200.877 197.895 199.448C197.575 198.019 197.415 196.387 197.415 194.552C197.415 192.739 197.575 191.117 197.895 189.688C198.236 188.237 198.748 187.021 199.431 186.04C200.114 185.059 200.978 184.312 202.023 183.8C203.068 183.267 204.306 183 205.735 183C208.572 183 210.663 184.013 212.007 186.04C213.372 188.067 214.055 190.904 214.055 194.552C214.055 198.2 213.372 201.037 212.007 203.064C210.663 205.091 208.572 206.104 205.735 206.104ZM205.735 202.552C207.164 202.552 208.156 202.019 208.711 200.952C209.287 199.864 209.575 198.403 209.575 196.568V192.536C209.575 190.701 209.287 189.251 208.711 188.184C208.156 187.096 207.164 186.552 205.735 186.552C204.306 186.552 203.303 187.096 202.727 188.184C202.172 189.251 201.895 190.701 201.895 192.536V196.568C201.895 198.403 202.172 199.864 202.727 200.952C203.303 202.019 204.306 202.552 205.735 202.552Z" fill="white"/>
    <path d="M241.733 189.688H241.605L239.877 193.24L235.301 201.688L230.725 193.24L228.997 189.688H228.869V205.72H224.869V183.384H229.637L235.365 194.296H235.493L241.157 183.384H245.733V205.72H241.733V189.688Z" fill="white"/>
</svg>
