<svg width="322" height="322" viewBox="0 0 322 322" fill="none" xmlns="http://www.w3.org/2000/svg">
<g clip-path="url(#clip0)">
<path d="M139.185 48.0327L133.415 18.108C132.213 11.8586 136.54 5.72948 142.911 5.0084C145.074 4.76804 147.238 4.52768 149.401 4.4075C155.771 3.92678 161.18 9.09451 161.18 15.464V45.8695C161.06 59.3296 141.709 61.1323 139.185 48.0327Z" fill="#09CE95" stroke="white" stroke-width="7" stroke-miterlimit="10"/>
<path d="M127.286 99.7092L90.6272 33.6103C87.5022 28.0821 89.7858 20.9915 95.5552 18.2273C103.488 14.5018 111.301 11.7376 119.714 9.45422C125.844 7.7717 132.094 11.7376 133.416 17.987L147.84 92.0177C150.123 104.516 133.296 110.646 127.286 99.7092Z" fill="#58AE00" stroke="white" stroke-width="7" stroke-miterlimit="10"/>
<path d="M146.156 163.646L18.5101 188.403C12.1399 189.605 6.13015 185.158 5.40899 178.788C-1.80266 119.059 24.5198 62.5746 74.8812 29.7655C80.2899 26.2803 87.5016 27.9628 90.6266 33.6113L153.608 147.301C157.334 153.911 153.488 162.204 146.156 163.646Z" fill="#FFC925" stroke="white" stroke-width="7" stroke-miterlimit="10"/>
<path d="M161.06 174.101V305.938C161.06 312.428 155.531 317.475 149.161 316.995C82.3333 312.188 27.4046 266.88 9.85624 202.223C8.17352 195.974 12.1399 189.724 18.39 188.402L147.839 163.285C154.69 161.963 161.06 167.131 161.06 174.101Z" fill="#074223" stroke="white" stroke-width="7" stroke-miterlimit="10"/>
<path d="M175.604 165.449L299.284 205.589C305.414 207.632 308.539 214.362 306.135 220.371C283.539 276.134 233.177 312.789 173.08 316.995C166.71 317.476 161.181 312.429 161.181 305.939V175.904C161.061 168.453 168.393 163.045 175.604 165.449Z" fill="#006450" stroke="white" stroke-width="7" stroke-miterlimit="10"/>
<path d="M161.059 152.708V15.4632C161.059 8.97352 166.588 3.92598 172.958 4.4067C253.969 10.5359 317.792 78.0769 317.792 160.64C317.792 173.86 316.47 185.638 313.345 197.776C311.782 204.025 305.292 207.51 299.162 205.588L168.631 163.164C164.184 161.722 161.059 157.516 161.059 152.708Z" fill="#C79D6A" stroke="white" stroke-width="7" stroke-miterlimit="10"/>
<path d="M161.062 208.233C187.349 208.233 208.659 186.926 208.659 160.642C208.659 134.358 187.349 113.051 161.062 113.051C134.775 113.051 113.465 134.358 113.465 160.642C113.465 186.926 134.775 208.233 161.062 208.233Z" fill="white" stroke="white" stroke-width="7" stroke-miterlimit="10"/>
<path d="M58.92 125.201H49.24V122.761L53.62 118.921C54.3667 118.268 54.9133 117.681 55.26 117.161C55.6067 116.628 55.78 116.055 55.78 115.441V115.181C55.78 114.568 55.58 114.101 55.18 113.781C54.78 113.448 54.2933 113.281 53.72 113.281C53 113.281 52.4533 113.488 52.08 113.901C51.7067 114.301 51.44 114.788 51.28 115.361L49 114.481C49.1467 114.015 49.3533 113.575 49.62 113.161C49.8867 112.735 50.22 112.361 50.62 112.041C51.0333 111.721 51.5133 111.468 52.06 111.281C52.6067 111.095 53.2333 111.001 53.94 111.001C54.6733 111.001 55.3267 111.108 55.9 111.321C56.4733 111.521 56.9533 111.808 57.34 112.181C57.74 112.555 58.04 112.995 58.24 113.501C58.4533 114.008 58.56 114.561 58.56 115.161C58.56 115.748 58.4667 116.281 58.28 116.761C58.0933 117.241 57.84 117.701 57.52 118.141C57.2 118.568 56.8267 118.981 56.4 119.381C55.9733 119.768 55.52 120.161 55.04 120.561L52.1 122.981H58.92V125.201ZM65.7922 125.441C64.8989 125.441 64.1255 125.281 63.4722 124.961C62.8189 124.628 62.2789 124.155 61.8522 123.541C61.4255 122.928 61.1055 122.175 60.8922 121.281C60.6922 120.388 60.5922 119.368 60.5922 118.221C60.5922 117.088 60.6922 116.075 60.8922 115.181C61.1055 114.275 61.4255 113.515 61.8522 112.901C62.2789 112.288 62.8189 111.821 63.4722 111.501C64.1255 111.168 64.8989 111.001 65.7922 111.001C67.5655 111.001 68.8722 111.635 69.7122 112.901C70.5655 114.168 70.9922 115.941 70.9922 118.221C70.9922 120.501 70.5655 122.275 69.7122 123.541C68.8722 124.808 67.5655 125.441 65.7922 125.441ZM65.7922 123.221C66.6855 123.221 67.3055 122.888 67.6522 122.221C68.0122 121.541 68.1922 120.628 68.1922 119.481V116.961C68.1922 115.815 68.0122 114.908 67.6522 114.241C67.3055 113.561 66.6855 113.221 65.7922 113.221C64.8989 113.221 64.2722 113.561 63.9122 114.241C63.5655 114.908 63.3922 115.815 63.3922 116.961V119.481C63.3922 120.628 63.5655 121.541 63.9122 122.221C64.2722 122.888 64.8989 123.221 65.7922 123.221ZM75.1844 125.201L84.8644 111.241H87.1844L77.5044 125.201H75.1844ZM76.1444 118.921C75.011 118.921 74.1444 118.588 73.5444 117.921C72.9577 117.241 72.6644 116.255 72.6644 114.961C72.6644 113.668 72.9577 112.688 73.5444 112.021C74.1444 111.341 75.011 111.001 76.1444 111.001C77.2777 111.001 78.1377 111.341 78.7244 112.021C79.311 112.688 79.6044 113.668 79.6044 114.961C79.6044 116.255 79.311 117.241 78.7244 117.921C78.1377 118.588 77.2777 118.921 76.1444 118.921ZM76.1444 117.401C76.971 117.401 77.3844 116.768 77.3844 115.501V114.421C77.3844 113.155 76.971 112.521 76.1444 112.521C75.3177 112.521 74.9044 113.155 74.9044 114.421V115.501C74.9044 116.768 75.3177 117.401 76.1444 117.401ZM86.2244 125.441C85.1044 125.441 84.2444 125.108 83.6444 124.441C83.0577 123.761 82.7644 122.775 82.7644 121.481C82.7644 120.188 83.0577 119.208 83.6444 118.541C84.2444 117.861 85.1044 117.521 86.2244 117.521C87.3577 117.521 88.2177 117.861 88.8044 118.541C89.4044 119.208 89.7044 120.188 89.7044 121.481C89.7044 122.775 89.4044 123.761 88.8044 124.441C88.2177 125.108 87.3577 125.441 86.2244 125.441ZM86.2244 123.921C87.051 123.921 87.4644 123.288 87.4644 122.021V120.941C87.4644 119.675 87.051 119.041 86.2244 119.041C85.3977 119.041 84.9844 119.675 84.9844 120.941V122.021C84.9844 123.288 85.3977 123.921 86.2244 123.921Z" fill="white"/>
<path d="M214.92 244.201H205.24V241.761L209.62 237.921C210.367 237.268 210.913 236.681 211.26 236.161C211.607 235.628 211.78 235.055 211.78 234.441V234.181C211.78 233.568 211.58 233.101 211.18 232.781C210.78 232.448 210.293 232.281 209.72 232.281C209 232.281 208.453 232.488 208.08 232.901C207.707 233.301 207.44 233.788 207.28 234.361L205 233.481C205.147 233.015 205.353 232.575 205.62 232.161C205.887 231.735 206.22 231.361 206.62 231.041C207.033 230.721 207.513 230.468 208.06 230.281C208.607 230.095 209.233 230.001 209.94 230.001C210.673 230.001 211.327 230.108 211.9 230.321C212.473 230.521 212.953 230.808 213.34 231.181C213.74 231.555 214.04 231.995 214.24 232.501C214.453 233.008 214.56 233.561 214.56 234.161C214.56 234.748 214.467 235.281 214.28 235.761C214.093 236.241 213.84 236.701 213.52 237.141C213.2 237.568 212.827 237.981 212.4 238.381C211.973 238.768 211.52 239.161 211.04 239.561L208.1 241.981H214.92V244.201ZM221.792 244.441C220.899 244.441 220.126 244.281 219.472 243.961C218.819 243.628 218.279 243.155 217.852 242.541C217.426 241.928 217.106 241.175 216.892 240.281C216.692 239.388 216.592 238.368 216.592 237.221C216.592 236.088 216.692 235.075 216.892 234.181C217.106 233.275 217.426 232.515 217.852 231.901C218.279 231.288 218.819 230.821 219.472 230.501C220.126 230.168 220.899 230.001 221.792 230.001C223.566 230.001 224.872 230.635 225.712 231.901C226.566 233.168 226.992 234.941 226.992 237.221C226.992 239.501 226.566 241.275 225.712 242.541C224.872 243.808 223.566 244.441 221.792 244.441ZM221.792 242.221C222.686 242.221 223.306 241.888 223.652 241.221C224.012 240.541 224.192 239.628 224.192 238.481V235.961C224.192 234.815 224.012 233.908 223.652 233.241C223.306 232.561 222.686 232.221 221.792 232.221C220.899 232.221 220.272 232.561 219.912 233.241C219.566 233.908 219.392 234.815 219.392 235.961V238.481C219.392 239.628 219.566 240.541 219.912 241.221C220.272 241.888 220.899 242.221 221.792 242.221ZM231.184 244.201L240.864 230.241H243.184L233.504 244.201H231.184ZM232.144 237.921C231.011 237.921 230.144 237.588 229.544 236.921C228.958 236.241 228.664 235.255 228.664 233.961C228.664 232.668 228.958 231.688 229.544 231.021C230.144 230.341 231.011 230.001 232.144 230.001C233.278 230.001 234.138 230.341 234.724 231.021C235.311 231.688 235.604 232.668 235.604 233.961C235.604 235.255 235.311 236.241 234.724 236.921C234.138 237.588 233.278 237.921 232.144 237.921ZM232.144 236.401C232.971 236.401 233.384 235.768 233.384 234.501V233.421C233.384 232.155 232.971 231.521 232.144 231.521C231.318 231.521 230.904 232.155 230.904 233.421V234.501C230.904 235.768 231.318 236.401 232.144 236.401ZM242.224 244.441C241.104 244.441 240.244 244.108 239.644 243.441C239.058 242.761 238.764 241.775 238.764 240.481C238.764 239.188 239.058 238.208 239.644 237.541C240.244 236.861 241.104 236.521 242.224 236.521C243.358 236.521 244.218 236.861 244.804 237.541C245.404 238.208 245.704 239.188 245.704 240.481C245.704 241.775 245.404 242.761 244.804 243.441C244.218 244.108 243.358 244.441 242.224 244.441ZM242.224 242.921C243.051 242.921 243.464 242.288 243.464 241.021V239.941C243.464 238.675 243.051 238.041 242.224 238.041C241.398 238.041 240.984 238.675 240.984 239.941V241.021C240.984 242.288 241.398 242.921 242.224 242.921Z" fill="white"/>
<path d="M227.24 102.881C228.04 102.881 228.627 102.721 229 102.401C229.387 102.068 229.58 101.648 229.58 101.141V101.001C229.58 100.428 229.393 99.9812 229.02 99.6612C228.66 99.3278 228.16 99.1612 227.52 99.1612C226.907 99.1612 226.36 99.3078 225.88 99.6012C225.413 99.8945 225.007 100.308 224.66 100.841L222.98 99.3212C223.22 99.0012 223.48 98.7012 223.76 98.4212C224.053 98.1278 224.387 97.8812 224.76 97.6812C225.133 97.4678 225.553 97.3012 226.02 97.1812C226.487 97.0612 227.013 97.0012 227.6 97.0012C228.307 97.0012 228.947 97.0878 229.52 97.2612C230.107 97.4212 230.607 97.6612 231.02 97.9812C231.447 98.3012 231.773 98.6878 232 99.1412C232.227 99.5812 232.34 100.081 232.34 100.641C232.34 101.095 232.267 101.501 232.12 101.861C231.987 102.221 231.793 102.535 231.54 102.801C231.3 103.068 231.013 103.288 230.68 103.461C230.36 103.621 230.02 103.741 229.66 103.821V103.941C230.06 104.021 230.44 104.148 230.8 104.321C231.16 104.495 231.467 104.728 231.72 105.021C231.987 105.301 232.193 105.635 232.34 106.021C232.5 106.408 232.58 106.848 232.58 107.341C232.58 107.955 232.453 108.515 232.2 109.021C231.96 109.528 231.613 109.961 231.16 110.321C230.707 110.681 230.167 110.961 229.54 111.161C228.913 111.348 228.213 111.441 227.44 111.441C226.76 111.441 226.16 111.368 225.64 111.221C225.12 111.088 224.66 110.901 224.26 110.661C223.873 110.421 223.533 110.148 223.24 109.841C222.947 109.521 222.693 109.188 222.48 108.841L224.42 107.361C224.58 107.641 224.753 107.901 224.94 108.141C225.127 108.368 225.34 108.568 225.58 108.741C225.82 108.915 226.093 109.048 226.4 109.141C226.707 109.235 227.053 109.281 227.44 109.281C228.213 109.281 228.807 109.095 229.22 108.721C229.633 108.348 229.84 107.835 229.84 107.181V107.041C229.84 106.401 229.613 105.915 229.16 105.581C228.72 105.248 228.08 105.081 227.24 105.081H225.86V102.881H227.24ZM239.792 111.441C238.899 111.441 238.126 111.281 237.472 110.961C236.819 110.628 236.279 110.155 235.852 109.541C235.426 108.928 235.106 108.175 234.892 107.281C234.692 106.388 234.592 105.368 234.592 104.221C234.592 103.088 234.692 102.075 234.892 101.181C235.106 100.275 235.426 99.5145 235.852 98.9012C236.279 98.2878 236.819 97.8212 237.472 97.5012C238.126 97.1678 238.899 97.0012 239.792 97.0012C241.566 97.0012 242.872 97.6345 243.712 98.9012C244.566 100.168 244.992 101.941 244.992 104.221C244.992 106.501 244.566 108.275 243.712 109.541C242.872 110.808 241.566 111.441 239.792 111.441ZM239.792 109.221C240.686 109.221 241.306 108.888 241.652 108.221C242.012 107.541 242.192 106.628 242.192 105.481V102.961C242.192 101.815 242.012 100.908 241.652 100.241C241.306 99.5612 240.686 99.2212 239.792 99.2212C238.899 99.2212 238.272 99.5612 237.912 100.241C237.566 100.908 237.392 101.815 237.392 102.961V105.481C237.392 106.628 237.566 107.541 237.912 108.221C238.272 108.888 238.899 109.221 239.792 109.221ZM249.184 111.201L258.864 97.2412H261.184L251.504 111.201H249.184ZM250.144 104.921C249.011 104.921 248.144 104.588 247.544 103.921C246.958 103.241 246.664 102.255 246.664 100.961C246.664 99.6678 246.958 98.6878 247.544 98.0212C248.144 97.3412 249.011 97.0012 250.144 97.0012C251.278 97.0012 252.138 97.3412 252.724 98.0212C253.311 98.6878 253.604 99.6678 253.604 100.961C253.604 102.255 253.311 103.241 252.724 103.921C252.138 104.588 251.278 104.921 250.144 104.921ZM250.144 103.401C250.971 103.401 251.384 102.768 251.384 101.501V100.421C251.384 99.1545 250.971 98.5212 250.144 98.5212C249.318 98.5212 248.904 99.1545 248.904 100.421V101.501C248.904 102.768 249.318 103.401 250.144 103.401ZM260.224 111.441C259.104 111.441 258.244 111.108 257.644 110.441C257.058 109.761 256.764 108.775 256.764 107.481C256.764 106.188 257.058 105.208 257.644 104.541C258.244 103.861 259.104 103.521 260.224 103.521C261.358 103.521 262.218 103.861 262.804 104.541C263.404 105.208 263.704 106.188 263.704 107.481C263.704 108.775 263.404 109.761 262.804 110.441C262.218 111.108 261.358 111.441 260.224 111.441ZM260.224 109.921C261.051 109.921 261.464 109.288 261.464 108.021V106.941C261.464 105.675 261.051 105.041 260.224 105.041C259.398 105.041 258.984 105.675 258.984 106.941V108.021C258.984 109.288 259.398 109.921 260.224 109.921Z" fill="white"/>
<path d="M87.92 244.201H78.24V241.761L82.62 237.921C83.3667 237.268 83.9133 236.681 84.26 236.161C84.6067 235.628 84.78 235.055 84.78 234.441V234.181C84.78 233.568 84.58 233.101 84.18 232.781C83.78 232.448 83.2933 232.281 82.72 232.281C82 232.281 81.4533 232.488 81.08 232.901C80.7067 233.301 80.44 233.788 80.28 234.361L78 233.481C78.1467 233.015 78.3533 232.575 78.62 232.161C78.8867 231.735 79.22 231.361 79.62 231.041C80.0333 230.721 80.5133 230.468 81.06 230.281C81.6067 230.095 82.2333 230.001 82.94 230.001C83.6733 230.001 84.3267 230.108 84.9 230.321C85.4733 230.521 85.9533 230.808 86.34 231.181C86.74 231.555 87.04 231.995 87.24 232.501C87.4533 233.008 87.56 233.561 87.56 234.161C87.56 234.748 87.4667 235.281 87.28 235.761C87.0933 236.241 86.84 236.701 86.52 237.141C86.2 237.568 85.8267 237.981 85.4 238.381C84.9733 238.768 84.52 239.161 84.04 239.561L81.1 241.981H87.92V244.201ZM99.7122 244.201H90.0322V241.761L94.4122 237.921C95.1589 237.268 95.7055 236.681 96.0522 236.161C96.3989 235.628 96.5722 235.055 96.5722 234.441V234.181C96.5722 233.568 96.3722 233.101 95.9722 232.781C95.5722 232.448 95.0855 232.281 94.5122 232.281C93.7922 232.281 93.2455 232.488 92.8722 232.901C92.4989 233.301 92.2322 233.788 92.0722 234.361L89.7922 233.481C89.9389 233.015 90.1455 232.575 90.4122 232.161C90.6789 231.735 91.0122 231.361 91.4122 231.041C91.8255 230.721 92.3055 230.468 92.8522 230.281C93.3989 230.095 94.0255 230.001 94.7322 230.001C95.4655 230.001 96.1189 230.108 96.6922 230.321C97.2655 230.521 97.7455 230.808 98.1322 231.181C98.5322 231.555 98.8322 231.995 99.0322 232.501C99.2455 233.008 99.3522 233.561 99.3522 234.161C99.3522 234.748 99.2589 235.281 99.0722 235.761C98.8855 236.241 98.6322 236.701 98.3122 237.141C97.9922 237.568 97.6189 237.981 97.1922 238.381C96.7655 238.768 96.3122 239.161 95.8322 239.561L92.8922 241.981H99.7122V244.201ZM104.184 244.201L113.864 230.241H116.184L106.504 244.201H104.184ZM105.144 237.921C104.011 237.921 103.144 237.588 102.544 236.921C101.958 236.241 101.664 235.255 101.664 233.961C101.664 232.668 101.958 231.688 102.544 231.021C103.144 230.341 104.011 230.001 105.144 230.001C106.278 230.001 107.138 230.341 107.724 231.021C108.311 231.688 108.604 232.668 108.604 233.961C108.604 235.255 108.311 236.241 107.724 236.921C107.138 237.588 106.278 237.921 105.144 237.921ZM105.144 236.401C105.971 236.401 106.384 235.768 106.384 234.501V233.421C106.384 232.155 105.971 231.521 105.144 231.521C104.318 231.521 103.904 232.155 103.904 233.421V234.501C103.904 235.768 104.318 236.401 105.144 236.401ZM115.224 244.441C114.104 244.441 113.244 244.108 112.644 243.441C112.058 242.761 111.764 241.775 111.764 240.481C111.764 239.188 112.058 238.208 112.644 237.541C113.244 236.861 114.104 236.521 115.224 236.521C116.358 236.521 117.218 236.861 117.804 237.541C118.404 238.208 118.704 239.188 118.704 240.481C118.704 241.775 118.404 242.761 117.804 243.441C117.218 244.108 116.358 244.441 115.224 244.441ZM115.224 242.921C116.051 242.921 116.464 242.288 116.464 241.021V239.941C116.464 238.675 116.051 238.041 115.224 238.041C114.398 238.041 113.984 238.675 113.984 239.941V241.021C113.984 242.288 114.398 242.921 115.224 242.921Z" fill="white"/>
</g>
<defs>
<clipPath id="clip0">
<rect width="322" height="321" fill="white" transform="translate(0 0.201172)"/>
</clipPath>
</defs>
</svg>
