<svg width="280" height="280" viewBox="0 0 280 280" fill="none" xmlns="http://www.w3.org/2000/svg">
<circle cx="139.5" cy="139.5" r="78.5" fill="#615C69"/>
<path d="M115.288 150H101.736V146.584L107.868 141.208C108.913 140.293 109.679 139.472 110.164 138.744C110.649 137.997 110.892 137.195 110.892 136.336V135.972C110.892 135.113 110.612 134.46 110.052 134.012C109.492 133.545 108.811 133.312 108.008 133.312C107 133.312 106.235 133.601 105.712 134.18C105.189 134.74 104.816 135.421 104.592 136.224L101.4 134.992C101.605 134.339 101.895 133.723 102.268 133.144C102.641 132.547 103.108 132.024 103.668 131.576C104.247 131.128 104.919 130.773 105.684 130.512C106.449 130.251 107.327 130.12 108.316 130.12C109.343 130.12 110.257 130.269 111.06 130.568C111.863 130.848 112.535 131.249 113.076 131.772C113.636 132.295 114.056 132.911 114.336 133.62C114.635 134.329 114.784 135.104 114.784 135.944C114.784 136.765 114.653 137.512 114.392 138.184C114.131 138.856 113.776 139.5 113.328 140.116C112.88 140.713 112.357 141.292 111.76 141.852C111.163 142.393 110.528 142.944 109.856 143.504L105.74 146.892H115.288V150ZM125.189 150.336C123.938 150.336 122.856 150.112 121.941 149.664C121.026 149.197 120.27 148.535 119.673 147.676C119.076 146.817 118.628 145.763 118.329 144.512C118.049 143.261 117.909 141.833 117.909 140.228C117.909 138.641 118.049 137.223 118.329 135.972C118.628 134.703 119.076 133.639 119.673 132.78C120.27 131.921 121.026 131.268 121.941 130.82C122.856 130.353 123.938 130.12 125.189 130.12C127.672 130.12 129.501 131.007 130.677 132.78C131.872 134.553 132.469 137.036 132.469 140.228C132.469 143.42 131.872 145.903 130.677 147.676C129.501 149.449 127.672 150.336 125.189 150.336ZM125.189 147.228C126.44 147.228 127.308 146.761 127.793 145.828C128.297 144.876 128.549 143.597 128.549 141.992V138.464C128.549 136.859 128.297 135.589 127.793 134.656C127.308 133.704 126.44 133.228 125.189 133.228C123.938 133.228 123.061 133.704 122.557 134.656C122.072 135.589 121.829 136.859 121.829 138.464V141.992C121.829 143.597 122.072 144.876 122.557 145.828C123.061 146.761 123.938 147.228 125.189 147.228ZM141.978 150.336C140.727 150.336 139.645 150.112 138.73 149.664C137.815 149.197 137.059 148.535 136.462 147.676C135.865 146.817 135.417 145.763 135.118 144.512C134.838 143.261 134.698 141.833 134.698 140.228C134.698 138.641 134.838 137.223 135.118 135.972C135.417 134.703 135.865 133.639 136.462 132.78C137.059 131.921 137.815 131.268 138.73 130.82C139.645 130.353 140.727 130.12 141.978 130.12C144.461 130.12 146.29 131.007 147.466 132.78C148.661 134.553 149.258 137.036 149.258 140.228C149.258 143.42 148.661 145.903 147.466 147.676C146.29 149.449 144.461 150.336 141.978 150.336ZM141.978 147.228C143.229 147.228 144.097 146.761 144.582 145.828C145.086 144.876 145.338 143.597 145.338 141.992V138.464C145.338 136.859 145.086 135.589 144.582 134.656C144.097 133.704 143.229 133.228 141.978 133.228C140.727 133.228 139.85 133.704 139.346 134.656C138.861 135.589 138.618 136.859 138.618 138.464V141.992C138.618 143.597 138.861 144.876 139.346 145.828C139.85 146.761 140.727 147.228 141.978 147.228ZM174.036 135.972H173.924L172.412 139.08L168.408 146.472L164.404 139.08L162.892 135.972H162.78V150H159.28V130.456H163.452L168.464 140.004H168.576L173.532 130.456H177.536V150H174.036V135.972Z" fill="white"/>
<mask id="path-3-inside-1" fill="white">
<path d="M139.522 -6.09869e-06C216.578 -9.46691e-06 279.044 62.466 279.044 139.522C279.044 216.578 216.578 279.044 139.522 279.044C62.4661 279.044 -2.73048e-06 216.578 -6.09869e-06 139.522C-9.46691e-06 62.466 62.466 -2.73048e-06 139.522 -6.09869e-06ZM139.522 209.283C178.05 209.283 209.283 178.05 209.283 139.522C209.283 100.994 178.05 69.7609 139.522 69.7609C100.994 69.7609 69.7609 100.994 69.7609 139.522C69.7609 178.05 100.994 209.283 139.522 209.283Z"/>
</mask>
<path d="M139.522 -6.09869e-06C216.578 -9.46691e-06 279.044 62.466 279.044 139.522C279.044 216.578 216.578 279.044 139.522 279.044C62.4661 279.044 -2.73048e-06 216.578 -6.09869e-06 139.522C-9.46691e-06 62.466 62.466 -2.73048e-06 139.522 -6.09869e-06ZM139.522 209.283C178.05 209.283 209.283 178.05 209.283 139.522C209.283 100.994 178.05 69.7609 139.522 69.7609C100.994 69.7609 69.7609 100.994 69.7609 139.522C69.7609 178.05 100.994 209.283 139.522 209.283Z" fill="#B879FF" stroke="#272530" stroke-width="10" mask="url(#path-3-inside-1)"/>
<g opacity="0.3">
<mask id="path-4-inside-2" fill="white">
<path d="M139.522 0.521814C216.578 0.521811 279.044 62.9879 279.044 140.044C279.044 217.099 216.578 279.565 139.522 279.565C62.4661 279.565 -2.73048e-06 217.099 -6.09869e-06 140.044C-9.46691e-06 62.9879 62.466 0.521817 139.522 0.521814ZM139.522 209.805C178.05 209.805 209.283 178.572 209.283 140.044C209.283 101.516 178.05 70.2827 139.522 70.2827C100.994 70.2827 69.7609 101.516 69.7609 140.044C69.7609 178.572 100.994 209.805 139.522 209.805Z"/>
</mask>
<path d="M139.522 0.521814C216.578 0.521811 279.044 62.9879 279.044 140.044C279.044 217.099 216.578 279.565 139.522 279.565C62.4661 279.565 -2.73048e-06 217.099 -6.09869e-06 140.044C-9.46691e-06 62.9879 62.466 0.521817 139.522 0.521814ZM139.522 209.805C178.05 209.805 209.283 178.572 209.283 140.044C209.283 101.516 178.05 70.2827 139.522 70.2827C100.994 70.2827 69.7609 101.516 69.7609 140.044C69.7609 178.572 100.994 209.805 139.522 209.805Z" fill="#B879FF" stroke="#272530" stroke-width="10" mask="url(#path-4-inside-2)"/>
</g>
<mask id="path-5-inside-3" fill="white">
<path d="M139.522 -6.09869e-06C174.63 -7.63334e-06 208.448 13.2361 234.229 37.0678C260.01 60.8995 275.859 93.5748 278.614 128.575C281.368 163.575 270.826 198.328 249.091 225.899C227.355 253.47 196.024 271.834 161.348 277.326C126.672 282.818 91.1993 275.035 62.0077 255.53C32.816 236.025 12.0509 206.231 3.85499 172.093C-4.34093 137.954 0.63481 101.981 17.7896 71.3485C34.9444 40.7164 63.017 17.6778 96.4072 6.82867L117.965 73.1753C101.269 78.5998 87.2331 90.1191 78.6557 105.435C70.0783 120.751 67.5904 138.738 71.6884 155.807C75.7864 172.876 86.1689 187.773 100.765 197.526C115.361 207.279 133.097 211.17 150.435 208.424C167.773 205.678 183.439 196.496 194.306 182.71C205.174 168.925 210.445 151.549 209.068 134.048C207.69 116.548 199.766 100.211 186.876 88.2948C173.985 76.379 157.076 69.7609 139.522 69.7609L139.522 -6.09869e-06Z"/>
</mask>
<path d="M139.522 -6.09869e-06C174.63 -7.63334e-06 208.448 13.2361 234.229 37.0678C260.01 60.8995 275.859 93.5748 278.614 128.575C281.368 163.575 270.826 198.328 249.091 225.899C227.355 253.47 196.024 271.834 161.348 277.326C126.672 282.818 91.1993 275.035 62.0077 255.53C32.816 236.025 12.0509 206.231 3.85499 172.093C-4.34093 137.954 0.63481 101.981 17.7896 71.3485C34.9444 40.7164 63.017 17.6778 96.4072 6.82867L117.965 73.1753C101.269 78.5998 87.2331 90.1191 78.6557 105.435C70.0783 120.751 67.5904 138.738 71.6884 155.807C75.7864 172.876 86.1689 187.773 100.765 197.526C115.361 207.279 133.097 211.17 150.435 208.424C167.773 205.678 183.439 196.496 194.306 182.71C205.174 168.925 210.445 151.549 209.068 134.048C207.69 116.548 199.766 100.211 186.876 88.2948C173.985 76.379 157.076 69.7609 139.522 69.7609L139.522 -6.09869e-06Z" fill="#2622EA" stroke="#272530" stroke-width="10" mask="url(#path-5-inside-3)"/>
<mask id="path-6-inside-4" fill="white">
<path d="M139.522 -6.09869e-06C167.117 -7.3049e-06 194.092 8.18279 217.036 23.5137C239.98 38.8445 257.863 60.6348 268.423 86.1291C278.983 111.623 281.746 139.677 276.363 166.741C270.979 193.806 257.691 218.666 238.179 238.179C218.666 257.691 193.806 270.979 166.741 276.363C139.677 281.746 111.623 278.983 86.1291 268.423C60.6349 257.863 38.8445 239.98 23.5137 217.036C8.18281 194.092 -5.22155e-06 167.117 -6.09869e-06 139.522L69.7609 139.522C69.7609 153.319 73.8523 166.807 81.5177 178.279C89.1832 189.751 100.078 198.692 112.825 203.973C125.573 209.253 139.599 210.634 153.132 207.942C166.664 205.251 179.094 198.606 188.85 188.85C198.606 179.094 205.251 166.664 207.942 153.132C210.634 139.599 209.253 125.573 203.973 112.825C198.692 100.078 189.751 89.1832 178.279 81.5177C166.807 73.8523 153.319 69.7609 139.522 69.7609L139.522 -6.09869e-06Z"/>
</mask>
<path d="M139.522 -6.09869e-06C167.117 -7.3049e-06 194.092 8.18279 217.036 23.5137C239.98 38.8445 257.863 60.6348 268.423 86.1291C278.983 111.623 281.746 139.677 276.363 166.741C270.979 193.806 257.691 218.666 238.179 238.179C218.666 257.691 193.806 270.979 166.741 276.363C139.677 281.746 111.623 278.983 86.1291 268.423C60.6349 257.863 38.8445 239.98 23.5137 217.036C8.18281 194.092 -5.22155e-06 167.117 -6.09869e-06 139.522L69.7609 139.522C69.7609 153.319 73.8523 166.807 81.5177 178.279C89.1832 189.751 100.078 198.692 112.825 203.973C125.573 209.253 139.599 210.634 153.132 207.942C166.664 205.251 179.094 198.606 188.85 188.85C198.606 179.094 205.251 166.664 207.942 153.132C210.634 139.599 209.253 125.573 203.973 112.825C198.692 100.078 189.751 89.1832 178.279 81.5177C166.807 73.8523 153.319 69.7609 139.522 69.7609L139.522 -6.09869e-06Z" fill="#5D09E1" stroke="#272530" stroke-width="10" mask="url(#path-6-inside-4)"/>
<mask id="path-7-inside-5" fill="white">
<path d="M139.522 -6.09869e-06C158.029 -6.90765e-06 176.35 3.68183 193.42 10.8311C210.49 17.9804 225.967 28.4543 238.95 41.6429C251.933 54.8315 262.163 70.4712 269.043 87.6514C275.924 104.832 279.317 123.209 279.026 141.713C278.736 160.218 274.767 178.479 267.35 195.435C259.934 212.391 249.218 227.701 235.827 240.476C222.436 253.25 206.638 263.232 189.351 269.842C172.065 276.452 153.637 279.556 135.139 278.975L137.331 209.248C146.579 209.539 155.794 207.987 164.437 204.682C173.08 201.377 180.979 196.386 187.674 189.999C194.37 183.612 199.728 175.956 203.436 167.478C207.144 159.001 209.129 149.87 209.274 140.618C209.419 131.365 207.723 122.177 204.283 113.587C200.842 104.997 195.728 97.1766 189.236 90.5824C182.745 83.9881 175.006 78.7511 166.471 75.1765C157.936 71.6018 148.775 69.7609 139.522 69.7609L139.522 -6.09869e-06Z"/>
</mask>
<path d="M139.522 -6.09869e-06C158.029 -6.90765e-06 176.35 3.68183 193.42 10.8311C210.49 17.9804 225.967 28.4543 238.95 41.6429C251.933 54.8315 262.163 70.4712 269.043 87.6514C275.924 104.832 279.317 123.209 279.026 141.713C278.736 160.218 274.767 178.479 267.35 195.435C259.934 212.391 249.218 227.701 235.827 240.476C222.436 253.25 206.638 263.232 189.351 269.842C172.065 276.452 153.637 279.556 135.139 278.975L137.331 209.248C146.579 209.539 155.794 207.987 164.437 204.682C173.08 201.377 180.979 196.386 187.674 189.999C194.37 183.612 199.728 175.956 203.436 167.478C207.144 159.001 209.129 149.87 209.274 140.618C209.419 131.365 207.723 122.177 204.283 113.587C200.842 104.997 195.728 97.1766 189.236 90.5824C182.745 83.9881 175.006 78.7511 166.471 75.1765C157.936 71.6018 148.775 69.7609 139.522 69.7609L139.522 -6.09869e-06Z" fill="#5F51FF" stroke="#272530" stroke-width="10" mask="url(#path-7-inside-5)"/>
<mask id="path-8-inside-6" fill="white">
<path d="M139.522 -6.09869e-06C169.735 -7.41936e-06 199.132 9.80759 223.294 27.9484C247.455 46.0891 265.074 71.5827 273.504 100.596L206.513 120.059C202.298 105.552 193.488 92.8055 181.408 83.7351C169.327 74.6647 154.629 69.7609 139.522 69.7609L139.522 -6.09869e-06Z"/>
</mask>
<path d="M139.522 -6.09869e-06C169.735 -7.41936e-06 199.132 9.80759 223.294 27.9484C247.455 46.0891 265.074 71.5827 273.504 100.596L206.513 120.059C202.298 105.552 193.488 92.8055 181.408 83.7351C169.327 74.6647 154.629 69.7609 139.522 69.7609L139.522 -6.09869e-06Z" fill="#E478FF" stroke="#272530" stroke-width="10" mask="url(#path-8-inside-6)"/>
<mask id="path-9-inside-7" fill="white">
<path d="M139.522 -6.09869e-06C165.253 -7.22343e-06 190.483 7.11552 212.422 20.5599C234.361 34.0043 252.155 53.2538 263.837 76.1802L201.679 107.851C195.838 96.3878 186.941 86.7631 175.972 80.0409C165.002 73.3187 152.387 69.7609 139.522 69.7609L139.522 -6.09869e-06Z"/>
</mask>
<path d="M139.522 -6.09869e-06C165.253 -7.22343e-06 190.483 7.11552 212.422 20.5599C234.361 34.0043 252.155 53.2538 263.837 76.1802L201.679 107.851C195.838 96.3878 186.941 86.7631 175.972 80.0409C165.002 73.3187 152.387 69.7609 139.522 69.7609L139.522 -6.09869e-06Z" fill="#8479FF" stroke="#272530" stroke-width="10" mask="url(#path-9-inside-7)"/>
<mask id="path-10-inside-8" fill="white">
<path d="M139.522 -6.09869e-06C163.023 -7.12595e-06 186.143 5.93625 206.737 17.2579C227.331 28.5796 244.732 44.9198 257.324 64.7623L198.423 102.142C192.127 92.2208 183.426 84.0507 173.129 78.3899C162.832 72.729 151.272 69.7609 139.522 69.7609L139.522 -6.09869e-06Z"/>
</mask>
<path d="M139.522 -6.09869e-06C163.023 -7.12595e-06 186.143 5.93625 206.737 17.2579C227.331 28.5796 244.732 44.9198 257.324 64.7623L198.423 102.142C192.127 92.2208 183.426 84.0507 173.129 78.3899C162.832 72.729 151.272 69.7609 139.522 69.7609L139.522 -6.09869e-06Z" fill="#2EE5FF" stroke="#272530" stroke-width="10" mask="url(#path-10-inside-8)"/>
<mask id="path-11-inside-9" fill="white">
<path d="M139.522 -6.09869e-06C168.986 -7.38661e-06 197.694 9.32772 221.531 26.6463L180.526 83.0841C168.608 74.4248 154.254 69.7609 139.522 69.7609L139.522 -6.09869e-06Z"/>
</mask>
<path d="M139.522 -6.09869e-06C168.986 -7.38661e-06 197.694 9.32772 221.531 26.6463L180.526 83.0841C168.608 74.4248 154.254 69.7609 139.522 69.7609L139.522 -6.09869e-06Z" fill="#37FFDB" stroke="#272530" stroke-width="10" mask="url(#path-11-inside-9)"/>
<mask id="path-12-inside-10" fill="white">
<path d="M139.522 -6.09869e-06C148.295 -6.48217e-06 157.048 0.827416 165.666 2.47131L152.594 70.9966C148.285 70.1746 143.908 69.7609 139.522 69.7609L139.522 -6.09869e-06Z"/>
</mask>
<path d="M139.522 -6.09869e-06C148.295 -6.48217e-06 157.048 0.827416 165.666 2.47131L152.594 70.9966C148.285 70.1746 143.908 69.7609 139.522 69.7609L139.522 -6.09869e-06Z" fill="#3793FF" stroke="#272530" stroke-width="10" mask="url(#path-12-inside-10)"/>
</svg>
