<svg width="398" height="425" viewBox="0 0 398 425" fill="none" xmlns="http://www.w3.org/2000/svg">
<mask id="mask0" mask-type="alpha" maskUnits="userSpaceOnUse" x="86" y="43" width="67" height="84">
<path d="M87.6112 56.3744C85.1412 53.4014 85.5412 48.9764 88.6042 46.6184C89.6192 45.8364 90.6422 45.0654 91.6722 44.3044C94.7822 42.0084 99.1462 42.8414 101.326 46.0344L151.663 119.781C152.966 121.691 152.468 124.288 150.622 125.68C148.776 127.071 146.142 126.836 144.665 125.057L87.6112 56.3744Z" fill="white"/>
</mask>
<g mask="url(#mask0)">
<path d="M87.6112 56.3744C85.1412 53.4014 85.5412 48.9764 88.6042 46.6184C89.6192 45.8364 90.6422 45.0654 91.6722 44.3044C94.7822 42.0084 99.1462 42.8414 101.326 46.0344L151.663 119.781C152.966 121.691 152.468 124.288 150.622 125.68C148.776 127.071 146.142 126.836 144.665 125.057L87.6112 56.3744Z" fill="#D4D3FF" stroke="#272530" stroke-width="6"/>
</g>
<mask id="mask1" mask-type="alpha" maskUnits="userSpaceOnUse" x="102" y="24" width="67" height="99">
<path d="M103.876 46.6273C100.48 41.5903 101.794 34.7233 107.02 31.6253C110.944 29.2993 114.952 27.1153 119.034 25.0782C124.469 22.3656 130.953 24.9821 133.345 30.5663L167.67 110.688C169.377 114.673 167.508 119.256 163.701 121.331C159.894 123.406 155.03 122.493 152.606 118.898L103.876 46.6273Z" fill="white"/>
</mask>
<g mask="url(#mask1)">
<path d="M103.876 46.6273C100.48 41.5903 101.794 34.7233 107.02 31.6253C110.944 29.2993 114.952 27.1153 119.034 25.0782C124.469 22.3656 130.953 24.9821 133.345 30.5663L167.67 110.688C169.377 114.673 167.508 119.256 163.701 121.331C159.894 123.406 155.03 122.493 152.606 118.898L103.876 46.6273Z" fill="#147AF1" stroke="#272530" stroke-width="10"/>
</g>
<mask id="mask2" mask-type="alpha" maskUnits="userSpaceOnUse" x="227" y="93" width="166" height="281">
<path d="M350.836 94.8582C355.883 91.4762 362.746 92.8112 365.829 98.0452C379.086 120.555 387.561 145.602 390.675 171.62C394.225 201.284 390.705 231.367 380.401 259.409C370.097 287.452 353.302 312.658 331.391 332.966C312.172 350.777 289.496 364.378 264.819 372.95C259.08 374.943 252.985 371.517 251.329 365.672L228.418 284.841C226.761 278.996 230.197 272.981 235.773 270.569C244.413 266.831 252.382 261.645 259.326 255.21C268.967 246.275 276.356 235.184 280.89 222.845C285.424 210.507 286.973 197.27 285.411 184.218C284.286 174.818 281.57 165.706 277.405 157.264C274.718 151.816 275.994 145.007 281.041 141.625L350.836 94.8582Z" fill="white"/>
</mask>
<g mask="url(#mask2)">
<path d="M350.836 94.8582C355.883 91.4762 362.746 92.8112 365.829 98.0452C379.086 120.555 387.561 145.602 390.675 171.62C394.225 201.284 390.705 231.367 380.401 259.409C370.097 287.452 353.302 312.658 331.391 332.966C312.172 350.777 289.496 364.378 264.819 372.95C259.08 374.943 252.985 371.517 251.329 365.672L228.418 284.841C226.761 278.996 230.197 272.981 235.773 270.569C244.413 266.831 252.382 261.645 259.326 255.21C268.967 246.275 276.356 235.184 280.89 222.845C285.424 210.507 286.973 197.27 285.411 184.218C284.286 174.818 281.57 165.706 277.405 157.264C274.718 151.816 275.994 145.007 281.041 141.625L350.836 94.8582Z" fill="#5D09E1" stroke="#272530" stroke-width="10"/>
</g>
<mask id="mask3" mask-type="alpha" maskUnits="userSpaceOnUse" x="39" y="237" width="217" height="147">
<path d="M254.772 364.625C256.557 370.432 253.301 376.619 247.4 378.064C208.365 387.619 167.192 384.523 129.893 369.06C92.5933 353.597 61.3063 326.655 40.4803 292.284C37.3323 287.088 39.4093 280.412 44.7793 277.571L119.041 238.279C124.41 235.438 131.011 237.542 134.534 242.491C143.554 255.16 155.99 265.115 170.492 271.127C184.993 277.138 200.825 278.902 216.163 276.33C222.154 275.326 228.307 278.509 230.092 284.316L254.772 364.625Z" fill="white"/>
</mask>
<g mask="url(#mask3)">
<path d="M254.773 364.625C256.558 370.432 253.302 376.619 247.401 378.064C208.366 387.619 167.193 384.523 129.894 369.06C92.5935 353.597 61.3065 326.655 40.4805 292.284C37.3325 287.088 39.4095 280.412 44.7795 277.571L119.042 238.279C124.411 235.438 131.012 237.542 134.535 242.491C143.555 255.16 155.991 265.115 170.493 271.127C184.994 277.138 200.826 278.902 216.164 276.33C222.155 275.326 228.307 278.509 230.092 284.316L254.773 364.625Z" fill="#E478FF" stroke="#272530" stroke-width="10"/>
</g>
<mask id="mask4" mask-type="alpha" maskUnits="userSpaceOnUse" x="13" y="54" width="132" height="229">
<path d="M46.705 281.502C41.403 284.469 34.669 282.588 32.015 277.123C14.4602 240.972 8.82433 200.07 16.093 160.351C23.3617 120.633 43.118 84.3779 72.338 56.7869C76.755 52.6159 83.719 53.2419 87.626 57.8939L141.663 122.225C145.571 126.877 144.903 133.772 140.806 138.258C130.318 149.742 123.203 163.994 120.377 179.436C117.551 194.878 119.158 210.726 124.899 225.18C127.141 230.826 125.324 237.51 120.022 240.477L46.705 281.502Z" fill="white"/>
</mask>
<g mask="url(#mask4)">
<path d="M46.705 281.502C41.403 284.469 34.669 282.588 32.015 277.123C14.4602 240.972 8.82433 200.07 16.093 160.351C23.3617 120.633 43.118 84.3779 72.338 56.7869C76.755 52.6159 83.719 53.2419 87.626 57.8939L141.663 122.225C145.571 126.877 144.903 133.772 140.806 138.258C130.318 149.742 123.203 163.994 120.377 179.436C117.551 194.878 119.158 210.726 124.899 225.18C127.141 230.826 125.324 237.51 120.022 240.477L46.705 281.502Z" fill="#57D7FF" stroke="#272530" stroke-width="10"/>
</g>
<mask id="mask5" mask-type="alpha" maskUnits="userSpaceOnUse" x="223" y="12" width="102" height="116">
<path d="M243.339 20.331C244.717 14.4142 250.642 10.7029 256.469 12.4219C279.931 19.3431 301.831 30.7468 320.954 46.0008C325.703 49.7888 326.06 56.7718 322.003 61.2928L265.887 123.82C261.829 128.341 254.909 128.647 249.892 125.22C244.417 121.48 238.516 118.406 232.312 116.065C226.628 113.92 222.909 108.075 224.287 102.158L243.339 20.331Z" fill="white"/>
</mask>
<g mask="url(#mask5)">
<path d="M243.34 20.331C244.718 14.4142 250.643 10.7029 256.47 12.4219C279.932 19.3431 301.832 30.7468 320.955 46.0008C325.704 49.7888 326.061 56.7718 322.004 61.2928L265.888 123.82C261.83 128.341 254.91 128.647 249.893 125.22C244.418 121.48 238.516 118.406 232.312 116.065C226.628 113.92 222.91 108.075 224.288 102.158L243.34 20.331Z" fill="#A973FF" stroke="#272530" stroke-width="10"/>
</g>
<mask id="mask6" mask-type="alpha" maskUnits="userSpaceOnUse" x="261" y="53" width="99" height="93">
<path d="M317.266 56.9367C321.149 52.2647 328.109 51.6027 332.548 55.7507C341.682 64.2867 349.948 73.7067 357.225 83.8717C360.761 88.8117 359.2 95.6267 354.063 98.8697L283.022 143.723C277.885 146.967 271.143 145.374 267.252 140.709C266.362 139.642 265.445 138.597 264.503 137.576C260.383 133.111 259.679 126.22 263.563 121.548L317.266 56.9367Z" fill="white"/>
</mask>
<g mask="url(#mask6)">
<path d="M317.266 56.9367C321.149 52.2647 328.109 51.6027 332.548 55.7507C341.682 64.2867 349.948 73.7067 357.225 83.8717C360.761 88.8117 359.2 95.6267 354.063 98.8697L283.022 143.723C277.885 146.967 271.143 145.374 267.252 140.709C266.362 139.642 265.445 138.597 264.503 137.576C260.383 133.111 259.679 126.22 263.563 121.548L317.266 56.9367Z" fill="#8479FF" stroke="#272530" stroke-width="12"/>
</g>
<mask id="mask7" mask-type="alpha" maskUnits="userSpaceOnUse" x="129" y="8" width="61" height="107">
<path d="M129.942 30.9545C127.485 25.3982 129.988 18.8702 135.677 16.7402C145.525 13.0535 155.663 10.1936 165.985 8.19026C171.949 7.03286 177.494 11.2904 178.303 17.3114L189.493 100.578C190.303 106.599 186.047 112.065 180.185 113.659C179.686 113.795 179.188 113.936 178.691 114.081C172.86 115.785 166.375 113.349 163.918 107.793L129.942 30.9545Z" fill="white"/>
</mask>
<g mask="url(#mask7)">
<path d="M129.942 30.9545C127.485 25.3982 129.988 18.8702 135.677 16.7402C145.525 13.0535 155.663 10.1936 165.985 8.19026C171.949 7.03286 177.493 11.2904 178.303 17.3114L189.493 100.578C190.303 106.599 186.047 112.065 180.185 113.659C179.686 113.795 179.188 113.936 178.691 114.081C172.86 115.785 166.375 113.349 163.918 107.793L129.942 30.9545Z" fill="#47FF37" stroke="#272530" stroke-width="10"/>
</g>
<mask id="mask8" mask-type="alpha" maskUnits="userSpaceOnUse" x="179" y="5" width="68" height="107">
<path d="M179.103 17.6542C178.277 11.6354 182.487 6.05335 188.543 5.57865C204.973 4.29115 221.5 5.15435 237.706 8.14635C243.68 9.24935 247.285 15.2396 245.837 21.1396L225.811 102.733C224.363 108.633 218.404 112.165 212.364 111.506C209.248 111.166 206.115 111.003 202.98 111.016C196.905 111.042 191.346 106.909 190.52 100.89L179.103 17.6542Z" fill="white"/>
</mask>
<g mask="url(#mask8)">
<path d="M179.103 17.6542C178.277 11.6354 182.487 6.05335 188.543 5.57865C204.973 4.29115 221.5 5.15435 237.706 8.14635C243.68 9.24935 247.285 15.2396 245.837 21.1396L225.811 102.733C224.363 108.633 218.404 112.165 212.364 111.506C209.248 111.166 206.115 111.003 202.98 111.016C196.905 111.042 191.346 106.909 190.52 100.89L179.103 17.6542Z" fill="#37FFDB" stroke="#272530" stroke-width="10"/>
</g>
</svg>
