<svg width="322" height="321" viewBox="0 0 322 321" fill="none" xmlns="http://www.w3.org/2000/svg">
<path d="M142.911 4.80772C136.541 5.52879 132.214 11.658 133.416 17.9073L149.401 116.5L164 112.5L161.18 15.2633C161.18 8.89383 155.772 3.7261 149.401 4.20682C147.238 4.327 145.074 4.56736 142.911 4.80772Z" fill="#37FFDB" stroke="#27272E" stroke-width="7" stroke-miterlimit="10"/>
<path d="M138.5 117L90.6272 33.4092C87.5022 27.8809 89.7858 20.7903 95.5552 18.0262C103.488 14.3006 111.301 11.5365 119.714 9.25305C125.844 7.57053 132.094 11.5365 133.416 17.7858L151 113.5C152.031 119.143 151.846 116.438 147.84 118.5C142.973 121.005 141.796 122.999 138.5 117Z" fill="#A973FF" stroke="#27272E" stroke-width="7" stroke-miterlimit="10"/>
<path d="M146.157 163.444L18.5108 188.201C12.1405 189.403 6.13079 184.956 5.40963 178.587C-1.80202 118.857 24.5205 62.3729 74.8818 29.5638C80.2906 26.0786 87.5022 27.7612 90.6273 33.4096L153.609 147.1C157.335 153.709 153.489 162.002 146.157 163.444Z" fill="#57D7FF" stroke="#27272E" stroke-width="7" stroke-miterlimit="10"/>
<path d="M161.061 173.9V305.737C161.061 312.227 155.532 317.275 149.162 316.794C82.3337 311.987 27.4049 266.679 9.85661 202.022C8.17389 195.773 12.1403 189.524 18.3904 188.202L147.839 163.084C154.691 161.762 161.061 166.93 161.061 173.9Z" fill="#8479FF" stroke="#27272E" stroke-width="7" stroke-miterlimit="10"/>
<path d="M175.604 165.248L299.284 205.388C305.414 207.431 308.539 214.161 306.135 220.17C283.539 275.933 233.177 312.588 173.08 316.794C166.71 317.275 161.181 312.227 161.181 305.738V175.703C161.061 168.252 168.393 162.844 175.604 165.248Z" fill="#E478FF" stroke="#27272E" stroke-width="7" stroke-miterlimit="10"/>
<path d="M161.059 152.507V15.2621C161.059 8.77235 166.588 3.7248 172.958 4.20552C253.969 10.3347 317.792 77.8757 317.792 160.439C317.792 173.659 316.47 185.437 313.345 197.575C311.782 203.824 305.292 207.309 299.162 205.386L168.631 162.963C164.184 161.521 161.059 157.314 161.059 152.507Z" fill="#5D09E1" stroke="#27272E" stroke-width="7" stroke-miterlimit="10"/>
<path d="M161.062 208.032C187.349 208.032 208.659 186.725 208.659 160.441C208.659 134.157 187.349 112.85 161.062 112.85C134.775 112.85 113.465 134.157 113.465 160.441C113.465 186.725 134.775 208.032 161.062 208.032Z" fill="white" stroke="#27272E" stroke-width="7" stroke-miterlimit="10"/>
<path d="M58.92 125H49.24V122.56L53.62 118.72C54.3667 118.067 54.9133 117.48 55.26 116.96C55.6067 116.427 55.78 115.853 55.78 115.24V114.98C55.78 114.367 55.58 113.9 55.18 113.58C54.78 113.247 54.2933 113.08 53.72 113.08C53 113.08 52.4533 113.287 52.08 113.7C51.7067 114.1 51.44 114.587 51.28 115.16L49 114.28C49.1467 113.813 49.3533 113.373 49.62 112.96C49.8867 112.533 50.22 112.16 50.62 111.84C51.0333 111.52 51.5133 111.267 52.06 111.08C52.6067 110.893 53.2333 110.8 53.94 110.8C54.6733 110.8 55.3267 110.907 55.9 111.12C56.4733 111.32 56.9533 111.607 57.34 111.98C57.74 112.353 58.04 112.793 58.24 113.3C58.4533 113.807 58.56 114.36 58.56 114.96C58.56 115.547 58.4667 116.08 58.28 116.56C58.0933 117.04 57.84 117.5 57.52 117.94C57.2 118.367 56.8267 118.78 56.4 119.18C55.9733 119.567 55.52 119.96 55.04 120.36L52.1 122.78H58.92V125ZM65.7922 125.24C64.8989 125.24 64.1255 125.08 63.4722 124.76C62.8189 124.427 62.2789 123.953 61.8522 123.34C61.4255 122.727 61.1055 121.973 60.8922 121.08C60.6922 120.187 60.5922 119.167 60.5922 118.02C60.5922 116.887 60.6922 115.873 60.8922 114.98C61.1055 114.073 61.4255 113.313 61.8522 112.7C62.2789 112.087 62.8189 111.62 63.4722 111.3C64.1255 110.967 64.8989 110.8 65.7922 110.8C67.5655 110.8 68.8722 111.433 69.7122 112.7C70.5655 113.967 70.9922 115.74 70.9922 118.02C70.9922 120.3 70.5655 122.073 69.7122 123.34C68.8722 124.607 67.5655 125.24 65.7922 125.24ZM65.7922 123.02C66.6855 123.02 67.3055 122.687 67.6522 122.02C68.0122 121.34 68.1922 120.427 68.1922 119.28V116.76C68.1922 115.613 68.0122 114.707 67.6522 114.04C67.3055 113.36 66.6855 113.02 65.7922 113.02C64.8989 113.02 64.2722 113.36 63.9122 114.04C63.5655 114.707 63.3922 115.613 63.3922 116.76V119.28C63.3922 120.427 63.5655 121.34 63.9122 122.02C64.2722 122.687 64.8989 123.02 65.7922 123.02ZM75.1844 125L84.8644 111.04H87.1844L77.5044 125H75.1844ZM76.1444 118.72C75.011 118.72 74.1444 118.387 73.5444 117.72C72.9577 117.04 72.6644 116.053 72.6644 114.76C72.6644 113.467 72.9577 112.487 73.5444 111.82C74.1444 111.14 75.011 110.8 76.1444 110.8C77.2777 110.8 78.1377 111.14 78.7244 111.82C79.311 112.487 79.6044 113.467 79.6044 114.76C79.6044 116.053 79.311 117.04 78.7244 117.72C78.1377 118.387 77.2777 118.72 76.1444 118.72ZM76.1444 117.2C76.971 117.2 77.3844 116.567 77.3844 115.3V114.22C77.3844 112.953 76.971 112.32 76.1444 112.32C75.3177 112.32 74.9044 112.953 74.9044 114.22V115.3C74.9044 116.567 75.3177 117.2 76.1444 117.2ZM86.2244 125.24C85.1044 125.24 84.2444 124.907 83.6444 124.24C83.0577 123.56 82.7644 122.573 82.7644 121.28C82.7644 119.987 83.0577 119.007 83.6444 118.34C84.2444 117.66 85.1044 117.32 86.2244 117.32C87.3577 117.32 88.2177 117.66 88.8044 118.34C89.4044 119.007 89.7044 119.987 89.7044 121.28C89.7044 122.573 89.4044 123.56 88.8044 124.24C88.2177 124.907 87.3577 125.24 86.2244 125.24ZM86.2244 123.72C87.051 123.72 87.4644 123.087 87.4644 121.82V120.74C87.4644 119.473 87.051 118.84 86.2244 118.84C85.3977 118.84 84.9844 119.473 84.9844 120.74V121.82C84.9844 123.087 85.3977 123.72 86.2244 123.72Z" fill="white"/>
<path d="M214.92 244H205.24V241.56L209.62 237.72C210.367 237.067 210.913 236.48 211.26 235.96C211.607 235.427 211.78 234.853 211.78 234.24V233.98C211.78 233.367 211.58 232.9 211.18 232.58C210.78 232.247 210.293 232.08 209.72 232.08C209 232.08 208.453 232.287 208.08 232.7C207.707 233.1 207.44 233.587 207.28 234.16L205 233.28C205.147 232.813 205.353 232.373 205.62 231.96C205.887 231.533 206.22 231.16 206.62 230.84C207.033 230.52 207.513 230.267 208.06 230.08C208.607 229.893 209.233 229.8 209.94 229.8C210.673 229.8 211.327 229.907 211.9 230.12C212.473 230.32 212.953 230.607 213.34 230.98C213.74 231.353 214.04 231.793 214.24 232.3C214.453 232.807 214.56 233.36 214.56 233.96C214.56 234.547 214.467 235.08 214.28 235.56C214.093 236.04 213.84 236.5 213.52 236.94C213.2 237.367 212.827 237.78 212.4 238.18C211.973 238.567 211.52 238.96 211.04 239.36L208.1 241.78H214.92V244ZM221.792 244.24C220.899 244.24 220.126 244.08 219.472 243.76C218.819 243.427 218.279 242.953 217.852 242.34C217.426 241.727 217.106 240.973 216.892 240.08C216.692 239.187 216.592 238.167 216.592 237.02C216.592 235.887 216.692 234.873 216.892 233.98C217.106 233.073 217.426 232.313 217.852 231.7C218.279 231.087 218.819 230.62 219.472 230.3C220.126 229.967 220.899 229.8 221.792 229.8C223.566 229.8 224.872 230.433 225.712 231.7C226.566 232.967 226.992 234.74 226.992 237.02C226.992 239.3 226.566 241.073 225.712 242.34C224.872 243.607 223.566 244.24 221.792 244.24ZM221.792 242.02C222.686 242.02 223.306 241.687 223.652 241.02C224.012 240.34 224.192 239.427 224.192 238.28V235.76C224.192 234.613 224.012 233.707 223.652 233.04C223.306 232.36 222.686 232.02 221.792 232.02C220.899 232.02 220.272 232.36 219.912 233.04C219.566 233.707 219.392 234.613 219.392 235.76V238.28C219.392 239.427 219.566 240.34 219.912 241.02C220.272 241.687 220.899 242.02 221.792 242.02ZM231.184 244L240.864 230.04H243.184L233.504 244H231.184ZM232.144 237.72C231.011 237.72 230.144 237.387 229.544 236.72C228.958 236.04 228.664 235.053 228.664 233.76C228.664 232.467 228.958 231.487 229.544 230.82C230.144 230.14 231.011 229.8 232.144 229.8C233.278 229.8 234.138 230.14 234.724 230.82C235.311 231.487 235.604 232.467 235.604 233.76C235.604 235.053 235.311 236.04 234.724 236.72C234.138 237.387 233.278 237.72 232.144 237.72ZM232.144 236.2C232.971 236.2 233.384 235.567 233.384 234.3V233.22C233.384 231.953 232.971 231.32 232.144 231.32C231.318 231.32 230.904 231.953 230.904 233.22V234.3C230.904 235.567 231.318 236.2 232.144 236.2ZM242.224 244.24C241.104 244.24 240.244 243.907 239.644 243.24C239.058 242.56 238.764 241.573 238.764 240.28C238.764 238.987 239.058 238.007 239.644 237.34C240.244 236.66 241.104 236.32 242.224 236.32C243.358 236.32 244.218 236.66 244.804 237.34C245.404 238.007 245.704 238.987 245.704 240.28C245.704 241.573 245.404 242.56 244.804 243.24C244.218 243.907 243.358 244.24 242.224 244.24ZM242.224 242.72C243.051 242.72 243.464 242.087 243.464 240.82V239.74C243.464 238.473 243.051 237.84 242.224 237.84C241.398 237.84 240.984 238.473 240.984 239.74V240.82C240.984 242.087 241.398 242.72 242.224 242.72Z" fill="white"/>
<path d="M227.24 102.68C228.04 102.68 228.627 102.52 229 102.2C229.387 101.867 229.58 101.447 229.58 100.94V100.8C229.58 100.227 229.393 99.78 229.02 99.46C228.66 99.1267 228.16 98.96 227.52 98.96C226.907 98.96 226.36 99.1067 225.88 99.4C225.413 99.6933 225.007 100.107 224.66 100.64L222.98 99.12C223.22 98.8 223.48 98.5 223.76 98.22C224.053 97.9267 224.387 97.68 224.76 97.48C225.133 97.2667 225.553 97.1 226.02 96.98C226.487 96.86 227.013 96.8 227.6 96.8C228.307 96.8 228.947 96.8867 229.52 97.06C230.107 97.22 230.607 97.46 231.02 97.78C231.447 98.1 231.773 98.4867 232 98.94C232.227 99.38 232.34 99.88 232.34 100.44C232.34 100.893 232.267 101.3 232.12 101.66C231.987 102.02 231.793 102.333 231.54 102.6C231.3 102.867 231.013 103.087 230.68 103.26C230.36 103.42 230.02 103.54 229.66 103.62V103.74C230.06 103.82 230.44 103.947 230.8 104.12C231.16 104.293 231.467 104.527 231.72 104.82C231.987 105.1 232.193 105.433 232.34 105.82C232.5 106.207 232.58 106.647 232.58 107.14C232.58 107.753 232.453 108.313 232.2 108.82C231.96 109.327 231.613 109.76 231.16 110.12C230.707 110.48 230.167 110.76 229.54 110.96C228.913 111.147 228.213 111.24 227.44 111.24C226.76 111.24 226.16 111.167 225.64 111.02C225.12 110.887 224.66 110.7 224.26 110.46C223.873 110.22 223.533 109.947 223.24 109.64C222.947 109.32 222.693 108.987 222.48 108.64L224.42 107.16C224.58 107.44 224.753 107.7 224.94 107.94C225.127 108.167 225.34 108.367 225.58 108.54C225.82 108.713 226.093 108.847 226.4 108.94C226.707 109.033 227.053 109.08 227.44 109.08C228.213 109.08 228.807 108.893 229.22 108.52C229.633 108.147 229.84 107.633 229.84 106.98V106.84C229.84 106.2 229.613 105.713 229.16 105.38C228.72 105.047 228.08 104.88 227.24 104.88H225.86V102.68H227.24ZM239.792 111.24C238.899 111.24 238.126 111.08 237.472 110.76C236.819 110.427 236.279 109.953 235.852 109.34C235.426 108.727 235.106 107.973 234.892 107.08C234.692 106.187 234.592 105.167 234.592 104.02C234.592 102.887 234.692 101.873 234.892 100.98C235.106 100.073 235.426 99.3133 235.852 98.7C236.279 98.0867 236.819 97.62 237.472 97.3C238.126 96.9667 238.899 96.8 239.792 96.8C241.566 96.8 242.872 97.4333 243.712 98.7C244.566 99.9667 244.992 101.74 244.992 104.02C244.992 106.3 244.566 108.073 243.712 109.34C242.872 110.607 241.566 111.24 239.792 111.24ZM239.792 109.02C240.686 109.02 241.306 108.687 241.652 108.02C242.012 107.34 242.192 106.427 242.192 105.28V102.76C242.192 101.613 242.012 100.707 241.652 100.04C241.306 99.36 240.686 99.02 239.792 99.02C238.899 99.02 238.272 99.36 237.912 100.04C237.566 100.707 237.392 101.613 237.392 102.76V105.28C237.392 106.427 237.566 107.34 237.912 108.02C238.272 108.687 238.899 109.02 239.792 109.02ZM249.184 111L258.864 97.04H261.184L251.504 111H249.184ZM250.144 104.72C249.011 104.72 248.144 104.387 247.544 103.72C246.958 103.04 246.664 102.053 246.664 100.76C246.664 99.4667 246.958 98.4867 247.544 97.82C248.144 97.14 249.011 96.8 250.144 96.8C251.278 96.8 252.138 97.14 252.724 97.82C253.311 98.4867 253.604 99.4667 253.604 100.76C253.604 102.053 253.311 103.04 252.724 103.72C252.138 104.387 251.278 104.72 250.144 104.72ZM250.144 103.2C250.971 103.2 251.384 102.567 251.384 101.3V100.22C251.384 98.9533 250.971 98.32 250.144 98.32C249.318 98.32 248.904 98.9533 248.904 100.22V101.3C248.904 102.567 249.318 103.2 250.144 103.2ZM260.224 111.24C259.104 111.24 258.244 110.907 257.644 110.24C257.058 109.56 256.764 108.573 256.764 107.28C256.764 105.987 257.058 105.007 257.644 104.34C258.244 103.66 259.104 103.32 260.224 103.32C261.358 103.32 262.218 103.66 262.804 104.34C263.404 105.007 263.704 105.987 263.704 107.28C263.704 108.573 263.404 109.56 262.804 110.24C262.218 110.907 261.358 111.24 260.224 111.24ZM260.224 109.72C261.051 109.72 261.464 109.087 261.464 107.82V106.74C261.464 105.473 261.051 104.84 260.224 104.84C259.398 104.84 258.984 105.473 258.984 106.74V107.82C258.984 109.087 259.398 109.72 260.224 109.72Z" fill="white"/>
<path d="M87.92 244H78.24V241.56L82.62 237.72C83.3667 237.067 83.9133 236.48 84.26 235.96C84.6067 235.427 84.78 234.853 84.78 234.24V233.98C84.78 233.367 84.58 232.9 84.18 232.58C83.78 232.247 83.2933 232.08 82.72 232.08C82 232.08 81.4533 232.287 81.08 232.7C80.7067 233.1 80.44 233.587 80.28 234.16L78 233.28C78.1467 232.813 78.3533 232.373 78.62 231.96C78.8867 231.533 79.22 231.16 79.62 230.84C80.0333 230.52 80.5133 230.267 81.06 230.08C81.6067 229.893 82.2333 229.8 82.94 229.8C83.6733 229.8 84.3267 229.907 84.9 230.12C85.4733 230.32 85.9533 230.607 86.34 230.98C86.74 231.353 87.04 231.793 87.24 232.3C87.4533 232.807 87.56 233.36 87.56 233.96C87.56 234.547 87.4667 235.08 87.28 235.56C87.0933 236.04 86.84 236.5 86.52 236.94C86.2 237.367 85.8267 237.78 85.4 238.18C84.9733 238.567 84.52 238.96 84.04 239.36L81.1 241.78H87.92V244ZM99.7122 244H90.0322V241.56L94.4122 237.72C95.1589 237.067 95.7055 236.48 96.0522 235.96C96.3989 235.427 96.5722 234.853 96.5722 234.24V233.98C96.5722 233.367 96.3722 232.9 95.9722 232.58C95.5722 232.247 95.0855 232.08 94.5122 232.08C93.7922 232.08 93.2455 232.287 92.8722 232.7C92.4989 233.1 92.2322 233.587 92.0722 234.16L89.7922 233.28C89.9389 232.813 90.1455 232.373 90.4122 231.96C90.6789 231.533 91.0122 231.16 91.4122 230.84C91.8255 230.52 92.3055 230.267 92.8522 230.08C93.3989 229.893 94.0255 229.8 94.7322 229.8C95.4655 229.8 96.1189 229.907 96.6922 230.12C97.2655 230.32 97.7455 230.607 98.1322 230.98C98.5322 231.353 98.8322 231.793 99.0322 232.3C99.2455 232.807 99.3522 233.36 99.3522 233.96C99.3522 234.547 99.2589 235.08 99.0722 235.56C98.8855 236.04 98.6322 236.5 98.3122 236.94C97.9922 237.367 97.6189 237.78 97.1922 238.18C96.7655 238.567 96.3122 238.96 95.8322 239.36L92.8922 241.78H99.7122V244ZM104.184 244L113.864 230.04H116.184L106.504 244H104.184ZM105.144 237.72C104.011 237.72 103.144 237.387 102.544 236.72C101.958 236.04 101.664 235.053 101.664 233.76C101.664 232.467 101.958 231.487 102.544 230.82C103.144 230.14 104.011 229.8 105.144 229.8C106.278 229.8 107.138 230.14 107.724 230.82C108.311 231.487 108.604 232.467 108.604 233.76C108.604 235.053 108.311 236.04 107.724 236.72C107.138 237.387 106.278 237.72 105.144 237.72ZM105.144 236.2C105.971 236.2 106.384 235.567 106.384 234.3V233.22C106.384 231.953 105.971 231.32 105.144 231.32C104.318 231.32 103.904 231.953 103.904 233.22V234.3C103.904 235.567 104.318 236.2 105.144 236.2ZM115.224 244.24C114.104 244.24 113.244 243.907 112.644 243.24C112.058 242.56 111.764 241.573 111.764 240.28C111.764 238.987 112.058 238.007 112.644 237.34C113.244 236.66 114.104 236.32 115.224 236.32C116.358 236.32 117.218 236.66 117.804 237.34C118.404 238.007 118.704 238.987 118.704 240.28C118.704 241.573 118.404 242.56 117.804 243.24C117.218 243.907 116.358 244.24 115.224 244.24ZM115.224 242.72C116.051 242.72 116.464 242.087 116.464 240.82V239.74C116.464 238.473 116.051 237.84 115.224 237.84C114.398 237.84 113.984 238.473 113.984 239.74V240.82C113.984 242.087 114.398 242.72 115.224 242.72Z" fill="white"/>
</svg>
