<svg width="379" height="379" viewBox="0 0 379 379" fill="none" xmlns="http://www.w3.org/2000/svg">
<g clip-path="url(#clip0)">
<mask id="mask0" mask-type="alpha" maskUnits="userSpaceOnUse" x="72" y="38" width="67" height="84">
<path d="M74.1541 51.402C71.6841 48.429 72.084 44.004 75.147 41.646C76.162 40.864 77.185 40.093 78.215 39.332C81.325 37.036 85.689 37.869 87.869 41.062L138.206 114.809C139.509 116.719 139.011 119.316 137.165 120.708C135.319 122.099 132.685 121.864 131.208 120.085L74.1541 51.402Z" fill="white"/>
</mask>
<g mask="url(#mask0)">
<path d="M74.1541 51.402C71.6841 48.429 72.084 44.004 75.147 41.646C76.162 40.864 77.185 40.093 78.215 39.332C81.325 37.036 85.689 37.869 87.869 41.062L138.206 114.809C139.509 116.719 139.011 119.316 137.165 120.708C135.319 122.099 132.685 121.864 131.208 120.085L74.1541 51.402Z" fill="#A5DA6F" stroke="white" stroke-width="6"/>
</g>
<mask id="mask1" mask-type="alpha" maskUnits="userSpaceOnUse" x="88" y="18" width="67" height="100">
<path d="M90.106 41.478C86.71 36.441 88.024 29.574 93.25 26.476C97.174 24.15 101.182 21.966 105.264 19.9289C110.699 17.2163 117.183 19.8328 119.575 25.417L153.9 105.539C155.607 109.524 153.738 114.107 149.931 116.182C146.124 118.257 141.26 117.344 138.836 113.749L90.106 41.478Z" fill="white"/>
</mask>
<g mask="url(#mask1)">
<path d="M90.106 41.478C86.71 36.441 88.024 29.574 93.25 26.476C97.174 24.15 101.182 21.966 105.264 19.9289C110.699 17.2163 117.183 19.8328 119.575 25.417L153.9 105.539C155.607 109.524 153.738 114.107 149.931 116.182C146.124 118.257 141.26 117.344 138.836 113.749L90.106 41.478Z" fill="#58AE00" stroke="white" stroke-width="10"/>
</g>
<mask id="mask2" mask-type="alpha" maskUnits="userSpaceOnUse" x="214" y="88" width="165" height="281">
<path d="M337.386 89.9739C342.433 86.5919 349.296 87.9269 352.379 93.1609C365.636 115.671 374.111 140.718 377.225 166.736C380.775 196.4 377.255 226.483 366.951 254.525C356.647 282.568 339.852 307.774 317.941 328.082C298.722 345.893 276.046 359.494 251.369 368.066C245.63 370.059 239.535 366.633 237.879 360.788L214.968 279.957C213.311 274.112 216.747 268.097 222.323 265.685C230.963 261.947 238.932 256.761 245.876 250.326C255.517 241.391 262.906 230.3 267.44 217.961C271.974 205.623 273.523 192.386 271.961 179.334C270.836 169.934 268.12 160.822 263.955 152.38C261.268 146.932 262.544 140.123 267.591 136.741L337.386 89.9739Z" fill="white"/>
</mask>
<g mask="url(#mask2)">
<path d="M337.386 89.9739C342.433 86.5919 349.296 87.9269 352.379 93.1609C365.636 115.671 374.111 140.718 377.225 166.736C380.775 196.4 377.255 226.483 366.951 254.525C356.647 282.568 339.852 307.774 317.941 328.082C298.722 345.893 276.046 359.494 251.369 368.066C245.63 370.059 239.535 366.633 237.879 360.788L214.968 279.957C213.311 274.112 216.747 268.097 222.323 265.685C230.963 261.947 238.932 256.761 245.876 250.326C255.517 241.391 262.906 230.3 267.44 217.961C271.974 205.623 273.523 192.386 271.961 179.334C270.836 169.934 268.12 160.822 263.955 152.38C261.268 146.932 262.544 140.123 267.591 136.741L337.386 89.9739Z" fill="#7BBBDF" stroke="white" stroke-width="10"/>
</g>
<mask id="mask3" mask-type="alpha" maskUnits="userSpaceOnUse" x="25" y="232" width="217" height="147">
<path d="M241.403 359.678C243.188 365.485 239.932 371.672 234.031 373.117C194.996 382.672 153.823 379.576 116.524 364.113C79.224 348.65 47.937 321.708 27.111 287.337C23.963 282.141 26.04 275.465 31.41 272.624L105.672 233.332C111.041 230.491 117.642 232.595 121.165 237.544C130.185 250.213 142.621 260.168 157.123 266.18C171.624 272.191 187.456 273.955 202.794 271.383C208.785 270.379 214.938 273.562 216.723 279.369L241.403 359.678Z" fill="white"/>
</mask>
<g mask="url(#mask3)">
<path d="M241.403 359.678C243.188 365.485 239.932 371.672 234.031 373.117C194.996 382.672 153.823 379.576 116.524 364.113C79.224 348.65 47.937 321.708 27.111 287.337C23.963 282.141 26.04 275.465 31.41 272.624L105.672 233.332C111.041 230.491 117.642 232.595 121.165 237.544C130.185 250.213 142.621 260.168 157.123 266.18C171.624 272.191 187.456 273.955 202.794 271.383C208.785 270.379 214.938 273.562 216.723 279.369L241.403 359.678Z" fill="#FFAC7D" stroke="white" stroke-width="10"/>
</g>
<mask id="mask4" mask-type="alpha" maskUnits="userSpaceOnUse" x="-1" y="48" width="132" height="230">
<path d="M33.3439 276.108C28.0419 279.075 21.3079 277.194 18.6539 271.729C1.09914 235.578 -4.53675 194.676 2.73195 154.957C10.0006 115.239 29.757 78.984 58.977 51.393C63.394 47.222 70.3579 47.848 74.2649 52.5L128.302 116.831C132.21 121.483 131.542 128.378 127.445 132.864C116.957 144.348 109.842 158.6 107.016 174.042C104.19 189.484 105.797 205.332 111.538 219.786C113.78 225.432 111.963 232.116 106.661 235.083L33.3439 276.108Z" fill="white"/>
</mask>
<g mask="url(#mask4)">
<path d="M33.3439 276.108C28.0419 279.075 21.3079 277.194 18.6539 271.729C1.09914 235.578 -4.53675 194.676 2.73195 154.957C10.0006 115.239 29.757 78.984 58.977 51.393C63.394 47.222 70.3579 47.848 74.2649 52.5L128.302 116.831C132.21 121.483 131.542 128.378 127.445 132.864C116.957 144.348 109.842 158.6 107.016 174.042C104.19 189.484 105.797 205.332 111.538 219.786C113.78 225.432 111.963 232.116 106.661 235.083L33.3439 276.108Z" fill="#FFD541" stroke="white" stroke-width="10"/>
</g>
<mask id="mask5" mask-type="alpha" maskUnits="userSpaceOnUse" x="210" y="7" width="102" height="116">
<path d="M229.689 15.5772C231.067 9.66042 236.992 5.94912 242.819 7.66812C266.281 14.5893 288.181 25.993 307.304 41.247C312.053 45.035 312.41 52.018 308.353 56.539L252.237 119.066C248.179 123.587 241.259 123.893 236.242 120.466C230.767 116.726 224.865 113.652 218.661 111.311C212.977 109.166 209.259 103.321 210.637 97.404L229.689 15.5772Z" fill="white"/>
</mask>
<g mask="url(#mask5)">
<path d="M229.689 15.5772C231.067 9.66042 236.992 5.94912 242.819 7.66812C266.281 14.5893 288.181 25.993 307.304 41.247C312.053 45.035 312.41 52.018 308.353 56.539L252.237 119.066C248.179 123.587 241.259 123.893 236.242 120.466C230.767 116.726 224.865 113.652 218.661 111.311C212.977 109.166 209.259 103.321 210.637 97.404L229.689 15.5772Z" fill="#09CE95" stroke="white" stroke-width="10"/>
</g>
<mask id="mask6" mask-type="alpha" maskUnits="userSpaceOnUse" x="246" y="48" width="100" height="93">
<path d="M303.233 52.107C307.116 47.435 314.076 46.773 318.515 50.921C327.649 59.457 335.915 68.877 343.192 79.042C346.728 83.982 345.167 90.797 340.03 94.04L268.989 138.893C263.852 142.137 257.11 140.544 253.219 135.879C252.329 134.812 251.412 133.767 250.47 132.746C246.35 128.281 245.646 121.39 249.53 116.718L303.233 52.107Z" fill="white"/>
</mask>
<g mask="url(#mask6)">
<path d="M303.233 52.107C307.116 47.435 314.076 46.773 318.515 50.921C327.649 59.457 335.915 68.877 343.192 79.042C346.728 83.982 345.167 90.797 340.03 94.04L268.989 138.893C263.852 142.137 257.11 140.544 253.219 135.879C252.329 134.812 251.412 133.767 250.47 132.746C246.35 128.281 245.646 121.39 249.53 116.718L303.233 52.107Z" fill="#8096E3" stroke="white" stroke-width="12"/>
</g>
<mask id="mask7" mask-type="alpha" maskUnits="userSpaceOnUse" x="116" y="3" width="61" height="107">
<path d="M117.141 26.157C114.684 20.6007 117.187 14.0727 122.876 11.9427C132.724 8.25598 142.862 5.39607 153.184 3.39277C159.148 2.23537 164.693 6.49287 165.502 12.5139L176.692 95.781C177.502 101.802 173.246 107.268 167.384 108.862C166.885 108.998 166.387 109.139 165.89 109.284C160.059 110.988 153.574 108.552 151.117 102.996L117.141 26.157Z" fill="white"/>
</mask>
<g mask="url(#mask7)">
<path d="M117.141 26.157C114.684 20.6007 117.187 14.0727 122.876 11.9427C132.724 8.25598 142.862 5.39607 153.184 3.39277C159.148 2.23537 164.693 6.49287 165.502 12.5139L176.692 95.781C177.502 101.802 173.246 107.268 167.384 108.862C166.885 108.998 166.387 109.139 165.89 109.284C160.059 110.988 153.574 108.552 151.117 102.996L117.141 26.157Z" fill="#074223" stroke="white" stroke-width="10"/>
</g>
<mask id="mask8" mask-type="alpha" maskUnits="userSpaceOnUse" x="164" y="-1" width="69" height="108">
<path d="M165.021 12.5809C164.195 6.56211 168.405 0.980111 174.461 0.505411C190.891 -0.782089 207.418 0.0811069 223.624 3.07311C229.598 4.17611 233.203 10.1663 231.755 16.0663L211.729 97.66C210.281 103.56 204.322 107.092 198.282 106.433C195.166 106.093 192.033 105.93 188.898 105.943C182.823 105.969 177.264 101.836 176.438 95.817L165.021 12.5809Z" fill="white"/>
</mask>
<g mask="url(#mask8)">
<path d="M165.021 12.5809C164.195 6.56211 168.405 0.980111 174.461 0.505411C190.891 -0.782089 207.418 0.0811069 223.624 3.07311C229.598 4.17611 233.203 10.1663 231.755 16.0663L211.729 97.66C210.281 103.56 204.322 107.092 198.282 106.433C195.166 106.093 192.033 105.93 188.898 105.943C182.823 105.969 177.264 101.836 176.438 95.817L165.021 12.5809Z" fill="#006450" stroke="white" stroke-width="10"/>
</g>
</g>
<defs>
<clipPath id="clip0">
<rect width="379" height="379" fill="white"/>
</clipPath>
</defs>
</svg>
