<svg width="36" height="36" viewBox="0 0 36 36" fill="none" xmlns="http://www.w3.org/2000/svg">
    <path d="M7.5 6L4.5 9" stroke="white" stroke-width="2" stroke-linecap="round"/>
    <path d="M28.5 6L31.5 9" stroke="white" stroke-width="2" stroke-linecap="round"/>
    <path fill-rule="evenodd" clip-rule="evenodd" d="M18 30C24.6274 30 30 24.6274 30 18C30 11.3726 24.6274 6 18 6C11.3726 6 6 11.3726 6 18C6 24.6274 11.3726 30 18 30ZM21.7809 14.8747C22.1259 14.4434 22.056 13.8141 21.6247 13.4691C21.1934 13.1241 20.5641 13.194 20.2191 13.6253L17.7919 16.6594L14.0547 14.1679C13.5952 13.8616 12.9743 13.9858 12.6679 14.4453C12.3616 14.9048 12.4858 15.5257 12.9453 15.8321L17.2546 18.7049C17.7941 19.0646 18.519 18.952 18.9241 18.4457L21.7809 14.8747Z" fill="white"/>
</svg>
