<svg width="32" height="30" viewBox="0 0 32 30" fill="none" xmlns="http://www.w3.org/2000/svg">
<path fill-rule="evenodd" clip-rule="evenodd" d="M6.53096 3.77148H24.6486L22.9315 5.51203H6.53096C5.11072 5.51203 3.95533 6.68329 3.95533 8.1229V24.3682C3.95533 24.4888 3.96343 24.6075 3.97912 24.7238L2.60165 26.1201C2.36806 25.5838 2.23828 24.9911 2.23828 24.3682V8.1229C2.23828 5.72351 4.16396 3.77148 6.53096 3.77148ZM27.7082 26.9791H7.0156L5.4392 28.5771C5.78792 28.6701 6.15383 28.7196 6.53096 28.7196H27.7082C30.0752 28.7196 32.0009 26.7676 32.0009 24.3682V8.1229C32.0009 6.37628 30.9805 4.86672 29.5122 4.17462L28.1542 5.5512C29.3626 5.76592 30.2838 6.83739 30.2838 8.1229V11.8941H23.9879C21.6209 11.8941 19.6952 13.8462 19.6952 16.2456C19.6952 18.6449 21.6209 20.597 23.9879 20.597H30.2838V24.3682C30.2838 25.8078 29.1284 26.9791 27.7082 26.9791ZM30.2838 18.8564H23.9879C22.5677 18.8564 21.4123 17.6852 21.4123 16.2456C21.4123 14.8059 22.5677 13.6347 23.9879 13.6347H30.2838V18.8564ZM23.9874 15.3755H25.1321C25.6063 15.3755 25.9907 15.7652 25.9907 16.2458C25.9907 16.7264 25.6063 17.1161 25.1321 17.1161H23.9874C23.5133 17.1161 23.1289 16.7265 23.1289 16.2458C23.1289 15.7652 23.5133 15.3755 23.9874 15.3755Z" fill="white"/>
<rect width="1.87293" height="40.2681" rx="0.936467" transform="matrix(0.702285 0.711896 -0.702285 0.711896 28.2812 0)" fill="#FF3E55"/>
</svg>
