<svg width="40" height="40" viewBox="0 0 40 40" fill="none" xmlns="http://www.w3.org/2000/svg">
    <path d="M14.9057 7.4535C13.1652 5.5624 12.7301 2.43481 15.2683 1.48926C18.024 2.14387 19.2569 2.14387 20.8524 1.48926C24.0431 2.14387 24.0431 5.48966 21.65 7.4535C19.2568 9.41733 14.9057 7.4535 14.9057 7.4535Z" fill="#27272E" stroke="white" stroke-width="1.2" stroke-miterlimit="10" stroke-linecap="round" stroke-linejoin="round"/>
    <circle cx="11.8519" cy="26.8519" r="11.8519" fill="#7A2DF4"/>
    <path d="M15.1231 10.2161C13.8903 9.48872 13.7453 7.45215 14.9056 7.45215C16.0659 7.45215 20.3445 7.45215 21.6499 7.45215C22.9553 7.45215 22.8827 9.12505 21.6499 10.2161" fill="white"/>
    <path d="M15.1231 10.2161C13.8903 9.48872 13.7453 7.45215 14.9056 7.45215C16.0659 7.45215 20.3445 7.45215 21.6499 7.45215C22.9553 7.45215 22.8827 9.12505 21.6499 10.2161" fill="#27272E"/>
    <path d="M15.1231 10.2161C13.8903 9.48872 13.7453 7.45215 14.9056 7.45215C16.0659 7.45215 20.3445 7.45215 21.6499 7.45215C22.9553 7.45215 22.8827 9.12505 21.6499 10.2161" stroke="white" stroke-width="1.2" stroke-miterlimit="10" stroke-linecap="round" stroke-linejoin="round"/>
    <mask id="path-6-inside-1" fill="white">
        <path d="M20.2007 38.2922H6.42201C4.8991 38.2922 3.59375 37.0558 3.59375 35.4556C3.59375 33.9282 4.82658 32.6189 6.42201 32.6189H6.78461V21.1996C6.71209 14.8717 11.8609 9.78027 18.0976 9.78027C24.4068 9.78027 29.4832 14.8717 29.4832 21.1996V33.0554"/>
    </mask>
    <path d="M20.2007 38.2922H6.42201C4.8991 38.2922 3.59375 37.0558 3.59375 35.4556C3.59375 33.9282 4.82658 32.6189 6.42201 32.6189H6.78461V21.1996C6.71209 14.8717 11.8609 9.78027 18.0976 9.78027C24.4068 9.78027 29.4832 14.8717 29.4832 21.1996V33.0554" fill="#27272E"/>
    <path d="M6.78461 32.6189V33.6189H7.78461V32.6189H6.78461ZM6.78461 21.1996H7.78468L7.78454 21.1881L6.78461 21.1996ZM20.2007 37.2922H6.42201V39.2922H20.2007V37.2922ZM6.42201 37.2922C5.43741 37.2922 4.59375 36.4896 4.59375 35.4556H2.59375C2.59375 37.622 4.36079 39.2922 6.42201 39.2922V37.2922ZM4.59375 35.4556C4.59375 34.4609 5.39827 33.6189 6.42201 33.6189V31.6189C4.25489 31.6189 2.59375 33.3955 2.59375 35.4556H4.59375ZM6.42201 33.6189H6.78461V31.6189H6.42201V33.6189ZM7.78461 32.6189V21.1996H5.78461V32.6189H7.78461ZM7.78454 21.1881C7.7185 15.425 12.4096 10.7803 18.0976 10.7803V8.78027C11.3122 8.78027 5.70568 14.3184 5.78468 21.2111L7.78454 21.1881ZM18.0976 10.7803C23.8518 10.7803 28.4832 15.4212 28.4832 21.1996H30.4832C30.4832 14.3222 24.9619 8.78027 18.0976 8.78027V10.7803ZM28.4832 21.1996V33.0554H30.4832V21.1996H28.4832Z" fill="white" mask="url(#path-6-inside-1)"/>
    <path d="M20.2007 38.2922H6.42201C4.8991 38.2922 3.59375 37.0558 3.59375 35.4556C3.59375 33.9282 4.82658 32.6189 6.42201 32.6189H6.78461V21.1996C6.71209 14.8717 11.8609 9.78027 18.0976 9.78027C24.4068 9.78027 29.4832 14.8717 29.4832 21.1996V33.0554" stroke="white" stroke-width="1.2" stroke-miterlimit="10" stroke-linecap="round" stroke-linejoin="round"/>
    <path d="M18.388 32.1102C22.5934 32.1102 26.0025 28.6909 26.0025 24.4731C26.0025 20.2552 22.5934 16.8359 18.388 16.8359C14.1826 16.8359 10.7734 20.2552 10.7734 24.4731C10.7734 28.6909 14.1826 32.1102 18.388 32.1102Z" fill="#E478FF"/>
    <path d="M24.7696 20.2544C23.3918 18.2179 21.0711 16.8359 18.3879 16.8359C14.1818 16.8359 10.7734 20.2544 10.7734 24.4731C10.7734 28.6917 14.1818 32.1102 18.3879 32.1102C19.4032 32.1102 20.3459 31.892 21.2887 31.5283" stroke="white" stroke-width="1.2" stroke-miterlimit="10" stroke-linecap="round" stroke-linejoin="round"/>
    <path d="M33.7611 34.4365H22.6656C22.448 34.4365 22.2305 34.6547 22.2305 34.8729V38.0732C22.2305 38.2914 22.448 38.5096 22.6656 38.5096H33.7611C33.9786 38.5096 34.1962 38.2914 34.1962 38.0732V34.8729C34.2687 34.582 34.0511 34.4365 33.7611 34.4365Z" fill="#7A2DF4" stroke="white" stroke-width="1.2" stroke-miterlimit="10" stroke-linecap="round" stroke-linejoin="round"/>
    <path d="M34.8492 30.292H23.6812C23.4636 30.292 23.2461 30.5102 23.2461 30.7284V33.9287C23.2461 34.1469 23.4636 34.3651 23.6812 34.3651H34.7767C34.9942 34.3651 35.2118 34.1469 35.2118 33.9287V30.7284C35.2843 30.4375 35.0668 30.292 34.8492 30.292Z" fill="#7A2DF4" stroke="white" stroke-width="1.2" stroke-miterlimit="10" stroke-linecap="round" stroke-linejoin="round"/>
    <path d="M37.0245 26.1445H25.8565C25.639 26.1445 25.4214 26.3627 25.4214 26.5809V29.7813C25.4214 29.9995 25.639 30.2177 25.8565 30.2177H36.952C37.1696 30.2177 37.3871 29.9995 37.3871 29.7813V26.5809C37.4597 26.3627 37.2421 26.1445 37.0245 26.1445Z" fill="#7A2DF4" stroke="white" stroke-width="1.2" stroke-miterlimit="10" stroke-linecap="round" stroke-linejoin="round"/>
    <path d="M35.8649 22.001H24.6969C24.4793 22.001 24.2617 22.2192 24.2617 22.4374V25.6377C24.2617 25.8559 24.4793 26.0741 24.6969 26.0741H35.7923C36.0099 26.0741 36.2275 25.8559 36.2275 25.6377V22.4374C36.3 22.2192 36.0824 22.001 35.8649 22.001Z" fill="#7A2DF4" stroke="white" stroke-width="1.2" stroke-miterlimit="10" stroke-linecap="round" stroke-linejoin="round"/>
    <path d="M16.2109 25.928C16.2109 26.7281 16.8635 27.3827 17.6613 27.3827H19.3292C20.0544 27.3827 20.562 26.8008 20.562 26.1462C20.562 25.6371 20.1994 25.1279 19.6918 24.9097L17.0811 24.0369C16.5735 23.8914 16.2109 23.3823 16.2109 22.8731C16.2109 22.1458 16.791 21.6367 17.4437 21.6367H19.1116C19.9094 21.6367 20.562 22.2913 20.562 23.0914" stroke="#282D33" stroke-width="1.2" stroke-miterlimit="10" stroke-linecap="round" stroke-linejoin="round"/>
    <path d="M18.3862 21.5631V20.1084" stroke="#282D33" stroke-width="1.2" stroke-miterlimit="10" stroke-linecap="round" stroke-linejoin="round"/>
    <path d="M18.3862 27.3828V28.8375" stroke="#282D33" stroke-width="1.2" stroke-miterlimit="10" stroke-linecap="round" stroke-linejoin="round"/>
</svg>
