<svg width="40" height="40" viewBox="0 0 40 40" fill="none" xmlns="http://www.w3.org/2000/svg">
<path d="M14.9059 7.45301C13.1654 5.56191 12.7303 2.43432 15.2685 1.48877C18.0242 2.14338 19.257 2.14338 20.8525 1.48877C24.0433 2.14338 24.0433 5.48917 21.6502 7.45301C19.257 9.41684 14.9059 7.45301 14.9059 7.45301Z" fill="white" stroke="#282D33" stroke-width="1.2" stroke-miterlimit="10" stroke-linecap="round" stroke-linejoin="round"/>
<path d="M15.1233 10.2164C13.8905 9.48902 13.7455 7.45245 14.9058 7.45245C16.0661 7.45245 20.3447 7.45245 21.6501 7.45245C22.9555 7.45245 22.8829 9.12535 21.6501 10.2164" fill="white"/>
<path d="M15.1233 10.2164C13.8905 9.48902 13.7455 7.45245 14.9058 7.45245C16.0661 7.45245 20.3447 7.45245 21.6501 7.45245C22.9555 7.45245 22.8829 9.12535 21.6501 10.2164" stroke="#282D33" stroke-width="1.2" stroke-miterlimit="10" stroke-linecap="round" stroke-linejoin="round"/>
<path d="M20.2007 38.2922H6.42198C4.89907 38.2922 3.59372 37.0558 3.59372 35.4556C3.59372 33.9282 4.82655 32.6189 6.42198 32.6189H6.78458V21.1996C6.71206 14.8717 11.8609 9.78027 18.0976 9.78027C24.4068 9.78027 29.4832 14.8717 29.4832 21.1996V33.0554" fill="white"/>
<path d="M20.2007 38.2922H6.42198C4.89907 38.2922 3.59372 37.0558 3.59372 35.4556C3.59372 33.9282 4.82655 32.6189 6.42198 32.6189H6.78458V21.1996C6.71206 14.8717 11.8609 9.78027 18.0976 9.78027C24.4068 9.78027 29.4832 14.8717 29.4832 21.1996V33.0554" stroke="#282D33" stroke-width="1.2" stroke-miterlimit="10" stroke-linecap="round" stroke-linejoin="round"/>
<path d="M18.3878 32.1102C22.5932 32.1102 26.0023 28.6909 26.0023 24.4731C26.0023 20.2552 22.5932 16.8359 18.3878 16.8359C14.1824 16.8359 10.7732 20.2552 10.7732 24.4731C10.7732 28.6909 14.1824 32.1102 18.3878 32.1102Z" fill="#FFD541"/>
<path d="M24.7694 20.2543C23.3916 18.2178 21.0709 16.8358 18.3877 16.8358C14.1816 16.8358 10.7732 20.2543 10.7732 24.473C10.7732 28.6916 14.1816 32.1101 18.3877 32.1101C19.403 32.1101 20.3457 31.8919 21.2885 31.5282" stroke="#282D33" stroke-width="1.2" stroke-miterlimit="10" stroke-linecap="round" stroke-linejoin="round"/>
<path d="M33.7612 34.4366H22.6657C22.4481 34.4366 22.2306 34.6548 22.2306 34.873V38.0733C22.2306 38.2915 22.4481 38.5097 22.6657 38.5097H33.7612C33.9787 38.5097 34.1963 38.2915 34.1963 38.0733V34.873C34.2688 34.5821 34.0512 34.4366 33.7612 34.4366Z" fill="#FFD541" stroke="#282D33" stroke-width="1.2" stroke-miterlimit="10" stroke-linecap="round" stroke-linejoin="round"/>
<path d="M34.8494 30.292H23.6814C23.4638 30.292 23.2463 30.5102 23.2463 30.7284V33.9287C23.2463 34.1469 23.4638 34.3651 23.6814 34.3651H34.7769C34.9944 34.3651 35.212 34.1469 35.212 33.9287V30.7284C35.2845 30.4375 35.067 30.292 34.8494 30.292Z" fill="#FFD541" stroke="#282D33" stroke-width="1.2" stroke-miterlimit="10" stroke-linecap="round" stroke-linejoin="round"/>
<path d="M37.0247 26.145H25.8567C25.6392 26.145 25.4216 26.3632 25.4216 26.5814V29.7818C25.4216 30 25.6392 30.2182 25.8567 30.2182H36.9522C37.1698 30.2182 37.3873 30 37.3873 29.7818V26.5814C37.4599 26.3632 37.2423 26.145 37.0247 26.145Z" fill="#FFD541" stroke="#282D33" stroke-width="1.2" stroke-miterlimit="10" stroke-linecap="round" stroke-linejoin="round"/>
<path d="M35.865 22.0005H24.697C24.4794 22.0005 24.2618 22.2187 24.2618 22.4369V25.6372C24.2618 25.8554 24.4794 26.0736 24.697 26.0736H35.7924C36.01 26.0736 36.2276 25.8554 36.2276 25.6372V22.4369C36.3001 22.2187 36.0825 22.0005 35.865 22.0005Z" fill="#FFD541" stroke="#282D33" stroke-width="1.2" stroke-miterlimit="10" stroke-linecap="round" stroke-linejoin="round"/>
<path d="M16.211 25.928C16.211 26.7281 16.8636 27.3827 17.6614 27.3827H19.3293C20.0545 27.3827 20.5621 26.8008 20.5621 26.1462C20.5621 25.6371 20.1995 25.1279 19.6919 24.9097L17.0812 24.0369C16.5736 23.8914 16.211 23.3823 16.211 22.8731C16.211 22.1458 16.7911 21.6367 17.4438 21.6367H19.1117C19.9095 21.6367 20.5621 22.2913 20.5621 23.0914" stroke="#282D33" stroke-width="1.2" stroke-miterlimit="10" stroke-linecap="round" stroke-linejoin="round"/>
<path d="M18.386 21.5634V20.1087" stroke="#282D33" stroke-width="1.2" stroke-miterlimit="10" stroke-linecap="round" stroke-linejoin="round"/>
<path d="M18.386 27.3827V28.8374" stroke="#282D33" stroke-width="1.2" stroke-miterlimit="10" stroke-linecap="round" stroke-linejoin="round"/>
</svg>
