<svg width="32" height="34" viewBox="0 0 32 34" fill="none" xmlns="http://www.w3.org/2000/svg">
    <g clip-path="url(#clip0)">
        <path d="M16.7541 11.9794C16.3375 11.5629 15.6621 11.5629 15.2456 11.9794L10.9789 16.2461C10.5624 16.6626 10.5624 17.338 10.9789 17.7546C11.3955 18.1711 12.0709 18.1711 12.4874 17.7546L14.9332 15.3088L14.9332 21.267C14.9332 21.8561 15.4107 22.3337 15.9998 22.3337C16.5889 22.3337 17.0665 21.8561 17.0665 21.267L17.0665 15.3088L19.5123 17.7546C19.9288 18.1711 20.6042 18.1711 21.0207 17.7546C21.4373 17.338 21.4373 16.6626 21.0207 16.2461L16.7541 11.9794Z" fill="#37FFDB"/>
    </g>
    <path fill-rule="evenodd" clip-rule="evenodd" d="M18.1757 32.542C16.7984 33.3285 15.0911 33.3285 13.7138 32.542L13.71 32.5398L3.63118 26.7247C2.25734 25.9132 1.4198 24.4502 1.4198 22.8526L1.4198 11.2316C1.4198 9.64575 2.2491 8.1496 3.64204 7.35428C3.64286 7.35381 3.64369 7.35335 3.64451 7.35288L13.7099 1.54445L13.7145 1.54184C15.0914 0.756831 16.7981 0.756831 18.1751 1.54184L18.18 1.54465L28.2399 7.35571L28.2442 7.35819C29.6311 8.16849 30.4697 9.63415 30.4697 11.2316L30.4697 22.8526C30.4697 24.4513 29.6309 25.9155 28.2448 26.7267L28.2399 26.7296L18.1757 32.542ZM17.1819 30.8063C17.1826 30.8059 17.1833 30.8056 17.1839 30.8052L27.2369 24.9992C28.0095 24.5461 28.4697 23.739 28.4697 22.8526L28.4697 11.2316C28.4697 10.3457 28.0092 9.5381 27.2372 9.08618C27.2366 9.0858 27.2359 9.08543 27.2353 9.08505L17.1845 3.27933C17.1838 3.27891 17.1831 3.27849 17.1824 3.27808C16.4204 2.84473 15.469 2.84475 14.707 3.27816C14.7063 3.27855 14.7057 3.27894 14.705 3.27933L4.63959 9.08775L4.63504 9.09036C3.88947 9.51541 3.4198 10.3343 3.4198 11.2316L3.4198 22.8526C3.4198 23.7395 3.88054 24.5472 4.64429 25.0002L14.7056 30.8052C14.7062 30.8055 14.7068 30.8059 14.7074 30.8062C15.4692 31.2403 16.4202 31.2404 17.1819 30.8063Z" fill="#37FFDB"/>
    <defs>
        <clipPath id="clip0">
            <rect width="10.6667" height="10.6667" fill="white" transform="translate(10.6665 11.667)"/>
        </clipPath>
    </defs>
</svg>
