<svg width="32" height="34" viewBox="0 0 32 34" fill="none" xmlns="http://www.w3.org/2000/svg">
    <path d="M2.4213 11.2317V22.8528C2.4213 24.0949 3.07393 25.2317 4.14761 25.8633L14.2108 31.6738C15.2845 32.2843 16.6108 32.2843 17.6845 31.6738L27.7476 25.8633C28.8213 25.2528 29.4739 24.0949 29.4739 22.8528V11.2317C29.4739 9.9896 28.8213 8.85276 27.7476 8.22118L17.6845 2.41065C16.6108 1.80013 15.2845 1.80013 14.2108 2.41065L4.14761 8.22118C3.07393 8.85276 2.4213 9.9896 2.4213 11.2317Z" stroke="#9ECFC3" stroke-width="2" stroke-miterlimit="10" stroke-linecap="round" stroke-linejoin="round"/>
    <g clip-path="url(#clip0)">
        <path d="M15.2445 22.0216C15.661 22.4381 16.3364 22.4381 16.7529 22.0216L21.0196 17.7549C21.4362 17.3383 21.4362 16.663 21.0196 16.2464C20.6031 15.8298 19.9277 15.8298 19.5111 16.2464L17.0654 18.6922L17.0654 12.734C17.0654 12.1449 16.5878 11.6673 15.9987 11.6673C15.4096 11.6673 14.932 12.1449 14.932 12.734L14.932 18.6922L12.4863 16.2464C12.0697 15.8298 11.3943 15.8298 10.9778 16.2464C10.5612 16.663 10.5612 17.3383 10.9778 17.7549L15.2445 22.0216Z" fill="#54B489"/>
    </g>
    <defs>
        <clipPath id="clip0">
            <rect width="10.6667" height="10.6667" fill="white" transform="translate(21.332 22.334) rotate(180)"/>
        </clipPath>
    </defs>
</svg>
