<svg width="30" height="34" viewBox="0 0 30 34" fill="none" xmlns="http://www.w3.org/2000/svg">
    <path fill-rule="evenodd" clip-rule="evenodd" d="M12.714 1.54298C14.0913 0.756506 15.7985 0.756506 17.1758 1.54298L17.1797 1.5452L27.2585 7.36031C28.6323 8.17177 29.4698 9.63479 29.4698 11.2324V22.8534C29.4698 24.4392 28.6406 25.9354 27.2476 26.7307C27.2468 26.7311 27.246 26.7316 27.2451 26.7321L17.1797 32.5405L17.1752 32.5431C15.7982 33.3281 14.0916 33.3281 12.7146 32.5431L12.7096 32.5403L2.64971 26.7293L2.64543 26.7268C1.25856 25.9165 0.419922 24.4508 0.419922 22.8534V11.2324C0.419922 9.63366 1.25874 8.16941 2.64484 7.35829L2.64977 7.3554L12.714 1.54298ZM13.7077 3.27864C13.707 3.27901 13.7064 3.27939 13.7057 3.27977L3.6527 9.08578C2.88016 9.53891 2.41992 10.3459 2.41992 11.2324V22.8534C2.41992 23.7392 2.88048 24.5469 3.65244 24.9988C3.65308 24.9992 3.65373 24.9995 3.65437 24.9999L13.7051 30.8056C13.7058 30.8061 13.7066 30.8065 13.7073 30.8069C14.4693 31.2402 15.4207 31.2402 16.1826 30.8068C16.1833 30.8064 16.184 30.806 16.1847 30.8056L26.2501 24.9972L26.2546 24.9946C27.0002 24.5696 27.4698 23.7506 27.4698 22.8534V11.2324C27.4698 10.3455 27.0091 9.53779 26.2454 9.08479L16.1841 3.27977C16.1834 3.27942 16.1828 3.27907 16.1822 3.27873C15.4205 2.84462 14.4695 2.84459 13.7077 3.27864Z" fill="#37FFDB"/>
    <path d="M14.24 22.0229C14.66 22.4389 15.3401 22.4389 15.7501 22.0229L20.0201 17.756C20.4401 17.339 20.4401 16.6639 20.0201 16.2469C19.6001 15.8309 18.9301 15.8309 18.5101 16.2469L16.07 18.693V12.735C16.07 12.146 15.5901 11.668 15.0001 11.668C14.4101 11.668 13.9301 12.146 13.9301 12.735V18.693L11.49 16.2469C11.07 15.8309 10.39 15.8309 9.98004 16.2469C9.56004 16.6639 9.56004 17.339 9.98004 17.756L14.24 22.0229Z" fill="#37FFDB"/>
</svg>
