<svg width="32" height="32" viewBox="0 0 32 32" fill="none" xmlns="http://www.w3.org/2000/svg">
    <path d="M2.42096 10.2316V21.8526C2.42096 23.0947 3.07359 24.2316 4.14727 24.8632L14.2104 30.6737C15.2841 31.2842 16.6104 31.2842 17.6841 30.6737L27.7473 24.8632C28.821 24.2526 29.4736 23.0947 29.4736 21.8526V10.2316C29.4736 8.98948 28.821 7.85264 27.7473 7.22106L17.6841 1.41053C16.6104 0.800005 15.2841 0.800005 14.2104 1.41053L4.14727 7.22106C3.07359 7.85264 2.42096 8.98948 2.42096 10.2316Z" fill="#FFD541"/>
    <g clip-path="url(#clip0)">
        <path d="M16.7542 10.9792C16.3377 10.5626 15.6623 10.5626 15.2457 10.9792L10.9791 15.2458C10.5625 15.6624 10.5625 16.3378 10.9791 16.7543C11.3956 17.1709 12.071 17.1709 12.4876 16.7543L14.9333 14.3086L14.9333 20.2667C14.9333 20.8559 15.4109 21.3334 16 21.3334C16.5891 21.3334 17.0667 20.8559 17.0667 20.2667L17.0667 14.3086L19.5124 16.7543C19.929 17.1709 20.6043 17.1709 21.0209 16.7543C21.4375 16.3378 21.4375 15.6624 21.0209 15.2458L16.7542 10.9792Z" fill="#1C1C1F"/>
    </g>
    <defs>
        <clipPath id="clip0">
            <rect width="10.6667" height="10.6667" fill="white" transform="translate(10.6667 10.6667)"/>
        </clipPath>
    </defs>
</svg>
