<svg width="44" height="44" viewBox="0 0 44 44" fill="none" xmlns="http://www.w3.org/2000/svg">
    <circle opacity="0.3" cx="32.1487" cy="32.1487" r="11.8519" fill="#FFD541"/>
    <path d="M14.555 25.9263C20.8352 25.9263 25.9263 20.8352 25.9263 14.555C25.9263 8.27473 20.8352 3.18359 14.555 3.18359C8.27473 3.18359 3.18359 8.27473 3.18359 14.555C3.18359 20.8352 8.27473 25.9263 14.555 25.9263Z" fill="white"/>
    <path d="M12.4727 34.7355C10.3907 36.8176 6.86713 36.8176 4.78505 34.7355C2.70297 32.6535 2.70297 29.1299 4.78505 27.0479" stroke="#282D33" stroke-width="1.2" stroke-miterlimit="10" stroke-linecap="round" stroke-linejoin="round"/>
    <path d="M12.9531 34.0952H10.2304" stroke="#282D33" stroke-width="1.2" stroke-miterlimit="10" stroke-linecap="round" stroke-linejoin="round"/>
    <path d="M12.9528 36.8179V34.0952" stroke="#282D33" stroke-width="1.2" stroke-miterlimit="10" stroke-linecap="round" stroke-linejoin="round"/>
    <path d="M27.528 5.26517C29.6101 3.18309 33.1336 3.18309 35.2157 5.26517C37.2978 7.34726 37.2978 10.8708 35.2157 12.9529" stroke="#282D33" stroke-width="1.2" stroke-miterlimit="10" stroke-linecap="round" stroke-linejoin="round"/>
    <path d="M27.0472 3.18359V5.90632" stroke="#282D33" stroke-width="1.2" stroke-miterlimit="10" stroke-linecap="round" stroke-linejoin="round"/>
    <path d="M29.7699 5.90576H27.0472" stroke="#282D33" stroke-width="1.2" stroke-miterlimit="10" stroke-linecap="round" stroke-linejoin="round"/>
    <path d="M25.4461 36.8175C31.7264 36.8175 36.8175 31.7263 36.8175 25.4461C36.8175 19.1658 31.7264 14.0747 25.4461 14.0747C19.1659 14.0747 14.0748 19.1658 14.0748 25.4461C14.0748 31.7263 19.1659 36.8175 25.4461 36.8175Z" fill="#FFD541" stroke="#282D33" stroke-width="1.2" stroke-miterlimit="10" stroke-linecap="round" stroke-linejoin="round"/>
    <path d="M25.4461 20.0005V21.1216" stroke="#282D33" stroke-width="1.2" stroke-miterlimit="10" stroke-linecap="round" stroke-linejoin="round"/>
    <path d="M25.4461 29.77V30.8911" stroke="#282D33" stroke-width="1.2" stroke-miterlimit="10" stroke-linecap="round" stroke-linejoin="round"/>
    <path d="M23.2039 25.4463H27.0477C28.1688 25.4463 29.29 26.4072 29.29 27.6885C29.29 28.8097 28.329 29.9308 27.0477 29.9308H22.0828" stroke="#282D33" stroke-width="1.2" stroke-miterlimit="10" stroke-linecap="round" stroke-linejoin="round"/>
    <path d="M22.2424 21.1211H26.2464C27.3675 21.1211 28.4887 22.0821 28.4887 23.3633C28.4887 24.4845 27.5277 25.6056 26.2464 25.6056" stroke="#282D33" stroke-width="1.2" stroke-miterlimit="10" stroke-linecap="round" stroke-linejoin="round"/>
    <path d="M23.2036 29.7697V21.1211" stroke="#282D33" stroke-width="1.2" stroke-miterlimit="10" stroke-linecap="round" stroke-linejoin="round"/>
    <path d="M25.2857 10.7111C23.6841 6.22664 19.5199 3.18359 14.555 3.18359C8.30872 3.18359 3.18359 8.30872 3.18359 14.555C3.18359 19.5199 6.3868 23.6841 10.7111 25.2857" stroke="#282D33" stroke-width="1.2" stroke-miterlimit="10" stroke-linecap="round" stroke-linejoin="round"/>
    <path d="M17.7581 16.1564C17.4378 15.1954 16.4768 14.5548 15.5159 14.5548H13.9143C12.4728 14.5548 11.3517 13.4337 11.3517 12.1524C11.3517 10.8711 12.4728 9.75 13.7541 9.75H15.3557C15.3557 9.75 16.9573 9.75 17.7581 11.3516" stroke="#282D33" stroke-width="1.2" stroke-miterlimit="10" stroke-linecap="round" stroke-linejoin="round"/>
    <path d="M11.3517 17.7578C12.1525 19.3594 13.7541 19.3594 13.7541 19.3594H15.676" stroke="#282D33" stroke-width="1.2" stroke-miterlimit="10" stroke-linecap="round" stroke-linejoin="round"/>
    <path d="M14.5549 8.62939V9.75052" stroke="#282D33" stroke-width="1.2" stroke-miterlimit="10" stroke-linecap="round" stroke-linejoin="round"/>
</svg>
