<svg width="44" height="44" viewBox="0 0 44 44" fill="none" xmlns="http://www.w3.org/2000/svg">
    <circle cx="32.1487" cy="32.1487" r="11.8519" fill="#7A2DF4"/>
    <path d="M14.555 25.9263C20.8352 25.9263 25.9263 20.8352 25.9263 14.555C25.9263 8.27473 20.8352 3.18359 14.555 3.18359C8.27473 3.18359 3.18359 8.27473 3.18359 14.555C3.18359 20.8352 8.27473 25.9263 14.555 25.9263Z" fill="#27272E"/>
    <path d="M25.2857 10.7111C23.6841 6.22664 19.5199 3.18359 14.555 3.18359C8.30872 3.18359 3.18359 8.30872 3.18359 14.555C3.18359 19.5199 6.3868 23.6841 10.7111 25.2857" stroke="white" stroke-width="1.2" stroke-miterlimit="10" stroke-linecap="round" stroke-linejoin="round"/>
    <path d="M17.758 16.1564C17.4376 15.1954 16.4767 14.5548 15.5157 14.5548H13.9141C12.4727 14.5548 11.3516 13.4337 11.3516 12.1524C11.3516 10.8711 12.4727 9.75 13.754 9.75H15.3556C15.3556 9.75 16.9572 9.75 17.758 11.3516" stroke="#E478FF" stroke-width="1.2" stroke-miterlimit="10" stroke-linecap="round" stroke-linejoin="round"/>
    <path d="M11.3516 17.7578C12.1524 19.3594 13.754 19.3594 13.754 19.3594H15.6759" stroke="#E478FF" stroke-width="1.2" stroke-miterlimit="10" stroke-linecap="round" stroke-linejoin="round"/>
    <path d="M14.5547 8.62891V9.75003" stroke="#E478FF" stroke-width="1.2" stroke-miterlimit="10" stroke-linecap="round" stroke-linejoin="round"/>
    <path d="M12.4729 34.7355C10.3908 36.8176 6.86728 36.8176 4.78519 34.7355C2.70311 32.6535 2.70311 29.1299 4.78519 27.0479" stroke="white" stroke-width="1.2" stroke-miterlimit="10" stroke-linecap="round" stroke-linejoin="round"/>
    <path d="M12.9532 34.0947H10.2305" stroke="white" stroke-width="1.2" stroke-miterlimit="10" stroke-linecap="round" stroke-linejoin="round"/>
    <path d="M12.9531 36.8175V34.0947" stroke="white" stroke-width="1.2" stroke-miterlimit="10" stroke-linecap="round" stroke-linejoin="round"/>
    <path d="M27.5283 5.26566C29.6104 3.18358 33.1339 3.18358 35.216 5.26566C37.2981 7.34775 37.2981 10.8713 35.216 12.9534" stroke="white" stroke-width="1.2" stroke-miterlimit="10" stroke-linecap="round" stroke-linejoin="round"/>
    <path d="M27.0474 3.18359V5.90632" stroke="white" stroke-width="1.2" stroke-miterlimit="10" stroke-linecap="round" stroke-linejoin="round"/>
    <path d="M29.7701 5.90625H27.0474" stroke="white" stroke-width="1.2" stroke-miterlimit="10" stroke-linecap="round" stroke-linejoin="round"/>
    <path d="M25.4461 36.8179C31.7263 36.8179 36.8175 31.7268 36.8175 25.4466C36.8175 19.1663 31.7263 14.0752 25.4461 14.0752C19.1658 14.0752 14.0747 19.1663 14.0747 25.4466C14.0747 31.7268 19.1658 36.8179 25.4461 36.8179Z" fill="#E478FF" stroke="white" stroke-width="1.2" stroke-miterlimit="10" stroke-linecap="round" stroke-linejoin="round"/>
    <path d="M25.4458 20.001V21.1221" stroke="#27272E" stroke-width="1.2" stroke-miterlimit="10" stroke-linecap="round" stroke-linejoin="round"/>
    <path d="M25.4458 29.7705V30.8916" stroke="#27272E" stroke-width="1.2" stroke-miterlimit="10" stroke-linecap="round" stroke-linejoin="round"/>
    <path d="M23.2036 25.4463H27.0475C28.1686 25.4463 29.2897 26.4072 29.2897 27.6885C29.2897 28.8097 28.3288 29.9308 27.0475 29.9308H22.0825" stroke="#27272E" stroke-width="1.2" stroke-miterlimit="10" stroke-linecap="round" stroke-linejoin="round"/>
    <path d="M22.2422 21.1221H26.2462C27.3673 21.1221 28.4884 22.083 28.4884 23.3643C28.4884 24.4854 27.5275 25.6066 26.2462 25.6066" stroke="#27272E" stroke-width="1.2" stroke-miterlimit="10" stroke-linecap="round" stroke-linejoin="round"/>
    <path d="M23.2036 29.7707V21.1221" stroke="#27272E" stroke-width="1.2" stroke-miterlimit="10" stroke-linecap="round" stroke-linejoin="round"/>
</svg>
