<svg width="44" height="44" viewBox="0 0 44 44" fill="none" xmlns="http://www.w3.org/2000/svg">
    <circle cx="32.1487" cy="32.1487" r="11.8519" fill="#7A2DF4"/>
    <g clip-path="url(#clip0)">
        <path d="M13.3634 13.6357C13.3634 13.6357 9.36341 13.6357 7.36341 13.6357C7.36341 14.2721 7.45432 14.7721 8.54523 16.2267C7.63614 19.9539 7.95432 25.0448 8.72705 27.9994C7.45432 28.1812 7.27251 29.5448 7.22705 30.1357H13.3634C13.3634 29.4994 13.318 29.0903 12.1816 27.863C12.9089 24.6357 12.9998 17.9994 11.9089 16.2721C11.8634 16.2721 13.3634 15.2721 13.3634 13.6357Z" fill="#27272E"/>
        <path d="M23.09 13.6357C23.09 13.6357 19.09 13.6357 17.09 13.6357C17.09 14.2721 17.1809 14.7721 18.2718 16.2267C17.3627 19.9539 17.6809 25.0448 18.4537 27.9994C17.1809 28.1812 16.9537 29.5448 16.9082 30.1357H23.0446C23.0446 29.4994 22.9991 29.0903 21.8627 27.863C22.59 24.6357 22.6809 17.9994 21.59 16.2721C21.59 16.2721 23.09 15.2721 23.09 13.6357Z" fill="#27272E"/>
        <path d="M31.2272 16.2721C31.2272 16.2721 32.7272 15.2721 32.7272 13.6357C32.7272 13.6357 28.7272 13.6357 26.7272 13.6357C26.7272 14.2721 26.8181 14.7721 27.909 16.2267C27 19.9539 27.3181 25.0448 28.0909 27.9994C26.8181 28.1812 26.5909 29.5448 26.5454 30.1357H32.7272C32.7272 29.4994 32.6818 29.0903 31.5454 27.863C32.2272 24.6357 32.3636 17.9994 31.2272 16.2721Z" fill="#27272E"/>
        <path d="M20.0903 0.59082L5.13574 10.909V13.6817H35.0448V10.6817L20.0903 0.59082ZM15.863 7.54536L20.0903 4.31809L24.4539 7.54536H15.863Z" fill="#27272E"/>
        <path d="M35.0448 30.3643H5.13574V32.9552H35.0448V30.3643Z" fill="#27272E"/>
        <path d="M33.1817 14.2725V13.6816H32.0454V14.2725C32.0454 14.9544 31.4545 15.4998 30.7272 15.4998H28.5908C27.8181 15.4998 27.2726 14.9544 27.2726 14.2725V13.6816H26.1363V14.2725C26.1363 15.1362 26.6363 15.8635 27.3181 16.2725C27.1363 17.1816 26.7272 19.818 26.7272 21.9998C26.7272 24.2271 27.1817 26.9089 27.3181 27.7726C26.5908 28.1816 26.0908 28.9544 26.0908 29.7726V30.3635H27.2272V29.7726C27.2272 29.0907 27.8181 28.5453 28.5454 28.5453H30.6817C31.409 28.5453 31.9999 29.0907 31.9999 29.7726V30.3635H33.1817V29.7726C33.1817 28.9089 32.6817 28.1816 31.9545 27.7726C32.0908 26.9089 32.5454 24.2271 32.5454 21.9998C32.5454 19.818 32.0908 17.2271 31.9545 16.2725C32.6817 15.8635 33.1817 15.1362 33.1817 14.2725ZM30.8635 16.6362C31.0454 17.6362 31.409 20.0453 31.409 21.9998C31.409 23.9544 31.0454 26.3635 30.8635 27.3635H28.3635C28.1817 26.3635 27.8181 23.9089 27.8181 21.9998C27.8181 20.0453 28.1817 17.6362 28.3635 16.6362H28.5454H30.6817H30.8635Z" fill="#E8E7EF"/>
        <path d="M22.4101 14.2725C22.4101 14.9544 21.8192 15.4998 21.0919 15.4998H18.9556C18.1828 15.4998 17.6374 14.9544 17.6374 14.2725V13.6816H16.501V14.2725C16.501 15.1362 17.001 15.8635 17.6828 16.2725C17.501 17.1816 17.0919 19.818 17.0919 21.9998C17.0919 24.2271 17.5465 26.9089 17.6828 27.7726C16.9556 28.1816 16.4556 28.9544 16.4556 29.7726V30.3635H17.5919V29.7726C17.5919 29.0907 18.1828 28.5453 18.9101 28.5453H21.0465C21.7738 28.5453 22.3647 29.0907 22.3647 29.7726V30.3635H23.501V29.7726C23.501 28.9089 23.001 28.1816 22.2738 27.7726C22.4101 26.9089 22.8647 24.2271 22.8647 21.9998C22.8647 19.818 22.4101 17.2271 22.2738 16.2725C23.001 15.8635 23.501 15.1362 23.501 14.2725V13.6816H22.3647V14.2725H22.4101ZM21.2283 16.6362C21.4101 17.6362 21.7738 20.0453 21.7738 21.9998C21.7738 23.9544 21.3647 26.3635 21.2283 27.3635H18.7283C18.5919 26.3635 18.1828 23.9089 18.1828 21.9998C18.1828 20.0453 18.5465 17.6362 18.7283 16.6362H18.9101H21.0465H21.2283Z" fill="#E8E7EF"/>
        <path d="M12.7729 14.2725C12.7729 14.9544 12.182 15.4998 11.4547 15.4998H9.31836C8.54563 15.4998 8.00018 14.9544 8.00018 14.2725V13.6816H6.81836V14.2725C6.81836 15.1362 7.31836 15.8635 8.00018 16.2725C7.81836 17.1816 7.40927 19.818 7.40927 21.9998C7.40927 24.2271 7.86381 26.9089 8.00018 27.7726C7.31836 28.1816 6.81836 28.9089 6.81836 29.7726V30.3635H7.95472V29.7726C7.95472 29.0907 8.54563 28.5453 9.2729 28.5453H11.4093C12.1365 28.5453 12.7274 29.0907 12.7274 29.7726V30.3635H13.8638V29.7726C13.8638 28.9089 13.3638 28.1816 12.6365 27.7726C12.7729 26.9089 13.2275 24.2271 13.2275 21.9998C13.2275 19.818 12.7729 17.2271 12.6365 16.2725C13.3638 15.8635 13.8638 15.1362 13.8638 14.2725V13.6816H12.7274V14.2725H12.7729ZM11.5911 16.6362C11.7729 17.6362 12.1365 20.0453 12.1365 21.9998C12.1365 23.9544 11.7274 26.3635 11.5911 27.3635H9.09109C8.90927 26.3635 8.54563 23.9089 8.54563 21.9998C8.54563 20.0453 8.90927 17.6362 9.09109 16.6362H9.2729H11.4093H11.5911Z" fill="#E8E7EF"/>
        <path d="M35.4545 10.4996C35.4545 10.4996 35.4545 10.4542 35.4545 10.4996C35.4091 10.4087 35.4091 10.3633 35.3636 10.3178C35.3182 10.3178 35.3182 10.2724 35.2727 10.2724C35.2273 10.2269 35.2273 10.2269 35.1818 10.1815L20.3182 0.090554C20.1364 -0.0458097 19.8636 -0.0458097 19.6818 0.090554L4.72727 10.2269C4.72727 10.2269 4.72727 10.2724 4.68182 10.2724C4.63636 10.3178 4.54545 10.4087 4.54545 10.4996C4.54545 10.4996 4.54545 10.4996 4.54545 10.5451C4.54545 10.5906 4.5 10.636 4.5 10.7269V13.5906C4.5 13.9087 4.72727 14.136 5.04545 14.136H34.9545C35.2727 14.136 35.5 13.9087 35.5 13.5906V10.8178C35.5 10.7724 35.5455 10.7269 35.5455 10.7269C35.5455 10.5906 35.5 10.5451 35.4545 10.4996ZM20 1.22692L33.1364 10.136H6.86364L20 1.22692ZM34.4091 12.9996H5.59091V11.2269H34.4091V12.9996Z" fill="#E8E7EF"/>
        <path d="M25.0906 7.13627L20.3179 3.81809C20.1361 3.68173 19.8633 3.68173 19.6815 3.81809L14.9088 7.13627C14.727 7.27264 14.6361 7.54537 14.6815 7.77264C14.7724 7.99991 14.9542 8.18173 15.227 8.18173H24.7724C24.9997 8.18173 25.227 7.99991 25.3179 7.77264C25.3633 7.54537 25.2724 7.31809 25.0906 7.13627ZM16.9997 7.04537L19.9997 4.95446L22.9997 7.04537H16.9997Z" fill="#E8E7EF"/>
        <path d="M37.182 32.5452H35.5457V30.3179C35.5457 29.9997 35.2729 29.7725 35.0002 29.7725H5.04568C4.72749 29.7725 4.50022 29.9997 4.50022 30.3179V32.5452H2.8184C2.50022 32.5452 2.27295 32.7725 2.27295 33.0906V34.9088C2.27295 35.227 2.50022 35.4543 2.8184 35.4543C3.13659 35.4543 3.36386 35.227 3.36386 34.9088V33.6361H36.5911V34.9088C36.5911 35.227 36.8184 35.4543 37.1366 35.4543C37.4548 35.4543 37.682 35.227 37.682 34.9088V33.0906C37.7275 32.7725 37.5002 32.5452 37.182 32.5452ZM5.59113 30.8634H34.4093V32.4543H5.59113V30.8634Z" fill="#E8E7EF"/>
        <path d="M20.0907 39.18C15.9998 39.18 12.7271 35.9981 12.7271 32.0436C12.7271 28.089 16.0452 24.9072 20.0907 24.9072C24.1816 24.9072 27.4543 28.089 27.4543 32.0436C27.4543 35.9981 24.1361 39.18 20.0907 39.18Z" fill="#E478FF"/>
        <path d="M20.0913 39.7719C15.6822 39.7719 12.1367 36.3174 12.1367 32.0447C12.1367 27.7719 15.7276 24.3174 20.0913 24.3174C24.4549 24.3174 28.0458 27.7719 28.0458 32.0447C28.0913 36.3174 24.5004 39.7719 20.0913 39.7719ZM20.0913 25.4992C16.364 25.4992 13.3185 28.4537 13.3185 32.0447C13.3185 35.6356 16.364 38.5901 20.0913 38.5901C23.8185 38.5901 26.864 35.6356 26.864 32.0447C26.864 28.4083 23.8185 25.4992 20.0913 25.4992Z" fill="#E8E7EF"/>
        <path d="M19.9998 40.999C15.0113 40.999 11 36.9755 11 31.999C11 27.0226 15.0627 22.999 19.9998 22.999C24.9368 22.999 28.9995 27.0226 28.9995 31.999C29.0509 36.9755 24.9882 40.999 19.9998 40.999ZM19.9998 24.3755C15.7827 24.3755 12.3371 27.8167 12.3371 31.999C12.3371 36.1814 15.7827 39.6226 19.9998 39.6226C24.2168 39.6226 27.6624 36.1814 27.6624 31.999C27.6624 27.7637 24.2168 24.3755 19.9998 24.3755Z" fill="#27272E"/>
        <path d="M22.4547 31.9538C22.7729 31.5447 22.9547 31.0902 22.9547 30.5447C22.9547 29.3175 21.9547 28.3175 20.7275 28.272C20.7275 27.9538 20.4547 27.7266 20.1365 27.7266C19.8184 27.7266 19.5911 27.9538 19.5456 28.272H17.9093C17.5911 28.272 17.3184 28.5447 17.3184 28.8629C17.3184 29.1811 17.5456 29.4084 17.8638 29.4538V34.9084C17.5456 34.9084 17.3184 35.1811 17.3184 35.4993C17.3184 35.8175 17.5911 36.0902 17.9093 36.0902H19.5456C19.5456 36.4084 19.8184 36.6357 20.1365 36.6357C20.4547 36.6357 20.682 36.4084 20.7275 36.0902H21.2275C22.4547 36.0902 23.5002 35.0902 23.5002 33.8175C23.5002 33.0447 23.0911 32.3629 22.4547 31.9538ZM21.7729 30.5447C21.7729 31.1357 21.2729 31.5902 20.7275 31.5902H19.6365H19.0911V29.4538H20.7275C21.2729 29.4538 21.7729 29.9538 21.7729 30.5447ZM21.2275 34.9084H19.0911V32.772H19.5911H20.682H21.2275C21.8184 32.772 22.2729 33.272 22.2729 33.8175C22.2729 34.3629 21.8184 34.9084 21.2275 34.9084Z" fill="#27272E"/>
    </g>
    <defs>
        <clipPath id="clip0">
            <rect width="40" height="40" fill="white"/>
        </clipPath>
    </defs>
</svg>
