<svg width="44" height="44" viewBox="0 0 44 44" fill="none" xmlns="http://www.w3.org/2000/svg">
    <circle opacity="0.3" cx="32.1487" cy="32.1487" r="11.8519" fill="#FFD541"/>
    <g clip-path="url(#clip0)">
        <path d="M13.3632 13.6357C13.3632 13.6357 9.36323 13.6357 7.36323 13.6357C7.36323 14.2721 7.45414 14.7721 8.54505 16.2267C7.63596 19.9539 7.95414 25.0448 8.72687 27.9994C7.45414 28.1812 7.27232 29.5448 7.22687 30.1357H13.3632C13.3632 29.4994 13.3178 29.0903 12.1814 27.863C12.9087 24.6357 12.9996 17.9994 11.9087 16.2721C11.8632 16.2721 13.3632 15.2721 13.3632 13.6357Z" fill="#FFD541"/>
        <path d="M23.0897 13.6357C23.0897 13.6357 19.0897 13.6357 17.0897 13.6357C17.0897 14.2721 17.1806 14.7721 18.2715 16.2267C17.3624 19.9539 17.6806 25.0448 18.4533 27.9994C17.1806 28.1812 16.9533 29.5448 16.9078 30.1357H23.0442C23.0442 29.4994 22.9987 29.0903 21.8624 27.863C22.5897 24.6357 22.6806 17.9994 21.5897 16.2721C21.5897 16.2721 23.0897 15.2721 23.0897 13.6357Z" fill="#FFD541"/>
        <path d="M31.227 16.2721C31.227 16.2721 32.727 15.2721 32.727 13.6357C32.727 13.6357 28.727 13.6357 26.727 13.6357C26.727 14.2721 26.8179 14.7721 27.9088 16.2267C26.9997 19.9539 27.3179 25.0448 28.0906 27.9994C26.8179 28.1812 26.5906 29.5448 26.5452 30.1357H32.727C32.727 29.4994 32.6815 29.0903 31.5452 27.863C32.227 24.6357 32.3633 17.9994 31.227 16.2721Z" fill="#FFD541"/>
        <path d="M20.0905 0.591309L5.13593 10.9095V13.6822H35.045V10.6822L20.0905 0.591309ZM15.8632 7.54585L20.0905 4.31858L24.4541 7.54585H15.8632Z" fill="white"/>
        <path d="M35.045 30.364H5.13593V32.9549H35.045V30.364Z" fill="white"/>
        <path d="M33.1816 14.2725V13.6816H32.0452V14.2725C32.0452 14.9544 31.4543 15.4998 30.7271 15.4998H28.5907C27.818 15.4998 27.2725 14.9544 27.2725 14.2725V13.6816H26.1362V14.2725C26.1362 15.1362 26.6362 15.8635 27.318 16.2725C27.1362 17.1816 26.7271 19.818 26.7271 21.9998C26.7271 24.2271 27.1816 26.9089 27.318 27.7726C26.5907 28.1816 26.0907 28.9544 26.0907 29.7726V30.3635H27.2271V29.7726C27.2271 29.0907 27.818 28.5453 28.5452 28.5453H30.6816C31.4089 28.5453 31.9998 29.0907 31.9998 29.7726V30.3635H33.1816V29.7726C33.1816 28.9089 32.6816 28.1816 31.9543 27.7726C32.0907 26.9089 32.5452 24.2271 32.5452 21.9998C32.5452 19.818 32.0907 17.2271 31.9543 16.2725C32.6816 15.8635 33.1816 15.1362 33.1816 14.2725ZM30.8634 16.6362C31.0452 17.6362 31.4089 20.0453 31.4089 21.9998C31.4089 23.9544 31.0452 26.3635 30.8634 27.3635H28.3634C28.1816 26.3635 27.818 23.9089 27.818 21.9998C27.818 20.0453 28.1816 17.6362 28.3634 16.6362H28.5452H30.6816H30.8634Z" fill="#282D33"/>
        <path d="M22.4097 14.2725C22.4097 14.9544 21.8188 15.4998 21.0915 15.4998H18.9551C18.1824 15.4998 17.637 14.9544 17.637 14.2725V13.6816H16.5006V14.2725C16.5006 15.1362 17.0006 15.8635 17.6824 16.2725C17.5006 17.1816 17.0915 19.818 17.0915 21.9998C17.0915 24.2271 17.546 26.9089 17.6824 27.7726C16.9551 28.1816 16.4551 28.9544 16.4551 29.7726V30.3635H17.5915V29.7726C17.5915 29.0907 18.1824 28.5453 18.9097 28.5453H21.0461C21.7733 28.5453 22.3642 29.0907 22.3642 29.7726V30.3635H23.5006V29.7726C23.5006 28.9089 23.0006 28.1816 22.2733 27.7726C22.4097 26.9089 22.8642 24.2271 22.8642 21.9998C22.8642 19.818 22.4097 17.2271 22.2733 16.2725C23.0006 15.8635 23.5006 15.1362 23.5006 14.2725V13.6816H22.3642V14.2725H22.4097ZM21.2279 16.6362C21.4097 17.6362 21.7733 20.0453 21.7733 21.9998C21.7733 23.9544 21.3642 26.3635 21.2279 27.3635H18.7279C18.5915 26.3635 18.1824 23.9089 18.1824 21.9998C18.1824 20.0453 18.546 17.6362 18.7279 16.6362H18.9097H21.0461H21.2279Z" fill="#282D33"/>
        <path d="M12.7728 14.2725C12.7728 14.9544 12.1819 15.4998 11.4547 15.4998H9.3183C8.54557 15.4998 8.00012 14.9544 8.00012 14.2725V13.6816H6.8183V14.2725C6.8183 15.1362 7.3183 15.8635 8.00012 16.2725C7.8183 17.1816 7.40921 19.818 7.40921 21.9998C7.40921 24.2271 7.86375 26.9089 8.00012 27.7726C7.3183 28.1816 6.8183 28.9089 6.8183 29.7726V30.3635H7.95466V29.7726C7.95466 29.0907 8.54557 28.5453 9.27284 28.5453H11.4092C12.1365 28.5453 12.7274 29.0907 12.7274 29.7726V30.3635H13.8638V29.7726C13.8638 28.9089 13.3638 28.1816 12.6365 27.7726C12.7728 26.9089 13.2274 24.2271 13.2274 21.9998C13.2274 19.818 12.7728 17.2271 12.6365 16.2725C13.3638 15.8635 13.8638 15.1362 13.8638 14.2725V13.6816H12.7274V14.2725H12.7728ZM11.591 16.6362C11.7728 17.6362 12.1365 20.0453 12.1365 21.9998C12.1365 23.9544 11.7274 26.3635 11.591 27.3635H9.09103C8.90921 26.3635 8.54557 23.9089 8.54557 21.9998C8.54557 20.0453 8.90921 17.6362 9.09103 16.6362H9.27284H11.4092H11.591Z" fill="#282D33"/>
        <path d="M35.4542 10.4996C35.4542 10.4996 35.4542 10.4542 35.4542 10.4996C35.4087 10.4087 35.4087 10.3633 35.3633 10.3178C35.3178 10.3178 35.3178 10.2724 35.2724 10.2724C35.2269 10.2269 35.2269 10.2269 35.1815 10.1815L20.3178 0.090554C20.136 -0.0458097 19.8633 -0.0458097 19.6815 0.090554L4.72691 10.2269C4.72691 10.2269 4.72691 10.2724 4.68145 10.2724C4.636 10.3178 4.54509 10.4087 4.54509 10.4996C4.54509 10.4996 4.54509 10.4996 4.54509 10.5451C4.54509 10.5906 4.49963 10.636 4.49963 10.7269V13.5906C4.49963 13.9087 4.72691 14.136 5.04509 14.136H34.9542C35.2724 14.136 35.4996 13.9087 35.4996 13.5906V10.8178C35.4996 10.7724 35.5451 10.7269 35.5451 10.7269C35.5451 10.5906 35.4996 10.5451 35.4542 10.4996ZM19.9996 1.22692L33.136 10.136H6.86327L19.9996 1.22692ZM34.4087 12.9996H5.59054V11.2269H34.4087V12.9996Z" fill="#282D33"/>
        <path d="M25.0904 7.13676L20.3176 3.81858C20.1358 3.68222 19.8631 3.68222 19.6813 3.81858L14.9085 7.13676C14.7267 7.27313 14.6358 7.54585 14.6813 7.77313C14.7722 8.0004 14.954 8.18222 15.2267 8.18222H24.7722C24.9994 8.18222 25.2267 8.0004 25.3176 7.77313C25.3631 7.54585 25.2722 7.31858 25.0904 7.13676ZM16.9994 7.04585L19.9994 4.95494L22.9994 7.04585H16.9994Z" fill="#282D33"/>
        <path d="M37.1819 32.5447H35.5455V30.3174C35.5455 29.9992 35.2728 29.772 35 29.772H5.04549C4.72731 29.772 4.50004 29.9992 4.50004 30.3174V32.5447H2.81822C2.50004 32.5447 2.27277 32.772 2.27277 33.0902V34.9083C2.27277 35.2265 2.50004 35.4538 2.81822 35.4538C3.1364 35.4538 3.36368 35.2265 3.36368 34.9083V33.6356H36.5909V34.9083C36.5909 35.2265 36.8182 35.4538 37.1364 35.4538C37.4546 35.4538 37.6819 35.2265 37.6819 34.9083V33.0902C37.7273 32.772 37.5 32.5447 37.1819 32.5447ZM5.59095 30.8629H34.4091V32.4538H5.59095V30.8629Z" fill="#282D33"/>
        <path d="M20.0909 39.1804C16 39.1804 12.7272 35.9986 12.7272 32.0441C12.7272 28.0895 16.0454 24.9077 20.0909 24.9077C24.1818 24.9077 27.4545 28.0895 27.4545 32.0441C27.4545 35.9986 24.1363 39.1804 20.0909 39.1804Z" fill="#FFD541"/>
        <path d="M20.0914 39.7719C15.6823 39.7719 12.1368 36.3174 12.1368 32.0447C12.1368 27.7719 15.7277 24.3174 20.0914 24.3174C24.455 24.3174 28.0459 27.7719 28.0459 32.0447C28.0914 36.3174 24.5005 39.7719 20.0914 39.7719ZM20.0914 25.4992C16.3641 25.4992 13.3187 28.4537 13.3187 32.0447C13.3187 35.6356 16.3641 38.5901 20.0914 38.5901C23.8187 38.5901 26.8641 35.6356 26.8641 32.0447C26.8641 28.4083 23.8187 25.4992 20.0914 25.4992Z" fill="#282D33"/>
        <path d="M22.4545 31.9536C22.7727 31.5445 22.9545 31.09 22.9545 30.5445C22.9545 29.3172 21.9545 28.3172 20.7273 28.2718C20.7273 27.9536 20.4545 27.7263 20.1364 27.7263C19.8182 27.7263 19.5909 27.9536 19.5455 28.2718H17.9091C17.5909 28.2718 17.3182 28.5445 17.3182 28.8627C17.3182 29.1809 17.5454 29.4081 17.8636 29.4536V34.9081C17.5454 34.9081 17.3182 35.1809 17.3182 35.499C17.3182 35.8172 17.5909 36.09 17.9091 36.09H19.5455C19.5455 36.4081 19.8182 36.6354 20.1364 36.6354C20.4545 36.6354 20.6818 36.4081 20.7273 36.09H21.2273C22.4545 36.09 23.5 35.09 23.5 33.8172C23.5 33.0445 23.0909 32.3627 22.4545 31.9536ZM21.7727 30.5445C21.7727 31.1354 21.2727 31.59 20.7273 31.59H19.6364H19.0909V29.4536H20.7273C21.2727 29.4536 21.7727 29.9536 21.7727 30.5445ZM21.2273 34.9081H19.0909V32.7718H19.5909H20.6818H21.2273C21.8182 32.7718 22.2727 33.2718 22.2727 33.8172C22.2727 34.3627 21.8182 34.9081 21.2273 34.9081Z" fill="#282D33"/>
    </g>
    <defs>
        <clipPath id="clip0">
            <rect width="40" height="40" fill="white"/>
        </clipPath>
    </defs>
</svg>
