<svg width="41" height="41" viewBox="0 0 41 41" fill="none" xmlns="http://www.w3.org/2000/svg">
    <g clip-path="url(#clip0)">
        <path d="M29.6635 40.7019C35.7587 40.7019 40.7 35.7607 40.7 29.6654C40.7 23.5701 35.7587 18.6289 29.6635 18.6289C23.5682 18.6289 18.627 23.5701 18.627 29.6654C18.627 35.7607 23.5682 40.7019 29.6635 40.7019Z" fill="#7A2DF4"/>
        <path d="M19.9997 29.6285C25.7271 29.6285 30.3701 24.9855 30.3701 19.2581C30.3701 13.5307 25.7271 8.8877 19.9997 8.8877C14.2723 8.8877 9.62939 13.5307 9.62939 19.2581C9.62939 24.9855 14.2723 29.6285 19.9997 29.6285Z" fill="#E478FF"/>
        <path d="M25.9258 31.8523C29.6295 28.1488 34.074 31.482 34.074 31.482C33.0863 32.84 30.074 34.8153 25.9258 31.8523Z" fill="#27272E"/>
        <path d="M31.8096 26.9934C33.7692 21.9151 39.2283 23.6001 39.2283 23.6001C38.8538 25.3248 36.8457 28.4181 31.8096 26.9934Z" fill="#27272E"/>
        <path d="M34.2289 21.2988C33.4394 16.3134 38.5174 14.5234 38.5174 14.5234C39.0149 16.0526 38.8537 19.5484 34.2289 21.2988Z" fill="#27272E"/>
        <path fill-rule="evenodd" clip-rule="evenodd" d="M9.36213 0.188366C9.05465 0.495838 9.06459 0.821273 9.38964 1.0911C9.8112 1.44099 10.3029 1.13429 10.2364 0.562912C10.1724 0.0125585 9.72826 -0.177772 9.36213 0.188366ZM34.4474 0.542465C33.4111 1.06664 32.9588 1.74751 32.8732 2.91319C32.7889 4.0569 33.2277 4.91052 34.2068 5.50731C35.4394 6.25888 37.3054 5.85262 38.0851 4.66286C38.9825 3.29309 38.4243 1.26041 36.9553 0.549345C35.9358 0.0557463 35.4128 0.0544079 34.4474 0.542465ZM29.6223 0.86618C29.2854 0.987143 29.3243 1.86484 29.6725 1.99842C30.0094 2.12779 30.53 1.75305 30.53 1.38118C30.53 1.07256 29.9557 0.746746 29.6223 0.86618ZM36.9985 1.59406C37.7222 2.20308 37.8999 2.96612 37.5263 3.86026C36.9062 5.3443 34.9204 5.51839 34.0083 4.16869C32.7205 2.26289 35.2277 0.104093 36.9985 1.59406ZM14.4285 1.57113C12.5915 2.23748 11.0052 4.14193 10.4497 6.34774C10.2813 7.01658 10.0096 7.42628 9.34894 8.00798C8.38066 8.86026 8.5087 8.90326 7.60787 7.42265C7.35028 6.99938 6.99217 6.65292 6.81196 6.65292C6.63176 6.65292 6.13281 7.0525 5.70285 7.54075C4.42136 8.9967 4.03095 11.0514 4.6438 13.1152C4.90445 13.9925 4.90579 14.1972 4.65641 14.9174C4.34168 15.8263 4.28377 15.8373 3.30766 15.175C2.29868 14.4901 0.74412 14.0042 0.463019 14.2855C0.0844601 14.6644 0.211156 17.1379 0.660612 18.1393C1.05885 19.0265 2.26772 20.4013 3.26371 21.0993C3.65717 21.3751 3.8303 21.6868 3.90674 22.2581L4.01165 23.0395L2.17504 23.12C-0.012043 23.2155 -0.202373 23.338 0.126883 24.4374C0.627361 26.1077 2.70743 27.6952 4.90197 28.0818C5.90942 28.2593 6.03 28.338 6.54653 29.1546C6.86623 29.6598 7.01682 30.0649 6.89948 30.1039C6.32735 30.2946 4.92318 31.3298 4.92318 31.5608C4.92318 32.0319 5.62775 32.7393 6.67323 33.3185C7.60176 33.8328 7.86738 33.8861 9.60921 33.9071C11.3496 33.9279 11.6324 33.9845 12.7058 34.5262C13.3553 34.8544 14.6433 35.3508 15.5678 35.6298C17.0289 36.0707 17.5865 36.137 19.8286 36.137C22.0708 36.137 22.6284 36.0707 24.0895 35.6298C25.014 35.3508 26.302 34.8544 26.9515 34.5262C28.0249 33.9845 28.3077 33.9279 30.048 33.9071C31.7898 33.8861 32.0555 33.8328 32.984 33.3185C34.0295 32.7393 34.7341 32.0319 34.7341 31.5608C34.7341 31.3298 33.3299 30.2946 32.7577 30.1039C32.6404 30.0649 32.791 29.6598 33.1107 29.1546C33.6272 28.338 33.7478 28.2593 34.7553 28.0818C36.9498 27.6952 39.0299 26.1077 39.5303 24.4374C39.8596 23.338 39.6693 23.2155 37.4822 23.12L35.6456 23.0395L35.7505 22.2581C35.8269 21.6868 36.0001 21.3751 36.3935 21.0993C37.3826 20.406 38.5972 19.0292 39.0045 18.1393C39.453 17.1597 39.5707 14.6617 39.1864 14.2774C38.9137 14.0047 37.3408 14.5023 36.3496 15.175C35.3735 15.8373 35.3156 15.8263 35.0008 14.9174C34.7514 14.1972 34.7528 13.9925 35.0134 13.1152C35.6263 11.0514 35.2359 8.9967 33.9544 7.54075C33.5244 7.0525 33.0088 6.65292 32.8086 6.65292C32.5661 6.65292 32.2454 7.00511 31.8504 7.70509L31.2567 8.75726L30.5405 8.19009C29.5668 7.41883 29.4556 7.26079 29.1915 6.27398C28.8111 4.85109 28.1193 3.69706 27.0952 2.77618C25.9637 1.75898 24.6435 1.25506 23.3293 1.33895L22.4084 1.39781L22.4187 2.25773C22.4247 2.75783 22.6354 3.56693 22.9223 4.19162C23.9223 6.36876 25.6832 7.69095 27.946 7.96326C29.0809 8.09989 29.2875 8.19563 30.0367 8.93097L30.8682 9.74675L30.9504 11.4962C31.0448 13.5086 31.4231 14.4402 32.5468 15.4267L33.2483 16.0428L33.6882 15.6294C34.1275 15.2168 34.1283 15.2168 34.3356 15.6038C34.6444 16.1811 34.5938 16.5434 34.048 17.6589C33.4826 18.8148 33.2557 20.6206 33.5733 21.4381C33.7595 21.9168 33.8592 21.9723 34.3559 21.8729C34.8516 21.7737 34.9248 21.814 34.9225 22.1842C34.9169 23.1056 34.6723 23.4676 33.6756 24.0302C32.6293 24.6206 31.7256 25.7127 31.3356 26.8582C31.1493 27.4058 31.1724 27.509 31.5389 27.7659C31.7665 27.9252 32.1055 28.0556 32.2924 28.0556C32.7394 28.0556 32.7211 28.223 32.1885 29.0003C31.7472 29.6443 31.7377 29.6474 30.366 29.6029C28.528 29.5432 27.2985 29.9644 26.1791 31.037C25.3148 31.8652 25.3102 31.8763 25.6679 32.2717C25.8665 32.4911 26.2678 32.8117 26.5596 32.9841C26.8514 33.1565 27.0902 33.3535 27.0902 33.4219C27.0902 33.4901 26.5013 33.8094 25.7816 34.1313C22.2479 35.7114 17.4094 35.7114 13.8756 34.1313C13.156 33.8094 12.567 33.4901 12.567 33.4219C12.567 33.3535 12.8059 33.1565 13.0977 32.9841C13.3895 32.8117 13.7908 32.4911 13.9893 32.2717C14.3471 31.8763 14.3425 31.8652 13.4782 31.037C12.3593 29.965 11.129 29.5434 9.29429 29.6029C7.98032 29.6455 7.89872 29.6226 7.47296 29.0904C6.94 28.4246 6.90159 28.0556 7.3648 28.0556C7.55169 28.0556 7.89069 27.9252 8.11829 27.7659C8.48481 27.509 8.50793 27.4058 8.32161 26.8582C7.93159 25.7127 7.0279 24.6206 5.98165 24.0302C4.9849 23.4676 4.7403 23.1056 4.73476 22.1842C4.73246 21.814 4.80565 21.7737 5.30135 21.8729C5.79801 21.9723 5.89776 21.9168 6.08389 21.4381C6.40149 20.6206 6.17466 18.8148 5.60921 17.6589C5.06344 16.5434 5.0128 16.1811 5.32161 15.6038C5.52895 15.2168 5.52971 15.2168 5.96904 15.6294L6.40894 16.0428L7.11045 15.4267C8.23409 14.4402 8.61246 13.5086 8.70686 11.4962L8.78903 9.74675L9.62049 8.93097C10.3698 8.19563 10.5764 8.09989 11.7113 7.96326C13.9741 7.69095 15.735 6.36876 16.735 4.19162C17.0218 3.56693 17.2326 2.75783 17.2385 2.25773L17.2489 1.39781L16.1978 1.35424C15.6198 1.33016 14.8235 1.42781 14.4285 1.57113ZM16.3629 2.87879C15.9334 4.8551 13.6211 7.03511 11.9544 7.03511C11.3207 7.03511 11.2294 6.97855 11.2294 6.58585C11.2294 6.05862 12.0392 4.45819 12.6314 3.81554C13.5479 2.82089 14.9716 2.09263 16.0342 2.07505C16.5296 2.06683 16.5359 2.0825 16.3629 2.87879ZM25.6631 2.72898C27.0541 3.544 28.4124 5.45151 28.4237 6.60515C28.4273 6.97625 28.3285 7.03511 27.7029 7.03511C26.0266 7.03511 23.7241 4.85433 23.289 2.85491L23.1071 2.01887L23.9844 2.13907C24.4669 2.20518 25.2223 2.47061 25.6631 2.72898ZM2.1695 6.96383C2.03554 7.31258 2.35964 7.79949 2.72558 7.79949C3.09153 7.79949 3.41563 7.31258 3.28167 6.96383C3.21613 6.7928 2.96579 6.65292 2.72558 6.65292C2.48538 6.65292 2.23504 6.7928 2.1695 6.96383ZM7.33843 8.61165C8.06994 10.0483 8.17791 11.9522 7.60348 13.2876C7.37111 13.8276 7.01567 14.4192 6.81349 14.6021C6.4634 14.9189 6.43264 14.9172 6.16835 14.5679C5.27135 13.3821 4.97286 10.6835 5.57844 9.23538C5.84712 8.59254 6.56717 7.6084 6.76858 7.6084C6.80107 7.6084 7.05752 8.05976 7.33843 8.61165ZM34.0216 9.12416C34.6834 10.6034 34.4151 13.3434 33.4889 14.5679C33.2246 14.9172 33.1938 14.9189 32.8437 14.6021C32.6416 14.4192 32.2861 13.8276 32.0538 13.2876C31.4763 11.9447 31.5869 10.0491 32.328 8.5933C32.8432 7.58145 32.852 7.57515 33.2456 7.92447C33.464 8.11843 33.8134 8.65827 34.0216 9.12416ZM17.5493 8.46565C15.3673 8.96154 13.6372 9.93097 11.9972 11.5767C9.78884 13.7922 8.74279 16.3069 8.74737 19.3883C8.75502 24.4282 12.4237 29.0296 17.3444 30.1708C20.984 31.0149 24.8781 29.8836 27.5775 27.1983C31.0822 23.7118 31.8898 18.8671 29.7254 14.3134C28.9878 12.7611 26.67 10.363 25.1835 9.61413C22.6322 8.32844 19.9368 7.92294 17.5493 8.46565ZM22.4161 9.42992C24.2626 9.9044 25.5577 10.6558 27.0106 12.0955C28.9697 14.0368 30.1411 16.7557 30.1411 19.3607C30.1411 21.8564 28.9444 24.6661 27.0902 26.5243C25.0358 28.5828 22.6477 29.5887 19.8363 29.5797C18.0052 29.5736 17.0085 29.3418 15.3379 28.5331C10.1802 26.0361 8.1288 19.9283 10.6847 14.6789C11.816 12.3556 14.5326 10.1282 17.0937 9.42418C18.3637 9.07505 21.0465 9.07792 22.4161 9.42992ZM37.1602 9.39495C37.1015 9.54801 37.1715 9.83217 37.3157 10.0263C37.5246 10.3072 37.6486 10.3361 37.9236 10.1674C38.457 9.84039 38.3635 9.2436 37.7683 9.17461C37.4629 9.13926 37.2254 9.22525 37.1602 9.39495ZM19.5124 10.9608C19.353 11.3764 19.4566 11.433 20.7161 11.618C23.7726 12.0666 26.0536 13.8291 27.1138 16.5606C27.6895 18.0447 27.7031 20.6541 27.142 22.0779C26.2533 24.3346 24.2496 26.1752 21.9571 26.8417C20.2626 27.3344 18.0757 27.1333 16.4564 26.3361C14.0535 25.1532 12.5825 23.1358 12.1235 20.394C11.9544 19.3839 11.8061 18.9786 11.6056 18.9786C11.3857 18.9786 11.328 19.2516 11.3387 20.2415C11.3501 21.2828 11.4755 21.7634 12.0524 22.9784C13.3001 25.6057 15.6335 27.3655 18.5387 27.8706C21.0662 28.3099 23.9043 27.3818 25.8539 25.4785C30.0627 21.3693 28.9597 14.3015 23.6951 11.6439C22.6903 11.1366 20.9014 10.6659 19.9786 10.6659C19.7845 10.6659 19.5747 10.7985 19.5124 10.9608ZM18.9291 15.1089L18.3851 16.8765L16.4793 16.9721C14.5825 17.0672 13.9899 17.2195 14.1995 17.5585C14.2599 17.6564 14.984 18.2499 15.8084 18.8775L17.3075 20.0187L16.7526 21.7439C16.4476 22.6929 16.1978 23.558 16.1978 23.6663C16.1978 24.1976 16.8678 23.9738 18.1772 23.0055C18.9693 22.4198 19.7123 21.9405 19.8286 21.9405C19.945 21.9405 20.688 22.4198 21.4801 23.0055C22.7895 23.9738 23.4594 24.1976 23.4594 23.6663C23.4594 23.558 23.2097 22.6929 22.9047 21.7439L22.3497 20.0187L23.8489 18.8775C24.6733 18.2499 25.3973 17.6564 25.4577 17.5585C25.6674 17.2195 25.0748 17.0672 23.178 16.9721L21.2722 16.8765L20.7281 15.1089C20.297 13.7082 20.1103 13.3413 19.8286 13.3413C19.547 13.3413 19.3603 13.7082 18.9291 15.1089ZM2.26084 15.5453C4.10319 16.479 5.49646 18.5366 5.49646 20.3235C5.49646 21.1056 5.24995 21.1595 4.17676 20.612C2.52226 19.768 1.43627 18.377 1.12306 16.7013C0.969994 15.8811 1.02102 15.0611 1.22549 15.0611C1.26925 15.0611 1.73514 15.279 2.26084 15.5453ZM38.5762 15.4911C38.6762 17.6124 37.7123 19.3281 35.8065 20.4211C34.482 21.1809 34.1608 21.1618 34.1608 20.3235C34.1608 18.5587 35.5399 16.4993 37.3542 15.5551C38.4902 14.964 38.5512 14.9608 38.5762 15.4911ZM20.3327 16.5421L20.7008 17.832L22.1279 17.9275L23.555 18.0231L22.4472 18.865C21.8378 19.3281 21.3738 19.801 21.4161 19.9161C21.834 21.0548 22.1415 22.1756 22.0587 22.2583C22.0027 22.3143 21.5517 22.0508 21.0564 21.6726C20.5611 21.2944 20.0086 20.9851 19.8286 20.9851C19.6486 20.9851 19.0962 21.2944 18.6008 21.6726C18.1055 22.0508 17.6538 22.3135 17.5968 22.2566C17.5399 22.1997 17.6779 21.6107 17.9037 20.948L18.3144 19.7429L17.6958 19.2652C17.3557 19.0024 16.8579 18.5967 16.5898 18.3636L16.1023 17.9396L17.3878 17.9336C18.8504 17.9268 19.0121 17.7875 19.4455 16.1599C19.5785 15.6608 19.7497 15.2522 19.826 15.2522C19.9024 15.2522 20.1304 15.8326 20.3327 16.5421ZM4.98376 24.4284C6.00478 24.9082 7.45997 26.3974 7.36996 26.8702C7.3218 27.1238 7.06325 27.2084 6.19874 27.2534C4.71259 27.3306 3.2746 26.8836 2.28549 26.037C1.60271 25.4527 0.910182 24.5081 0.910182 24.1616C0.910182 23.7041 3.85285 23.8968 4.98376 24.4284ZM38.6616 24.0844C38.8745 24.2975 38.1858 25.3401 37.3717 26.037C36.3826 26.8836 34.9446 27.3306 33.4585 27.2534C32.0316 27.1792 31.9446 26.8492 33.0398 25.6613C33.9276 24.698 34.5259 24.3265 35.6356 24.0502C36.3874 23.8628 38.4635 23.8864 38.6616 24.0844ZM36.9406 30.223C36.5401 30.5159 36.6414 31.0504 37.1332 31.239C37.5894 31.4143 38.1248 30.8077 37.8703 30.4043C37.5917 29.9629 37.3586 29.9174 36.9406 30.223ZM11.1684 30.635C12.1202 30.9176 13.1403 31.5603 13.1403 31.8773C13.1403 32.1945 11.069 33.0485 10.043 33.1544C8.80126 33.2826 7.19415 32.8563 6.37932 32.1828L5.82878 31.7278L6.35486 31.3831C7.11179 30.8872 8.72922 30.3623 9.52246 30.355C9.89757 30.3516 10.6383 30.4775 11.1684 30.635ZM31.594 30.6323C32.1124 30.7882 32.8348 31.0995 33.1996 31.3239L33.8625 31.7319L33.2951 32.1911C32.4711 32.8576 30.8596 33.283 29.636 33.1567C28.5907 33.0487 26.517 32.2251 26.517 31.9176C26.517 31.3428 28.6733 30.3669 29.9697 30.355C30.3448 30.3516 31.0757 30.4764 31.594 30.6323ZM3.29887 32.974C2.68717 33.1135 1.88018 33.9942 1.75559 34.6587C1.54366 35.788 2.605 37.037 3.77661 37.037C4.94821 37.037 6.00955 35.788 5.79763 34.6587C5.59621 33.5853 4.33804 32.737 3.29887 32.974ZM4.57367 34.1047C5.29562 34.758 4.73858 36.2727 3.77661 36.2727C3.23523 36.2727 2.63004 35.5998 2.63004 34.9979C2.63004 33.9486 3.8047 33.4087 4.57367 34.1047ZM8.60176 35.0615C8.26696 35.1966 8.30308 36.0177 8.64953 36.1507C9.11141 36.3279 9.50946 36.0747 9.50946 35.6038C9.50946 35.2675 9.09746 34.8446 8.87273 34.9501C8.85515 34.9583 8.73323 35.0086 8.60176 35.0615ZM31.4942 35.2109C30.9781 35.833 31.8323 36.5811 32.4048 36.0086C32.6481 35.7651 32.6731 35.6159 32.5128 35.3613C32.2338 34.9184 31.7914 34.853 31.4942 35.2109Z" fill="white"/>
        <path fill-rule="evenodd" clip-rule="evenodd" d="M19.5123 10.9609C19.3529 11.3765 19.4565 11.4331 20.716 11.6181C23.7725 12.0667 26.0535 13.8292 27.1137 16.5607C27.6894 18.0448 27.703 20.6542 27.1419 22.078C26.2532 24.3347 24.2495 26.1753 21.957 26.8418C20.2625 27.3345 18.0756 27.1334 16.4563 26.3362C14.0534 25.1533 12.5824 23.1359 12.1234 20.3941C11.9543 19.384 11.806 18.9787 11.6055 18.9787C11.3856 18.9787 11.3279 19.2517 11.3386 20.2416C11.35 21.2829 11.4754 21.7635 12.0523 22.9785C13.3 25.6058 15.6334 27.3656 18.5386 27.8707C21.0661 28.31 23.9042 27.3819 25.8538 25.4786C30.0626 21.3694 28.9596 14.3016 23.695 11.644C22.6902 11.1367 20.9013 10.666 19.9785 10.666C19.7844 10.666 19.5746 10.7986 19.5123 10.9609ZM18.929 15.109L18.385 16.8766L16.4792 16.9722C14.5824 17.0673 13.9898 17.2196 14.1994 17.5586C14.2598 17.6565 14.9839 18.25 15.8083 18.8776L17.3074 20.0188L16.7525 21.744C16.4475 22.693 16.1977 23.5581 16.1977 23.6664C16.1977 24.1977 16.8677 23.9739 18.1771 23.0056C18.9692 22.4199 19.7122 21.9406 19.8285 21.9406C19.9449 21.9406 20.6879 22.4199 21.48 23.0056C22.7894 23.9739 23.4593 24.1977 23.4593 23.6664C23.4593 23.5581 23.2096 22.693 22.9046 21.744L22.3496 20.0188L23.8488 18.8776C24.6732 18.25 25.3972 17.6565 25.4576 17.5586C25.6673 17.2196 25.0747 17.0673 23.1779 16.9722L21.2721 16.8766L20.728 15.109C20.2969 13.7083 20.1102 13.3414 19.8285 13.3414C19.5469 13.3414 19.3602 13.7083 18.929 15.109ZM20.3326 16.5422L20.7007 17.8321L22.1278 17.9276L23.5549 18.0232L22.4471 18.8651C21.8377 19.3282 21.3737 19.8011 21.416 19.9162C21.8339 21.0549 22.1414 22.1757 22.0586 22.2584C22.0026 22.3144 21.5516 22.0509 21.0563 21.6727C20.561 21.2945 20.0085 20.9852 19.8285 20.9852C19.6485 20.9852 19.0961 21.2945 18.6007 21.6727C18.1054 22.0509 17.6537 22.3136 17.5967 22.2567C17.5398 22.1998 17.6778 21.6108 17.9036 20.9481L18.3143 19.743L17.6957 19.2653C17.3556 19.0025 16.8578 18.5968 16.5897 18.3637L16.1022 17.9397L17.3877 17.9337C18.8503 17.9269 19.012 17.7876 19.4454 16.16C19.5784 15.6609 19.7496 15.2523 19.8259 15.2523C19.9023 15.2523 20.1303 15.8327 20.3326 16.5422Z" fill="#27272E"/>
    </g>
    <defs>
        <clipPath id="clip0">
            <rect width="41" height="41" fill="white"/>
        </clipPath>
    </defs>
</svg>
