<svg width="41" height="41" viewBox="0 0 41 41" fill="none" xmlns="http://www.w3.org/2000/svg">
<circle opacity="0.3" cx="29.6635" cy="29.6654" r="11.0365" fill="#FFD541"/>
<path d="M19.9998 29.6286C25.7272 29.6286 30.3702 24.9856 30.3702 19.2582C30.3702 13.5308 25.7272 8.88782 19.9998 8.88782C14.2724 8.88782 9.62946 13.5308 9.62946 19.2582C9.62946 24.9856 14.2724 29.6286 19.9998 29.6286Z" fill="#FFD541"/>
<path d="M25.9258 31.8524C29.6295 28.1489 34.074 31.4821 34.074 31.4821C33.0863 32.8401 30.074 34.8154 25.9258 31.8524Z" fill="white"/>
<path d="M31.8094 26.9933C33.769 21.915 39.2281 23.6 39.2281 23.6C38.8536 25.3247 36.8455 28.418 31.8094 26.9933Z" fill="white"/>
<path d="M34.2288 21.2992C33.4393 16.3138 38.5173 14.5238 38.5173 14.5238C39.0148 16.053 38.8536 19.5488 34.2288 21.2992Z" fill="white"/>
<path fill-rule="evenodd" clip-rule="evenodd" d="M9.36207 0.188366C9.05459 0.495838 9.06453 0.821273 9.38958 1.0911C9.81114 1.44099 10.3028 1.13429 10.2363 0.562912C10.1723 0.0125585 9.7282 -0.177772 9.36207 0.188366ZM34.4473 0.542465C33.411 1.06664 32.9587 1.74751 32.8731 2.91319C32.7888 4.0569 33.2276 4.91052 34.2067 5.50731C35.4393 6.25888 37.3053 5.85262 38.085 4.66286C38.9824 3.29309 38.4242 1.26041 36.9552 0.549345C35.9357 0.0557462 35.4127 0.0544079 34.4473 0.542465ZM29.6222 0.86618C29.2853 0.987143 29.3242 1.86484 29.6724 1.99842C30.0093 2.12779 30.5299 1.75305 30.5299 1.38118C30.5299 1.07256 29.9556 0.746746 29.6222 0.86618ZM36.9984 1.59406C37.7221 2.20308 37.8998 2.96612 37.5262 3.86026C36.9061 5.3443 34.9203 5.51839 34.0082 4.16869C32.7204 2.26289 35.2276 0.104093 36.9984 1.59406ZM14.4284 1.57113C12.5914 2.23748 11.0051 4.14193 10.4496 6.34774C10.2812 7.01658 10.0095 7.42628 9.34888 8.00798C8.3806 8.86026 8.50864 8.90326 7.60781 7.42265C7.35022 6.99938 6.99211 6.65292 6.8119 6.65292C6.6317 6.65292 6.13275 7.0525 5.70279 7.54075C4.4213 8.9967 4.03089 11.0514 4.64374 13.1152C4.90439 13.9925 4.90573 14.1972 4.65635 14.9174C4.34162 15.8263 4.28371 15.8373 3.3076 15.175C2.29862 14.4901 0.744059 14.0042 0.462958 14.2855C0.0843991 14.6644 0.211095 17.1379 0.660551 18.1393C1.05879 19.0265 2.26766 20.4013 3.26365 21.0993C3.65711 21.3751 3.83024 21.6868 3.90668 22.2581L4.01159 23.0395L2.17498 23.12C-0.012104 23.2155 -0.202434 23.338 0.126822 24.4374C0.6273 26.1077 2.70737 27.6952 4.90191 28.0818C5.90936 28.2593 6.02994 28.338 6.54647 29.1546C6.86617 29.6598 7.01676 30.0649 6.89942 30.1039C6.32729 30.2946 4.92312 31.3298 4.92312 31.5608C4.92312 32.0319 5.62769 32.7393 6.67317 33.3185C7.6017 33.8328 7.86732 33.8861 9.60915 33.9071C11.3495 33.9279 11.6323 33.9845 12.7057 34.5262C13.3552 34.8544 14.6432 35.3508 15.5677 35.6298C17.0288 36.0707 17.5864 36.137 19.8285 36.137C22.0707 36.137 22.6283 36.0707 24.0894 35.6298C25.0139 35.3508 26.3019 34.8544 26.9514 34.5262C28.0248 33.9845 28.3076 33.9279 30.0479 33.9071C31.7897 33.8861 32.0554 33.8328 32.9839 33.3185C34.0294 32.7393 34.734 32.0319 34.734 31.5608C34.734 31.3298 33.3298 30.2946 32.7576 30.1039C32.6403 30.0649 32.7909 29.6598 33.1106 29.1546C33.6271 28.338 33.7477 28.2593 34.7552 28.0818C36.9497 27.6952 39.0298 26.1077 39.5302 24.4374C39.8595 23.338 39.6692 23.2155 37.4821 23.12L35.6455 23.0395L35.7504 22.2581C35.8268 21.6868 36 21.3751 36.3934 21.0993C37.3825 20.406 38.5971 19.0292 39.0044 18.1393C39.4529 17.1597 39.5706 14.6617 39.1863 14.2774C38.9136 14.0047 37.3407 14.5023 36.3495 15.175C35.3734 15.8373 35.3155 15.8263 35.0007 14.9174C34.7513 14.1972 34.7527 13.9925 35.0133 13.1152C35.6262 11.0514 35.2358 8.9967 33.9543 7.54075C33.5243 7.0525 33.0087 6.65292 32.8085 6.65292C32.566 6.65292 32.2453 7.00511 31.8503 7.70509L31.2566 8.75726L30.5404 8.19009C29.5667 7.41883 29.4555 7.26079 29.1914 6.27398C28.811 4.85109 28.1192 3.69706 27.0951 2.77618C25.9636 1.75898 24.6434 1.25506 23.3292 1.33895L22.4083 1.39781L22.4186 2.25773C22.4246 2.75783 22.6353 3.56693 22.9222 4.19162C23.9222 6.36876 25.6831 7.69095 27.9459 7.96326C29.0808 8.09989 29.2874 8.19563 30.0366 8.93097L30.8681 9.74675L30.9503 11.4962C31.0447 13.5086 31.423 14.4402 32.5467 15.4267L33.2482 16.0428L33.6881 15.6294C34.1274 15.2168 34.1282 15.2168 34.3355 15.6038C34.6443 16.1811 34.5937 16.5434 34.0479 17.6589C33.4825 18.8148 33.2556 20.6206 33.5732 21.4381C33.7594 21.9168 33.8591 21.9723 34.3558 21.8729C34.8515 21.7737 34.9247 21.814 34.9224 22.1842C34.9168 23.1056 34.6722 23.4676 33.6755 24.0302C32.6292 24.6206 31.7255 25.7127 31.3355 26.8582C31.1492 27.4058 31.1723 27.509 31.5388 27.7659C31.7664 27.9252 32.1054 28.0556 32.2923 28.0556C32.7393 28.0556 32.721 28.223 32.1884 29.0003C31.7471 29.6443 31.7376 29.6474 30.3659 29.6029C28.5279 29.5432 27.2984 29.9644 26.179 31.037C25.3147 31.8652 25.3101 31.8763 25.6678 32.2717C25.8664 32.4911 26.2677 32.8117 26.5595 32.9841C26.8513 33.1565 27.0901 33.3535 27.0901 33.4219C27.0901 33.4901 26.5012 33.8094 25.7815 34.1313C22.2478 35.7114 17.4093 35.7114 13.8755 34.1313C13.1559 33.8094 12.5669 33.4901 12.5669 33.4219C12.5669 33.3535 12.8058 33.1565 13.0976 32.9841C13.3894 32.8117 13.7907 32.4911 13.9892 32.2717C14.347 31.8763 14.3424 31.8652 13.4781 31.037C12.3592 29.965 11.1289 29.5434 9.29423 29.6029C7.98026 29.6455 7.89866 29.6226 7.4729 29.0904C6.93994 28.4246 6.90153 28.0556 7.36474 28.0556C7.55163 28.0556 7.89063 27.9252 8.11823 27.7659C8.48475 27.509 8.50787 27.4058 8.32155 26.8582C7.93153 25.7127 7.02784 24.6206 5.98159 24.0302C4.98484 23.4676 4.74024 23.1056 4.7347 22.1842C4.7324 21.814 4.80559 21.7737 5.30129 21.8729C5.79795 21.9723 5.8977 21.9168 6.08383 21.4381C6.40143 20.6206 6.1746 18.8148 5.60915 17.6589C5.06338 16.5434 5.01274 16.1811 5.32155 15.6038C5.52889 15.2168 5.52965 15.2168 5.96898 15.6294L6.40888 16.0428L7.11039 15.4267C8.23403 14.4402 8.6124 13.5086 8.7068 11.4962L8.78897 9.74675L9.62043 8.93097C10.3697 8.19563 10.5763 8.09989 11.7112 7.96326C13.974 7.69095 15.7349 6.36876 16.7349 4.19162C17.0217 3.56693 17.2325 2.75783 17.2384 2.25773L17.2488 1.39781L16.1977 1.35424C15.6197 1.33016 14.8234 1.42781 14.4284 1.57113ZM16.3628 2.87879C15.9333 4.8551 13.621 7.03511 11.9543 7.03511C11.3206 7.03511 11.2293 6.97855 11.2293 6.58585C11.2293 6.05862 12.0391 4.45819 12.6313 3.81554C13.5478 2.82089 14.9715 2.09263 16.0341 2.07505C16.5295 2.06683 16.5358 2.0825 16.3628 2.87879ZM25.663 2.72898C27.054 3.544 28.4123 5.45151 28.4236 6.60515C28.4272 6.97625 28.3284 7.03511 27.7028 7.03511C26.0265 7.03511 23.724 4.85433 23.2889 2.85491L23.107 2.01887L23.9843 2.13907C24.4668 2.20518 25.2222 2.47061 25.663 2.72898ZM2.16944 6.96383C2.03548 7.31258 2.35958 7.79949 2.72552 7.79949C3.09147 7.79949 3.41557 7.31258 3.28161 6.96383C3.21607 6.7928 2.96573 6.65292 2.72552 6.65292C2.48532 6.65292 2.23498 6.7928 2.16944 6.96383ZM7.33837 8.61165C8.06988 10.0483 8.17785 11.9522 7.60342 13.2876C7.37105 13.8276 7.01561 14.4192 6.81343 14.6021C6.46334 14.9189 6.43258 14.9172 6.16829 14.5679C5.27129 13.3821 4.9728 10.6835 5.57838 9.23538C5.84706 8.59254 6.56711 7.6084 6.76852 7.6084C6.80101 7.6084 7.05746 8.05976 7.33837 8.61165ZM34.0215 9.12416C34.6833 10.6034 34.415 13.3434 33.4888 14.5679C33.2245 14.9172 33.1937 14.9189 32.8436 14.6021C32.6415 14.4192 32.286 13.8276 32.0537 13.2876C31.4762 11.9447 31.5868 10.0491 32.3279 8.5933C32.8431 7.58145 32.8519 7.57515 33.2455 7.92447C33.4639 8.11843 33.8133 8.65827 34.0215 9.12416ZM17.5492 8.46565C15.3672 8.96154 13.6371 9.93097 11.9971 11.5767C9.78878 13.7922 8.74273 16.3069 8.74731 19.3883C8.75496 24.4282 12.4236 29.0296 17.3443 30.1708C20.9839 31.0149 24.878 29.8836 27.5774 27.1983C31.0821 23.7118 31.8897 18.8671 29.7253 14.3134C28.9877 12.7611 26.6699 10.363 25.1834 9.61413C22.6321 8.32844 19.9367 7.92294 17.5492 8.46565ZM22.416 9.42992C24.2625 9.9044 25.5576 10.6558 27.0105 12.0955C28.9696 14.0368 30.141 16.7557 30.141 19.3607C30.141 21.8564 28.9443 24.6661 27.0901 26.5243C25.0357 28.5828 22.6476 29.5887 19.8362 29.5797C18.0051 29.5736 17.0084 29.3418 15.3378 28.5331C10.1801 26.0361 8.12874 19.9283 10.6846 14.6789C11.8159 12.3556 14.5325 10.1282 17.0936 9.42418C18.3636 9.07505 21.0464 9.07792 22.416 9.42992ZM37.1601 9.39495C37.1014 9.54801 37.1714 9.83217 37.3156 10.0263C37.5245 10.3072 37.6485 10.3361 37.9235 10.1674C38.4569 9.84039 38.3634 9.2436 37.7682 9.17461C37.4628 9.13926 37.2253 9.22525 37.1601 9.39495ZM19.5123 10.9608C19.3529 11.3764 19.4565 11.433 20.716 11.618C23.7725 12.0666 26.0535 13.8291 27.1137 16.5606C27.6894 18.0447 27.703 20.6541 27.1419 22.0779C26.2532 24.3346 24.2495 26.1752 21.957 26.8417C20.2625 27.3344 18.0756 27.1333 16.4563 26.3361C14.0534 25.1532 12.5824 23.1358 12.1234 20.394C11.9543 19.3839 11.806 18.9786 11.6055 18.9786C11.3856 18.9786 11.3279 19.2516 11.3386 20.2415C11.35 21.2828 11.4754 21.7634 12.0523 22.9784C13.3 25.6057 15.6334 27.3655 18.5386 27.8706C21.0661 28.3099 23.9042 27.3818 25.8538 25.4785C30.0626 21.3693 28.9596 14.3015 23.695 11.6439C22.6902 11.1366 20.9013 10.6659 19.9785 10.6659C19.7844 10.6659 19.5746 10.7985 19.5123 10.9608ZM18.929 15.1089L18.385 16.8765L16.4792 16.9721C14.5824 17.0672 13.9898 17.2195 14.1994 17.5585C14.2598 17.6564 14.9839 18.2499 15.8083 18.8775L17.3074 20.0187L16.7525 21.7439C16.4475 22.6929 16.1977 23.558 16.1977 23.6663C16.1977 24.1976 16.8677 23.9738 18.1771 23.0055C18.9692 22.4198 19.7122 21.9405 19.8285 21.9405C19.9449 21.9405 20.6879 22.4198 21.48 23.0055C22.7894 23.9738 23.4593 24.1976 23.4593 23.6663C23.4593 23.558 23.2096 22.6929 22.9046 21.7439L22.3496 20.0187L23.8488 18.8775C24.6732 18.2499 25.3972 17.6564 25.4576 17.5585C25.6673 17.2195 25.0747 17.0672 23.1779 16.9721L21.2721 16.8765L20.728 15.1089C20.2969 13.7082 20.1102 13.3413 19.8285 13.3413C19.5469 13.3413 19.3602 13.7082 18.929 15.1089ZM2.26078 15.5453C4.10313 16.479 5.4964 18.5366 5.4964 20.3235C5.4964 21.1056 5.24989 21.1595 4.1767 20.612C2.5222 19.768 1.43621 18.377 1.123 16.7013C0.969933 15.8811 1.02096 15.0611 1.22543 15.0611C1.26919 15.0611 1.73508 15.279 2.26078 15.5453ZM38.5761 15.4911C38.6761 17.6124 37.7122 19.3281 35.8064 20.4211C34.4819 21.1809 34.1607 21.1618 34.1607 20.3235C34.1607 18.5587 35.5398 16.4993 37.3541 15.5551C38.4901 14.964 38.5511 14.9608 38.5761 15.4911ZM20.3326 16.5421L20.7007 17.832L22.1278 17.9275L23.5549 18.0231L22.4471 18.865C21.8377 19.3281 21.3737 19.801 21.416 19.9161C21.8339 21.0548 22.1414 22.1756 22.0586 22.2583C22.0026 22.3143 21.5516 22.0508 21.0563 21.6726C20.561 21.2944 20.0085 20.9851 19.8285 20.9851C19.6485 20.9851 19.0961 21.2944 18.6007 21.6726C18.1054 22.0508 17.6537 22.3135 17.5967 22.2566C17.5398 22.1997 17.6778 21.6107 17.9036 20.948L18.3143 19.7429L17.6957 19.2652C17.3556 19.0024 16.8578 18.5967 16.5897 18.3636L16.1022 17.9396L17.3877 17.9336C18.8503 17.9268 19.012 17.7875 19.4454 16.1599C19.5784 15.6608 19.7496 15.2522 19.8259 15.2522C19.9023 15.2522 20.1303 15.8326 20.3326 16.5421ZM4.9837 24.4284C6.00472 24.9082 7.45991 26.3974 7.3699 26.8702C7.32174 27.1238 7.06319 27.2084 6.19868 27.2534C4.71253 27.3306 3.27454 26.8836 2.28543 26.037C1.60265 25.4527 0.910121 24.5081 0.910121 24.1616C0.910121 23.7041 3.85279 23.8968 4.9837 24.4284ZM38.6615 24.0844C38.8744 24.2975 38.1857 25.3401 37.3716 26.037C36.3825 26.8836 34.9445 27.3306 33.4584 27.2534C32.0315 27.1792 31.9445 26.8492 33.0397 25.6613C33.9275 24.698 34.5258 24.3265 35.6355 24.0502C36.3873 23.8628 38.4634 23.8864 38.6615 24.0844ZM36.9405 30.223C36.54 30.5159 36.6413 31.0504 37.1331 31.239C37.5893 31.4143 38.1247 30.8077 37.8702 30.4043C37.5916 29.9629 37.3585 29.9174 36.9405 30.223ZM11.1683 30.635C12.1201 30.9176 13.1402 31.5603 13.1402 31.8773C13.1402 32.1945 11.0689 33.0485 10.0429 33.1544C8.8012 33.2826 7.19409 32.8563 6.37926 32.1828L5.82872 31.7278L6.3548 31.3831C7.11173 30.8872 8.72916 30.3623 9.5224 30.355C9.89751 30.3516 10.6382 30.4775 11.1683 30.635ZM31.5939 30.6323C32.1123 30.7882 32.8347 31.0995 33.1995 31.3239L33.8624 31.7319L33.295 32.1911C32.471 32.8576 30.8595 33.283 29.6359 33.1567C28.5906 33.0487 26.5169 32.2251 26.5169 31.9176C26.5169 31.3428 28.6732 30.3669 29.9696 30.355C30.3447 30.3516 31.0756 30.4764 31.5939 30.6323ZM3.29881 32.974C2.68711 33.1135 1.88012 33.9942 1.75553 34.6587C1.5436 35.788 2.60494 37.037 3.77655 37.037C4.94815 37.037 6.00949 35.788 5.79757 34.6587C5.59615 33.5853 4.33798 32.737 3.29881 32.974ZM4.57361 34.1047C5.29556 34.758 4.73852 36.2727 3.77655 36.2727C3.23517 36.2727 2.62998 35.5998 2.62998 34.9979C2.62998 33.9486 3.80464 33.4087 4.57361 34.1047ZM8.6017 35.0615C8.2669 35.1966 8.30302 36.0177 8.64947 36.1507C9.11135 36.3279 9.5094 36.0747 9.5094 35.6038C9.5094 35.2675 9.0974 34.8446 8.87267 34.9501C8.85509 34.9583 8.73317 35.0086 8.6017 35.0615ZM31.4941 35.2109C30.978 35.833 31.8322 36.5811 32.4047 36.0086C32.648 35.7651 32.673 35.6159 32.5127 35.3613C32.2337 34.9184 31.7913 34.853 31.4941 35.2109Z" fill="#282D33"/>
</svg>
