<svg width="44" height="44" viewBox="0 0 44 44" fill="none" xmlns="http://www.w3.org/2000/svg">
    <circle opacity="0.3" cx="32.1487" cy="32.1487" r="11.8519" fill="#FFD541"/>
    <g clip-path="url(#clip0)">
        <path d="M23.0096 39.23C22.4507 39.23 21.9477 38.7899 21.9477 38.1846V36.7541L21.0535 36.8641C20.6622 36.9192 20.2151 36.9192 19.7121 36.9192C19.0973 36.9192 18.4825 36.8641 17.7559 36.8091C17.6442 36.8091 17.5883 36.8091 17.4765 36.8091H16.694V38.1846C16.694 38.7348 16.2469 39.23 15.6321 39.23H11.4962C10.9373 39.23 10.4902 38.7899 10.4343 38.2947L11.0491 35.0485L10.602 34.7734C8.31047 33.3428 6.74554 31.197 6.01897 28.6661L5.8513 28.0058L2.44199 28.501L1.88309 21.1282L5.73952 21.5134L5.90719 20.8531C6.4102 18.7073 7.41623 16.9467 8.86938 15.5161L9.14883 15.241L7.97513 9.46387C10.3784 9.51889 13.3965 10.2892 14.682 11.9948L14.9614 12.38L15.4644 12.2699C16.694 12.0498 17.9795 11.9398 19.3209 11.9398C19.3209 11.9398 19.4885 11.9398 19.5444 11.9398C23.1773 12.38 26.4189 12.9302 28.8781 14.7458C31.6167 16.8917 33.1258 20.2479 33.1258 24.4295C33.1258 28.9962 31.3373 32.5725 27.9839 34.7183L27.5367 34.9934L28.1515 38.1846C28.1515 38.5148 28.0398 38.7348 27.8162 38.9549C27.6485 39.12 27.3691 39.23 27.0896 39.23H23.0096Z" fill="white"/>
        <path d="M24.2385 17.9365C24.1826 17.9365 24.1267 17.9365 24.1267 17.9365C20.6615 17.1662 18.1465 17.1662 14.6813 17.9365C14.3459 17.9915 14.0106 17.8265 13.9547 17.4964C13.8988 17.1662 14.0665 16.8361 14.4018 16.7811C18.0347 15.9558 20.7174 15.9558 24.3503 16.7811C24.6856 16.8361 24.8533 17.1662 24.7974 17.4964C24.7415 17.7715 24.518 17.9365 24.2385 17.9365Z" fill="#282D33"/>
        <path d="M14.5697 32.0781C14.6256 32.0781 14.6815 32.0781 14.6815 32.0781C18.1467 32.8483 20.6618 32.8483 24.127 32.0781C24.4623 32.023 24.7976 32.1881 24.8535 32.5182C24.9094 32.8483 24.7418 33.1785 24.4064 33.2335C20.7735 34.0588 18.0908 34.0588 14.4579 33.2335C14.1226 33.1785 13.9549 32.8483 14.0108 32.5182C14.0108 32.2431 14.2903 32.0781 14.5697 32.0781Z" fill="#282D33"/>
        <path d="M39.5526 16.1762C39.2732 16.0661 38.8819 16.2312 38.7702 16.5613C38.7702 16.6164 38.6025 17.0015 38.0995 17.3316C38.0995 17.1666 38.1554 16.9465 38.1554 16.7814C38.1554 15.4609 37.0376 14.4155 35.7521 14.4155C34.4107 14.4155 33.3488 15.4609 33.3488 16.7814C33.3488 18.1019 34.4107 19.1473 35.7521 19.1473C35.9757 19.1473 36.1992 19.0923 36.4228 19.0923C36.2551 19.3124 36.1433 19.4774 35.9198 19.6425C34.9137 20.5228 33.4606 20.3578 33.4047 20.3578C33.1252 20.3027 32.7899 20.5228 32.734 20.8529C32.6781 21.1831 32.9017 21.5132 33.237 21.5132C33.237 21.5132 33.4606 21.5132 33.74 21.5132C34.4107 21.5132 35.6962 21.3481 36.7022 20.5228C37.2052 20.0827 37.5965 19.4774 37.8759 18.7622C39.5526 18.1569 39.9439 16.9465 39.9998 16.8915C40.0556 16.6164 39.888 16.2862 39.5526 16.1762ZM34.5225 16.7264C34.5225 16.0661 35.0814 15.5159 35.7521 15.5159C36.4228 15.5159 36.9817 16.0661 36.9817 16.7264C36.9817 17.3866 36.4228 17.9368 35.7521 17.9368C35.0814 17.9368 34.5225 17.3866 34.5225 16.7264Z" fill="#282D33"/>
        <path d="M33.9077 24.4844C33.9077 20.1928 32.4546 16.7815 29.7718 14.5256C29.5483 14.3606 29.2129 14.3056 28.9335 14.4156C28.8776 14.4706 28.7658 14.4706 28.7099 14.5256C28.4305 14.6357 28.3746 14.9658 28.5981 15.1309C31.225 17.1666 32.6781 20.3578 32.6781 24.5394C32.6781 29.1061 30.8337 32.6274 27.4244 34.6632C27.2009 34.7732 27.0891 35.0483 27.145 35.2684L27.7598 38.2945C27.7598 38.6247 27.4803 38.8998 27.145 38.8998H23.0091C22.6738 38.8998 22.3943 38.6247 22.3943 38.2945V37.0291C22.3943 36.864 22.3384 36.6989 22.1707 36.5889C22.059 36.4789 21.9472 36.4789 21.7795 36.4789C21.7236 36.4789 21.7236 36.4789 21.6677 36.4789C20.3823 36.754 18.8173 36.6439 17.8672 36.5339C17.476 36.4789 17.1965 36.4789 16.973 36.4789C16.6376 36.4789 16.3582 36.754 16.3582 37.0841V38.3496C16.3582 38.6797 16.0787 38.9548 15.7434 38.9548H11.6075C11.2721 38.9548 10.9927 38.6797 10.9927 38.4596L11.6075 35.3234C11.6634 35.1033 11.5516 34.8282 11.328 34.7182C8.81297 33.2326 7.13626 30.9768 6.46557 28.1707C6.40968 27.8956 6.13023 27.6756 5.79489 27.7306L3.00037 28.1707L2.49736 21.6233L5.68311 21.8984C6.01845 21.9534 6.2979 21.7333 6.35379 21.4032C6.80091 19.0373 7.86283 17.0566 9.48365 15.571C9.65132 15.461 9.70721 15.2409 9.65132 15.0208L8.64529 9.9039C10.9927 10.069 13.7313 10.9493 14.6256 12.4899C14.7373 12.71 15.0168 12.82 15.2962 12.765C15.5757 12.71 15.8551 12.6549 16.1346 12.5999C16.1346 12.5999 15.5198 11.5545 15.4639 11.4995C14.0108 9.51876 10.6015 8.63843 7.91872 8.63843C7.75105 8.63843 7.58338 8.69345 7.4716 8.85851C7.35982 9.02357 7.30393 9.18863 7.35982 9.3537L8.47762 14.9108C6.9127 16.3963 5.85078 18.3221 5.29188 20.5779L1.88257 20.3578C1.7149 20.3578 1.54723 20.4128 1.37955 20.5229C1.26777 20.6329 1.21188 20.798 1.21188 20.963L1.82668 28.721C1.82668 28.886 1.93846 29.0511 2.05024 29.1611C2.16202 29.2712 2.32969 29.3262 2.49736 29.2712L5.40366 28.831C6.18612 31.582 7.86283 33.8379 10.322 35.3785L9.7631 38.2395C9.7631 39.2299 10.6015 40.0002 11.6075 40.0002H15.7434C16.7494 40.0002 17.5319 39.1749 17.5319 38.2395V37.6343C17.5877 37.6343 17.6436 37.6343 17.6995 37.6343C18.5938 37.7443 19.9351 37.8544 21.1647 37.6893V38.2395C21.1647 39.2299 22.0031 40.0002 23.0091 40.0002H27.145C28.151 40.0002 28.9894 39.1749 28.9335 38.0745L28.4305 35.3234C32.0074 33.0676 33.9077 29.3262 33.9077 24.4844Z" fill="#282D33"/>
        <path d="M9.9869 22.559C10.6017 22.559 11.1047 22.0639 11.1047 21.5137C11.1047 20.9084 10.6017 20.4683 9.9869 20.4683C9.3721 20.4683 8.86909 20.9634 8.86909 21.5137C8.86909 22.0639 9.3721 22.559 9.9869 22.559Z" fill="#282D33"/>
        <path d="M23.1765 14.4152C19.1524 14.4152 15.9107 11.3341 15.9107 7.48265C15.9107 3.6312 19.1524 0.550049 23.1765 0.550049C27.2006 0.550049 30.4422 3.6312 30.4422 7.48265C30.4422 11.3341 27.1447 14.4152 23.1765 14.4152Z" fill="#FFD541"/>
        <path d="M23.1764 14.9656C18.8729 14.9656 15.3518 11.6094 15.3518 7.48281C15.3518 3.35626 18.8729 0 23.1764 0C27.48 0 31.0011 3.35626 31.0011 7.48281C31.0011 11.6094 27.48 14.9656 23.1764 14.9656ZM23.1764 1.15543C19.4877 1.15543 16.5255 4.01651 16.5255 7.48281C16.5255 11.0041 19.5436 13.8102 23.1764 13.8102C26.8093 13.8102 29.8274 11.0041 29.8274 7.48281C29.8274 4.01651 26.8652 1.15543 23.1764 1.15543Z" fill="#282D33"/>
        <path d="M25.4683 7.42782C25.8036 7.04267 25.9713 6.60251 25.9713 6.0523C25.9713 4.84185 24.9653 3.9065 23.7916 3.85148C23.7916 3.57637 23.5121 3.30127 23.2327 3.30127C22.8973 3.30127 22.6738 3.52135 22.6738 3.85148H21.0529C20.7176 3.85148 20.494 4.12658 20.494 4.40168C20.494 4.73181 20.7176 4.95189 21.0529 4.95189V10.2339C20.7735 10.2339 20.494 10.509 20.494 10.7841C20.494 11.1142 20.7735 11.3343 21.0529 11.3343H22.6738C22.6738 11.6094 22.9532 11.8845 23.2327 11.8845C23.5121 11.8845 23.7916 11.6644 23.7916 11.3343H24.2946C25.5242 11.3343 26.5302 10.3439 26.5302 9.13346C26.5302 8.47321 26.0831 7.81296 25.4683 7.42782ZM24.7976 6.0523C24.7976 6.60251 24.3505 7.09769 23.7357 7.09769H22.6738H22.1708V5.00691H23.7916C24.3505 5.00691 24.7976 5.44707 24.7976 6.0523ZM24.2946 10.2889H22.1708V8.25313H22.6738H23.7357H24.2946C24.8535 8.25313 25.3565 8.69329 25.3565 9.29852C25.3565 9.90375 24.8535 10.2889 24.2946 10.2889Z" fill="#282D33"/>
    </g>
    <defs>
        <clipPath id="clip0">
            <rect width="40" height="40" fill="white"/>
        </clipPath>
    </defs>
</svg>
