<svg width="44" height="44" viewBox="0 0 44 44" fill="none" xmlns="http://www.w3.org/2000/svg">
<circle cx="32.1487" cy="32.1487" r="11.8519" fill="#7A2DF4"/>
<g clip-path="url(#clip0)">
<path d="M23.0113 39.23C22.4524 39.23 21.9494 38.7899 21.9494 38.1846V36.7541L21.0551 36.8641C20.6639 36.9192 20.2168 36.9192 19.7138 36.9192C19.099 36.9192 18.4842 36.8641 17.7576 36.8091C17.6458 36.8091 17.5899 36.8091 17.4782 36.8091H16.6957V38.1846C16.6957 38.7348 16.2486 39.23 15.6338 39.23H11.4979C10.939 39.23 10.4919 38.7899 10.436 38.2947L11.0508 35.0485L10.6037 34.7734C8.31215 33.3428 6.74722 31.197 6.02065 28.6661L5.85298 28.0058L2.44367 28.501L1.88477 21.1282L5.7412 21.5134L5.90887 20.8531C6.41188 18.7073 7.41791 16.9467 8.87105 15.5161L9.15051 15.241L7.97681 9.46387C10.3801 9.51889 13.3982 10.2892 14.6836 11.9948L14.9631 12.38L15.4661 12.2699C16.6957 12.0498 17.9812 11.9398 19.3225 11.9398C19.3225 11.9398 19.4902 11.9398 19.5461 11.9398C23.179 12.38 26.4206 12.9302 28.8798 14.7458C31.6184 16.8917 33.1274 20.2479 33.1274 24.4295C33.1274 28.9962 31.339 32.5725 27.9855 34.7183L27.5384 34.9934L28.1532 38.1846C28.1532 38.5148 28.0414 38.7348 27.8179 38.9549C27.6502 39.12 27.3707 39.23 27.0913 39.23H23.0113Z" fill="#27272E"/>
<path d="M24.2397 17.9365C24.1838 17.9365 24.1279 17.9365 24.1279 17.9365C20.6627 17.1662 18.1477 17.1662 14.6825 17.9365C14.3471 17.9915 14.0118 17.8265 13.9559 17.4964C13.9 17.1662 14.0677 16.8361 14.403 16.7811C18.0359 15.9558 20.7186 15.9558 24.3515 16.7811C24.6868 16.8361 24.8545 17.1662 24.7986 17.4964C24.7427 17.7715 24.5192 17.9365 24.2397 17.9365Z" fill="#E8E7EF"/>
<path d="M14.5714 32.0778C14.6273 32.0778 14.6832 32.0778 14.6832 32.0778C18.1484 32.8481 20.6635 32.8481 24.1287 32.0778C24.464 32.0228 24.7994 32.1879 24.8553 32.518C24.9112 32.8481 24.7435 33.1782 24.4081 33.2332C20.7753 34.0586 18.0925 34.0586 14.4597 33.2332C14.1243 33.1782 13.9567 32.8481 14.0125 32.518C14.0125 32.2429 14.292 32.0778 14.5714 32.0778Z" fill="#E8E7EF"/>
<path d="M39.5537 16.1767C39.2743 16.0666 38.8831 16.2317 38.7713 16.5618C38.7713 16.6168 38.6036 17.002 38.1006 17.3321C38.1006 17.167 38.1565 16.947 38.1565 16.7819C38.1565 15.4614 37.0387 14.416 35.7532 14.416C34.4118 14.416 33.3499 15.4614 33.3499 16.7819C33.3499 18.1024 34.4118 19.1478 35.7532 19.1478C35.9768 19.1478 36.2003 19.0928 36.4239 19.0928C36.2562 19.3129 36.1444 19.4779 35.9209 19.643C34.9148 20.5233 33.4617 20.3582 33.4058 20.3582C33.1264 20.3032 32.791 20.5233 32.7351 20.8534C32.6792 21.1836 32.9028 21.5137 33.2381 21.5137C33.2381 21.5137 33.4617 21.5137 33.7411 21.5137C34.4118 21.5137 35.6973 21.3486 36.7033 20.5233C37.2063 20.0831 37.5976 19.4779 37.877 18.7626C39.5537 18.1574 39.945 16.947 40.0009 16.8919C40.0568 16.6168 39.8891 16.2867 39.5537 16.1767ZM34.5236 16.7269C34.5236 16.0666 35.0825 15.5164 35.7532 15.5164C36.4239 15.5164 36.9828 16.0666 36.9828 16.7269C36.9828 17.3871 36.4239 17.9373 35.7532 17.9373C35.0825 17.9373 34.5236 17.3871 34.5236 16.7269Z" fill="#E8E7EF"/>
<path d="M33.9087 24.4846C33.9087 20.193 32.4556 16.7817 29.7728 14.5259C29.5493 14.3608 29.2139 14.3058 28.9345 14.4158C28.8786 14.4709 28.7668 14.4709 28.7109 14.5259C28.4315 14.6359 28.3756 14.966 28.5991 15.1311C31.226 17.1669 32.6791 20.3581 32.6791 24.5396C32.6791 29.1063 30.8348 32.6277 27.4254 34.6634C27.2019 34.7735 27.0901 35.0486 27.146 35.2687L27.7608 38.2948C27.7608 38.6249 27.4813 38.9 27.146 38.9H23.0101C22.6748 38.9 22.3953 38.6249 22.3953 38.2948V37.0293C22.3953 36.8643 22.3394 36.6992 22.1718 36.5891C22.06 36.4791 21.9482 36.4791 21.7805 36.4791C21.7246 36.4791 21.7246 36.4791 21.6687 36.4791C20.3833 36.7542 18.8183 36.6442 17.8682 36.5341C17.477 36.4791 17.1975 36.4791 16.974 36.4791C16.6386 36.4791 16.3592 36.7542 16.3592 37.0843V38.3498C16.3592 38.6799 16.0797 38.955 15.7444 38.955H11.6085C11.2731 38.955 10.9937 38.6799 10.9937 38.4599L11.6085 35.3237C11.6644 35.1036 11.5526 34.8285 11.329 34.7184C8.81397 33.2329 7.13726 30.977 6.46658 28.171C6.41069 27.8959 6.13124 27.6758 5.7959 27.7308L3.00138 28.171L2.49837 21.6235L5.68412 21.8986C6.01946 21.9537 6.29891 21.7336 6.3548 21.4035C6.80192 19.0376 7.86384 17.0568 9.48466 15.5713C9.65233 15.4612 9.70822 15.2411 9.65233 15.0211L8.6463 9.90415C10.9937 10.0692 13.7323 10.9495 14.6266 12.4901C14.7383 12.7102 15.0178 12.8202 15.2972 12.7652C15.5767 12.7102 15.8562 12.6552 16.1356 12.6002C16.1356 12.6002 15.5208 11.5548 15.4649 11.4997C14.0118 9.519 10.6025 8.63867 7.91973 8.63867C7.75206 8.63867 7.58439 8.69369 7.47261 8.85875C7.36082 9.02382 7.30493 9.18888 7.36082 9.35394L8.47863 14.911C6.9137 16.3966 5.85179 18.3223 5.29288 20.5781L1.88357 20.3581C1.7159 20.3581 1.54823 20.4131 1.38056 20.5231C1.26878 20.6332 1.21289 20.7982 1.21289 20.9633L1.82768 28.7212C1.82768 28.8863 1.93946 29.0513 2.05125 29.1614C2.16303 29.2714 2.3307 29.3264 2.49837 29.2714L5.40466 28.8312C6.18713 31.5823 7.86384 33.8381 10.323 35.3787L9.76411 38.2398C9.76411 39.2301 10.6025 40.0004 11.6085 40.0004H15.7444C16.7504 40.0004 17.5329 39.1751 17.5329 38.2398V37.6345C17.5888 37.6345 17.6446 37.6345 17.7005 37.6345C18.5948 37.7446 19.9361 37.8546 21.1657 37.6896V38.2398C21.1657 39.2301 22.0041 40.0004 23.0101 40.0004H27.146C28.152 40.0004 28.9904 39.1751 28.9345 38.0747L28.4315 35.3237C32.0085 33.0678 33.9087 29.3264 33.9087 24.4846Z" fill="#E8E7EF"/>
<path d="M9.9889 22.5586C10.6037 22.5586 11.1067 22.0634 11.1067 21.5132C11.1067 20.9079 10.6037 20.4678 9.9889 20.4678C9.37411 20.4678 8.87109 20.963 8.87109 21.5132C8.87109 22.0634 9.37411 22.5586 9.9889 22.5586Z" fill="#E8E7EF"/>
<path d="M23.1778 14.415C19.1537 14.415 15.9121 11.3338 15.9121 7.48241C15.9121 3.63096 19.1537 0.549805 23.1778 0.549805C27.202 0.549805 30.4436 3.63096 30.4436 7.48241C30.4436 11.3338 27.1461 14.415 23.1778 14.415Z" fill="#E478FF"/>
<path d="M23.1782 14.9656C18.8746 14.9656 15.3535 11.6094 15.3535 7.48281C15.3535 3.35626 18.8746 0 23.1782 0C27.4817 0 31.0028 3.35626 31.0028 7.48281C31.0028 11.6094 27.4817 14.9656 23.1782 14.9656ZM23.1782 1.15543C19.4894 1.15543 16.5272 4.01651 16.5272 7.48281C16.5272 11.0041 19.5453 13.8102 23.1782 13.8102C26.811 13.8102 29.8291 11.0041 29.8291 7.48281C29.8291 4.01651 26.8669 1.15543 23.1782 1.15543Z" fill="#E8E7EF"/>
<path d="M25.4703 7.42733C25.8057 7.04218 25.9733 6.60202 25.9733 6.05181C25.9733 4.84136 24.9673 3.90601 23.7936 3.85099C23.7936 3.57588 23.5142 3.30078 23.2347 3.30078C22.8994 3.30078 22.6758 3.52086 22.6758 3.85099H21.055C20.7197 3.85099 20.4961 4.12609 20.4961 4.40119C20.4961 4.73132 20.7197 4.9514 21.055 4.9514V10.2334C20.7755 10.2334 20.4961 10.5085 20.4961 10.7836C20.4961 11.1137 20.7755 11.3338 21.055 11.3338H22.6758C22.6758 11.6089 22.9553 11.884 23.2347 11.884C23.5142 11.884 23.7936 11.6639 23.7936 11.3338H24.2966C25.5262 11.3338 26.5322 10.3434 26.5322 9.13297C26.5322 8.47272 26.0851 7.81247 25.4703 7.42733ZM24.7996 6.05181C24.7996 6.60202 24.3525 7.0972 23.7377 7.0972H22.6758H22.1728V5.00642H23.7936C24.3525 5.00642 24.7996 5.44659 24.7996 6.05181ZM24.2966 10.2884H22.1728V8.25264H22.6758H23.7377H24.2966C24.8555 8.25264 25.3586 8.6928 25.3586 9.29803C25.3586 9.90326 24.8555 10.2884 24.2966 10.2884Z" fill="#27272E"/>
</g>
<defs>
<clipPath id="clip0">
<rect width="40" height="40" fill="white"/>
</clipPath>
</defs>
</svg>
