<svg width="20" height="20" viewBox="0 0 20 20" fill="none" xmlns="http://www.w3.org/2000/svg">
    <path fill-rule="evenodd" clip-rule="evenodd" d="M0 10.001C0 4.48098 4.48 0.000976562 10 0.000976562C15.52 0.000976562 20 4.48098 20 10.001C20 15.521 15.52 20.001 10 20.001C4.48 20.001 0 15.521 0 10.001ZM11 14.001V16.001H9V14.001H11ZM10 18.001C5.59 18.001 2 14.411 2 10.001C2 5.59098 5.59 2.00098 10 2.00098C14.41 2.00098 18 5.59098 18 10.001C18 14.411 14.41 18.001 10 18.001ZM6 8.00098C6 5.79098 7.79 4.00098 10 4.00098C12.21 4.00098 14 5.79098 14 8.00098C14 9.28398 13.21 9.97397 12.441 10.647C11.711 11.284 11 11.906 11 13.001H9C9 11.18 9.94199 10.458 10.77 9.823C11.42 9.325 12 8.87998 12 8.00098C12 6.90098 11.1 6.00098 10 6.00098C8.9 6.00098 8 6.90098 8 8.00098H6Z" fill="#37FFDB"/>
</svg>
