<svg width="19" height="18" viewBox="0 0 19 18" fill="none" xmlns="http://www.w3.org/2000/svg">
<path d="M17.2218 1L10.5547 6.00016L11.7945 3.0534L17.2218 1Z" fill="#E17726" stroke="#E17726" stroke-width="0.25" stroke-linecap="round" stroke-linejoin="round"/>
<path d="M1.84375 1L8.45154 6.04682L7.27112 3.0534L1.84375 1Z" fill="#E27625" stroke="#E27625" stroke-width="0.25" stroke-linecap="round" stroke-linejoin="round"/>
<path d="M14.8208 12.5938L13.0469 15.3405L16.8454 16.4006L17.9335 12.6538L14.8208 12.5938Z" fill="#E27625" stroke="#E27625" stroke-width="0.25" stroke-linecap="round" stroke-linejoin="round"/>
<path d="M1.14062 12.6538L2.22213 16.4006L6.01404 15.3405L4.24668 12.5938L1.14062 12.6538Z" fill="#E27625" stroke="#E27625" stroke-width="0.25" stroke-linecap="round" stroke-linejoin="round"/>
<path d="M5.80902 7.95401L4.75391 9.56741L8.51282 9.74075L8.38754 5.64062L5.80902 7.95401Z" fill="#E27625" stroke="#E27625" stroke-width="0.25" stroke-linecap="round" stroke-linejoin="round"/>
<path d="M13.2584 7.95381L10.6404 5.59375L10.5547 9.74055L14.3136 9.56721L13.2584 7.95381Z" fill="#E27625" stroke="#E27625" stroke-width="0.25" stroke-linecap="round" stroke-linejoin="round"/>
<path d="M6.01172 15.3417L8.28683 14.2284L6.32827 12.6816L6.01172 15.3417Z" fill="#E27625" stroke="#E27625" stroke-width="0.25" stroke-linecap="round" stroke-linejoin="round"/>
<path d="M10.7812 14.2284L13.0498 15.3417L12.7398 12.6816L10.7812 14.2284Z" fill="#E27625" stroke="#E27625" stroke-width="0.25" stroke-linecap="round" stroke-linejoin="round"/>
<path d="M13.0498 15.3399L10.7812 14.2266L10.9659 15.7199L10.9461 16.3533L13.0498 15.3399Z" fill="#D5BFB2" stroke="#D5BFB2" stroke-width="0.25" stroke-linecap="round" stroke-linejoin="round"/>
<path d="M6.01172 15.3399L8.122 16.3533L8.10881 15.7199L8.28683 14.2266L6.01172 15.3399Z" fill="#D5BFB2" stroke="#D5BFB2" stroke-width="0.25" stroke-linecap="round" stroke-linejoin="round"/>
<path d="M8.16341 11.6937L6.27734 11.1337L7.60945 10.5137L8.16341 11.6937Z" fill="#233447" stroke="#233447" stroke-width="0.25" stroke-linecap="round" stroke-linejoin="round"/>
<path d="M10.9062 11.6937L11.4602 10.5137L12.7989 11.1337L10.9062 11.6937Z" fill="#233447" stroke="#233447" stroke-width="0.25" stroke-linecap="round" stroke-linejoin="round"/>
<path d="M6.01343 15.3405L6.34318 12.5938L4.24609 12.6538L6.01343 15.3405Z" fill="#CC6228" stroke="#CC6228" stroke-width="0.25" stroke-linecap="round" stroke-linejoin="round"/>
<path d="M12.7266 12.5938L13.0497 15.3405L14.8237 12.6538L12.7266 12.5938Z" fill="#CC6228" stroke="#CC6228" stroke-width="0.25" stroke-linecap="round" stroke-linejoin="round"/>
<path d="M14.3136 9.56836L10.5547 9.7417L10.9042 11.6951L11.4582 10.5151L12.7969 11.1351L14.3136 9.56836Z" fill="#CC6228" stroke="#CC6228" stroke-width="0.25" stroke-linecap="round" stroke-linejoin="round"/>
<path d="M6.27725 11.1351L7.60936 10.5151L8.16332 11.6951L8.51282 9.7417L4.75391 9.56836L6.27725 11.1351Z" fill="#CC6228" stroke="#CC6228" stroke-width="0.25" stroke-linecap="round" stroke-linejoin="round"/>
<path d="M4.75391 9.56836L6.33003 12.6818L6.27723 11.1351L4.75391 9.56836Z" fill="#E27525" stroke="#E27525" stroke-width="0.25" stroke-linecap="round" stroke-linejoin="round"/>
<path d="M12.7976 11.1351L12.7383 12.6818L14.3144 9.56836L12.7976 11.1351Z" fill="#E27525" stroke="#E27525" stroke-width="0.25" stroke-linecap="round" stroke-linejoin="round"/>
<path d="M8.5097 9.74023L8.16016 11.6937L8.60199 14.0004L8.70093 10.9603L8.5097 9.74023Z" fill="#E27525" stroke="#E27525" stroke-width="0.25" stroke-linecap="round" stroke-linejoin="round"/>
<path d="M10.5558 9.74023L10.3711 10.9537L10.4634 14.0004L10.9053 11.6937L10.5558 9.74023Z" fill="#E27525" stroke="#E27525" stroke-width="0.25" stroke-linecap="round" stroke-linejoin="round"/>
<path d="M10.9067 11.6929L10.4648 13.9996L10.7814 14.2262L12.74 12.6795L12.7993 11.1328L10.9067 11.6929Z" fill="#F5841F" stroke="#F5841F" stroke-width="0.25" stroke-linecap="round" stroke-linejoin="round"/>
<path d="M6.27734 11.1328L6.33014 12.6795L8.28869 14.2262L8.60525 13.9996L8.16341 11.6929L6.27734 11.1328Z" fill="#F5841F" stroke="#F5841F" stroke-width="0.25" stroke-linecap="round" stroke-linejoin="round"/>
<path d="M10.9445 16.3532L10.9642 15.7199L10.7928 15.5732H8.27368L8.10881 15.7199L8.122 16.3532L6.01172 15.3398L6.75031 15.9532L8.24729 16.9999H10.8126L12.3161 15.9532L13.0481 15.3398L10.9445 16.3532Z" fill="#C0AC9D" stroke="#C0AC9D" stroke-width="0.25" stroke-linecap="round" stroke-linejoin="round"/>
<path d="M10.7802 14.2286L10.4636 14.002H8.60395L8.28745 14.2286L8.10938 15.722L8.27425 15.5753H10.7934L10.9648 15.722L10.7802 14.2286Z" fill="#161616" stroke="#161616" stroke-width="0.25" stroke-linecap="round" stroke-linejoin="round"/>
<path d="M17.5077 6.32682L18.0683 3.56675L17.2241 1L10.7812 5.83351L13.2608 7.95354L16.7625 8.98693L17.5341 8.07358L17.1978 7.82687L17.7319 7.33356L17.3231 7.01353L17.8572 6.60018L17.5077 6.32682Z" fill="#763E1A" stroke="#763E1A" stroke-width="0.25" stroke-linecap="round" stroke-linejoin="round"/>
<path d="M1 3.56675L1.56714 6.32682L1.20443 6.60018L1.74519 7.01353L1.33632 7.33356L1.87049 7.82687L1.53416 8.07358L2.30573 8.98693L5.80748 7.95354L8.28701 5.83351L1.84411 1L1 3.56675Z" fill="#763E1A" stroke="#763E1A" stroke-width="0.25" stroke-linecap="round" stroke-linejoin="round"/>
<path d="M16.761 8.98647L13.2593 7.95312L14.3144 9.56652L12.7383 12.6799L14.8222 12.6533H17.9348L16.761 8.98647Z" fill="#F5841F" stroke="#F5841F" stroke-width="0.25" stroke-linecap="round" stroke-linejoin="round"/>
<path d="M5.80957 7.95312L2.30787 8.98647L1.14062 12.6533H4.24668L6.33054 12.6799L4.75446 9.56652L5.80957 7.95312Z" fill="#F5841F" stroke="#F5841F" stroke-width="0.25" stroke-linecap="round" stroke-linejoin="round"/>
<path d="M10.5575 9.74158L10.7818 5.83475L11.7973 3.05469H7.27344L8.28899 5.83475L8.5132 9.74158L8.59894 10.9683L8.60554 14.0017H10.4652L10.4718 10.9683L10.5575 9.74158Z" fill="#F5841F" stroke="#F5841F" stroke-width="0.25" stroke-linecap="round" stroke-linejoin="round"/>
</svg>
