<svg xmlns="http://www.w3.org/2000/svg" fill="none" viewBox="73.64 73.93 388.93 388.62">
<mask id="path-1-inside-1" fill="white">
<path d="M153.154 130.402C150.684 127.429 151.084 123.004 154.147 120.646C155.162 119.864 156.185 119.093 157.215 118.332C160.325 116.036 164.689 116.869 166.869 120.062L217.206 193.809C218.509 195.719 218.011 198.316 216.165 199.708C214.319 201.099 211.685 200.864 210.208 199.085L153.154 130.402Z"/>
</mask>
<path d="M153.154 130.402C150.684 127.429 151.084 123.004 154.147 120.646C155.162 119.864 156.185 119.093 157.215 118.332C160.325 116.036 164.689 116.869 166.869 120.062L217.206 193.809C218.509 195.719 218.011 198.316 216.165 199.708C214.319 201.099 211.685 200.864 210.208 199.085L153.154 130.402Z" fill="#A5DA6F" stroke="white" stroke-width="6" mask="url(#path-1-inside-1)"/>
<mask id="path-2-inside-2" fill="white">
<path d="M169.106 120.478C165.71 115.441 167.024 108.574 172.25 105.476C176.174 103.15 180.182 100.966 184.264 98.9289C189.699 96.2163 196.183 98.8328 198.575 104.417L232.9 184.539C234.607 188.524 232.738 193.107 228.931 195.182C225.124 197.257 220.26 196.344 217.836 192.749L169.106 120.478Z"/>
</mask>
<path d="M169.106 120.478C165.71 115.441 167.024 108.574 172.25 105.476C176.174 103.15 180.182 100.966 184.264 98.9289C189.699 96.2163 196.183 98.8328 198.575 104.417L232.9 184.539C234.607 188.524 232.738 193.107 228.931 195.182C225.124 197.257 220.26 196.344 217.836 192.749L169.106 120.478Z" fill="#58AE00" stroke="white" stroke-width="10" mask="url(#path-2-inside-2)"/>
<mask id="path-3-inside-3" fill="white">
<path d="M416.386 168.974C421.433 165.592 428.296 166.927 431.379 172.161C444.636 194.671 453.111 219.718 456.225 245.736C459.775 275.4 456.255 305.483 445.951 333.525C435.647 361.568 418.852 386.774 396.941 407.082C377.722 424.893 355.046 438.494 330.369 447.066C324.63 449.059 318.535 445.633 316.879 439.788L293.968 358.957C292.311 353.112 295.747 347.097 301.323 344.685C309.963 340.947 317.932 335.761 324.876 329.326C334.517 320.391 341.906 309.3 346.44 296.961C350.974 284.623 352.523 271.386 350.961 258.334C349.836 248.934 347.12 239.822 342.955 231.38C340.268 225.932 341.544 219.123 346.591 215.741L416.386 168.974Z"/>
</mask>
<path d="M416.386 168.974C421.433 165.592 428.296 166.927 431.379 172.161C444.636 194.671 453.111 219.718 456.225 245.736C459.775 275.4 456.255 305.483 445.951 333.525C435.647 361.568 418.852 386.774 396.941 407.082C377.722 424.893 355.046 438.494 330.369 447.066C324.63 449.059 318.535 445.633 316.879 439.788L293.968 358.957C292.311 353.112 295.747 347.097 301.323 344.685C309.963 340.947 317.932 335.761 324.876 329.326C334.517 320.391 341.906 309.3 346.44 296.961C350.974 284.623 352.523 271.386 350.961 258.334C349.836 248.934 347.12 239.822 342.955 231.38C340.268 225.932 341.544 219.123 346.591 215.741L416.386 168.974Z" fill="#7BBBDF" stroke="white" stroke-width="10" mask="url(#path-3-inside-3)"/>
<mask id="path-4-inside-4" fill="white">
<path d="M320.403 438.678C322.188 444.485 318.932 450.672 313.031 452.117C273.996 461.672 232.823 458.576 195.524 443.113C158.224 427.65 126.937 400.708 106.111 366.337C102.963 361.141 105.04 354.465 110.41 351.624L184.672 312.332C190.041 309.491 196.642 311.595 200.165 316.544C209.185 329.213 221.621 339.168 236.123 345.18C250.624 351.191 266.456 352.955 281.794 350.383C287.785 349.379 293.938 352.562 295.723 358.369L320.403 438.678Z"/>
</mask>
<path d="M320.403 438.678C322.188 444.485 318.932 450.672 313.031 452.117C273.996 461.672 232.823 458.576 195.524 443.113C158.224 427.65 126.937 400.708 106.111 366.337C102.963 361.141 105.04 354.465 110.41 351.624L184.672 312.332C190.041 309.491 196.642 311.595 200.165 316.544C209.185 329.213 221.621 339.168 236.123 345.18C250.624 351.191 266.456 352.955 281.794 350.383C287.785 349.379 293.938 352.562 295.723 358.369L320.403 438.678Z" fill="#FFAC7D" stroke="white" stroke-width="10" mask="url(#path-4-inside-4)"/>
<mask id="path-5-inside-5" fill="white">
<path d="M112.344 355.108C107.042 358.075 100.308 356.194 97.654 350.729C80.0992 314.578 74.4633 273.676 81.732 233.957C89.0007 194.239 108.757 157.984 137.977 130.393C142.394 126.222 149.358 126.848 153.265 131.5L207.302 195.831C211.21 200.483 210.542 207.378 206.445 211.864C195.957 223.348 188.842 237.6 186.016 253.042C183.19 268.484 184.797 284.332 190.538 298.786C192.78 304.432 190.963 311.116 185.661 314.083L112.344 355.108Z"/>
</mask>
<path d="M112.344 355.108C107.042 358.075 100.308 356.194 97.654 350.729C80.0992 314.578 74.4633 273.676 81.732 233.957C89.0007 194.239 108.757 157.984 137.977 130.393C142.394 126.222 149.358 126.848 153.265 131.5L207.302 195.831C211.21 200.483 210.542 207.378 206.445 211.864C195.957 223.348 188.842 237.6 186.016 253.042C183.19 268.484 184.797 284.332 190.538 298.786C192.78 304.432 190.963 311.116 185.661 314.083L112.344 355.108Z" fill="#FFD541" stroke="white" stroke-width="10" mask="url(#path-5-inside-5)"/>
<mask id="path-6-inside-6" fill="white">
<path d="M308.689 94.5772C310.067 88.6604 315.992 84.9491 321.819 86.6681C345.281 93.5893 367.181 104.993 386.304 120.247C391.053 124.035 391.41 131.018 387.353 135.539L331.237 198.066C327.179 202.587 320.259 202.893 315.242 199.466C309.767 195.726 303.865 192.652 297.661 190.311C291.977 188.166 288.259 182.321 289.637 176.404L308.689 94.5772Z"/>
</mask>
<path d="M308.689 94.5772C310.067 88.6604 315.992 84.9491 321.819 86.6681C345.281 93.5893 367.181 104.993 386.304 120.247C391.053 124.035 391.41 131.018 387.353 135.539L331.237 198.066C327.179 202.587 320.259 202.893 315.242 199.466C309.767 195.726 303.865 192.652 297.661 190.311C291.977 188.166 288.259 182.321 289.637 176.404L308.689 94.5772Z" fill="#09CE95" stroke="white" stroke-width="10" mask="url(#path-6-inside-6)"/>
<mask id="path-7-inside-7" fill="white">
<path d="M382.233 131.107C386.116 126.435 393.076 125.773 397.515 129.921C406.649 138.457 414.915 147.877 422.192 158.042C425.728 162.982 424.167 169.797 419.03 173.04L347.989 217.893C342.852 221.137 336.11 219.544 332.219 214.879C331.329 213.812 330.412 212.767 329.47 211.746C325.35 207.281 324.646 200.39 328.53 195.718L382.233 131.107Z"/>
</mask>
<path d="M382.233 131.107C386.116 126.435 393.076 125.773 397.515 129.921C406.649 138.457 414.915 147.877 422.192 158.042C425.728 162.982 424.167 169.797 419.03 173.04L347.989 217.893C342.852 221.137 336.11 219.544 332.219 214.879C331.329 213.812 330.412 212.767 329.47 211.746C325.35 207.281 324.646 200.39 328.53 195.718L382.233 131.107Z" fill="#8096E3" stroke="white" stroke-width="12" mask="url(#path-7-inside-7)"/>
<mask id="path-8-inside-8" fill="white">
<path d="M196.141 105.157C193.684 99.6007 196.187 93.0727 201.876 90.9427C211.724 87.256 221.862 84.3961 232.184 82.3928C238.148 81.2354 243.693 85.4929 244.502 91.5139L255.692 174.781C256.502 180.802 252.246 186.268 246.384 187.862C245.885 187.998 245.387 188.139 244.89 188.284C239.059 189.988 232.574 187.552 230.117 181.996L196.141 105.157Z"/>
</mask>
<path d="M196.141 105.157C193.684 99.6007 196.187 93.0727 201.876 90.9427C211.724 87.256 221.862 84.3961 232.184 82.3928C238.148 81.2354 243.693 85.4929 244.502 91.5139L255.692 174.781C256.502 180.802 252.246 186.268 246.384 187.862C245.885 187.998 245.387 188.139 244.89 188.284C239.059 189.988 232.574 187.552 230.117 181.996L196.141 105.157Z" fill="#074223" stroke="white" stroke-width="10" mask="url(#path-8-inside-8)"/>
<mask id="path-9-inside-9" fill="white">
<path d="M244.021 91.5809C243.195 85.5621 247.405 79.9801 253.461 79.5054C269.891 78.2179 286.418 79.0811 302.624 82.0731C308.598 83.1761 312.203 89.1663 310.755 95.0663L290.729 176.66C289.281 182.56 283.322 186.092 277.282 185.433C274.166 185.093 271.033 184.93 267.898 184.943C261.823 184.969 256.264 180.836 255.438 174.817L244.021 91.5809Z"/>
</mask>
<path d="M244.021 91.5809C243.195 85.5621 247.405 79.9801 253.461 79.5054C269.891 78.2179 286.418 79.0811 302.624 82.0731C308.598 83.1761 312.203 89.1663 310.755 95.0663L290.729 176.66C289.281 182.56 283.322 186.092 277.282 185.433C274.166 185.093 271.033 184.93 267.898 184.943C261.823 184.969 256.264 180.836 255.438 174.817L244.021 91.5809Z" fill="#006450" stroke="white" stroke-width="10" mask="url(#path-9-inside-9)"/>
<path d="M133.502 255.075H123.822V252.635L128.202 248.795C128.949 248.142 129.496 247.555 129.842 247.035C130.189 246.502 130.362 245.929 130.362 245.315V245.055C130.362 244.442 130.162 243.975 129.762 243.655C129.362 243.322 128.876 243.155 128.302 243.155C127.582 243.155 127.036 243.362 126.662 243.775C126.289 244.175 126.022 244.662 125.862 245.235L123.582 244.355C123.729 243.889 123.936 243.449 124.202 243.035C124.469 242.609 124.802 242.235 125.202 241.915C125.616 241.595 126.096 241.342 126.642 241.155C127.189 240.969 127.816 240.875 128.522 240.875C129.256 240.875 129.909 240.982 130.482 241.195C131.056 241.395 131.536 241.682 131.922 242.055C132.322 242.429 132.622 242.869 132.822 243.375C133.036 243.882 133.142 244.435 133.142 245.035C133.142 245.622 133.049 246.155 132.862 246.635C132.676 247.115 132.422 247.575 132.102 248.015C131.782 248.442 131.409 248.855 130.982 249.255C130.556 249.642 130.102 250.035 129.622 250.435L126.682 252.855H133.502V255.075ZM140.375 255.315C139.481 255.315 138.708 255.155 138.055 254.835C137.401 254.502 136.861 254.029 136.435 253.415C136.008 252.802 135.688 252.049 135.475 251.155C135.275 250.262 135.175 249.242 135.175 248.095C135.175 246.962 135.275 245.949 135.475 245.055C135.688 244.149 136.008 243.389 136.435 242.775C136.861 242.162 137.401 241.695 138.055 241.375C138.708 241.042 139.481 240.875 140.375 240.875C142.148 240.875 143.455 241.509 144.295 242.775C145.148 244.042 145.575 245.815 145.575 248.095C145.575 250.375 145.148 252.149 144.295 253.415C143.455 254.682 142.148 255.315 140.375 255.315ZM140.375 253.095C141.268 253.095 141.888 252.762 142.235 252.095C142.595 251.415 142.775 250.502 142.775 249.355V246.835C142.775 245.689 142.595 244.782 142.235 244.115C141.888 243.435 141.268 243.095 140.375 243.095C139.481 243.095 138.855 243.435 138.495 244.115C138.148 244.782 137.975 245.689 137.975 246.835V249.355C137.975 250.502 138.148 251.415 138.495 252.095C138.855 252.762 139.481 253.095 140.375 253.095ZM149.767 255.075L159.447 241.115H161.767L152.087 255.075H149.767ZM150.727 248.795C149.593 248.795 148.727 248.462 148.127 247.795C147.54 247.115 147.247 246.129 147.247 244.835C147.247 243.542 147.54 242.562 148.127 241.895C148.727 241.215 149.593 240.875 150.727 240.875C151.86 240.875 152.72 241.215 153.307 241.895C153.893 242.562 154.187 243.542 154.187 244.835C154.187 246.129 153.893 247.115 153.307 247.795C152.72 248.462 151.86 248.795 150.727 248.795ZM150.727 247.275C151.553 247.275 151.967 246.642 151.967 245.375V244.295C151.967 243.029 151.553 242.395 150.727 242.395C149.9 242.395 149.487 243.029 149.487 244.295V245.375C149.487 246.642 149.9 247.275 150.727 247.275ZM160.807 255.315C159.687 255.315 158.827 254.982 158.227 254.315C157.64 253.635 157.347 252.649 157.347 251.355C157.347 250.062 157.64 249.082 158.227 248.415C158.827 247.735 159.687 247.395 160.807 247.395C161.94 247.395 162.8 247.735 163.387 248.415C163.987 249.082 164.287 250.062 164.287 251.355C164.287 252.649 163.987 253.635 163.387 254.315C162.8 254.982 161.94 255.315 160.807 255.315ZM160.807 253.795C161.633 253.795 162.047 253.162 162.047 251.895V250.815C162.047 249.549 161.633 248.915 160.807 248.915C159.98 248.915 159.567 249.549 159.567 250.815V251.895C159.567 253.162 159.98 253.795 160.807 253.795Z" fill="white"/>
<path d="M382.24 307.672C383.04 307.672 383.627 307.512 384 307.192C384.387 306.859 384.58 306.439 384.58 305.932V305.792C384.58 305.219 384.394 304.772 384.02 304.452C383.66 304.119 383.16 303.952 382.52 303.952C381.907 303.952 381.36 304.099 380.88 304.392C380.414 304.686 380.007 305.099 379.66 305.632L377.98 304.112C378.22 303.792 378.48 303.492 378.76 303.212C379.054 302.919 379.387 302.672 379.76 302.472C380.134 302.259 380.554 302.092 381.02 301.972C381.487 301.852 382.014 301.792 382.6 301.792C383.307 301.792 383.947 301.879 384.52 302.052C385.107 302.212 385.607 302.452 386.02 302.772C386.447 303.092 386.774 303.479 387 303.932C387.227 304.372 387.34 304.872 387.34 305.432C387.34 305.886 387.267 306.292 387.12 306.652C386.987 307.012 386.794 307.326 386.54 307.592C386.3 307.859 386.014 308.079 385.68 308.252C385.36 308.412 385.02 308.532 384.66 308.612V308.732C385.06 308.812 385.44 308.939 385.8 309.112C386.16 309.286 386.467 309.519 386.72 309.812C386.987 310.092 387.194 310.426 387.34 310.812C387.5 311.199 387.58 311.639 387.58 312.132C387.58 312.746 387.454 313.306 387.2 313.812C386.96 314.319 386.614 314.752 386.16 315.112C385.707 315.472 385.167 315.752 384.54 315.952C383.914 316.139 383.214 316.232 382.44 316.232C381.76 316.232 381.16 316.159 380.64 316.012C380.12 315.879 379.66 315.692 379.26 315.452C378.874 315.212 378.534 314.939 378.24 314.632C377.947 314.312 377.694 313.979 377.48 313.632L379.42 312.152C379.58 312.432 379.754 312.692 379.94 312.932C380.127 313.159 380.34 313.359 380.58 313.532C380.82 313.706 381.094 313.839 381.4 313.932C381.707 314.026 382.054 314.072 382.44 314.072C383.214 314.072 383.807 313.886 384.22 313.512C384.634 313.139 384.84 312.626 384.84 311.972V311.832C384.84 311.192 384.614 310.706 384.16 310.372C383.72 310.039 383.08 309.872 382.24 309.872H380.86V307.672H382.24ZM394.792 316.232C393.899 316.232 393.126 316.072 392.472 315.752C391.819 315.419 391.279 314.946 390.852 314.332C390.426 313.719 390.106 312.966 389.892 312.072C389.692 311.179 389.592 310.159 389.592 309.012C389.592 307.879 389.692 306.866 389.892 305.972C390.106 305.066 390.426 304.306 390.852 303.692C391.279 303.079 391.819 302.612 392.472 302.292C393.126 301.959 393.899 301.792 394.792 301.792C396.566 301.792 397.872 302.426 398.712 303.692C399.566 304.959 399.992 306.732 399.992 309.012C399.992 311.292 399.566 313.066 398.712 314.332C397.872 315.599 396.566 316.232 394.792 316.232ZM394.792 314.012C395.686 314.012 396.306 313.679 396.652 313.012C397.012 312.332 397.192 311.419 397.192 310.272V307.752C397.192 306.606 397.012 305.699 396.652 305.032C396.306 304.352 395.686 304.012 394.792 304.012C393.899 304.012 393.272 304.352 392.912 305.032C392.566 305.699 392.392 306.606 392.392 307.752V310.272C392.392 311.419 392.566 312.332 392.912 313.012C393.272 313.679 393.899 314.012 394.792 314.012ZM404.185 315.992L413.865 302.032H416.185L406.505 315.992H404.185ZM405.145 309.712C404.011 309.712 403.145 309.379 402.545 308.712C401.958 308.032 401.665 307.046 401.665 305.752C401.665 304.459 401.958 303.479 402.545 302.812C403.145 302.132 404.011 301.792 405.145 301.792C406.278 301.792 407.138 302.132 407.725 302.812C408.311 303.479 408.605 304.459 408.605 305.752C408.605 307.046 408.311 308.032 407.725 308.712C407.138 309.379 406.278 309.712 405.145 309.712ZM405.145 308.192C405.971 308.192 406.385 307.559 406.385 306.292V305.212C406.385 303.946 405.971 303.312 405.145 303.312C404.318 303.312 403.905 303.946 403.905 305.212V306.292C403.905 307.559 404.318 308.192 405.145 308.192ZM415.225 316.232C414.105 316.232 413.245 315.899 412.645 315.232C412.058 314.552 411.765 313.566 411.765 312.272C411.765 310.979 412.058 309.999 412.645 309.332C413.245 308.652 414.105 308.312 415.225 308.312C416.358 308.312 417.218 308.652 417.805 309.332C418.405 309.999 418.705 310.979 418.705 312.272C418.705 313.566 418.405 314.552 417.805 315.232C417.218 315.899 416.358 316.232 415.225 316.232ZM415.225 314.712C416.051 314.712 416.465 314.079 416.465 312.812V311.732C416.465 310.466 416.051 309.832 415.225 309.832C414.398 309.832 413.985 310.466 413.985 311.732V312.812C413.985 314.079 414.398 314.712 415.225 314.712Z" fill="white"/>
<path d="M328 149.24C327.187 149.24 326.46 149.14 325.82 148.94C325.193 148.727 324.66 148.44 324.22 148.08C323.793 147.72 323.467 147.293 323.24 146.8C323.013 146.307 322.9 145.767 322.9 145.18C322.9 144.273 323.147 143.54 323.64 142.98C324.147 142.407 324.82 142.007 325.66 141.78V141.62C324.967 141.367 324.4 140.973 323.96 140.44C323.533 139.907 323.32 139.233 323.32 138.42C323.32 137.887 323.42 137.4 323.62 136.96C323.833 136.52 324.14 136.14 324.54 135.82C324.94 135.5 325.427 135.253 326 135.08C326.587 134.893 327.253 134.8 328 134.8C328.747 134.8 329.407 134.893 329.98 135.08C330.567 135.253 331.06 135.5 331.46 135.82C331.86 136.14 332.16 136.52 332.36 136.96C332.573 137.4 332.68 137.887 332.68 138.42C332.68 139.233 332.46 139.907 332.02 140.44C331.593 140.973 331.033 141.367 330.34 141.62V141.78C331.18 142.007 331.847 142.407 332.34 142.98C332.847 143.54 333.1 144.273 333.1 145.18C333.1 145.767 332.987 146.307 332.76 146.8C332.533 147.293 332.2 147.72 331.76 148.08C331.333 148.44 330.8 148.727 330.16 148.94C329.533 149.14 328.813 149.24 328 149.24ZM328 147.18C328.76 147.18 329.34 147.007 329.74 146.66C330.153 146.313 330.36 145.827 330.36 145.2V144.78C330.36 144.153 330.153 143.667 329.74 143.32C329.34 142.973 328.76 142.8 328 142.8C327.24 142.8 326.653 142.973 326.24 143.32C325.84 143.667 325.64 144.153 325.64 144.78V145.2C325.64 145.827 325.84 146.313 326.24 146.66C326.653 147.007 327.24 147.18 328 147.18ZM328 140.84C328.707 140.84 329.247 140.68 329.62 140.36C329.993 140.04 330.18 139.587 330.18 139V138.68C330.18 138.107 329.993 137.66 329.62 137.34C329.247 137.02 328.707 136.86 328 136.86C327.293 136.86 326.753 137.02 326.38 137.34C326.007 137.66 325.82 138.107 325.82 138.68V139C325.82 139.587 326.007 140.04 326.38 140.36C326.753 140.68 327.293 140.84 328 140.84ZM337.392 149L347.072 135.04H349.392L339.712 149H337.392ZM338.352 142.72C337.219 142.72 336.352 142.387 335.752 141.72C335.166 141.04 334.872 140.053 334.872 138.76C334.872 137.467 335.166 136.487 335.752 135.82C336.352 135.14 337.219 134.8 338.352 134.8C339.486 134.8 340.346 135.14 340.932 135.82C341.519 136.487 341.812 137.467 341.812 138.76C341.812 140.053 341.519 141.04 340.932 141.72C340.346 142.387 339.486 142.72 338.352 142.72ZM338.352 141.2C339.179 141.2 339.592 140.567 339.592 139.3V138.22C339.592 136.953 339.179 136.32 338.352 136.32C337.526 136.32 337.112 136.953 337.112 138.22V139.3C337.112 140.567 337.526 141.2 338.352 141.2ZM348.432 149.24C347.312 149.24 346.452 148.907 345.852 148.24C345.266 147.56 344.972 146.573 344.972 145.28C344.972 143.987 345.266 143.007 345.852 142.34C346.452 141.66 347.312 141.32 348.432 141.32C349.566 141.32 350.426 141.66 351.012 142.34C351.612 143.007 351.912 143.987 351.912 145.28C351.912 146.573 351.612 147.56 351.012 148.24C350.426 148.907 349.566 149.24 348.432 149.24ZM348.432 147.72C349.259 147.72 349.672 147.087 349.672 145.82V144.74C349.672 143.473 349.259 142.84 348.432 142.84C347.606 142.84 347.192 143.473 347.192 144.74V145.82C347.192 147.087 347.606 147.72 348.432 147.72Z" fill="white"/>
<path d="M211.351 387.182H201.671V384.742L206.051 380.902C206.797 380.248 207.344 379.662 207.691 379.142C208.037 378.608 208.211 378.035 208.211 377.422V377.162C208.211 376.548 208.011 376.082 207.611 375.762C207.211 375.428 206.724 375.262 206.151 375.262C205.431 375.262 204.884 375.468 204.511 375.882C204.137 376.282 203.871 376.768 203.711 377.342L201.431 376.462C201.577 375.995 201.784 375.555 202.051 375.142C202.317 374.715 202.651 374.342 203.051 374.022C203.464 373.702 203.944 373.448 204.491 373.262C205.037 373.075 205.664 372.982 206.371 372.982C207.104 372.982 207.757 373.088 208.331 373.302C208.904 373.502 209.384 373.788 209.771 374.162C210.171 374.535 210.471 374.975 210.671 375.482C210.884 375.988 210.991 376.542 210.991 377.142C210.991 377.728 210.897 378.262 210.711 378.742C210.524 379.222 210.271 379.682 209.951 380.122C209.631 380.548 209.257 380.962 208.831 381.362C208.404 381.748 207.951 382.142 207.471 382.542L204.531 384.962H211.351V387.182ZM223.143 387.182H213.463V384.742L217.843 380.902C218.59 380.248 219.136 379.662 219.483 379.142C219.83 378.608 220.003 378.035 220.003 377.422V377.162C220.003 376.548 219.803 376.082 219.403 375.762C219.003 375.428 218.516 375.262 217.943 375.262C217.223 375.262 216.676 375.468 216.303 375.882C215.93 376.282 215.663 376.768 215.503 377.342L213.223 376.462C213.37 375.995 213.576 375.555 213.843 375.142C214.11 374.715 214.443 374.342 214.843 374.022C215.256 373.702 215.736 373.448 216.283 373.262C216.83 373.075 217.456 372.982 218.163 372.982C218.896 372.982 219.55 373.088 220.123 373.302C220.696 373.502 221.176 373.788 221.563 374.162C221.963 374.535 222.263 374.975 222.463 375.482C222.676 375.988 222.783 376.542 222.783 377.142C222.783 377.728 222.69 378.262 222.503 378.742C222.316 379.222 222.063 379.682 221.743 380.122C221.423 380.548 221.05 380.962 220.623 381.362C220.196 381.748 219.743 382.142 219.263 382.542L216.323 384.962H223.143V387.182ZM227.615 387.182L237.295 373.222H239.615L229.935 387.182H227.615ZM228.575 380.902C227.442 380.902 226.575 380.568 225.975 379.902C225.388 379.222 225.095 378.235 225.095 376.942C225.095 375.648 225.388 374.668 225.975 374.002C226.575 373.322 227.442 372.982 228.575 372.982C229.708 372.982 230.568 373.322 231.155 374.002C231.742 374.668 232.035 375.648 232.035 376.942C232.035 378.235 231.742 379.222 231.155 379.902C230.568 380.568 229.708 380.902 228.575 380.902ZM228.575 379.382C229.402 379.382 229.815 378.748 229.815 377.482V376.402C229.815 375.135 229.402 374.502 228.575 374.502C227.748 374.502 227.335 375.135 227.335 376.402V377.482C227.335 378.748 227.748 379.382 228.575 379.382ZM238.655 387.422C237.535 387.422 236.675 387.088 236.075 386.422C235.488 385.742 235.195 384.755 235.195 383.462C235.195 382.168 235.488 381.188 236.075 380.522C236.675 379.842 237.535 379.502 238.655 379.502C239.788 379.502 240.648 379.842 241.235 380.522C241.835 381.188 242.135 382.168 242.135 383.462C242.135 384.755 241.835 385.742 241.235 386.422C240.648 387.088 239.788 387.422 238.655 387.422ZM238.655 385.902C239.482 385.902 239.895 385.268 239.895 384.002V382.922C239.895 381.655 239.482 381.022 238.655 381.022C237.828 381.022 237.415 381.655 237.415 382.922V384.002C237.415 385.268 237.828 385.902 238.655 385.902Z" fill="white"/>
</svg>